%
M48
M72
T01C0.0150
T02C0.0315
T03C0.0400
T04C0.1300
%
T01
X13833Y10000
X15183Y11150
X14833Y11500
X15683Y11800
X16133Y11800
X15833Y11000
X17333Y10500
X17833Y10500
X18333Y10500
X18833Y10500
X20333Y11500
X19333Y11600
X19633Y13200
X19083Y13750
X17999Y14465
X19433Y15000
X19083Y15500
X18333Y15500
X15833Y15000
X15483Y15700
X15133Y16100
X15333Y16500
X13483Y16100
X13833Y14000
X16999Y13465
X13333Y11500
X19833Y9000
X20833Y9800
X19333Y17000
X17583Y17000
T02
X18335Y13850
X14831Y13850
T03
X13833Y6500
X14833Y6500
X15833Y6500
X16833Y6500
X17833Y6500
X18833Y6500
X19833Y6500
T04
X20833Y8000
X20833Y16500
M30
