G75*
%MOIN*%
%OFA0B0*%
%FSLAX25Y25*%
%IPPOS*%
%LPD*%
%AMOC8*
5,1,8,0,0,1.08239X$1,22.5*
%
%ADD10C,0.01000*%
%ADD11R,0.00157X0.13071*%
%ADD12R,0.00157X0.02205*%
%ADD13R,0.00157X0.02835*%
%ADD14R,0.00157X0.07717*%
%ADD15R,0.00157X0.01890*%
%ADD16R,0.00157X0.02520*%
%ADD17R,0.00157X0.00630*%
%ADD18R,0.00157X0.01732*%
%ADD19R,0.00157X0.00472*%
%ADD20R,0.00157X0.01575*%
%ADD21R,0.00157X0.01417*%
%ADD22R,0.00157X0.01260*%
%ADD23R,0.00157X0.01102*%
%ADD24R,0.00157X0.02047*%
%ADD25R,0.00157X0.00787*%
%ADD26R,0.00157X0.00945*%
%ADD27R,0.00157X0.02362*%
%ADD28R,0.00157X0.00157*%
%ADD29R,0.00157X0.00315*%
%ADD30R,0.00157X0.02677*%
%ADD31R,0.00157X0.02992*%
%ADD32R,0.00157X0.03150*%
%ADD33R,0.00157X0.03307*%
%ADD34R,0.00157X0.03465*%
%ADD35R,0.00157X0.15276*%
%ADD36R,0.00157X0.11024*%
%ADD37R,0.00157X0.07874*%
%ADD38R,0.00157X0.08031*%
%ADD39R,0.00157X0.08346*%
%ADD40R,0.00157X0.08504*%
%ADD41R,0.00157X0.09606*%
%ADD42R,0.00157X0.09764*%
%ADD43R,0.00157X0.09921*%
%ADD44R,0.00157X0.10079*%
%ADD45R,0.00157X0.03622*%
%ADD46R,0.00157X0.04882*%
%ADD47R,0.00157X0.04724*%
%ADD48R,0.00157X0.04252*%
%ADD49R,0.00157X0.03780*%
%ADD50R,0.00157X0.08661*%
%ADD51R,0.00157X0.11181*%
%ADD52R,0.00157X0.11496*%
%ADD53R,0.00157X0.11654*%
%ADD54R,0.00157X0.07559*%
%ADD55R,0.00157X0.07244*%
%ADD56R,0.00157X0.12756*%
%ADD57R,0.00157X0.12913*%
%ADD58R,0.00157X0.06614*%
%ADD59R,0.00157X0.06142*%
%ADD60R,0.00157X0.05197*%
%ADD61R,0.00157X0.05354*%
%ADD62R,0.00157X0.05039*%
%ADD63R,0.00157X0.04567*%
%ADD64R,0.00157X0.60630*%
%ADD65R,0.00157X0.06929*%
%ADD66R,0.00157X0.08189*%
%ADD67R,0.00157X0.33386*%
%ADD68R,0.00157X0.03937*%
%ADD69R,0.00157X0.04409*%
%ADD70R,0.00157X0.04094*%
%ADD71R,0.00157X0.13228*%
%ADD72R,0.00157X0.11811*%
%ADD73R,0.00157X0.16378*%
%ADD74R,0.00157X0.16850*%
%ADD75R,0.00157X0.17165*%
%ADD76R,0.00157X0.17480*%
%ADD77R,0.00157X0.17638*%
%ADD78R,0.00157X0.17795*%
%ADD79R,0.00157X0.17953*%
D10*
X0184533Y0118500D03*
D11*
X0189593Y0075213D03*
X0159593Y0074555D03*
X0151483Y0074583D03*
X0151325Y0074583D03*
X0151168Y0074583D03*
X0151010Y0074583D03*
X0150853Y0074583D03*
X0150696Y0074583D03*
X0150538Y0074583D03*
X0146129Y0074583D03*
X0145971Y0074583D03*
X0145814Y0074583D03*
X0145656Y0074583D03*
X0145499Y0074583D03*
X0145341Y0074583D03*
X0145184Y0074583D03*
D12*
X0146286Y0073244D03*
X0149908Y0071827D03*
X0150066Y0071827D03*
X0150381Y0069150D03*
X0148806Y0069150D03*
X0148648Y0069150D03*
X0139751Y0068992D03*
X0139593Y0068992D03*
X0136916Y0068992D03*
X0136916Y0082063D03*
X0139593Y0082063D03*
X0168018Y0076709D03*
X0168176Y0076709D03*
X0168333Y0076709D03*
X0168491Y0076709D03*
X0170223Y0078598D03*
X0180223Y0073244D03*
X0178963Y0071984D03*
X0180066Y0069150D03*
X0176444Y0069150D03*
X0186286Y0075764D03*
X0188963Y0073874D03*
X0195971Y0076394D03*
X0196601Y0077024D03*
X0196759Y0077181D03*
X0200066Y0077024D03*
X0198176Y0072457D03*
X0198963Y0069780D03*
X0196286Y0069780D03*
X0186601Y0080173D03*
X0211837Y0103720D03*
X0214042Y0103563D03*
X0214199Y0103563D03*
X0213885Y0120413D03*
X0213570Y0123406D03*
X0212152Y0125138D03*
X0211995Y0125138D03*
X0211837Y0125138D03*
X0213570Y0133169D03*
X0212152Y0134902D03*
X0211995Y0134902D03*
X0211522Y0138209D03*
X0211365Y0138209D03*
X0214514Y0138209D03*
X0214672Y0138209D03*
X0214199Y0142933D03*
X0214042Y0142933D03*
X0213570Y0145925D03*
D13*
X0211050Y0138366D03*
X0211207Y0134744D03*
X0211207Y0124980D03*
X0211522Y0120098D03*
X0211365Y0103720D03*
X0214672Y0103720D03*
X0213885Y0098051D03*
X0186916Y0080173D03*
X0185971Y0075921D03*
X0178963Y0075606D03*
X0178806Y0075606D03*
X0177703Y0075606D03*
X0176601Y0084898D03*
X0180066Y0084898D03*
X0170066Y0084898D03*
X0166601Y0084898D03*
X0166444Y0084898D03*
X0166286Y0084740D03*
X0155971Y0078571D03*
X0158333Y0074949D03*
X0150381Y0071827D03*
X0147546Y0069465D03*
X0147388Y0069465D03*
X0139121Y0072299D03*
X0136444Y0069307D03*
X0136444Y0081748D03*
X0195971Y0070094D03*
X0199278Y0070094D03*
X0197703Y0072457D03*
D14*
X0150381Y0077260D03*
D15*
X0146286Y0077496D03*
X0146286Y0080173D03*
X0150223Y0080173D03*
X0160381Y0079358D03*
X0167861Y0079701D03*
X0167861Y0076709D03*
X0167703Y0076709D03*
X0168648Y0076709D03*
X0168806Y0076709D03*
X0169751Y0071984D03*
X0170223Y0068992D03*
X0166444Y0068992D03*
X0166286Y0068992D03*
X0159278Y0068965D03*
X0159121Y0068965D03*
X0158963Y0068965D03*
X0158806Y0068965D03*
X0158648Y0068965D03*
X0158491Y0068965D03*
X0158333Y0068965D03*
X0158176Y0068965D03*
X0158018Y0068965D03*
X0157861Y0068965D03*
X0157703Y0068965D03*
X0157546Y0068965D03*
X0157388Y0068965D03*
X0157231Y0068965D03*
X0157073Y0068965D03*
X0156916Y0068965D03*
X0156759Y0068965D03*
X0156601Y0068965D03*
X0156444Y0068965D03*
X0156286Y0068965D03*
X0156129Y0068965D03*
X0155971Y0068965D03*
X0150223Y0068992D03*
X0149436Y0068992D03*
X0149278Y0068992D03*
X0149593Y0071827D03*
X0149751Y0071827D03*
X0146916Y0073402D03*
X0146759Y0073402D03*
X0140223Y0075606D03*
X0136286Y0075606D03*
X0137388Y0082220D03*
X0137546Y0082220D03*
X0139121Y0082220D03*
X0139278Y0082220D03*
X0139278Y0068835D03*
X0139121Y0068835D03*
X0138963Y0068835D03*
X0137703Y0068835D03*
X0137546Y0068835D03*
X0137388Y0068835D03*
X0176759Y0068992D03*
X0177388Y0068992D03*
X0178648Y0068992D03*
X0178806Y0068992D03*
X0179593Y0068992D03*
X0179751Y0068992D03*
X0178806Y0072142D03*
X0185971Y0069622D03*
X0189278Y0069622D03*
X0196601Y0069622D03*
X0196759Y0069622D03*
X0198491Y0069622D03*
X0198648Y0069622D03*
X0200223Y0077024D03*
X0186601Y0075606D03*
X0186444Y0075606D03*
X0186129Y0079858D03*
X0186286Y0080016D03*
X0211050Y0090965D03*
X0211207Y0090965D03*
X0214987Y0090965D03*
X0211050Y0095689D03*
X0212940Y0103406D03*
X0213097Y0103406D03*
X0212625Y0103563D03*
X0212467Y0103563D03*
X0212310Y0103563D03*
X0212152Y0103563D03*
X0213885Y0103563D03*
X0213570Y0106398D03*
X0212467Y0106398D03*
X0211050Y0108130D03*
X0212310Y0120256D03*
X0212467Y0120256D03*
X0212625Y0120256D03*
X0213885Y0123563D03*
X0213885Y0133327D03*
X0213885Y0138051D03*
X0214042Y0138051D03*
X0213727Y0138051D03*
X0213570Y0138051D03*
X0212467Y0138051D03*
X0212310Y0138051D03*
X0212152Y0138051D03*
X0211995Y0138051D03*
X0213727Y0142933D03*
X0213885Y0142933D03*
X0213727Y0145925D03*
X0213570Y0149705D03*
X0213412Y0149705D03*
X0213255Y0149705D03*
D16*
X0211207Y0138209D03*
X0211365Y0134744D03*
X0211522Y0134744D03*
X0211365Y0124980D03*
X0211680Y0120098D03*
X0214199Y0120413D03*
X0211522Y0103720D03*
X0186759Y0080173D03*
X0186129Y0075764D03*
X0189121Y0073874D03*
X0197073Y0077339D03*
X0197861Y0072457D03*
X0198018Y0072457D03*
X0199121Y0069937D03*
X0196129Y0069937D03*
X0179121Y0071984D03*
X0176286Y0069307D03*
X0150223Y0071827D03*
X0148176Y0069307D03*
X0148018Y0069307D03*
X0139908Y0069150D03*
X0136601Y0069150D03*
X0136601Y0081906D03*
X0139908Y0081906D03*
D17*
X0137231Y0079228D03*
X0136444Y0077654D03*
X0138806Y0076079D03*
X0137703Y0075134D03*
X0138648Y0073402D03*
X0139436Y0073402D03*
X0139593Y0073402D03*
X0139751Y0073402D03*
X0139908Y0073402D03*
X0136601Y0073402D03*
X0140223Y0077654D03*
X0147703Y0077024D03*
X0147861Y0077024D03*
X0148648Y0078126D03*
X0150223Y0075449D03*
X0150223Y0074031D03*
X0149436Y0074031D03*
X0149278Y0074031D03*
X0148333Y0071827D03*
X0148176Y0071827D03*
X0156916Y0072587D03*
X0157703Y0072744D03*
X0158806Y0072587D03*
X0159278Y0074949D03*
X0167073Y0074661D03*
X0167231Y0074661D03*
X0167703Y0072929D03*
X0167703Y0071197D03*
X0169436Y0074661D03*
X0168963Y0078913D03*
X0168491Y0079071D03*
X0168333Y0079071D03*
X0167388Y0078913D03*
X0167231Y0078756D03*
X0167073Y0078756D03*
X0166916Y0082220D03*
X0166759Y0082220D03*
X0168018Y0082220D03*
X0168176Y0082220D03*
X0176286Y0080173D03*
X0177073Y0081591D03*
X0179436Y0081591D03*
X0179278Y0076709D03*
X0177231Y0076709D03*
X0176601Y0076709D03*
X0177231Y0073087D03*
X0178333Y0072772D03*
X0179436Y0071197D03*
X0186759Y0071669D03*
X0188491Y0071669D03*
X0198333Y0073244D03*
X0198491Y0074819D03*
X0188491Y0077969D03*
X0212310Y0095059D03*
X0214042Y0095217D03*
X0214199Y0095217D03*
X0214514Y0099154D03*
X0213412Y0099154D03*
X0213255Y0099154D03*
X0213097Y0099154D03*
X0211680Y0099154D03*
X0211522Y0099154D03*
X0212782Y0100728D03*
X0212310Y0108602D03*
X0212152Y0108602D03*
X0211995Y0108602D03*
X0213885Y0108602D03*
X0214042Y0108602D03*
X0211050Y0112067D03*
X0214199Y0115531D03*
X0212467Y0122618D03*
X0212940Y0124035D03*
X0213885Y0125925D03*
X0214042Y0125925D03*
X0214199Y0125925D03*
X0214357Y0125925D03*
X0213885Y0127657D03*
X0212940Y0127657D03*
X0211995Y0127657D03*
X0211207Y0127500D03*
X0211995Y0130650D03*
X0211365Y0130965D03*
X0212940Y0130650D03*
X0213727Y0130807D03*
X0212467Y0132382D03*
X0212940Y0133799D03*
X0213885Y0135689D03*
X0214042Y0135689D03*
X0214199Y0135689D03*
X0214357Y0135689D03*
X0211995Y0140413D03*
X0211680Y0141988D03*
X0211522Y0141988D03*
X0211995Y0143406D03*
X0211680Y0143563D03*
X0211365Y0143720D03*
X0212467Y0145138D03*
X0214199Y0146555D03*
D18*
X0213885Y0146004D03*
X0213570Y0142854D03*
X0213412Y0142854D03*
X0213255Y0142854D03*
X0213097Y0142854D03*
X0212940Y0142854D03*
X0212782Y0142854D03*
X0212467Y0142854D03*
X0212310Y0142854D03*
X0212152Y0142854D03*
X0212625Y0137972D03*
X0212782Y0137972D03*
X0212940Y0137972D03*
X0213097Y0137972D03*
X0213255Y0137972D03*
X0213412Y0137972D03*
X0213727Y0149783D03*
X0213885Y0149783D03*
X0214042Y0149783D03*
X0214199Y0149783D03*
X0214357Y0149783D03*
X0214514Y0149783D03*
X0214672Y0149783D03*
X0214829Y0149783D03*
X0214987Y0149783D03*
X0213412Y0120335D03*
X0213255Y0120335D03*
X0213097Y0120335D03*
X0212940Y0120335D03*
X0212782Y0120335D03*
X0212310Y0106476D03*
X0213727Y0106476D03*
X0212782Y0103484D03*
X0214829Y0095295D03*
X0214829Y0090886D03*
X0214672Y0090886D03*
X0214514Y0090886D03*
X0214357Y0090886D03*
X0214199Y0090886D03*
X0214042Y0090886D03*
X0213885Y0090886D03*
X0213727Y0090886D03*
X0213570Y0090886D03*
X0213412Y0090886D03*
X0213255Y0090886D03*
X0213097Y0090886D03*
X0212940Y0090886D03*
X0212782Y0090886D03*
X0212625Y0090886D03*
X0212467Y0090886D03*
X0212310Y0090886D03*
X0212152Y0090886D03*
X0211995Y0090886D03*
X0211837Y0090886D03*
X0211680Y0090886D03*
X0211522Y0090886D03*
X0211365Y0090886D03*
X0190381Y0080094D03*
X0188648Y0073953D03*
X0188648Y0069543D03*
X0188491Y0069543D03*
X0188333Y0069543D03*
X0188176Y0069543D03*
X0188018Y0069543D03*
X0187861Y0069543D03*
X0187703Y0069543D03*
X0187546Y0069543D03*
X0187388Y0069543D03*
X0187231Y0069543D03*
X0187073Y0069543D03*
X0186916Y0069543D03*
X0186759Y0069543D03*
X0186601Y0069543D03*
X0186444Y0069543D03*
X0186286Y0069543D03*
X0186129Y0069543D03*
X0188806Y0069543D03*
X0188963Y0069543D03*
X0189121Y0069543D03*
X0196916Y0069543D03*
X0197073Y0069543D03*
X0197231Y0069543D03*
X0198018Y0069543D03*
X0198176Y0069543D03*
X0198333Y0069543D03*
X0200381Y0076945D03*
X0180066Y0073165D03*
X0179436Y0068913D03*
X0179278Y0068913D03*
X0179121Y0068913D03*
X0178963Y0068913D03*
X0177231Y0068913D03*
X0177073Y0068913D03*
X0176916Y0068913D03*
X0170066Y0068913D03*
X0169908Y0068913D03*
X0169751Y0068913D03*
X0169593Y0068913D03*
X0169436Y0068913D03*
X0169278Y0068913D03*
X0169121Y0068913D03*
X0168963Y0068913D03*
X0168806Y0068913D03*
X0168648Y0068913D03*
X0168491Y0068913D03*
X0168333Y0068913D03*
X0168176Y0068913D03*
X0168018Y0068913D03*
X0167861Y0068913D03*
X0167703Y0068913D03*
X0167546Y0068913D03*
X0167388Y0068913D03*
X0167231Y0068913D03*
X0167073Y0068913D03*
X0166916Y0068913D03*
X0166759Y0068913D03*
X0166601Y0068913D03*
X0160853Y0068886D03*
X0160066Y0068886D03*
X0159278Y0072508D03*
X0157861Y0075500D03*
X0150223Y0077575D03*
X0150066Y0077575D03*
X0150066Y0080252D03*
X0149908Y0080252D03*
X0149751Y0080252D03*
X0149593Y0080252D03*
X0149436Y0080252D03*
X0149278Y0080252D03*
X0149121Y0080252D03*
X0148963Y0080252D03*
X0148806Y0080252D03*
X0148648Y0080252D03*
X0148491Y0080252D03*
X0148333Y0080252D03*
X0148176Y0080252D03*
X0148018Y0080252D03*
X0147861Y0080252D03*
X0147703Y0080252D03*
X0147546Y0080252D03*
X0147388Y0080252D03*
X0147231Y0080252D03*
X0147073Y0080252D03*
X0146916Y0080252D03*
X0146759Y0080252D03*
X0146601Y0080252D03*
X0146444Y0080252D03*
X0138963Y0082299D03*
X0138806Y0082299D03*
X0138648Y0082299D03*
X0138491Y0082299D03*
X0138333Y0082299D03*
X0138176Y0082299D03*
X0138018Y0082299D03*
X0137861Y0082299D03*
X0137703Y0082299D03*
X0136444Y0075528D03*
X0137861Y0068756D03*
X0138018Y0068756D03*
X0138176Y0068756D03*
X0138333Y0068756D03*
X0138491Y0068756D03*
X0138648Y0068756D03*
X0138806Y0068756D03*
X0147073Y0073480D03*
X0147231Y0073480D03*
X0149436Y0071748D03*
X0149593Y0068913D03*
X0149751Y0068913D03*
X0150066Y0068913D03*
X0166286Y0075055D03*
X0170223Y0075055D03*
X0169593Y0072063D03*
X0170066Y0078677D03*
X0166444Y0078677D03*
X0160538Y0079280D03*
D19*
X0167073Y0082299D03*
X0167231Y0082299D03*
X0167388Y0082299D03*
X0167546Y0082299D03*
X0167703Y0082299D03*
X0167861Y0082299D03*
X0169436Y0080567D03*
X0168806Y0078992D03*
X0168648Y0078992D03*
X0169121Y0078835D03*
X0169278Y0078835D03*
X0169278Y0074583D03*
X0169121Y0074583D03*
X0168963Y0074583D03*
X0167546Y0074583D03*
X0167388Y0074583D03*
X0167861Y0073008D03*
X0168018Y0073008D03*
X0168806Y0072063D03*
X0167861Y0071118D03*
X0177388Y0073008D03*
X0177546Y0073008D03*
X0178018Y0072850D03*
X0178176Y0072850D03*
X0177073Y0076787D03*
X0176916Y0076787D03*
X0176759Y0076787D03*
X0179436Y0076787D03*
X0179593Y0076787D03*
X0179751Y0076787D03*
X0179908Y0076787D03*
X0176916Y0080094D03*
X0176759Y0080094D03*
X0176601Y0080094D03*
X0176444Y0080094D03*
X0177231Y0081512D03*
X0177388Y0081512D03*
X0179278Y0081512D03*
X0196286Y0073480D03*
X0196759Y0073323D03*
X0198491Y0073323D03*
X0198806Y0073480D03*
X0198963Y0073480D03*
X0212782Y0094980D03*
X0212782Y0099232D03*
X0212625Y0099232D03*
X0212467Y0099232D03*
X0212310Y0099232D03*
X0212152Y0099232D03*
X0211995Y0099232D03*
X0211837Y0099232D03*
X0212940Y0099232D03*
X0212940Y0100650D03*
X0213097Y0100650D03*
X0213255Y0100650D03*
X0213412Y0100650D03*
X0213412Y0108681D03*
X0213255Y0108681D03*
X0213097Y0108681D03*
X0212940Y0108681D03*
X0212782Y0108681D03*
X0212625Y0108681D03*
X0212467Y0108681D03*
X0213570Y0108681D03*
X0213727Y0108681D03*
X0211680Y0111988D03*
X0211522Y0111988D03*
X0211365Y0111988D03*
X0211207Y0111988D03*
X0211207Y0115610D03*
X0211365Y0115610D03*
X0211522Y0115610D03*
X0211680Y0115610D03*
X0211837Y0115610D03*
X0214357Y0115610D03*
X0214514Y0115610D03*
X0214672Y0115610D03*
X0214829Y0115610D03*
X0214987Y0115610D03*
X0214829Y0126004D03*
X0214672Y0126004D03*
X0214514Y0126004D03*
X0213727Y0127579D03*
X0213097Y0127579D03*
X0211837Y0127579D03*
X0211522Y0129154D03*
X0211837Y0130728D03*
X0211680Y0130886D03*
X0211522Y0130886D03*
X0213097Y0130728D03*
X0213412Y0129154D03*
X0214514Y0135768D03*
X0214672Y0135768D03*
X0214829Y0135768D03*
X0211837Y0142067D03*
X0211837Y0143484D03*
X0211522Y0143642D03*
X0214357Y0146634D03*
X0214514Y0146634D03*
X0214672Y0146634D03*
X0214829Y0146634D03*
X0214987Y0146634D03*
X0214987Y0147894D03*
X0214829Y0147894D03*
X0214672Y0147894D03*
X0214514Y0147894D03*
X0214357Y0147894D03*
X0214199Y0147894D03*
X0214042Y0147894D03*
X0213885Y0147894D03*
X0213727Y0147894D03*
X0148491Y0078205D03*
X0148018Y0076945D03*
X0148018Y0075528D03*
X0147861Y0075528D03*
X0147703Y0075528D03*
X0147546Y0075528D03*
X0147388Y0075528D03*
X0147231Y0075528D03*
X0147073Y0075528D03*
X0146916Y0075528D03*
X0146759Y0075528D03*
X0146601Y0075528D03*
X0146444Y0075528D03*
X0148176Y0075528D03*
X0148333Y0075528D03*
X0148491Y0075528D03*
X0148648Y0075528D03*
X0148806Y0075528D03*
X0148963Y0075528D03*
X0149121Y0075528D03*
X0149278Y0075528D03*
X0149436Y0075528D03*
X0149593Y0075528D03*
X0149751Y0075528D03*
X0149908Y0075528D03*
X0150066Y0075528D03*
X0150066Y0074110D03*
X0149908Y0074110D03*
X0149751Y0074110D03*
X0149593Y0074110D03*
X0156129Y0072823D03*
X0157861Y0072665D03*
X0140066Y0077575D03*
X0139908Y0077575D03*
X0139751Y0077575D03*
X0139593Y0077575D03*
X0139436Y0077575D03*
X0139278Y0077575D03*
X0139121Y0077575D03*
X0138963Y0077575D03*
X0138806Y0077575D03*
X0138648Y0077575D03*
X0138491Y0077575D03*
X0138333Y0077575D03*
X0138176Y0077575D03*
X0138018Y0077575D03*
X0137861Y0077575D03*
X0137703Y0077575D03*
X0137546Y0077575D03*
X0137388Y0077575D03*
X0137231Y0077575D03*
X0137073Y0077575D03*
X0136916Y0077575D03*
X0136759Y0077575D03*
X0136601Y0077575D03*
X0138491Y0076157D03*
X0138648Y0076157D03*
X0137861Y0075055D03*
X0137861Y0073480D03*
X0138018Y0073480D03*
X0138176Y0073480D03*
X0138333Y0073480D03*
X0138491Y0073480D03*
X0137703Y0073480D03*
X0137546Y0073480D03*
X0137388Y0073480D03*
X0137231Y0073480D03*
X0137073Y0073480D03*
X0136916Y0073480D03*
X0136759Y0073480D03*
D20*
X0137703Y0071512D03*
X0137861Y0071512D03*
X0140066Y0075606D03*
X0138648Y0079701D03*
X0138491Y0079701D03*
X0138333Y0079701D03*
X0138176Y0079701D03*
X0138018Y0079701D03*
X0146444Y0077496D03*
X0146601Y0077496D03*
X0149908Y0077654D03*
X0156129Y0075579D03*
X0158491Y0075579D03*
X0160853Y0079043D03*
X0160696Y0079201D03*
X0167546Y0076709D03*
X0168963Y0076709D03*
X0176286Y0081906D03*
X0186759Y0075606D03*
X0186916Y0075606D03*
X0188491Y0074031D03*
X0185971Y0072929D03*
X0179121Y0075134D03*
X0190538Y0080016D03*
X0190696Y0079858D03*
X0190853Y0079701D03*
X0200538Y0076866D03*
X0199278Y0073402D03*
X0195971Y0073402D03*
X0197388Y0069465D03*
X0197546Y0069465D03*
X0197703Y0069465D03*
X0197861Y0069465D03*
X0200066Y0069465D03*
X0200223Y0069465D03*
X0200381Y0069465D03*
X0200538Y0069465D03*
X0200696Y0069465D03*
X0200853Y0069465D03*
X0160696Y0068807D03*
X0160538Y0068807D03*
X0160381Y0068807D03*
X0160223Y0068807D03*
X0149908Y0068835D03*
X0149278Y0071827D03*
X0147546Y0073559D03*
X0147388Y0073559D03*
X0212625Y0097106D03*
X0214987Y0108130D03*
X0213570Y0117579D03*
X0213412Y0117579D03*
X0213255Y0117579D03*
X0213097Y0117579D03*
X0212940Y0117579D03*
X0212782Y0117579D03*
X0212625Y0117579D03*
X0214042Y0123720D03*
X0214042Y0133484D03*
X0212625Y0142776D03*
X0213412Y0146240D03*
D21*
X0214042Y0146161D03*
X0213412Y0133406D03*
X0213885Y0129154D03*
X0211050Y0129154D03*
X0213412Y0123642D03*
X0213727Y0117500D03*
X0212467Y0117500D03*
X0212310Y0117500D03*
X0211207Y0108209D03*
X0212152Y0106476D03*
X0213885Y0106476D03*
X0214829Y0108209D03*
X0211050Y0098917D03*
X0212310Y0097185D03*
X0212467Y0097185D03*
X0214672Y0095295D03*
X0211207Y0093406D03*
X0211050Y0093406D03*
X0200696Y0076787D03*
X0200853Y0076630D03*
X0196916Y0072063D03*
X0188333Y0073953D03*
X0189278Y0076630D03*
X0187861Y0071906D03*
X0187703Y0071906D03*
X0187546Y0071906D03*
X0187388Y0071906D03*
X0179908Y0073165D03*
X0177546Y0071118D03*
X0176601Y0073165D03*
X0177388Y0075213D03*
X0169908Y0078677D03*
X0169121Y0076630D03*
X0166444Y0074898D03*
X0169436Y0072063D03*
X0166601Y0078677D03*
X0168648Y0081827D03*
X0158648Y0075657D03*
X0157703Y0075657D03*
X0156286Y0075657D03*
X0149751Y0077732D03*
X0146759Y0077417D03*
X0139908Y0075685D03*
X0139751Y0075685D03*
X0136601Y0075528D03*
X0137546Y0071591D03*
X0147703Y0073638D03*
X0147861Y0073638D03*
X0149121Y0071748D03*
X0138806Y0079622D03*
X0137861Y0079622D03*
X0137703Y0079622D03*
D22*
X0137546Y0079543D03*
X0138963Y0079543D03*
X0139593Y0075764D03*
X0136916Y0075449D03*
X0136759Y0075449D03*
X0136286Y0073244D03*
X0137388Y0071669D03*
X0140223Y0073244D03*
X0148018Y0073717D03*
X0148176Y0073717D03*
X0148806Y0071827D03*
X0148963Y0071827D03*
X0155971Y0071169D03*
X0157388Y0072902D03*
X0157388Y0075736D03*
X0157231Y0075736D03*
X0157073Y0075736D03*
X0156916Y0075736D03*
X0156759Y0075736D03*
X0156601Y0075736D03*
X0156444Y0075736D03*
X0157546Y0075736D03*
X0149593Y0077811D03*
X0149436Y0077811D03*
X0146916Y0077339D03*
X0166286Y0081906D03*
X0167546Y0080488D03*
X0168018Y0079386D03*
X0167388Y0076709D03*
X0170066Y0074976D03*
X0176286Y0076551D03*
X0176759Y0073087D03*
X0178648Y0072457D03*
X0187073Y0071827D03*
X0187231Y0071827D03*
X0188018Y0071827D03*
X0188176Y0071827D03*
X0188176Y0074031D03*
X0187231Y0075606D03*
X0187073Y0075606D03*
X0186916Y0077969D03*
X0188333Y0077969D03*
X0180223Y0081906D03*
X0176444Y0081906D03*
X0198333Y0072142D03*
X0211207Y0095689D03*
X0212152Y0097264D03*
X0214987Y0098839D03*
X0212625Y0101043D03*
X0212467Y0101043D03*
X0212310Y0101043D03*
X0212152Y0101043D03*
X0211365Y0108287D03*
X0212625Y0115217D03*
X0213885Y0117421D03*
X0211050Y0130965D03*
X0211050Y0141831D03*
X0213255Y0146555D03*
D23*
X0211050Y0143799D03*
X0212467Y0140492D03*
X0212625Y0140492D03*
X0212782Y0140492D03*
X0212940Y0140492D03*
X0213097Y0140492D03*
X0213255Y0140492D03*
X0213412Y0140492D03*
X0213570Y0140492D03*
X0213727Y0140492D03*
X0212467Y0130413D03*
X0211207Y0129154D03*
X0212467Y0127894D03*
X0213727Y0129154D03*
X0212152Y0117343D03*
X0212782Y0115295D03*
X0212940Y0115295D03*
X0213097Y0115295D03*
X0213255Y0115295D03*
X0213412Y0115295D03*
X0214672Y0108366D03*
X0211522Y0108366D03*
X0211995Y0100965D03*
X0213727Y0100965D03*
X0213885Y0100965D03*
X0214042Y0100965D03*
X0214042Y0097343D03*
X0211365Y0095610D03*
X0214514Y0095295D03*
X0213885Y0093406D03*
X0213727Y0093406D03*
X0213570Y0093406D03*
X0213412Y0093406D03*
X0213255Y0093406D03*
X0211680Y0093406D03*
X0211522Y0093406D03*
X0211365Y0093406D03*
X0189121Y0076472D03*
X0187546Y0075685D03*
X0187388Y0075685D03*
X0187703Y0073953D03*
X0187861Y0073953D03*
X0188018Y0073953D03*
X0186129Y0073165D03*
X0186916Y0071748D03*
X0188333Y0071748D03*
X0179751Y0073008D03*
X0179593Y0073008D03*
X0179436Y0072850D03*
X0179278Y0072693D03*
X0177388Y0071276D03*
X0179278Y0075213D03*
X0169908Y0074898D03*
X0169278Y0072063D03*
X0166601Y0074898D03*
X0166759Y0078677D03*
X0167388Y0080567D03*
X0169751Y0078677D03*
X0170223Y0081984D03*
X0176601Y0081827D03*
X0179908Y0081827D03*
X0180066Y0081827D03*
X0159121Y0072508D03*
X0155971Y0072823D03*
X0156129Y0071248D03*
X0148491Y0073795D03*
X0148333Y0073795D03*
X0147231Y0077260D03*
X0147073Y0077260D03*
X0149278Y0077890D03*
X0139436Y0075843D03*
X0137073Y0075370D03*
X0139278Y0071748D03*
X0138648Y0071118D03*
X0139121Y0079465D03*
X0137388Y0079465D03*
D24*
X0137231Y0082142D03*
X0137073Y0082142D03*
X0139436Y0082142D03*
X0155971Y0075500D03*
X0157073Y0073295D03*
X0157231Y0073138D03*
X0149121Y0069071D03*
X0148963Y0069071D03*
X0146601Y0073323D03*
X0146444Y0073323D03*
X0139436Y0068913D03*
X0137231Y0068913D03*
X0137073Y0068913D03*
X0160223Y0079437D03*
X0168806Y0081512D03*
X0169908Y0072063D03*
X0176444Y0073165D03*
X0176601Y0069071D03*
X0177546Y0069071D03*
X0178333Y0069071D03*
X0178491Y0069071D03*
X0179908Y0069071D03*
X0188806Y0073953D03*
X0196129Y0076630D03*
X0196286Y0076787D03*
X0196444Y0076945D03*
X0190223Y0080094D03*
X0186444Y0080094D03*
X0185971Y0079622D03*
X0196444Y0069701D03*
X0198806Y0069701D03*
X0211995Y0103642D03*
X0213255Y0103327D03*
X0213412Y0103484D03*
X0213570Y0103484D03*
X0213727Y0103484D03*
X0213412Y0106476D03*
X0213255Y0106476D03*
X0213097Y0106476D03*
X0212940Y0106476D03*
X0212782Y0106476D03*
X0212625Y0106476D03*
X0212152Y0120177D03*
X0211995Y0120177D03*
X0213570Y0120335D03*
X0213727Y0120335D03*
X0213727Y0123484D03*
X0213727Y0133248D03*
X0214199Y0138130D03*
X0214357Y0138130D03*
X0211837Y0138130D03*
X0211680Y0138130D03*
D25*
X0213255Y0135610D03*
X0213412Y0135610D03*
X0213570Y0135610D03*
X0213727Y0135610D03*
X0214987Y0135768D03*
X0214672Y0134035D03*
X0214514Y0134035D03*
X0214357Y0134035D03*
X0213097Y0133720D03*
X0212310Y0132303D03*
X0211995Y0132303D03*
X0212152Y0130571D03*
X0212625Y0130413D03*
X0212782Y0130571D03*
X0213885Y0130728D03*
X0213570Y0129154D03*
X0212782Y0127736D03*
X0212152Y0127736D03*
X0211050Y0127579D03*
X0211365Y0129154D03*
X0214987Y0126004D03*
X0213727Y0125846D03*
X0213570Y0125846D03*
X0213412Y0125846D03*
X0213255Y0125846D03*
X0213097Y0123957D03*
X0214357Y0124272D03*
X0214514Y0124272D03*
X0214672Y0124272D03*
X0211995Y0122697D03*
X0211995Y0117185D03*
X0211050Y0115610D03*
X0211837Y0108524D03*
X0211995Y0106476D03*
X0214199Y0108524D03*
X0214357Y0108524D03*
X0214357Y0099075D03*
X0214199Y0099075D03*
X0214672Y0099075D03*
X0211365Y0099075D03*
X0212782Y0096713D03*
X0212940Y0096713D03*
X0213097Y0096713D03*
X0213255Y0096713D03*
X0212625Y0094980D03*
X0212467Y0094980D03*
X0212152Y0095138D03*
X0211995Y0095138D03*
X0211837Y0095295D03*
X0211522Y0095453D03*
X0179593Y0081669D03*
X0176916Y0081669D03*
X0169908Y0082142D03*
X0169751Y0082142D03*
X0169593Y0082142D03*
X0168333Y0082142D03*
X0166601Y0082142D03*
X0167231Y0080567D03*
X0167546Y0078992D03*
X0166916Y0078677D03*
X0169436Y0078835D03*
X0169593Y0074740D03*
X0166916Y0074740D03*
X0167546Y0072850D03*
X0167546Y0071276D03*
X0168963Y0072063D03*
X0177073Y0073008D03*
X0178491Y0072693D03*
X0179278Y0071276D03*
X0177231Y0071276D03*
X0177231Y0075213D03*
X0177388Y0076630D03*
X0176444Y0076630D03*
X0179121Y0076630D03*
X0180066Y0076630D03*
X0186759Y0077890D03*
X0188018Y0075843D03*
X0188176Y0075843D03*
X0188333Y0076000D03*
X0188491Y0076000D03*
X0188648Y0076157D03*
X0188806Y0076157D03*
X0187231Y0073795D03*
X0187073Y0073795D03*
X0186916Y0073638D03*
X0186759Y0073638D03*
X0186601Y0073480D03*
X0196129Y0073480D03*
X0196916Y0073323D03*
X0196759Y0072063D03*
X0198491Y0072063D03*
X0196759Y0074740D03*
X0158963Y0072508D03*
X0157546Y0072823D03*
X0156759Y0073925D03*
X0158491Y0073925D03*
X0158491Y0071091D03*
X0157703Y0071091D03*
X0156759Y0071091D03*
X0156601Y0071091D03*
X0149121Y0073953D03*
X0148963Y0073953D03*
X0146286Y0075528D03*
X0147546Y0077102D03*
X0148806Y0078047D03*
X0148963Y0078047D03*
X0140066Y0073323D03*
X0139278Y0073323D03*
X0137546Y0075213D03*
X0137388Y0075213D03*
X0138963Y0076000D03*
X0136286Y0077575D03*
X0137231Y0071748D03*
X0212152Y0140492D03*
X0211365Y0141909D03*
X0211995Y0142224D03*
X0214042Y0140492D03*
X0212310Y0145059D03*
X0211995Y0145059D03*
X0213255Y0147894D03*
X0213412Y0147894D03*
X0213570Y0147894D03*
D26*
X0212152Y0145138D03*
X0211207Y0143720D03*
X0211207Y0141831D03*
X0212310Y0140413D03*
X0213885Y0140413D03*
X0214829Y0134114D03*
X0214987Y0134114D03*
X0214199Y0133957D03*
X0213255Y0133642D03*
X0212152Y0132382D03*
X0211207Y0130965D03*
X0212310Y0130492D03*
X0212310Y0127815D03*
X0212625Y0127815D03*
X0214199Y0124193D03*
X0214829Y0124350D03*
X0214987Y0124350D03*
X0213255Y0123878D03*
X0212310Y0122618D03*
X0212152Y0122618D03*
X0214042Y0117264D03*
X0214514Y0108445D03*
X0214042Y0106398D03*
X0211680Y0108445D03*
X0213570Y0100886D03*
X0214042Y0098996D03*
X0214829Y0098996D03*
X0211995Y0097421D03*
X0213412Y0096791D03*
X0214357Y0095217D03*
X0214042Y0093327D03*
X0211995Y0093327D03*
X0211837Y0093327D03*
X0211680Y0095374D03*
X0211207Y0098996D03*
X0179751Y0081748D03*
X0176759Y0081748D03*
X0170066Y0082063D03*
X0169436Y0082063D03*
X0169278Y0082063D03*
X0168491Y0082063D03*
X0169278Y0080646D03*
X0168176Y0079228D03*
X0169593Y0078756D03*
X0169278Y0076709D03*
X0169751Y0074819D03*
X0166759Y0074819D03*
X0167231Y0076709D03*
X0167388Y0072772D03*
X0167388Y0071354D03*
X0169121Y0071984D03*
X0176916Y0073087D03*
X0180223Y0076551D03*
X0186286Y0073244D03*
X0186444Y0073402D03*
X0187388Y0073874D03*
X0187546Y0073874D03*
X0187703Y0075764D03*
X0187861Y0075764D03*
X0188963Y0076394D03*
X0196916Y0074661D03*
X0199121Y0073402D03*
X0166444Y0082063D03*
X0156916Y0073846D03*
X0156444Y0071169D03*
X0156286Y0071169D03*
X0157861Y0071169D03*
X0158018Y0071169D03*
X0158176Y0071169D03*
X0158333Y0071169D03*
X0148648Y0071827D03*
X0148491Y0071827D03*
X0148648Y0073874D03*
X0148806Y0073874D03*
X0147388Y0077181D03*
X0149121Y0077969D03*
X0139278Y0079386D03*
X0139278Y0075921D03*
X0139121Y0075921D03*
X0137231Y0075291D03*
X0136444Y0073402D03*
X0138018Y0071039D03*
X0138176Y0071039D03*
X0138333Y0071039D03*
X0138491Y0071039D03*
D27*
X0136759Y0069071D03*
X0148333Y0069228D03*
X0148491Y0069228D03*
X0158018Y0075185D03*
X0166286Y0078677D03*
X0167703Y0079780D03*
X0168963Y0081354D03*
X0169121Y0081354D03*
X0177073Y0079150D03*
X0177231Y0079150D03*
X0177388Y0079150D03*
X0177546Y0079150D03*
X0177703Y0079150D03*
X0177861Y0079150D03*
X0178018Y0079150D03*
X0178176Y0079150D03*
X0178333Y0079150D03*
X0178491Y0079150D03*
X0178648Y0079150D03*
X0178806Y0079150D03*
X0178963Y0079150D03*
X0179121Y0079150D03*
X0179278Y0079150D03*
X0179436Y0079150D03*
X0179593Y0079150D03*
X0179751Y0079150D03*
X0179908Y0079150D03*
X0180066Y0079150D03*
X0180223Y0079150D03*
X0190066Y0080094D03*
X0196916Y0077260D03*
X0180223Y0069228D03*
X0178176Y0069228D03*
X0170066Y0072063D03*
X0167231Y0072063D03*
X0167073Y0072063D03*
X0166916Y0072063D03*
X0166759Y0072063D03*
X0166601Y0072063D03*
X0160066Y0079437D03*
X0139751Y0081984D03*
X0136759Y0081984D03*
X0211680Y0103642D03*
X0214357Y0103642D03*
X0214357Y0111043D03*
X0214514Y0111043D03*
X0214672Y0111043D03*
X0214829Y0111043D03*
X0214987Y0111043D03*
X0214199Y0111043D03*
X0214042Y0111043D03*
X0213885Y0111043D03*
X0213727Y0111043D03*
X0213570Y0111043D03*
X0213412Y0111043D03*
X0213255Y0111043D03*
X0213097Y0111043D03*
X0212940Y0111043D03*
X0212782Y0111043D03*
X0212625Y0111043D03*
X0212467Y0111043D03*
X0212310Y0111043D03*
X0212152Y0111043D03*
X0211995Y0111043D03*
X0211837Y0111043D03*
X0211837Y0120177D03*
X0214042Y0120335D03*
X0211680Y0125059D03*
X0211522Y0125059D03*
X0211680Y0134823D03*
X0211837Y0134823D03*
X0214829Y0138287D03*
X0214357Y0143012D03*
X0214987Y0095295D03*
D28*
X0213412Y0095138D03*
X0178963Y0081354D03*
X0177703Y0081354D03*
X0168333Y0073165D03*
X0168648Y0072063D03*
X0168333Y0070961D03*
X0158963Y0075028D03*
X0148333Y0076787D03*
X0138176Y0076315D03*
X0138333Y0074898D03*
X0213412Y0122382D03*
X0212625Y0124114D03*
X0213255Y0129154D03*
X0211680Y0129154D03*
X0213412Y0132146D03*
X0213412Y0144902D03*
D29*
X0211837Y0145138D03*
X0212310Y0133957D03*
X0212467Y0133957D03*
X0212625Y0133799D03*
X0212782Y0133799D03*
X0211837Y0132382D03*
X0213255Y0130807D03*
X0213412Y0130807D03*
X0213570Y0130807D03*
X0213570Y0127500D03*
X0213412Y0127500D03*
X0213255Y0127500D03*
X0211680Y0127500D03*
X0211522Y0127500D03*
X0211365Y0127500D03*
X0212310Y0124193D03*
X0212467Y0124193D03*
X0212782Y0124035D03*
X0211837Y0122618D03*
X0213570Y0095217D03*
X0213727Y0095217D03*
X0213885Y0095217D03*
X0213255Y0095059D03*
X0213097Y0095059D03*
X0212940Y0095059D03*
X0179121Y0081433D03*
X0177546Y0081433D03*
X0168806Y0074504D03*
X0168648Y0074504D03*
X0168491Y0074504D03*
X0168333Y0074504D03*
X0168176Y0074504D03*
X0168018Y0074504D03*
X0167861Y0074504D03*
X0167703Y0074504D03*
X0168176Y0073087D03*
X0168176Y0071039D03*
X0168018Y0071039D03*
X0158648Y0072587D03*
X0158491Y0072587D03*
X0158333Y0072587D03*
X0158176Y0072587D03*
X0158018Y0072587D03*
X0156759Y0072587D03*
X0156601Y0072587D03*
X0156444Y0072587D03*
X0156286Y0072744D03*
X0158806Y0075106D03*
X0159121Y0074949D03*
X0148176Y0076866D03*
X0148176Y0078283D03*
X0148333Y0078283D03*
X0138333Y0076236D03*
X0138176Y0074976D03*
X0138018Y0074976D03*
X0147861Y0071827D03*
X0148018Y0071827D03*
X0177703Y0072929D03*
X0177861Y0072929D03*
X0196444Y0073402D03*
X0196601Y0073402D03*
X0198648Y0073402D03*
D30*
X0197231Y0077417D03*
X0180381Y0069386D03*
X0178018Y0069386D03*
X0176286Y0073165D03*
X0177546Y0075685D03*
X0170223Y0072063D03*
X0166444Y0072063D03*
X0166286Y0072063D03*
X0158176Y0075028D03*
X0147861Y0069386D03*
X0147703Y0069386D03*
X0140066Y0069228D03*
X0140066Y0081827D03*
X0211995Y0114508D03*
X0212152Y0114508D03*
X0212310Y0114508D03*
X0212467Y0114508D03*
X0213570Y0114508D03*
X0213727Y0114508D03*
X0213885Y0114508D03*
X0214042Y0114508D03*
X0214357Y0120335D03*
X0214514Y0103642D03*
X0214987Y0138287D03*
X0214514Y0143012D03*
D31*
X0214672Y0143012D03*
X0214514Y0120335D03*
X0211365Y0120020D03*
X0213727Y0097972D03*
X0180223Y0084819D03*
X0179908Y0084976D03*
X0179751Y0084976D03*
X0176759Y0084976D03*
X0176444Y0084819D03*
X0176286Y0084661D03*
X0170223Y0084819D03*
X0169908Y0084976D03*
X0169751Y0084976D03*
X0166916Y0084976D03*
X0166759Y0084976D03*
X0159278Y0079909D03*
X0159121Y0079909D03*
X0156129Y0078650D03*
X0140223Y0081669D03*
X0138963Y0072220D03*
X0138806Y0072220D03*
X0140223Y0069386D03*
X0147073Y0069543D03*
X0147231Y0069543D03*
X0177861Y0075528D03*
X0178018Y0075528D03*
X0178176Y0075528D03*
X0178333Y0075528D03*
X0178491Y0075528D03*
X0178648Y0075528D03*
X0189278Y0073638D03*
X0197546Y0072535D03*
X0197546Y0077417D03*
X0197388Y0077417D03*
D32*
X0136286Y0069465D03*
X0146759Y0069622D03*
X0146916Y0069622D03*
X0156286Y0078728D03*
X0158963Y0079988D03*
X0167073Y0085055D03*
X0167231Y0085055D03*
X0167388Y0085055D03*
X0169278Y0085055D03*
X0169436Y0085055D03*
X0169593Y0085055D03*
X0176916Y0084898D03*
X0180381Y0084583D03*
X0188963Y0080646D03*
X0189121Y0080488D03*
X0197388Y0072772D03*
X0177861Y0069622D03*
X0170381Y0078598D03*
X0213570Y0097894D03*
X0214829Y0103720D03*
X0211050Y0124823D03*
X0211050Y0134587D03*
D33*
X0211207Y0120020D03*
X0214672Y0120335D03*
X0211207Y0103799D03*
X0179593Y0084976D03*
X0177073Y0084976D03*
X0169121Y0085134D03*
X0168963Y0085134D03*
X0168806Y0085134D03*
X0168648Y0085134D03*
X0168491Y0085134D03*
X0168333Y0085134D03*
X0168176Y0085134D03*
X0168018Y0085134D03*
X0167861Y0085134D03*
X0167703Y0085134D03*
X0167546Y0085134D03*
X0158806Y0080067D03*
X0156444Y0078807D03*
X0146601Y0069701D03*
X0146444Y0069701D03*
X0140381Y0069543D03*
X0136286Y0081512D03*
X0180381Y0073323D03*
X0188648Y0080724D03*
X0188806Y0080724D03*
X0197703Y0077417D03*
X0198963Y0077417D03*
X0199121Y0077260D03*
D34*
X0199278Y0077181D03*
X0198806Y0077496D03*
X0198648Y0077496D03*
X0189278Y0080331D03*
X0188491Y0080646D03*
X0179436Y0084898D03*
X0177231Y0084898D03*
X0156601Y0078886D03*
X0146286Y0069780D03*
X0214829Y0143091D03*
D35*
X0141483Y0075528D03*
X0141325Y0075528D03*
X0141168Y0075528D03*
X0141010Y0075528D03*
X0140853Y0075528D03*
X0140696Y0075528D03*
X0140538Y0075528D03*
X0136129Y0075528D03*
X0135971Y0075528D03*
X0135814Y0075528D03*
X0135656Y0075528D03*
X0135499Y0075528D03*
X0135341Y0075528D03*
X0135184Y0075528D03*
D36*
X0140381Y0077654D03*
X0155184Y0073531D03*
X0161483Y0073531D03*
X0185184Y0074189D03*
X0191483Y0074189D03*
D37*
X0195184Y0072614D03*
X0201483Y0072614D03*
D38*
X0201325Y0072693D03*
X0195341Y0072693D03*
D39*
X0195499Y0072850D03*
X0201168Y0072850D03*
X0170381Y0072220D03*
D40*
X0195656Y0072929D03*
X0201010Y0072929D03*
D41*
X0199908Y0073480D03*
D42*
X0199751Y0073559D03*
X0215144Y0145768D03*
D43*
X0199593Y0073638D03*
D44*
X0199436Y0073717D03*
D45*
X0198491Y0077417D03*
X0188333Y0080567D03*
X0179278Y0084819D03*
X0177388Y0084819D03*
X0156759Y0078965D03*
X0177703Y0069858D03*
D46*
X0187231Y0079465D03*
X0198333Y0076787D03*
X0211050Y0148209D03*
D47*
X0214829Y0129705D03*
X0178333Y0084425D03*
X0198176Y0076866D03*
D48*
X0198018Y0077102D03*
X0178806Y0084661D03*
X0177861Y0084661D03*
X0157546Y0079280D03*
X0157388Y0079280D03*
X0214514Y0129469D03*
X0212782Y0148524D03*
X0212625Y0148524D03*
X0211837Y0148524D03*
X0211680Y0148524D03*
D49*
X0214987Y0103720D03*
X0197861Y0077339D03*
X0197073Y0073244D03*
X0197231Y0073087D03*
X0156916Y0079043D03*
D50*
X0195814Y0073008D03*
D51*
X0191325Y0074268D03*
X0185341Y0074268D03*
X0161325Y0073610D03*
X0155341Y0073610D03*
D52*
X0155499Y0073768D03*
X0161168Y0073768D03*
X0185499Y0074425D03*
X0191168Y0074425D03*
D53*
X0191010Y0074504D03*
X0161010Y0073846D03*
X0155656Y0073846D03*
D54*
X0190066Y0072457D03*
X0190853Y0072457D03*
D55*
X0190696Y0072299D03*
X0190538Y0072299D03*
X0190381Y0072299D03*
X0190223Y0072299D03*
X0180381Y0079071D03*
D56*
X0189908Y0075055D03*
X0159908Y0074398D03*
D57*
X0159751Y0074476D03*
X0189751Y0075134D03*
D58*
X0189436Y0071984D03*
D59*
X0185656Y0077260D03*
X0185814Y0077417D03*
X0189436Y0078835D03*
D60*
X0188176Y0079780D03*
X0187703Y0079622D03*
X0170381Y0083559D03*
X0214987Y0129783D03*
D61*
X0188018Y0079701D03*
X0187861Y0079701D03*
X0185656Y0071354D03*
D62*
X0185814Y0071197D03*
X0187388Y0079543D03*
X0187546Y0079543D03*
D63*
X0187073Y0079465D03*
X0178491Y0084504D03*
X0178176Y0084504D03*
X0158491Y0079437D03*
X0158333Y0079437D03*
X0158176Y0079437D03*
X0158018Y0079437D03*
X0157861Y0079437D03*
X0214987Y0120335D03*
X0213097Y0148366D03*
X0211207Y0148366D03*
D64*
X0210892Y0120335D03*
X0210735Y0120335D03*
X0210577Y0120335D03*
X0210420Y0120335D03*
X0210262Y0120335D03*
X0210105Y0120335D03*
X0209948Y0120335D03*
X0215302Y0120335D03*
X0215459Y0120335D03*
X0215617Y0120335D03*
X0215774Y0120335D03*
X0215932Y0120335D03*
X0216089Y0120335D03*
X0216247Y0120335D03*
D65*
X0215144Y0093484D03*
D66*
X0215144Y0101988D03*
D67*
X0215144Y0123406D03*
D68*
X0214829Y0120335D03*
X0214199Y0129311D03*
X0214042Y0129311D03*
X0214987Y0143169D03*
X0211050Y0103799D03*
X0179121Y0084819D03*
X0177546Y0084819D03*
X0157073Y0079122D03*
D69*
X0157703Y0079358D03*
X0158648Y0079516D03*
X0178018Y0084583D03*
X0178648Y0084583D03*
X0214672Y0129547D03*
X0212940Y0148445D03*
X0211522Y0148445D03*
X0211365Y0148445D03*
D70*
X0211995Y0148602D03*
X0212152Y0148602D03*
X0212310Y0148602D03*
X0212467Y0148602D03*
X0214357Y0129390D03*
X0211050Y0119941D03*
X0178963Y0084740D03*
X0177703Y0084740D03*
X0157231Y0079201D03*
D71*
X0159436Y0074634D03*
D72*
X0155814Y0073925D03*
D73*
X0165184Y0076236D03*
X0171483Y0076236D03*
X0175184Y0076236D03*
X0181483Y0076236D03*
D74*
X0181325Y0076472D03*
X0175341Y0076472D03*
X0171325Y0076472D03*
X0165341Y0076472D03*
D75*
X0165499Y0076630D03*
X0171168Y0076630D03*
X0175499Y0076630D03*
X0181168Y0076630D03*
D76*
X0181010Y0076787D03*
X0175656Y0076787D03*
X0171010Y0076787D03*
X0165656Y0076787D03*
D77*
X0165814Y0076866D03*
X0170853Y0076866D03*
X0175814Y0076866D03*
X0180853Y0076866D03*
D78*
X0180696Y0076945D03*
X0175971Y0076945D03*
X0170696Y0076945D03*
X0165971Y0076945D03*
D79*
X0166129Y0077024D03*
X0170538Y0077024D03*
X0176129Y0077024D03*
X0180538Y0077024D03*
M02*
