G75*
%MOIN*%
%OFA0B0*%
%FSLAX25Y25*%
%IPPOS*%
%LPD*%
%AMOC8*
5,1,8,0,0,1.08239X$1,22.5*
%
%ADD10R,0.04331X0.03937*%
%ADD11R,0.03268X0.02480*%
%ADD12R,0.04724X0.02165*%
%ADD13R,0.02165X0.04724*%
%ADD14R,0.02362X0.04724*%
%ADD15R,0.03937X0.04331*%
%ADD16C,0.03937*%
%ADD17R,0.02756X0.02756*%
%ADD18C,0.07400*%
%ADD19R,0.03150X0.04724*%
%ADD20R,0.03150X0.10630*%
%ADD21C,0.02400*%
%ADD22C,0.01600*%
%ADD23C,0.02700*%
%ADD24C,0.00800*%
D10*
X0134987Y0090000D03*
X0141680Y0090000D03*
X0141680Y0110000D03*
X0134987Y0110000D03*
X0169987Y0140000D03*
X0176680Y0140000D03*
X0179987Y0150000D03*
X0186680Y0150000D03*
X0186680Y0170000D03*
X0179987Y0170000D03*
X0171680Y0170000D03*
X0164987Y0170000D03*
X0146680Y0166500D03*
X0139987Y0166500D03*
X0139987Y0161000D03*
X0146680Y0161000D03*
X0146680Y0155500D03*
X0139987Y0155500D03*
X0139987Y0150000D03*
X0146680Y0150000D03*
D11*
X0158333Y0145472D03*
X0158333Y0154528D03*
D12*
X0143452Y0143740D03*
X0143452Y0140000D03*
X0143452Y0136260D03*
X0133215Y0136260D03*
X0133215Y0143740D03*
D13*
X0164593Y0149881D03*
X0168333Y0149881D03*
X0172073Y0149881D03*
X0172073Y0160119D03*
X0164593Y0160119D03*
D14*
X0163333Y0111024D03*
X0168333Y0111024D03*
X0173333Y0111024D03*
X0178333Y0111024D03*
X0183333Y0111024D03*
X0188333Y0111024D03*
X0193333Y0111024D03*
X0193333Y0088976D03*
X0188333Y0088976D03*
X0183333Y0088976D03*
X0178333Y0088976D03*
X0173333Y0088976D03*
X0168333Y0088976D03*
X0163333Y0088976D03*
D15*
X0153333Y0096654D03*
X0153333Y0103346D03*
X0168333Y0121654D03*
X0168333Y0128346D03*
X0188333Y0128346D03*
X0188333Y0121654D03*
D16*
X0133333Y0170000D03*
X0213333Y0065000D03*
D17*
X0140892Y0103642D03*
X0135774Y0103642D03*
X0138333Y0096358D03*
D18*
X0138333Y0065000D03*
X0148333Y0065000D03*
X0158333Y0065000D03*
X0168333Y0065000D03*
X0178333Y0065000D03*
X0188333Y0065000D03*
X0198333Y0065000D03*
D19*
X0186877Y0160000D03*
X0179790Y0160000D03*
D20*
X0147664Y0125000D03*
X0139003Y0125000D03*
D21*
X0161333Y0125000D02*
X0161333Y0118000D01*
X0161333Y0125000D02*
X0164680Y0128346D01*
X0168333Y0128346D01*
X0139987Y0150000D02*
X0139987Y0155500D01*
X0146680Y0155500D02*
X0146680Y0161000D01*
X0146680Y0166500D01*
X0151833Y0166500D01*
X0153333Y0165000D01*
X0171680Y0170000D02*
X0175833Y0170000D01*
X0179987Y0170000D01*
D22*
X0179790Y0169803D01*
X0179790Y0165000D01*
X0173333Y0165000D01*
X0171680Y0166654D01*
X0171680Y0170000D01*
X0164987Y0170000D02*
X0161833Y0170000D01*
X0160833Y0169000D01*
X0160833Y0166500D01*
X0161833Y0165500D01*
X0163333Y0165500D01*
X0164593Y0164240D01*
X0164593Y0160119D01*
X0161833Y0157359D01*
X0161833Y0144000D01*
X0156833Y0139000D01*
X0156833Y0118000D01*
X0148333Y0115000D02*
X0168333Y0115000D01*
X0168333Y0121654D01*
X0173333Y0117500D02*
X0173333Y0133346D01*
X0176680Y0136693D01*
X0176680Y0140000D01*
X0176680Y0142154D01*
X0172073Y0146760D01*
X0172073Y0149881D01*
X0172073Y0153260D01*
X0170333Y0155000D01*
X0166333Y0155000D01*
X0164593Y0153260D01*
X0164593Y0149881D01*
X0168333Y0149881D02*
X0168333Y0146500D01*
X0169987Y0144846D01*
X0169987Y0140000D01*
X0169987Y0134654D01*
X0168333Y0133000D01*
X0168333Y0128346D01*
X0153333Y0138000D02*
X0147664Y0132331D01*
X0147664Y0125000D01*
X0145333Y0125000D01*
X0143452Y0126881D01*
X0143452Y0136260D01*
X0143452Y0140000D02*
X0138333Y0140000D01*
X0133215Y0136260D02*
X0131573Y0136260D01*
X0131333Y0136500D01*
X0131333Y0127500D01*
X0133833Y0125000D01*
X0139003Y0125000D01*
X0141833Y0125000D01*
X0143333Y0123500D01*
X0143333Y0117000D01*
X0145333Y0115000D01*
X0148333Y0115000D01*
X0151833Y0111500D02*
X0150333Y0110000D01*
X0145833Y0110000D01*
X0145833Y0103500D01*
X0145692Y0103642D01*
X0140892Y0103642D01*
X0145833Y0103500D02*
X0145833Y0090500D01*
X0147333Y0089000D01*
X0152833Y0089000D01*
X0153333Y0089500D01*
X0153333Y0096654D01*
X0163310Y0096976D02*
X0163310Y0089000D01*
X0152833Y0089000D01*
X0153333Y0085000D02*
X0143333Y0085000D01*
X0141680Y0086654D01*
X0141680Y0090000D01*
X0141680Y0092654D01*
X0140833Y0093500D01*
X0139333Y0093500D01*
X0138333Y0094500D01*
X0138333Y0096358D01*
X0134987Y0090000D02*
X0131833Y0090000D01*
X0130833Y0089000D01*
X0130833Y0085000D01*
X0133333Y0082500D01*
X0145833Y0082500D01*
X0148333Y0080000D01*
X0148333Y0065000D01*
X0158333Y0065000D02*
X0158333Y0080000D01*
X0153333Y0085000D01*
X0163310Y0089000D02*
X0163333Y0088976D01*
X0173333Y0088976D02*
X0173333Y0080000D01*
X0168333Y0075000D01*
X0168333Y0065000D01*
X0178333Y0065000D02*
X0178333Y0088976D01*
X0183333Y0088976D02*
X0183333Y0080000D01*
X0188333Y0075000D01*
X0188333Y0065000D01*
X0198333Y0065000D02*
X0198333Y0070000D01*
X0188333Y0080000D01*
X0188333Y0088976D01*
X0193333Y0088976D02*
X0197310Y0088976D01*
X0198333Y0090000D01*
X0193357Y0089000D02*
X0193333Y0088976D01*
X0190833Y0100000D02*
X0166333Y0100000D01*
X0163310Y0096976D01*
X0153333Y0103346D02*
X0153333Y0108000D01*
X0155333Y0110000D01*
X0158333Y0110000D01*
X0160333Y0110000D01*
X0161357Y0111024D01*
X0163333Y0111024D01*
X0168333Y0115000D02*
X0170833Y0115000D01*
X0173333Y0117500D01*
X0173333Y0111024D02*
X0173333Y0105000D01*
X0178333Y0105000D02*
X0178333Y0111024D01*
X0183333Y0111024D02*
X0183333Y0105000D01*
X0188333Y0105000D02*
X0188333Y0111024D01*
X0188333Y0121654D01*
X0193333Y0116000D02*
X0193333Y0128346D01*
X0198180Y0128346D01*
X0199833Y0130000D01*
X0199833Y0144500D01*
X0194333Y0150000D01*
X0186680Y0150000D01*
X0179987Y0150000D02*
X0179987Y0144654D01*
X0180333Y0145000D01*
X0193333Y0145000D01*
X0196333Y0142000D01*
X0196333Y0132000D01*
X0193333Y0128346D02*
X0188333Y0128346D01*
X0191487Y0128346D01*
X0193333Y0116000D02*
X0193333Y0111024D01*
X0193333Y0102500D01*
X0190833Y0100000D01*
X0203333Y0115000D02*
X0203333Y0150000D01*
X0193333Y0160000D01*
X0193333Y0170000D01*
X0186680Y0170000D01*
X0179790Y0165000D02*
X0179790Y0160000D01*
X0179790Y0150197D01*
X0179987Y0150000D01*
X0183333Y0155000D02*
X0185833Y0155000D01*
X0186877Y0156043D01*
X0186877Y0160000D01*
X0158333Y0159500D02*
X0158333Y0154528D01*
X0158333Y0150000D01*
X0151333Y0151500D02*
X0149833Y0150000D01*
X0146680Y0150000D01*
X0151333Y0151500D02*
X0151333Y0161000D01*
X0156833Y0161000D01*
X0158333Y0159500D01*
X0139987Y0161000D02*
X0134833Y0161000D01*
X0131333Y0163000D02*
X0131333Y0143500D01*
X0131573Y0143740D01*
X0133215Y0143740D01*
X0131333Y0143500D02*
X0131333Y0136500D01*
X0143452Y0143740D02*
X0143452Y0145381D01*
X0142333Y0146500D01*
X0140833Y0146500D01*
X0139833Y0147500D01*
X0139833Y0149846D01*
X0139987Y0150000D01*
X0153333Y0144000D02*
X0153333Y0138000D01*
X0153333Y0144000D02*
X0154806Y0145472D01*
X0158333Y0145472D01*
X0134833Y0166500D02*
X0131333Y0163000D01*
X0134833Y0166500D02*
X0139987Y0166500D01*
X0133333Y0115000D02*
X0134987Y0113346D01*
X0134987Y0110000D01*
X0131833Y0110000D01*
X0130833Y0109000D01*
X0130833Y0105000D01*
X0132192Y0103642D01*
X0135774Y0103642D01*
X0141680Y0110000D02*
X0145833Y0110000D01*
X0144833Y0110000D02*
X0141680Y0110000D01*
D23*
X0148333Y0115000D03*
X0151833Y0111500D03*
X0158333Y0110000D03*
X0156833Y0118000D03*
X0161333Y0118000D03*
X0173333Y0105000D03*
X0178333Y0105000D03*
X0183333Y0105000D03*
X0188333Y0105000D03*
X0203333Y0115000D03*
X0193333Y0116000D03*
X0196333Y0132000D03*
X0190833Y0137500D03*
X0179987Y0144654D03*
X0194333Y0150000D03*
X0190833Y0155000D03*
X0183333Y0155000D03*
X0158333Y0150000D03*
X0154833Y0157000D03*
X0151333Y0161000D03*
X0153333Y0165000D03*
X0134833Y0161000D03*
X0138333Y0140000D03*
X0169987Y0134654D03*
X0133333Y0115000D03*
X0138333Y0100000D03*
X0198333Y0090000D03*
X0208333Y0098000D03*
X0193333Y0170000D03*
X0175833Y0170000D03*
D24*
X0130333Y0082106D02*
X0130333Y0062000D01*
X0134209Y0062000D01*
X0133971Y0062327D01*
X0133607Y0063042D01*
X0133359Y0063806D01*
X0133233Y0064599D01*
X0133233Y0064600D01*
X0137933Y0064600D01*
X0137933Y0065400D01*
X0133233Y0065400D01*
X0133233Y0065401D01*
X0133359Y0066194D01*
X0133607Y0066958D01*
X0133971Y0067673D01*
X0134443Y0068322D01*
X0135011Y0068890D01*
X0135660Y0069362D01*
X0136376Y0069726D01*
X0137139Y0069974D01*
X0137932Y0070100D01*
X0137933Y0070100D01*
X0137933Y0065400D01*
X0138733Y0065400D01*
X0138733Y0070100D01*
X0138735Y0070100D01*
X0139528Y0069974D01*
X0140291Y0069726D01*
X0141006Y0069362D01*
X0141656Y0068890D01*
X0142223Y0068322D01*
X0142695Y0067673D01*
X0143060Y0066958D01*
X0143213Y0066487D01*
X0143840Y0068002D01*
X0145331Y0069493D01*
X0145933Y0069743D01*
X0145933Y0079006D01*
X0144839Y0080100D01*
X0132856Y0080100D01*
X0131974Y0080465D01*
X0131299Y0081141D01*
X0130333Y0082106D01*
X0130333Y0081560D02*
X0130879Y0081560D01*
X0130333Y0080761D02*
X0131678Y0080761D01*
X0130333Y0079963D02*
X0144976Y0079963D01*
X0145775Y0079164D02*
X0130333Y0079164D01*
X0130333Y0078366D02*
X0145933Y0078366D01*
X0145933Y0077567D02*
X0130333Y0077567D01*
X0130333Y0076769D02*
X0145933Y0076769D01*
X0145933Y0075970D02*
X0130333Y0075970D01*
X0130333Y0075172D02*
X0145933Y0075172D01*
X0145933Y0074373D02*
X0130333Y0074373D01*
X0130333Y0073575D02*
X0145933Y0073575D01*
X0145933Y0072776D02*
X0130333Y0072776D01*
X0130333Y0071978D02*
X0145933Y0071978D01*
X0145933Y0071179D02*
X0130333Y0071179D01*
X0130333Y0070381D02*
X0145933Y0070381D01*
X0145546Y0069582D02*
X0140574Y0069582D01*
X0141762Y0068784D02*
X0144622Y0068784D01*
X0143833Y0067985D02*
X0142468Y0067985D01*
X0142943Y0067187D02*
X0143502Y0067187D01*
X0138733Y0067187D02*
X0137933Y0067187D01*
X0137933Y0067985D02*
X0138733Y0067985D01*
X0138733Y0068784D02*
X0137933Y0068784D01*
X0137933Y0069582D02*
X0138733Y0069582D01*
X0136093Y0069582D02*
X0130333Y0069582D01*
X0130333Y0068784D02*
X0134904Y0068784D01*
X0134198Y0067985D02*
X0130333Y0067985D01*
X0130333Y0067187D02*
X0133724Y0067187D01*
X0133422Y0066388D02*
X0130333Y0066388D01*
X0130333Y0065590D02*
X0133263Y0065590D01*
X0133329Y0063993D02*
X0130333Y0063993D01*
X0130333Y0064791D02*
X0137933Y0064791D01*
X0137933Y0065590D02*
X0138733Y0065590D01*
X0138733Y0066388D02*
X0137933Y0066388D01*
X0133558Y0063194D02*
X0130333Y0063194D01*
X0130333Y0062396D02*
X0133936Y0062396D01*
X0148327Y0091400D02*
X0148233Y0091494D01*
X0148233Y0107600D01*
X0150811Y0107600D01*
X0151693Y0107965D01*
X0152277Y0108550D01*
X0152420Y0108550D01*
X0153504Y0108999D01*
X0154334Y0109829D01*
X0154783Y0110913D01*
X0154783Y0112087D01*
X0154571Y0112600D01*
X0160752Y0112600D01*
X0160752Y0111214D01*
X0163143Y0111214D01*
X0163143Y0110833D01*
X0163524Y0110833D01*
X0163524Y0107261D01*
X0164699Y0107261D01*
X0165055Y0107357D01*
X0165374Y0107541D01*
X0165635Y0107802D01*
X0165677Y0107874D01*
X0166489Y0107061D01*
X0170177Y0107061D01*
X0170833Y0107718D01*
X0170933Y0107618D01*
X0170933Y0106772D01*
X0170832Y0106671D01*
X0170383Y0105587D01*
X0170383Y0104413D01*
X0170832Y0103329D01*
X0171662Y0102499D01*
X0171902Y0102400D01*
X0165856Y0102400D01*
X0164974Y0102035D01*
X0161950Y0099011D01*
X0161275Y0098336D01*
X0160910Y0097454D01*
X0160910Y0092359D01*
X0160552Y0092001D01*
X0160552Y0091400D01*
X0155733Y0091400D01*
X0155733Y0092888D01*
X0155965Y0092888D01*
X0156902Y0093825D01*
X0156902Y0099482D01*
X0156242Y0100141D01*
X0156422Y0100321D01*
X0156606Y0100641D01*
X0156702Y0100997D01*
X0156702Y0102946D01*
X0153733Y0102946D01*
X0153733Y0103746D01*
X0156702Y0103746D01*
X0156702Y0105696D01*
X0156606Y0106052D01*
X0156422Y0106371D01*
X0156161Y0106632D01*
X0155842Y0106816D01*
X0155486Y0106912D01*
X0153733Y0106912D01*
X0153733Y0103746D01*
X0152933Y0103746D01*
X0152933Y0102946D01*
X0149965Y0102946D01*
X0149965Y0100997D01*
X0150060Y0100641D01*
X0150245Y0100321D01*
X0150425Y0100141D01*
X0149765Y0099482D01*
X0149765Y0093825D01*
X0150702Y0092888D01*
X0150933Y0092888D01*
X0150933Y0091400D01*
X0148327Y0091400D01*
X0148233Y0091940D02*
X0150933Y0091940D01*
X0150933Y0092739D02*
X0148233Y0092739D01*
X0148233Y0093537D02*
X0150053Y0093537D01*
X0149765Y0094336D02*
X0148233Y0094336D01*
X0148233Y0095134D02*
X0149765Y0095134D01*
X0149765Y0095933D02*
X0148233Y0095933D01*
X0148233Y0096732D02*
X0149765Y0096732D01*
X0149765Y0097530D02*
X0148233Y0097530D01*
X0148233Y0098329D02*
X0149765Y0098329D01*
X0149765Y0099127D02*
X0148233Y0099127D01*
X0148233Y0099926D02*
X0150209Y0099926D01*
X0150038Y0100724D02*
X0148233Y0100724D01*
X0148233Y0101523D02*
X0149965Y0101523D01*
X0149965Y0102321D02*
X0148233Y0102321D01*
X0148233Y0103120D02*
X0152933Y0103120D01*
X0152933Y0103746D02*
X0149965Y0103746D01*
X0149965Y0105696D01*
X0150060Y0106052D01*
X0150245Y0106371D01*
X0150505Y0106632D01*
X0150824Y0106816D01*
X0151180Y0106912D01*
X0152933Y0106912D01*
X0152933Y0103746D01*
X0152933Y0103918D02*
X0153733Y0103918D01*
X0153733Y0103120D02*
X0171042Y0103120D01*
X0170588Y0103918D02*
X0156702Y0103918D01*
X0156702Y0104717D02*
X0170383Y0104717D01*
X0170383Y0105515D02*
X0156702Y0105515D01*
X0156455Y0106314D02*
X0170684Y0106314D01*
X0170933Y0107112D02*
X0170228Y0107112D01*
X0166439Y0107112D02*
X0148233Y0107112D01*
X0148233Y0106314D02*
X0150211Y0106314D01*
X0149965Y0105515D02*
X0148233Y0105515D01*
X0148233Y0104717D02*
X0149965Y0104717D01*
X0149965Y0103918D02*
X0148233Y0103918D01*
X0152933Y0104717D02*
X0153733Y0104717D01*
X0153733Y0105515D02*
X0152933Y0105515D01*
X0152933Y0106314D02*
X0153733Y0106314D01*
X0152804Y0108709D02*
X0160752Y0108709D01*
X0160752Y0108477D02*
X0160848Y0108121D01*
X0161032Y0107802D01*
X0161293Y0107541D01*
X0161612Y0107357D01*
X0161968Y0107261D01*
X0163143Y0107261D01*
X0163143Y0110833D01*
X0160752Y0110833D01*
X0160752Y0108477D01*
X0160969Y0107911D02*
X0151561Y0107911D01*
X0154013Y0109508D02*
X0160752Y0109508D01*
X0160752Y0110306D02*
X0154532Y0110306D01*
X0154783Y0111105D02*
X0163143Y0111105D01*
X0163143Y0110306D02*
X0163524Y0110306D01*
X0163524Y0109508D02*
X0163143Y0109508D01*
X0163143Y0108709D02*
X0163524Y0108709D01*
X0163524Y0107911D02*
X0163143Y0107911D01*
X0160752Y0111903D02*
X0154783Y0111903D01*
X0159778Y0117400D02*
X0159783Y0117413D01*
X0159783Y0118587D01*
X0159334Y0119671D01*
X0159233Y0119772D01*
X0159233Y0138006D01*
X0163868Y0142641D01*
X0164233Y0143523D01*
X0164233Y0145919D01*
X0166339Y0145919D01*
X0166662Y0146243D01*
X0166710Y0146215D01*
X0167066Y0146119D01*
X0168192Y0146119D01*
X0168192Y0149740D01*
X0168475Y0149740D01*
X0168475Y0146119D01*
X0169600Y0146119D01*
X0169727Y0146153D01*
X0170039Y0145400D01*
X0172071Y0143368D01*
X0170387Y0143368D01*
X0170387Y0140400D01*
X0169587Y0140400D01*
X0169587Y0143368D01*
X0167637Y0143368D01*
X0167281Y0143273D01*
X0166962Y0143089D01*
X0166701Y0142828D01*
X0166517Y0142509D01*
X0166422Y0142153D01*
X0166422Y0140400D01*
X0169587Y0140400D01*
X0169587Y0139600D01*
X0170387Y0139600D01*
X0170387Y0136631D01*
X0172337Y0136631D01*
X0172693Y0136727D01*
X0173012Y0136911D01*
X0173192Y0137091D01*
X0173438Y0136845D01*
X0171299Y0134706D01*
X0170933Y0133824D01*
X0170933Y0131764D01*
X0170842Y0131816D01*
X0170486Y0131912D01*
X0168733Y0131912D01*
X0168733Y0128746D01*
X0167933Y0128746D01*
X0167933Y0127946D01*
X0164965Y0127946D01*
X0164965Y0125997D01*
X0165060Y0125641D01*
X0165245Y0125321D01*
X0165425Y0125141D01*
X0164765Y0124482D01*
X0164765Y0118825D01*
X0165702Y0117888D01*
X0165933Y0117888D01*
X0165933Y0117400D01*
X0159778Y0117400D01*
X0159783Y0117493D02*
X0165933Y0117493D01*
X0165299Y0118291D02*
X0159783Y0118291D01*
X0159575Y0119090D02*
X0164765Y0119090D01*
X0164765Y0119888D02*
X0159233Y0119888D01*
X0159233Y0120687D02*
X0164765Y0120687D01*
X0164765Y0121485D02*
X0159233Y0121485D01*
X0159233Y0122284D02*
X0164765Y0122284D01*
X0164765Y0123082D02*
X0159233Y0123082D01*
X0159233Y0123881D02*
X0164765Y0123881D01*
X0164963Y0124679D02*
X0159233Y0124679D01*
X0159233Y0125478D02*
X0165154Y0125478D01*
X0164965Y0126276D02*
X0159233Y0126276D01*
X0159233Y0127075D02*
X0164965Y0127075D01*
X0164965Y0127873D02*
X0159233Y0127873D01*
X0159233Y0128672D02*
X0167933Y0128672D01*
X0167933Y0128746D02*
X0164965Y0128746D01*
X0164965Y0130696D01*
X0165060Y0131052D01*
X0165245Y0131371D01*
X0165505Y0131632D01*
X0165824Y0131816D01*
X0166180Y0131912D01*
X0167933Y0131912D01*
X0167933Y0128746D01*
X0167933Y0129470D02*
X0168733Y0129470D01*
X0168733Y0130269D02*
X0167933Y0130269D01*
X0167933Y0131068D02*
X0168733Y0131068D01*
X0168733Y0131866D02*
X0167933Y0131866D01*
X0166010Y0131866D02*
X0159233Y0131866D01*
X0159233Y0131068D02*
X0165069Y0131068D01*
X0164965Y0130269D02*
X0159233Y0130269D01*
X0159233Y0129470D02*
X0164965Y0129470D01*
X0170657Y0131866D02*
X0170933Y0131866D01*
X0170933Y0132665D02*
X0159233Y0132665D01*
X0159233Y0133463D02*
X0170933Y0133463D01*
X0171115Y0134262D02*
X0159233Y0134262D01*
X0159233Y0135060D02*
X0171653Y0135060D01*
X0172451Y0135859D02*
X0159233Y0135859D01*
X0159233Y0136657D02*
X0167542Y0136657D01*
X0167637Y0136631D02*
X0169587Y0136631D01*
X0169587Y0139600D01*
X0166422Y0139600D01*
X0166422Y0137847D01*
X0166517Y0137491D01*
X0166701Y0137172D01*
X0166962Y0136911D01*
X0167281Y0136727D01*
X0167637Y0136631D01*
X0166537Y0137456D02*
X0159233Y0137456D01*
X0159482Y0138254D02*
X0166422Y0138254D01*
X0166422Y0139053D02*
X0160280Y0139053D01*
X0161079Y0139851D02*
X0169587Y0139851D01*
X0169587Y0139053D02*
X0170387Y0139053D01*
X0170387Y0138254D02*
X0169587Y0138254D01*
X0169587Y0137456D02*
X0170387Y0137456D01*
X0170387Y0136657D02*
X0169587Y0136657D01*
X0172432Y0136657D02*
X0173250Y0136657D01*
X0176844Y0133463D02*
X0197433Y0133463D01*
X0197433Y0132665D02*
X0176046Y0132665D01*
X0175733Y0132352D02*
X0178039Y0134658D01*
X0178714Y0135333D01*
X0179080Y0136216D01*
X0179080Y0136431D01*
X0179508Y0136431D01*
X0180404Y0137328D01*
X0180662Y0136706D01*
X0181555Y0135812D01*
X0182721Y0135329D01*
X0183985Y0135329D01*
X0185151Y0135812D01*
X0186044Y0136706D01*
X0186528Y0137872D01*
X0186528Y0139135D01*
X0186044Y0140302D01*
X0185151Y0141195D01*
X0183985Y0141679D01*
X0182721Y0141679D01*
X0181555Y0141195D01*
X0180662Y0140302D01*
X0180445Y0139780D01*
X0180445Y0142631D01*
X0179508Y0143568D01*
X0178659Y0143568D01*
X0174756Y0147471D01*
X0174756Y0152906D01*
X0174473Y0153189D01*
X0174473Y0153737D01*
X0174108Y0154619D01*
X0172571Y0156156D01*
X0173819Y0156156D01*
X0174756Y0157094D01*
X0174756Y0163143D01*
X0173819Y0164081D01*
X0170328Y0164081D01*
X0169391Y0163143D01*
X0169391Y0157400D01*
X0167276Y0157400D01*
X0167276Y0163143D01*
X0166993Y0163426D01*
X0166993Y0164718D01*
X0166628Y0165600D01*
X0165796Y0166431D01*
X0167815Y0166431D01*
X0168475Y0167091D01*
X0168655Y0166911D01*
X0168974Y0166727D01*
X0169330Y0166631D01*
X0171280Y0166631D01*
X0171280Y0169600D01*
X0172080Y0169600D01*
X0172080Y0170400D01*
X0175245Y0170400D01*
X0175245Y0172153D01*
X0175150Y0172509D01*
X0174965Y0172828D01*
X0174794Y0173000D01*
X0176873Y0173000D01*
X0176701Y0172828D01*
X0176517Y0172509D01*
X0176422Y0172153D01*
X0176422Y0170400D01*
X0179587Y0170400D01*
X0179587Y0169600D01*
X0180387Y0169600D01*
X0180387Y0166631D01*
X0182337Y0166631D01*
X0182693Y0166727D01*
X0183012Y0166911D01*
X0183192Y0167091D01*
X0183852Y0166431D01*
X0189508Y0166431D01*
X0190445Y0167369D01*
X0190445Y0167600D01*
X0190933Y0167600D01*
X0190933Y0159523D01*
X0191299Y0158641D01*
X0191974Y0157965D01*
X0200933Y0149006D01*
X0200933Y0146794D01*
X0197283Y0150444D01*
X0197283Y0150587D01*
X0196834Y0151671D01*
X0196004Y0152501D01*
X0194920Y0152950D01*
X0193747Y0152950D01*
X0192662Y0152501D01*
X0192561Y0152400D01*
X0190445Y0152400D01*
X0190445Y0152631D01*
X0189508Y0153568D01*
X0187796Y0153568D01*
X0187868Y0153641D01*
X0188911Y0154684D01*
X0189277Y0155566D01*
X0189277Y0156200D01*
X0190051Y0156975D01*
X0190051Y0163025D01*
X0189114Y0163962D01*
X0184639Y0163962D01*
X0183702Y0163025D01*
X0183702Y0157950D01*
X0182765Y0157950D01*
X0182765Y0159613D01*
X0180177Y0159613D01*
X0180177Y0156238D01*
X0180653Y0156238D01*
X0180383Y0155587D01*
X0180383Y0154413D01*
X0180816Y0153368D01*
X0180387Y0153368D01*
X0180387Y0150400D01*
X0179587Y0150400D01*
X0179587Y0153368D01*
X0177637Y0153368D01*
X0177281Y0153273D01*
X0176962Y0153089D01*
X0176701Y0152828D01*
X0176517Y0152509D01*
X0176422Y0152153D01*
X0176422Y0150400D01*
X0179587Y0150400D01*
X0179587Y0149600D01*
X0180387Y0149600D01*
X0180387Y0146631D01*
X0182337Y0146631D01*
X0182693Y0146727D01*
X0183012Y0146911D01*
X0183192Y0147091D01*
X0183852Y0146431D01*
X0189508Y0146431D01*
X0190445Y0147369D01*
X0190445Y0147600D01*
X0192561Y0147600D01*
X0192662Y0147499D01*
X0193747Y0147050D01*
X0193889Y0147050D01*
X0197433Y0143506D01*
X0197433Y0130994D01*
X0197186Y0130746D01*
X0191902Y0130746D01*
X0191902Y0131175D01*
X0190965Y0132112D01*
X0185702Y0132112D01*
X0184765Y0131175D01*
X0184765Y0125518D01*
X0185283Y0125000D01*
X0184765Y0124482D01*
X0184765Y0118825D01*
X0185702Y0117888D01*
X0185933Y0117888D01*
X0185933Y0114430D01*
X0185833Y0114330D01*
X0185177Y0114986D01*
X0181489Y0114986D01*
X0180833Y0114330D01*
X0180177Y0114986D01*
X0176489Y0114986D01*
X0175833Y0114330D01*
X0175177Y0114986D01*
X0174213Y0114986D01*
X0174693Y0115465D01*
X0175368Y0116141D01*
X0175733Y0117023D01*
X0175733Y0132352D01*
X0175733Y0131866D02*
X0185456Y0131866D01*
X0184765Y0131068D02*
X0175733Y0131068D01*
X0175733Y0130269D02*
X0184765Y0130269D01*
X0184765Y0129470D02*
X0175733Y0129470D01*
X0175733Y0128672D02*
X0184765Y0128672D01*
X0184765Y0127873D02*
X0175733Y0127873D01*
X0175733Y0127075D02*
X0184765Y0127075D01*
X0184765Y0126276D02*
X0175733Y0126276D01*
X0175733Y0125478D02*
X0184805Y0125478D01*
X0184963Y0124679D02*
X0175733Y0124679D01*
X0175733Y0123881D02*
X0184765Y0123881D01*
X0184765Y0123082D02*
X0175733Y0123082D01*
X0175733Y0122284D02*
X0184765Y0122284D01*
X0184765Y0121485D02*
X0175733Y0121485D01*
X0175733Y0120687D02*
X0184765Y0120687D01*
X0184765Y0119888D02*
X0175733Y0119888D01*
X0175733Y0119090D02*
X0184765Y0119090D01*
X0185299Y0118291D02*
X0175733Y0118291D01*
X0175733Y0117493D02*
X0185933Y0117493D01*
X0185933Y0116694D02*
X0175597Y0116694D01*
X0175123Y0115896D02*
X0185933Y0115896D01*
X0185933Y0115097D02*
X0174325Y0115097D01*
X0195834Y0114329D02*
X0195834Y0114329D01*
X0196114Y0114049D01*
X0196114Y0107999D01*
X0195733Y0107618D01*
X0195733Y0102023D01*
X0195368Y0101141D01*
X0192868Y0098641D01*
X0192193Y0097965D01*
X0191311Y0097600D01*
X0167327Y0097600D01*
X0165710Y0095982D01*
X0165710Y0092406D01*
X0165833Y0092282D01*
X0166489Y0092939D01*
X0170177Y0092939D01*
X0170833Y0092282D01*
X0171489Y0092939D01*
X0175177Y0092939D01*
X0175833Y0092282D01*
X0176489Y0092939D01*
X0180177Y0092939D01*
X0180833Y0092282D01*
X0181489Y0092939D01*
X0185177Y0092939D01*
X0185833Y0092282D01*
X0186489Y0092939D01*
X0190177Y0092939D01*
X0190833Y0092282D01*
X0191489Y0092939D01*
X0195177Y0092939D01*
X0196114Y0092001D01*
X0196114Y0091953D01*
X0196662Y0092501D01*
X0197747Y0092950D01*
X0198920Y0092950D01*
X0200004Y0092501D01*
X0200834Y0091671D01*
X0201283Y0090587D01*
X0201283Y0089413D01*
X0200834Y0088329D01*
X0200004Y0087499D01*
X0198920Y0087050D01*
X0198777Y0087050D01*
X0198669Y0086942D01*
X0197787Y0086576D01*
X0196114Y0086576D01*
X0196114Y0085951D01*
X0195177Y0085014D01*
X0191489Y0085014D01*
X0190833Y0085670D01*
X0190733Y0085570D01*
X0190733Y0080994D01*
X0200368Y0071359D01*
X0200733Y0070477D01*
X0200733Y0069743D01*
X0201336Y0069493D01*
X0202826Y0068002D01*
X0203633Y0066054D01*
X0203633Y0063946D01*
X0202827Y0062000D01*
X0211287Y0062000D01*
X0210308Y0062979D01*
X0209765Y0064290D01*
X0209765Y0065710D01*
X0210308Y0067021D01*
X0211312Y0068025D01*
X0212623Y0068568D01*
X0214043Y0068568D01*
X0215355Y0068025D01*
X0216259Y0067120D01*
X0216265Y0075138D01*
X0215567Y0073930D01*
X0215567Y0073930D01*
X0215567Y0073930D01*
X0213055Y0071822D01*
X0213055Y0071822D01*
X0209973Y0070700D01*
X0206693Y0070700D01*
X0203612Y0071822D01*
X0203612Y0071822D01*
X0201099Y0073930D01*
X0201099Y0073930D01*
X0199459Y0076770D01*
X0199459Y0076770D01*
X0198890Y0080000D01*
X0198890Y0080000D01*
X0199459Y0083230D01*
X0199459Y0083230D01*
X0201099Y0086070D01*
X0201099Y0086070D01*
X0201099Y0086070D01*
X0203612Y0088178D01*
X0203612Y0088178D01*
X0206693Y0089300D01*
X0209973Y0089300D01*
X0213055Y0088178D01*
X0213055Y0088178D01*
X0215567Y0086070D01*
X0215567Y0086070D01*
X0216272Y0084850D01*
X0216323Y0160239D01*
X0215567Y0158930D01*
X0215567Y0158930D01*
X0215567Y0158930D01*
X0213055Y0156822D01*
X0213055Y0156822D01*
X0209973Y0155700D01*
X0206693Y0155700D01*
X0203612Y0156822D01*
X0203612Y0156822D01*
X0201099Y0158930D01*
X0201099Y0158930D01*
X0199459Y0161770D01*
X0199459Y0161770D01*
X0198890Y0165000D01*
X0198890Y0165000D01*
X0199459Y0168230D01*
X0199459Y0168230D01*
X0201099Y0171070D01*
X0201099Y0171070D01*
X0201099Y0171070D01*
X0203399Y0173000D01*
X0190076Y0173000D01*
X0190445Y0172631D01*
X0190445Y0172400D01*
X0191561Y0172400D01*
X0191662Y0172501D01*
X0192747Y0172950D01*
X0193920Y0172950D01*
X0195004Y0172501D01*
X0195834Y0171671D01*
X0196283Y0170587D01*
X0196283Y0169413D01*
X0195834Y0168329D01*
X0195733Y0168228D01*
X0195733Y0160994D01*
X0205368Y0151359D01*
X0205733Y0150477D01*
X0205733Y0116772D01*
X0205834Y0116671D01*
X0206283Y0115587D01*
X0206283Y0114413D01*
X0205834Y0113329D01*
X0205004Y0112499D01*
X0203920Y0112050D01*
X0202747Y0112050D01*
X0201662Y0112499D01*
X0200832Y0113329D01*
X0200383Y0114413D01*
X0200383Y0115587D01*
X0200832Y0116671D01*
X0200933Y0116772D01*
X0200933Y0127706D01*
X0200214Y0126987D01*
X0200214Y0126987D01*
X0199539Y0126312D01*
X0198657Y0125946D01*
X0195733Y0125946D01*
X0195733Y0117772D01*
X0195834Y0117671D01*
X0196283Y0116587D01*
X0196283Y0115413D01*
X0195834Y0114329D01*
X0195864Y0114299D02*
X0200431Y0114299D01*
X0200383Y0115097D02*
X0196152Y0115097D01*
X0196283Y0115896D02*
X0200511Y0115896D01*
X0200856Y0116694D02*
X0196239Y0116694D01*
X0195908Y0117493D02*
X0200933Y0117493D01*
X0200933Y0118291D02*
X0195733Y0118291D01*
X0195733Y0119090D02*
X0200933Y0119090D01*
X0200933Y0119888D02*
X0195733Y0119888D01*
X0195733Y0120687D02*
X0200933Y0120687D01*
X0200933Y0121485D02*
X0195733Y0121485D01*
X0195733Y0122284D02*
X0200933Y0122284D01*
X0200933Y0123082D02*
X0195733Y0123082D01*
X0195733Y0123881D02*
X0200933Y0123881D01*
X0200933Y0124679D02*
X0195733Y0124679D01*
X0195733Y0125478D02*
X0200933Y0125478D01*
X0200933Y0126276D02*
X0199454Y0126276D01*
X0200302Y0127075D02*
X0200933Y0127075D01*
X0205733Y0127075D02*
X0216301Y0127075D01*
X0216301Y0127873D02*
X0205733Y0127873D01*
X0205733Y0128672D02*
X0216302Y0128672D01*
X0216302Y0129470D02*
X0205733Y0129470D01*
X0205733Y0130269D02*
X0216303Y0130269D01*
X0216303Y0131068D02*
X0205733Y0131068D01*
X0205733Y0131866D02*
X0216304Y0131866D01*
X0216304Y0132665D02*
X0205733Y0132665D01*
X0205733Y0133463D02*
X0216305Y0133463D01*
X0216305Y0134262D02*
X0205733Y0134262D01*
X0205733Y0135060D02*
X0216306Y0135060D01*
X0216307Y0135859D02*
X0205733Y0135859D01*
X0205733Y0136657D02*
X0216307Y0136657D01*
X0216308Y0137456D02*
X0205733Y0137456D01*
X0205733Y0138254D02*
X0216308Y0138254D01*
X0216309Y0139053D02*
X0205733Y0139053D01*
X0205733Y0139851D02*
X0216309Y0139851D01*
X0216310Y0140650D02*
X0205733Y0140650D01*
X0205733Y0141448D02*
X0216310Y0141448D01*
X0216311Y0142247D02*
X0205733Y0142247D01*
X0205733Y0143045D02*
X0216311Y0143045D01*
X0216312Y0143844D02*
X0205733Y0143844D01*
X0205733Y0144642D02*
X0216313Y0144642D01*
X0216313Y0145441D02*
X0205733Y0145441D01*
X0205733Y0146239D02*
X0216314Y0146239D01*
X0216314Y0147038D02*
X0205733Y0147038D01*
X0205733Y0147836D02*
X0216315Y0147836D01*
X0216315Y0148635D02*
X0205733Y0148635D01*
X0205733Y0149433D02*
X0216316Y0149433D01*
X0216316Y0150232D02*
X0205733Y0150232D01*
X0205504Y0151030D02*
X0216317Y0151030D01*
X0216317Y0151829D02*
X0204899Y0151829D01*
X0204100Y0152627D02*
X0216318Y0152627D01*
X0216319Y0153426D02*
X0203302Y0153426D01*
X0202503Y0154224D02*
X0216319Y0154224D01*
X0216320Y0155023D02*
X0201705Y0155023D01*
X0200906Y0155821D02*
X0206360Y0155821D01*
X0204166Y0156620D02*
X0200108Y0156620D01*
X0199309Y0157418D02*
X0202901Y0157418D01*
X0201949Y0158217D02*
X0198511Y0158217D01*
X0197712Y0159015D02*
X0201050Y0159015D01*
X0200589Y0159814D02*
X0196914Y0159814D01*
X0196115Y0160612D02*
X0200128Y0160612D01*
X0199667Y0161411D02*
X0195733Y0161411D01*
X0195733Y0162209D02*
X0199382Y0162209D01*
X0199241Y0163008D02*
X0195733Y0163008D01*
X0195733Y0163806D02*
X0199100Y0163806D01*
X0198960Y0164605D02*
X0195733Y0164605D01*
X0195733Y0165403D02*
X0198961Y0165403D01*
X0199102Y0166202D02*
X0195733Y0166202D01*
X0195733Y0167001D02*
X0199243Y0167001D01*
X0199383Y0167799D02*
X0195733Y0167799D01*
X0195945Y0168598D02*
X0199672Y0168598D01*
X0200133Y0169396D02*
X0196276Y0169396D01*
X0196283Y0170195D02*
X0200594Y0170195D01*
X0201055Y0170993D02*
X0196115Y0170993D01*
X0195714Y0171792D02*
X0201959Y0171792D01*
X0202911Y0172590D02*
X0194789Y0172590D01*
X0191878Y0172590D02*
X0190445Y0172590D01*
X0190077Y0167001D02*
X0190933Y0167001D01*
X0190933Y0166202D02*
X0166025Y0166202D01*
X0166709Y0165403D02*
X0190933Y0165403D01*
X0190933Y0164605D02*
X0166993Y0164605D01*
X0166993Y0163806D02*
X0170054Y0163806D01*
X0169391Y0163008D02*
X0167276Y0163008D01*
X0167276Y0162209D02*
X0169391Y0162209D01*
X0169391Y0161411D02*
X0167276Y0161411D01*
X0167276Y0160612D02*
X0169391Y0160612D01*
X0169391Y0159814D02*
X0167276Y0159814D01*
X0167276Y0159015D02*
X0169391Y0159015D01*
X0169391Y0158217D02*
X0167276Y0158217D01*
X0167276Y0157418D02*
X0169391Y0157418D01*
X0172906Y0155821D02*
X0180480Y0155821D01*
X0180383Y0155023D02*
X0173705Y0155023D01*
X0174272Y0154224D02*
X0180462Y0154224D01*
X0180792Y0153426D02*
X0174473Y0153426D01*
X0174756Y0152627D02*
X0176585Y0152627D01*
X0176422Y0151829D02*
X0174756Y0151829D01*
X0174756Y0151030D02*
X0176422Y0151030D01*
X0176422Y0149600D02*
X0176422Y0147847D01*
X0176517Y0147491D01*
X0176701Y0147172D01*
X0176962Y0146911D01*
X0177281Y0146727D01*
X0177637Y0146631D01*
X0179587Y0146631D01*
X0179587Y0149600D01*
X0176422Y0149600D01*
X0176422Y0149433D02*
X0174756Y0149433D01*
X0174756Y0148635D02*
X0176422Y0148635D01*
X0176424Y0147836D02*
X0174756Y0147836D01*
X0175190Y0147038D02*
X0176835Y0147038D01*
X0175988Y0146239D02*
X0194700Y0146239D01*
X0195498Y0145441D02*
X0176787Y0145441D01*
X0177585Y0144642D02*
X0196297Y0144642D01*
X0197096Y0143844D02*
X0178384Y0143844D01*
X0180031Y0143045D02*
X0197433Y0143045D01*
X0197433Y0142247D02*
X0180445Y0142247D01*
X0180445Y0141448D02*
X0182165Y0141448D01*
X0181009Y0140650D02*
X0180445Y0140650D01*
X0180445Y0139851D02*
X0180475Y0139851D01*
X0180710Y0136657D02*
X0179733Y0136657D01*
X0178932Y0135859D02*
X0181509Y0135859D01*
X0178441Y0135060D02*
X0189101Y0135060D01*
X0189162Y0134999D02*
X0190247Y0134550D01*
X0191420Y0134550D01*
X0192504Y0134999D01*
X0193334Y0135829D01*
X0193783Y0136913D01*
X0193783Y0138087D01*
X0193334Y0139171D01*
X0192504Y0140001D01*
X0191420Y0140450D01*
X0190247Y0140450D01*
X0189162Y0140001D01*
X0188332Y0139171D01*
X0187883Y0138087D01*
X0187883Y0136913D01*
X0188332Y0135829D01*
X0189162Y0134999D01*
X0188320Y0135859D02*
X0185198Y0135859D01*
X0185996Y0136657D02*
X0187989Y0136657D01*
X0187883Y0137456D02*
X0186355Y0137456D01*
X0186528Y0138254D02*
X0187953Y0138254D01*
X0188283Y0139053D02*
X0186528Y0139053D01*
X0186231Y0139851D02*
X0189013Y0139851D01*
X0185697Y0140650D02*
X0197433Y0140650D01*
X0197433Y0141448D02*
X0184541Y0141448D01*
X0192654Y0139851D02*
X0197433Y0139851D01*
X0197433Y0139053D02*
X0193383Y0139053D01*
X0193714Y0138254D02*
X0197433Y0138254D01*
X0197433Y0137456D02*
X0193783Y0137456D01*
X0193677Y0136657D02*
X0197433Y0136657D01*
X0197433Y0135859D02*
X0193346Y0135859D01*
X0192565Y0135060D02*
X0197433Y0135060D01*
X0197433Y0134262D02*
X0177643Y0134262D01*
X0191210Y0131866D02*
X0197433Y0131866D01*
X0197433Y0131068D02*
X0191902Y0131068D01*
X0205733Y0126276D02*
X0216300Y0126276D01*
X0216299Y0125478D02*
X0205733Y0125478D01*
X0205733Y0124679D02*
X0216299Y0124679D01*
X0216298Y0123881D02*
X0205733Y0123881D01*
X0205733Y0123082D02*
X0216298Y0123082D01*
X0216297Y0122284D02*
X0205733Y0122284D01*
X0205733Y0121485D02*
X0216297Y0121485D01*
X0216296Y0120687D02*
X0205733Y0120687D01*
X0205733Y0119888D02*
X0216296Y0119888D01*
X0216295Y0119090D02*
X0205733Y0119090D01*
X0205733Y0118291D02*
X0216295Y0118291D01*
X0216294Y0117493D02*
X0205733Y0117493D01*
X0205811Y0116694D02*
X0216293Y0116694D01*
X0216293Y0115896D02*
X0206155Y0115896D01*
X0206283Y0115097D02*
X0216292Y0115097D01*
X0216292Y0114299D02*
X0206236Y0114299D01*
X0205905Y0113500D02*
X0216291Y0113500D01*
X0216291Y0112702D02*
X0205207Y0112702D01*
X0201460Y0112702D02*
X0196114Y0112702D01*
X0196114Y0113500D02*
X0200761Y0113500D01*
X0196114Y0111903D02*
X0216290Y0111903D01*
X0216290Y0111105D02*
X0196114Y0111105D01*
X0196114Y0110306D02*
X0216289Y0110306D01*
X0216288Y0109508D02*
X0196114Y0109508D01*
X0196114Y0108709D02*
X0216288Y0108709D01*
X0216287Y0107911D02*
X0196026Y0107911D01*
X0195733Y0107112D02*
X0216287Y0107112D01*
X0216286Y0106314D02*
X0195733Y0106314D01*
X0195733Y0105515D02*
X0216286Y0105515D01*
X0216285Y0104717D02*
X0195733Y0104717D01*
X0195733Y0103918D02*
X0216285Y0103918D01*
X0216284Y0103120D02*
X0195733Y0103120D01*
X0195733Y0102321D02*
X0216284Y0102321D01*
X0216283Y0101523D02*
X0195526Y0101523D01*
X0194952Y0100724D02*
X0216282Y0100724D01*
X0216282Y0099926D02*
X0194153Y0099926D01*
X0193354Y0099127D02*
X0216281Y0099127D01*
X0216281Y0098329D02*
X0192556Y0098329D01*
X0191290Y0092739D02*
X0190377Y0092739D01*
X0186290Y0092739D02*
X0185377Y0092739D01*
X0181290Y0092739D02*
X0180377Y0092739D01*
X0176290Y0092739D02*
X0175377Y0092739D01*
X0171290Y0092739D02*
X0170377Y0092739D01*
X0166290Y0092739D02*
X0165710Y0092739D01*
X0165710Y0093537D02*
X0216278Y0093537D01*
X0216277Y0092739D02*
X0199430Y0092739D01*
X0200565Y0091940D02*
X0216276Y0091940D01*
X0216276Y0091142D02*
X0201053Y0091142D01*
X0201283Y0090343D02*
X0216275Y0090343D01*
X0216275Y0089545D02*
X0201283Y0089545D01*
X0201007Y0088746D02*
X0205173Y0088746D01*
X0203337Y0087948D02*
X0200453Y0087948D01*
X0199160Y0087149D02*
X0202385Y0087149D01*
X0201434Y0086351D02*
X0196114Y0086351D01*
X0195715Y0085552D02*
X0200800Y0085552D01*
X0200339Y0084754D02*
X0190733Y0084754D01*
X0190733Y0085552D02*
X0190951Y0085552D01*
X0190733Y0083955D02*
X0199878Y0083955D01*
X0199447Y0083157D02*
X0190733Y0083157D01*
X0190733Y0082358D02*
X0199306Y0082358D01*
X0199165Y0081560D02*
X0190733Y0081560D01*
X0190966Y0080761D02*
X0199024Y0080761D01*
X0198896Y0079963D02*
X0191765Y0079963D01*
X0192563Y0079164D02*
X0199037Y0079164D01*
X0199178Y0078366D02*
X0193362Y0078366D01*
X0194160Y0077567D02*
X0199319Y0077567D01*
X0199460Y0076769D02*
X0194959Y0076769D01*
X0195757Y0075970D02*
X0199921Y0075970D01*
X0200382Y0075172D02*
X0196556Y0075172D01*
X0197354Y0074373D02*
X0200843Y0074373D01*
X0201522Y0073575D02*
X0198153Y0073575D01*
X0198951Y0072776D02*
X0202474Y0072776D01*
X0203426Y0071978D02*
X0199750Y0071978D01*
X0200443Y0071179D02*
X0205377Y0071179D01*
X0202045Y0068784D02*
X0216261Y0068784D01*
X0216261Y0069582D02*
X0201121Y0069582D01*
X0200733Y0070381D02*
X0216262Y0070381D01*
X0216262Y0071179D02*
X0211290Y0071179D01*
X0213241Y0071978D02*
X0216263Y0071978D01*
X0216263Y0072776D02*
X0214193Y0072776D01*
X0215144Y0073575D02*
X0216264Y0073575D01*
X0216264Y0074373D02*
X0215823Y0074373D01*
X0215395Y0067985D02*
X0216260Y0067985D01*
X0216260Y0067187D02*
X0216193Y0067187D01*
X0211272Y0067985D02*
X0202834Y0067985D01*
X0203164Y0067187D02*
X0210473Y0067187D01*
X0210046Y0066388D02*
X0203495Y0066388D01*
X0203633Y0065590D02*
X0209765Y0065590D01*
X0209765Y0064791D02*
X0203633Y0064791D01*
X0203633Y0063993D02*
X0209888Y0063993D01*
X0210219Y0063194D02*
X0203322Y0063194D01*
X0202991Y0062396D02*
X0210891Y0062396D01*
X0215866Y0085552D02*
X0216272Y0085552D01*
X0216273Y0086351D02*
X0215233Y0086351D01*
X0214281Y0087149D02*
X0216273Y0087149D01*
X0216274Y0087948D02*
X0213330Y0087948D01*
X0211494Y0088746D02*
X0216274Y0088746D01*
X0216278Y0094336D02*
X0165710Y0094336D01*
X0165710Y0095134D02*
X0216279Y0095134D01*
X0216279Y0095933D02*
X0165710Y0095933D01*
X0166459Y0096732D02*
X0216280Y0096732D01*
X0216280Y0097530D02*
X0167257Y0097530D01*
X0163663Y0100724D02*
X0156629Y0100724D01*
X0156702Y0101523D02*
X0164462Y0101523D01*
X0165665Y0102321D02*
X0156702Y0102321D01*
X0156458Y0099926D02*
X0162865Y0099926D01*
X0162066Y0099127D02*
X0156902Y0099127D01*
X0156902Y0098329D02*
X0161272Y0098329D01*
X0160941Y0097530D02*
X0156902Y0097530D01*
X0156902Y0096732D02*
X0160910Y0096732D01*
X0160910Y0095933D02*
X0156902Y0095933D01*
X0156902Y0095134D02*
X0160910Y0095134D01*
X0160910Y0094336D02*
X0156902Y0094336D01*
X0156614Y0093537D02*
X0160910Y0093537D01*
X0160910Y0092739D02*
X0155733Y0092739D01*
X0155733Y0091940D02*
X0160552Y0091940D01*
X0143433Y0094294D02*
X0143433Y0101164D01*
X0142933Y0100664D01*
X0138852Y0100664D01*
X0138333Y0101182D01*
X0137815Y0100664D01*
X0133734Y0100664D01*
X0133156Y0101242D01*
X0131714Y0101242D01*
X0130832Y0101607D01*
X0130333Y0102106D01*
X0130333Y0091894D01*
X0130474Y0092035D01*
X0131222Y0092344D01*
X0131222Y0092631D01*
X0132159Y0093568D01*
X0136104Y0093568D01*
X0135355Y0094318D01*
X0135355Y0098399D01*
X0136293Y0099336D01*
X0140374Y0099336D01*
X0141311Y0098399D01*
X0141311Y0095900D01*
X0142193Y0095535D01*
X0142868Y0094859D01*
X0142868Y0094859D01*
X0143433Y0094294D01*
X0143433Y0094336D02*
X0143391Y0094336D01*
X0143433Y0095134D02*
X0142593Y0095134D01*
X0143433Y0095933D02*
X0141311Y0095933D01*
X0141311Y0096732D02*
X0143433Y0096732D01*
X0143433Y0097530D02*
X0141311Y0097530D01*
X0141311Y0098329D02*
X0143433Y0098329D01*
X0143433Y0099127D02*
X0140583Y0099127D01*
X0138791Y0100724D02*
X0137875Y0100724D01*
X0136083Y0099127D02*
X0130333Y0099127D01*
X0130333Y0098329D02*
X0135355Y0098329D01*
X0135355Y0097530D02*
X0130333Y0097530D01*
X0130333Y0096732D02*
X0135355Y0096732D01*
X0135355Y0095933D02*
X0130333Y0095933D01*
X0130333Y0095134D02*
X0135355Y0095134D01*
X0135355Y0094336D02*
X0130333Y0094336D01*
X0130333Y0093537D02*
X0132128Y0093537D01*
X0131329Y0092739D02*
X0130333Y0092739D01*
X0130333Y0091940D02*
X0130380Y0091940D01*
X0130333Y0099926D02*
X0143433Y0099926D01*
X0143433Y0100724D02*
X0142993Y0100724D01*
X0133673Y0100724D02*
X0130333Y0100724D01*
X0130333Y0101523D02*
X0131036Y0101523D01*
X0134827Y0127400D02*
X0133733Y0128494D01*
X0133733Y0133577D01*
X0136240Y0133577D01*
X0137177Y0134514D01*
X0137177Y0138005D01*
X0136240Y0138943D01*
X0133733Y0138943D01*
X0133733Y0141057D01*
X0136240Y0141057D01*
X0137177Y0141995D01*
X0137177Y0145486D01*
X0136240Y0146423D01*
X0133733Y0146423D01*
X0133733Y0158263D01*
X0134247Y0158050D01*
X0135420Y0158050D01*
X0136222Y0158382D01*
X0136222Y0158369D01*
X0136340Y0158250D01*
X0136222Y0158131D01*
X0136222Y0152869D01*
X0136340Y0152750D01*
X0136222Y0152631D01*
X0136222Y0147369D01*
X0137159Y0146431D01*
X0137678Y0146431D01*
X0137799Y0146141D01*
X0138474Y0145465D01*
X0139474Y0144465D01*
X0139490Y0144459D01*
X0139490Y0141995D01*
X0139813Y0141671D01*
X0139785Y0141623D01*
X0139690Y0141267D01*
X0139690Y0140141D01*
X0143310Y0140141D01*
X0143310Y0139859D01*
X0139690Y0139859D01*
X0139690Y0138733D01*
X0139785Y0138377D01*
X0139813Y0138329D01*
X0139490Y0138005D01*
X0139490Y0134514D01*
X0140427Y0133577D01*
X0141052Y0133577D01*
X0141052Y0131915D01*
X0136765Y0131915D01*
X0135828Y0130978D01*
X0135828Y0127400D01*
X0134827Y0127400D01*
X0134354Y0127873D02*
X0135828Y0127873D01*
X0135828Y0128672D02*
X0133733Y0128672D01*
X0133733Y0129470D02*
X0135828Y0129470D01*
X0135828Y0130269D02*
X0133733Y0130269D01*
X0133733Y0131068D02*
X0135918Y0131068D01*
X0136716Y0131866D02*
X0133733Y0131866D01*
X0133733Y0132665D02*
X0141052Y0132665D01*
X0141052Y0133463D02*
X0133733Y0133463D01*
X0136924Y0134262D02*
X0139742Y0134262D01*
X0139490Y0135060D02*
X0137177Y0135060D01*
X0137177Y0135859D02*
X0139490Y0135859D01*
X0139490Y0136657D02*
X0137177Y0136657D01*
X0137177Y0137456D02*
X0139490Y0137456D01*
X0139738Y0138254D02*
X0136928Y0138254D01*
X0139690Y0139053D02*
X0133733Y0139053D01*
X0133733Y0139851D02*
X0139690Y0139851D01*
X0139690Y0140650D02*
X0133733Y0140650D01*
X0136630Y0141448D02*
X0139738Y0141448D01*
X0139490Y0142247D02*
X0137177Y0142247D01*
X0137177Y0143045D02*
X0139490Y0143045D01*
X0139490Y0143844D02*
X0137177Y0143844D01*
X0137177Y0144642D02*
X0139297Y0144642D01*
X0138498Y0145441D02*
X0137177Y0145441D01*
X0137758Y0146239D02*
X0136423Y0146239D01*
X0136553Y0147038D02*
X0133733Y0147038D01*
X0133733Y0147836D02*
X0136222Y0147836D01*
X0136222Y0148635D02*
X0133733Y0148635D01*
X0133733Y0149433D02*
X0136222Y0149433D01*
X0136222Y0150232D02*
X0133733Y0150232D01*
X0133733Y0151030D02*
X0136222Y0151030D01*
X0136222Y0151829D02*
X0133733Y0151829D01*
X0133733Y0152627D02*
X0136222Y0152627D01*
X0136222Y0153426D02*
X0133733Y0153426D01*
X0133733Y0154224D02*
X0136222Y0154224D01*
X0136222Y0155023D02*
X0133733Y0155023D01*
X0133733Y0155821D02*
X0136222Y0155821D01*
X0136222Y0156620D02*
X0133733Y0156620D01*
X0133733Y0157418D02*
X0136222Y0157418D01*
X0136307Y0158217D02*
X0135823Y0158217D01*
X0133844Y0158217D02*
X0133733Y0158217D01*
X0146280Y0158217D02*
X0147080Y0158217D01*
X0147080Y0158868D02*
X0147080Y0155900D01*
X0146280Y0155900D01*
X0146280Y0160600D01*
X0147080Y0160600D01*
X0147080Y0158868D01*
X0147080Y0159015D02*
X0146280Y0159015D01*
X0146280Y0159814D02*
X0147080Y0159814D01*
X0147080Y0161400D02*
X0146280Y0161400D01*
X0146280Y0164368D01*
X0146280Y0166100D01*
X0147080Y0166100D01*
X0147080Y0166900D01*
X0150245Y0166900D01*
X0150245Y0168653D01*
X0150150Y0169009D01*
X0149965Y0169328D01*
X0149705Y0169589D01*
X0149386Y0169773D01*
X0149029Y0169868D01*
X0147080Y0169868D01*
X0147080Y0166900D01*
X0146280Y0166900D01*
X0146280Y0169868D01*
X0144330Y0169868D01*
X0143974Y0169773D01*
X0143655Y0169589D01*
X0143475Y0169409D01*
X0142815Y0170068D01*
X0137159Y0170068D01*
X0136902Y0169812D01*
X0136902Y0170710D01*
X0136359Y0172021D01*
X0135380Y0173000D01*
X0161590Y0173000D01*
X0161222Y0172631D01*
X0161222Y0172344D01*
X0160474Y0172035D01*
X0159474Y0171035D01*
X0158799Y0170359D01*
X0158433Y0169477D01*
X0158433Y0166023D01*
X0158799Y0165141D01*
X0160474Y0163465D01*
X0161356Y0163100D01*
X0161910Y0163100D01*
X0161910Y0160830D01*
X0160733Y0159653D01*
X0160733Y0159977D01*
X0160368Y0160859D01*
X0158868Y0162359D01*
X0158193Y0163035D01*
X0157311Y0163400D01*
X0153105Y0163400D01*
X0153004Y0163501D01*
X0151920Y0163950D01*
X0150747Y0163950D01*
X0150059Y0163665D01*
X0150010Y0163750D01*
X0150150Y0163991D01*
X0150245Y0164347D01*
X0150245Y0166100D01*
X0147080Y0166100D01*
X0147080Y0161400D01*
X0147080Y0161411D02*
X0146280Y0161411D01*
X0146280Y0162209D02*
X0147080Y0162209D01*
X0147080Y0163008D02*
X0146280Y0163008D01*
X0146280Y0163806D02*
X0147080Y0163806D01*
X0147080Y0164605D02*
X0146280Y0164605D01*
X0146280Y0165403D02*
X0147080Y0165403D01*
X0147080Y0166202D02*
X0158433Y0166202D01*
X0158433Y0167001D02*
X0150245Y0167001D01*
X0150245Y0167799D02*
X0158433Y0167799D01*
X0158433Y0168598D02*
X0150245Y0168598D01*
X0149897Y0169396D02*
X0158433Y0169396D01*
X0158730Y0170195D02*
X0136902Y0170195D01*
X0136784Y0170993D02*
X0159432Y0170993D01*
X0160231Y0171792D02*
X0136454Y0171792D01*
X0135790Y0172590D02*
X0161222Y0172590D01*
X0168384Y0167001D02*
X0168566Y0167001D01*
X0171280Y0167001D02*
X0172080Y0167001D01*
X0172080Y0166631D02*
X0174029Y0166631D01*
X0174386Y0166727D01*
X0174705Y0166911D01*
X0174965Y0167172D01*
X0175150Y0167491D01*
X0175245Y0167847D01*
X0175245Y0169600D01*
X0172080Y0169600D01*
X0172080Y0166631D01*
X0172080Y0167799D02*
X0171280Y0167799D01*
X0171280Y0168598D02*
X0172080Y0168598D01*
X0172080Y0169396D02*
X0171280Y0169396D01*
X0172080Y0170195D02*
X0179587Y0170195D01*
X0179587Y0169600D02*
X0176422Y0169600D01*
X0176422Y0167847D01*
X0176517Y0167491D01*
X0176701Y0167172D01*
X0176962Y0166911D01*
X0177281Y0166727D01*
X0177637Y0166631D01*
X0179587Y0166631D01*
X0179587Y0169600D01*
X0179587Y0169396D02*
X0180387Y0169396D01*
X0180387Y0168598D02*
X0179587Y0168598D01*
X0179587Y0167799D02*
X0180387Y0167799D01*
X0180387Y0167001D02*
X0179587Y0167001D01*
X0176873Y0167001D02*
X0174794Y0167001D01*
X0175232Y0167799D02*
X0176434Y0167799D01*
X0176422Y0168598D02*
X0175245Y0168598D01*
X0175245Y0169396D02*
X0176422Y0169396D01*
X0176422Y0170993D02*
X0175245Y0170993D01*
X0175245Y0171792D02*
X0176422Y0171792D01*
X0176564Y0172590D02*
X0175103Y0172590D01*
X0183101Y0167001D02*
X0183283Y0167001D01*
X0184483Y0163806D02*
X0174093Y0163806D01*
X0174756Y0163008D02*
X0176971Y0163008D01*
X0176911Y0162903D02*
X0176815Y0162547D01*
X0176815Y0160387D01*
X0179403Y0160387D01*
X0179403Y0159613D01*
X0176815Y0159613D01*
X0176815Y0157453D01*
X0176911Y0157097D01*
X0177095Y0156778D01*
X0177356Y0156518D01*
X0177675Y0156333D01*
X0178031Y0156238D01*
X0179403Y0156238D01*
X0179403Y0159613D01*
X0180177Y0159613D01*
X0180177Y0160387D01*
X0179403Y0160387D01*
X0179403Y0163762D01*
X0178031Y0163762D01*
X0177675Y0163667D01*
X0177356Y0163482D01*
X0177095Y0163222D01*
X0176911Y0162903D01*
X0176815Y0162209D02*
X0174756Y0162209D01*
X0174756Y0161411D02*
X0176815Y0161411D01*
X0176815Y0160612D02*
X0174756Y0160612D01*
X0174756Y0159814D02*
X0179403Y0159814D01*
X0180177Y0159814D02*
X0183702Y0159814D01*
X0183702Y0160612D02*
X0182765Y0160612D01*
X0182765Y0160387D02*
X0182765Y0162547D01*
X0182669Y0162903D01*
X0182485Y0163222D01*
X0182224Y0163482D01*
X0181905Y0163667D01*
X0181549Y0163762D01*
X0180177Y0163762D01*
X0180177Y0160387D01*
X0182765Y0160387D01*
X0182765Y0161411D02*
X0183702Y0161411D01*
X0183702Y0162209D02*
X0182765Y0162209D01*
X0182609Y0163008D02*
X0183702Y0163008D01*
X0180177Y0163008D02*
X0179403Y0163008D01*
X0179403Y0162209D02*
X0180177Y0162209D01*
X0180177Y0161411D02*
X0179403Y0161411D01*
X0179403Y0160612D02*
X0180177Y0160612D01*
X0180177Y0159015D02*
X0179403Y0159015D01*
X0179403Y0158217D02*
X0180177Y0158217D01*
X0180177Y0157418D02*
X0179403Y0157418D01*
X0179403Y0156620D02*
X0180177Y0156620D01*
X0177253Y0156620D02*
X0174282Y0156620D01*
X0174756Y0157418D02*
X0176825Y0157418D01*
X0176815Y0158217D02*
X0174756Y0158217D01*
X0174756Y0159015D02*
X0176815Y0159015D01*
X0182765Y0159015D02*
X0183702Y0159015D01*
X0183702Y0158217D02*
X0182765Y0158217D01*
X0189277Y0155821D02*
X0194118Y0155821D01*
X0194916Y0155023D02*
X0189052Y0155023D01*
X0188452Y0154224D02*
X0195715Y0154224D01*
X0196513Y0153426D02*
X0189651Y0153426D01*
X0190445Y0152627D02*
X0192968Y0152627D01*
X0195699Y0152627D02*
X0197312Y0152627D01*
X0196676Y0151829D02*
X0198110Y0151829D01*
X0198909Y0151030D02*
X0197100Y0151030D01*
X0197496Y0150232D02*
X0199707Y0150232D01*
X0200506Y0149433D02*
X0198294Y0149433D01*
X0199093Y0148635D02*
X0200933Y0148635D01*
X0200933Y0147836D02*
X0199891Y0147836D01*
X0200690Y0147038D02*
X0200933Y0147038D01*
X0193901Y0147038D02*
X0190114Y0147038D01*
X0183245Y0147038D02*
X0183138Y0147038D01*
X0180387Y0147038D02*
X0179587Y0147038D01*
X0179587Y0147836D02*
X0180387Y0147836D01*
X0180387Y0148635D02*
X0179587Y0148635D01*
X0179587Y0149433D02*
X0180387Y0149433D01*
X0179587Y0150232D02*
X0174756Y0150232D01*
X0179587Y0151030D02*
X0180387Y0151030D01*
X0180387Y0151829D02*
X0179587Y0151829D01*
X0179587Y0152627D02*
X0180387Y0152627D01*
X0189696Y0156620D02*
X0193319Y0156620D01*
X0192521Y0157418D02*
X0190051Y0157418D01*
X0190051Y0158217D02*
X0191722Y0158217D01*
X0191143Y0159015D02*
X0190051Y0159015D01*
X0190051Y0159814D02*
X0190933Y0159814D01*
X0190933Y0160612D02*
X0190051Y0160612D01*
X0190051Y0161411D02*
X0190933Y0161411D01*
X0190933Y0162209D02*
X0190051Y0162209D01*
X0190051Y0163008D02*
X0190933Y0163008D01*
X0190933Y0163806D02*
X0189270Y0163806D01*
X0210307Y0155821D02*
X0216320Y0155821D01*
X0216321Y0156620D02*
X0212500Y0156620D01*
X0213766Y0157418D02*
X0216321Y0157418D01*
X0216322Y0158217D02*
X0214718Y0158217D01*
X0215617Y0159015D02*
X0216322Y0159015D01*
X0216323Y0159814D02*
X0216078Y0159814D01*
X0171596Y0143844D02*
X0164233Y0143844D01*
X0164233Y0144642D02*
X0170797Y0144642D01*
X0170022Y0145441D02*
X0164233Y0145441D01*
X0164036Y0143045D02*
X0166918Y0143045D01*
X0166447Y0142247D02*
X0163474Y0142247D01*
X0162676Y0141448D02*
X0166422Y0141448D01*
X0166422Y0140650D02*
X0161877Y0140650D01*
X0169587Y0140650D02*
X0170387Y0140650D01*
X0170387Y0141448D02*
X0169587Y0141448D01*
X0169587Y0142247D02*
X0170387Y0142247D01*
X0170387Y0143045D02*
X0169587Y0143045D01*
X0168475Y0146239D02*
X0168192Y0146239D01*
X0168192Y0147038D02*
X0168475Y0147038D01*
X0168475Y0147836D02*
X0168192Y0147836D01*
X0168192Y0148635D02*
X0168475Y0148635D01*
X0168475Y0149433D02*
X0168192Y0149433D01*
X0166668Y0146239D02*
X0166659Y0146239D01*
X0155943Y0148219D02*
X0155597Y0147872D01*
X0154328Y0147872D01*
X0153446Y0147507D01*
X0151974Y0146035D01*
X0151299Y0145359D01*
X0150933Y0144477D01*
X0150933Y0140374D01*
X0150112Y0141195D01*
X0148945Y0141679D01*
X0147682Y0141679D01*
X0147161Y0141463D01*
X0147119Y0141623D01*
X0147091Y0141671D01*
X0147414Y0141995D01*
X0147414Y0145486D01*
X0146477Y0146423D01*
X0145618Y0146423D01*
X0145615Y0146431D01*
X0149508Y0146431D01*
X0150445Y0147369D01*
X0150445Y0147656D01*
X0151193Y0147965D01*
X0153368Y0150141D01*
X0153733Y0151023D01*
X0153733Y0158600D01*
X0155839Y0158600D01*
X0155933Y0158506D01*
X0155933Y0157264D01*
X0155099Y0156430D01*
X0155099Y0152625D01*
X0155933Y0151791D01*
X0155933Y0151772D01*
X0155832Y0151671D01*
X0155383Y0150587D01*
X0155383Y0149413D01*
X0155832Y0148329D01*
X0155943Y0148219D01*
X0155706Y0148635D02*
X0151862Y0148635D01*
X0152661Y0149433D02*
X0155383Y0149433D01*
X0155383Y0150232D02*
X0153406Y0150232D01*
X0153733Y0151030D02*
X0155567Y0151030D01*
X0155895Y0151829D02*
X0153733Y0151829D01*
X0153733Y0152627D02*
X0155099Y0152627D01*
X0155099Y0153426D02*
X0153733Y0153426D01*
X0153733Y0154224D02*
X0155099Y0154224D01*
X0155099Y0155023D02*
X0153733Y0155023D01*
X0153733Y0155821D02*
X0155099Y0155821D01*
X0155289Y0156620D02*
X0153733Y0156620D01*
X0153733Y0157418D02*
X0155933Y0157418D01*
X0155933Y0158217D02*
X0153733Y0158217D01*
X0147080Y0157418D02*
X0146280Y0157418D01*
X0146280Y0156620D02*
X0147080Y0156620D01*
X0158219Y0163008D02*
X0161910Y0163008D01*
X0161910Y0162209D02*
X0159018Y0162209D01*
X0159816Y0161411D02*
X0161910Y0161411D01*
X0161693Y0160612D02*
X0160470Y0160612D01*
X0160733Y0159814D02*
X0160894Y0159814D01*
X0160133Y0163806D02*
X0152267Y0163806D01*
X0150400Y0163806D02*
X0150043Y0163806D01*
X0150245Y0164605D02*
X0159334Y0164605D01*
X0158690Y0165403D02*
X0150245Y0165403D01*
X0147080Y0167001D02*
X0146280Y0167001D01*
X0146280Y0167799D02*
X0147080Y0167799D01*
X0147080Y0168598D02*
X0146280Y0168598D01*
X0146280Y0169396D02*
X0147080Y0169396D01*
X0150881Y0147836D02*
X0154241Y0147836D01*
X0152977Y0147038D02*
X0150114Y0147038D01*
X0151380Y0145441D02*
X0147414Y0145441D01*
X0147414Y0144642D02*
X0151002Y0144642D01*
X0150933Y0143844D02*
X0147414Y0143844D01*
X0147414Y0143045D02*
X0150933Y0143045D01*
X0150933Y0142247D02*
X0147414Y0142247D01*
X0149502Y0141448D02*
X0150933Y0141448D01*
X0150933Y0140650D02*
X0150658Y0140650D01*
X0152178Y0146239D02*
X0146660Y0146239D01*
X0195377Y0092739D02*
X0197237Y0092739D01*
M02*
