G75*
%MOIN*%
%OFA0B0*%
%FSLAX25Y25*%
%IPPOS*%
%LPD*%
%AMOC8*
5,1,8,0,0,1.08239X$1,22.5*
%
%ADD10C,0.00800*%
%ADD11C,0.01000*%
%ADD12C,0.01720*%
%ADD13C,0.00039*%
%ADD14C,0.00591*%
%ADD15R,0.00157X0.13071*%
%ADD16R,0.00157X0.02205*%
%ADD17R,0.00157X0.02835*%
%ADD18R,0.00157X0.07717*%
%ADD19R,0.00157X0.01890*%
%ADD20R,0.00157X0.02520*%
%ADD21R,0.00157X0.00630*%
%ADD22R,0.00157X0.01732*%
%ADD23R,0.00157X0.00472*%
%ADD24R,0.00157X0.01575*%
%ADD25R,0.00157X0.01417*%
%ADD26R,0.00157X0.01260*%
%ADD27R,0.00157X0.01102*%
%ADD28R,0.00157X0.02047*%
%ADD29R,0.00157X0.00787*%
%ADD30R,0.00157X0.00945*%
%ADD31R,0.00157X0.02362*%
%ADD32R,0.00157X0.00157*%
%ADD33R,0.00157X0.00315*%
%ADD34R,0.00157X0.02677*%
%ADD35R,0.00157X0.02992*%
%ADD36R,0.00157X0.03150*%
%ADD37R,0.00157X0.03307*%
%ADD38R,0.00157X0.03465*%
%ADD39R,0.00157X0.15276*%
%ADD40R,0.00157X0.11024*%
%ADD41R,0.00157X0.07874*%
%ADD42R,0.00157X0.08031*%
%ADD43R,0.00157X0.08346*%
%ADD44R,0.00157X0.08504*%
%ADD45R,0.00157X0.09606*%
%ADD46R,0.00157X0.09764*%
%ADD47R,0.00157X0.09921*%
%ADD48R,0.00157X0.10079*%
%ADD49R,0.00157X0.03622*%
%ADD50R,0.00157X0.04882*%
%ADD51R,0.00157X0.04724*%
%ADD52R,0.00157X0.04252*%
%ADD53R,0.00157X0.03780*%
%ADD54R,0.00157X0.08661*%
%ADD55R,0.00157X0.11181*%
%ADD56R,0.00157X0.11496*%
%ADD57R,0.00157X0.11654*%
%ADD58R,0.00157X0.07559*%
%ADD59R,0.00157X0.07244*%
%ADD60R,0.00157X0.12756*%
%ADD61R,0.00157X0.12913*%
%ADD62R,0.00157X0.06614*%
%ADD63R,0.00157X0.06142*%
%ADD64R,0.00157X0.05197*%
%ADD65R,0.00157X0.05354*%
%ADD66R,0.00157X0.05039*%
%ADD67R,0.00157X0.04567*%
%ADD68R,0.00157X0.13228*%
%ADD69R,0.00157X0.04409*%
%ADD70R,0.00157X0.04094*%
%ADD71R,0.00157X0.03937*%
%ADD72R,0.00157X0.11811*%
%ADD73R,0.00157X0.16378*%
%ADD74R,0.00157X0.16850*%
%ADD75R,0.00157X0.17165*%
%ADD76R,0.00157X0.17480*%
%ADD77R,0.00157X0.17638*%
%ADD78R,0.00157X0.17795*%
%ADD79R,0.00157X0.17953*%
D10*
X0161633Y0092337D02*
X0195033Y0092337D01*
X0195114Y0092349D01*
X0195194Y0092364D01*
X0195273Y0092383D01*
X0195351Y0092405D01*
X0195428Y0092432D01*
X0195504Y0092461D01*
X0195578Y0092495D01*
X0195650Y0092532D01*
X0195721Y0092572D01*
X0195789Y0092616D01*
X0195856Y0092663D01*
X0195920Y0092713D01*
X0195981Y0092766D01*
X0196040Y0092822D01*
X0196097Y0092881D01*
X0196150Y0092942D01*
X0196201Y0093006D01*
X0196248Y0093072D01*
X0196292Y0093140D01*
X0196333Y0093210D01*
X0196371Y0093282D01*
X0196405Y0093356D01*
X0196435Y0093432D01*
X0196462Y0093508D01*
X0196485Y0093586D01*
X0196505Y0093665D01*
X0196520Y0093745D01*
X0196532Y0093826D01*
X0196540Y0093906D01*
X0196544Y0093988D01*
X0196545Y0094069D01*
X0196541Y0094150D01*
X0196534Y0094231D01*
X0196533Y0094281D02*
X0196533Y0097600D01*
X0196333Y0097600D02*
X0196235Y0097602D01*
X0196137Y0097608D01*
X0196039Y0097617D01*
X0195942Y0097631D01*
X0195845Y0097648D01*
X0195749Y0097669D01*
X0195654Y0097694D01*
X0195560Y0097722D01*
X0195468Y0097755D01*
X0195376Y0097790D01*
X0195286Y0097830D01*
X0195198Y0097872D01*
X0195111Y0097919D01*
X0195027Y0097968D01*
X0194944Y0098021D01*
X0194864Y0098077D01*
X0194785Y0098137D01*
X0194709Y0098199D01*
X0194636Y0098264D01*
X0194565Y0098332D01*
X0194497Y0098403D01*
X0194432Y0098476D01*
X0194370Y0098552D01*
X0194310Y0098631D01*
X0194254Y0098711D01*
X0194201Y0098794D01*
X0194152Y0098878D01*
X0194105Y0098965D01*
X0194063Y0099053D01*
X0194023Y0099143D01*
X0193988Y0099235D01*
X0193955Y0099327D01*
X0193927Y0099421D01*
X0193902Y0099516D01*
X0193881Y0099612D01*
X0193864Y0099709D01*
X0193850Y0099806D01*
X0193841Y0099904D01*
X0193835Y0100002D01*
X0193833Y0100100D01*
X0193835Y0100198D01*
X0193841Y0100296D01*
X0193850Y0100394D01*
X0193864Y0100491D01*
X0193881Y0100588D01*
X0193902Y0100684D01*
X0193927Y0100779D01*
X0193955Y0100873D01*
X0193988Y0100965D01*
X0194023Y0101057D01*
X0194063Y0101147D01*
X0194105Y0101235D01*
X0194152Y0101322D01*
X0194201Y0101406D01*
X0194254Y0101489D01*
X0194310Y0101569D01*
X0194370Y0101648D01*
X0194432Y0101724D01*
X0194497Y0101797D01*
X0194565Y0101868D01*
X0194636Y0101936D01*
X0194709Y0102001D01*
X0194785Y0102063D01*
X0194864Y0102123D01*
X0194944Y0102179D01*
X0195027Y0102232D01*
X0195111Y0102281D01*
X0195198Y0102328D01*
X0195286Y0102370D01*
X0195376Y0102410D01*
X0195468Y0102445D01*
X0195560Y0102478D01*
X0195654Y0102506D01*
X0195749Y0102531D01*
X0195845Y0102552D01*
X0195942Y0102569D01*
X0196039Y0102583D01*
X0196137Y0102592D01*
X0196235Y0102598D01*
X0196333Y0102600D01*
X0196533Y0102600D02*
X0196533Y0106556D01*
X0196521Y0106626D01*
X0196504Y0106696D01*
X0196484Y0106764D01*
X0196461Y0106832D01*
X0196433Y0106898D01*
X0196402Y0106962D01*
X0196368Y0107024D01*
X0196330Y0107085D01*
X0196290Y0107144D01*
X0196246Y0107200D01*
X0196199Y0107253D01*
X0196149Y0107305D01*
X0196096Y0107353D01*
X0196041Y0107398D01*
X0195984Y0107441D01*
X0195924Y0107480D01*
X0195862Y0107516D01*
X0195799Y0107548D01*
X0195734Y0107577D01*
X0195667Y0107603D01*
X0195599Y0107625D01*
X0195530Y0107643D01*
X0195460Y0107657D01*
X0195389Y0107667D01*
X0195318Y0107674D01*
X0195247Y0107677D01*
X0195176Y0107676D01*
X0195104Y0107671D01*
X0195034Y0107662D01*
X0195033Y0107663D02*
X0161240Y0107663D01*
X0161239Y0107662D02*
X0161169Y0107650D01*
X0161099Y0107633D01*
X0161031Y0107613D01*
X0160964Y0107589D01*
X0160898Y0107562D01*
X0160833Y0107531D01*
X0160771Y0107497D01*
X0160710Y0107459D01*
X0160652Y0107418D01*
X0160595Y0107374D01*
X0160542Y0107327D01*
X0160491Y0107277D01*
X0160442Y0107225D01*
X0160397Y0107170D01*
X0160354Y0107112D01*
X0160315Y0107053D01*
X0160279Y0106991D01*
X0160247Y0106927D01*
X0160218Y0106862D01*
X0160192Y0106796D01*
X0160171Y0106728D01*
X0160152Y0106658D01*
X0160138Y0106589D01*
X0160128Y0106518D01*
X0160121Y0106447D01*
X0160118Y0106376D01*
X0160119Y0106304D01*
X0160124Y0106233D01*
X0160133Y0106162D01*
X0160133Y0106163D02*
X0160133Y0093837D01*
X0160135Y0093761D01*
X0160141Y0093686D01*
X0160150Y0093610D01*
X0160164Y0093535D01*
X0160181Y0093461D01*
X0160202Y0093388D01*
X0160226Y0093316D01*
X0160254Y0093246D01*
X0160286Y0093177D01*
X0160321Y0093109D01*
X0160360Y0093044D01*
X0160402Y0092980D01*
X0160447Y0092919D01*
X0160495Y0092860D01*
X0160546Y0092804D01*
X0160600Y0092750D01*
X0160656Y0092699D01*
X0160715Y0092651D01*
X0160776Y0092606D01*
X0160840Y0092564D01*
X0160905Y0092525D01*
X0160973Y0092490D01*
X0161042Y0092458D01*
X0161112Y0092430D01*
X0161184Y0092406D01*
X0161257Y0092385D01*
X0161331Y0092368D01*
X0161406Y0092354D01*
X0161482Y0092345D01*
X0161557Y0092339D01*
X0161633Y0092337D01*
X0142664Y0097244D02*
X0142664Y0101394D01*
X0142664Y0097244D02*
X0140983Y0097244D01*
X0135684Y0097244D02*
X0134003Y0097244D01*
X0134003Y0101394D01*
X0136640Y0118701D02*
X0136640Y0131299D01*
X0150026Y0131299D01*
X0150026Y0118701D01*
X0136640Y0118701D01*
X0136643Y0135000D02*
X0140024Y0135000D01*
X0135543Y0138943D02*
X0135543Y0141057D01*
X0136643Y0145000D02*
X0140024Y0145000D01*
X0155873Y0146457D02*
X0155873Y0153543D01*
X0155873Y0156969D02*
X0160794Y0156969D01*
X0163333Y0156691D02*
X0163333Y0153309D01*
X0160794Y0153543D02*
X0160794Y0146457D01*
X0173333Y0153309D02*
X0173333Y0156691D01*
X0169390Y0157791D02*
X0167277Y0157791D01*
D11*
X0162033Y0151000D03*
X0142333Y0133700D03*
D12*
X0196333Y0109100D03*
D13*
X0202105Y0109094D02*
X0203262Y0109094D01*
X0203262Y0109056D02*
X0202105Y0109056D01*
X0202105Y0109019D02*
X0203262Y0109019D01*
X0203262Y0108981D02*
X0202105Y0108981D01*
X0202105Y0108943D02*
X0203262Y0108943D01*
X0203262Y0108905D02*
X0202105Y0108905D01*
X0202105Y0108867D02*
X0203262Y0108867D01*
X0203262Y0108829D02*
X0202105Y0108829D01*
X0202105Y0108791D02*
X0203262Y0108791D01*
X0203262Y0108753D02*
X0202105Y0108753D01*
X0202105Y0108715D02*
X0203262Y0108715D01*
X0203262Y0108678D02*
X0202105Y0108678D01*
X0202105Y0108640D02*
X0203262Y0108640D01*
X0203262Y0108602D02*
X0202105Y0108602D01*
X0202105Y0108564D02*
X0203262Y0108564D01*
X0203262Y0108526D02*
X0202105Y0108526D01*
X0202105Y0108488D02*
X0203262Y0108488D01*
X0203262Y0108450D02*
X0202105Y0108450D01*
X0202105Y0108412D02*
X0203262Y0108412D01*
X0203262Y0108375D02*
X0202105Y0108375D01*
X0202105Y0108337D02*
X0203262Y0108337D01*
X0203262Y0108299D02*
X0202105Y0108299D01*
X0202105Y0108261D02*
X0203262Y0108261D01*
X0203262Y0108223D02*
X0202105Y0108223D01*
X0202105Y0108185D02*
X0203262Y0108185D01*
X0203262Y0108147D02*
X0202105Y0108147D01*
X0202105Y0108109D02*
X0203262Y0108109D01*
X0203262Y0108071D02*
X0202105Y0108071D01*
X0202105Y0108034D02*
X0203262Y0108034D01*
X0203262Y0107996D02*
X0202105Y0107996D01*
X0202105Y0107958D02*
X0203262Y0107958D01*
X0203262Y0107920D02*
X0202105Y0107920D01*
X0202105Y0107882D02*
X0203262Y0107882D01*
X0203262Y0107844D02*
X0202105Y0107844D01*
X0202105Y0107806D02*
X0203262Y0107806D01*
X0203262Y0107768D02*
X0202105Y0107768D01*
X0202105Y0107731D02*
X0203262Y0107731D01*
X0203262Y0107693D02*
X0202105Y0107693D01*
X0202105Y0107655D02*
X0214561Y0107655D01*
X0214561Y0107693D02*
X0213405Y0107693D01*
X0213405Y0107656D02*
X0203262Y0107656D01*
X0203262Y0141447D01*
X0208940Y0141447D01*
X0213405Y0141447D01*
X0213405Y0141042D01*
X0214561Y0141042D01*
X0214561Y0151500D01*
X0208940Y0151500D01*
X0208940Y0147726D01*
X0211353Y0149372D01*
X0211353Y0147810D01*
X0209283Y0146455D01*
X0211353Y0145092D01*
X0211353Y0143584D01*
X0208940Y0145241D01*
X0208940Y0141447D01*
X0208940Y0145241D01*
X0208284Y0145691D01*
X0205318Y0143674D01*
X0205318Y0145227D01*
X0207276Y0146496D01*
X0205318Y0147774D01*
X0205318Y0149281D01*
X0208266Y0147266D01*
X0208940Y0147726D01*
X0208940Y0151500D01*
X0202105Y0151500D01*
X0202105Y0141447D01*
X0202105Y0106500D01*
X0214561Y0106500D01*
X0214561Y0141042D01*
X0213405Y0141042D01*
X0213405Y0107656D01*
X0213405Y0107731D02*
X0214561Y0107731D01*
X0214561Y0107768D02*
X0213405Y0107768D01*
X0213405Y0107806D02*
X0214561Y0107806D01*
X0214561Y0107844D02*
X0213405Y0107844D01*
X0213405Y0107882D02*
X0214561Y0107882D01*
X0214561Y0107920D02*
X0213405Y0107920D01*
X0213405Y0107958D02*
X0214561Y0107958D01*
X0214561Y0107996D02*
X0213405Y0107996D01*
X0213405Y0108034D02*
X0214561Y0108034D01*
X0214561Y0108071D02*
X0213405Y0108071D01*
X0213405Y0108109D02*
X0214561Y0108109D01*
X0214561Y0108147D02*
X0213405Y0108147D01*
X0213405Y0108185D02*
X0214561Y0108185D01*
X0214561Y0108223D02*
X0213405Y0108223D01*
X0213405Y0108261D02*
X0214561Y0108261D01*
X0214561Y0108299D02*
X0213405Y0108299D01*
X0213405Y0108337D02*
X0214561Y0108337D01*
X0214561Y0108375D02*
X0213405Y0108375D01*
X0213405Y0108412D02*
X0214561Y0108412D01*
X0214561Y0108450D02*
X0213405Y0108450D01*
X0213405Y0108488D02*
X0214561Y0108488D01*
X0214561Y0108526D02*
X0213405Y0108526D01*
X0213405Y0108564D02*
X0214561Y0108564D01*
X0214561Y0108602D02*
X0213405Y0108602D01*
X0213405Y0108640D02*
X0214561Y0108640D01*
X0214561Y0108678D02*
X0213405Y0108678D01*
X0213405Y0108715D02*
X0214561Y0108715D01*
X0214561Y0108753D02*
X0213405Y0108753D01*
X0213405Y0108791D02*
X0214561Y0108791D01*
X0214561Y0108829D02*
X0213405Y0108829D01*
X0213405Y0108867D02*
X0214561Y0108867D01*
X0214561Y0108905D02*
X0213405Y0108905D01*
X0213405Y0108943D02*
X0214561Y0108943D01*
X0214561Y0108981D02*
X0213405Y0108981D01*
X0213405Y0109019D02*
X0214561Y0109019D01*
X0214561Y0109056D02*
X0213405Y0109056D01*
X0213405Y0109094D02*
X0214561Y0109094D01*
X0214561Y0109132D02*
X0213405Y0109132D01*
X0213405Y0109170D02*
X0214561Y0109170D01*
X0214561Y0109208D02*
X0213405Y0109208D01*
X0213405Y0109246D02*
X0214561Y0109246D01*
X0214561Y0109284D02*
X0213405Y0109284D01*
X0213405Y0109322D02*
X0214561Y0109322D01*
X0214561Y0109359D02*
X0213405Y0109359D01*
X0213405Y0109397D02*
X0214561Y0109397D01*
X0214561Y0109435D02*
X0213405Y0109435D01*
X0213405Y0109473D02*
X0214561Y0109473D01*
X0214561Y0109511D02*
X0213405Y0109511D01*
X0213405Y0109549D02*
X0214561Y0109549D01*
X0214561Y0109587D02*
X0213405Y0109587D01*
X0213405Y0109625D02*
X0214561Y0109625D01*
X0214561Y0109663D02*
X0213405Y0109663D01*
X0213405Y0109700D02*
X0214561Y0109700D01*
X0214561Y0109738D02*
X0213405Y0109738D01*
X0213405Y0109776D02*
X0214561Y0109776D01*
X0214561Y0109814D02*
X0213405Y0109814D01*
X0213405Y0109852D02*
X0214561Y0109852D01*
X0214561Y0109890D02*
X0213405Y0109890D01*
X0213405Y0109928D02*
X0214561Y0109928D01*
X0214561Y0109966D02*
X0213405Y0109966D01*
X0213405Y0110003D02*
X0214561Y0110003D01*
X0214561Y0110041D02*
X0213405Y0110041D01*
X0213405Y0110079D02*
X0214561Y0110079D01*
X0214561Y0110117D02*
X0213405Y0110117D01*
X0213405Y0110155D02*
X0214561Y0110155D01*
X0214561Y0110193D02*
X0213405Y0110193D01*
X0213405Y0110231D02*
X0214561Y0110231D01*
X0214561Y0110269D02*
X0213405Y0110269D01*
X0213405Y0110306D02*
X0214561Y0110306D01*
X0214561Y0110344D02*
X0213405Y0110344D01*
X0213405Y0110382D02*
X0214561Y0110382D01*
X0214561Y0110420D02*
X0213405Y0110420D01*
X0213405Y0110458D02*
X0214561Y0110458D01*
X0214561Y0110496D02*
X0213405Y0110496D01*
X0213405Y0110534D02*
X0214561Y0110534D01*
X0214561Y0110572D02*
X0213405Y0110572D01*
X0213405Y0110610D02*
X0214561Y0110610D01*
X0214561Y0110647D02*
X0213405Y0110647D01*
X0213405Y0110685D02*
X0214561Y0110685D01*
X0214561Y0110723D02*
X0213405Y0110723D01*
X0213405Y0110761D02*
X0214561Y0110761D01*
X0214561Y0110799D02*
X0213405Y0110799D01*
X0213405Y0110837D02*
X0214561Y0110837D01*
X0214561Y0110875D02*
X0213405Y0110875D01*
X0213405Y0110913D02*
X0214561Y0110913D01*
X0214561Y0110950D02*
X0213405Y0110950D01*
X0213405Y0110988D02*
X0214561Y0110988D01*
X0214561Y0111026D02*
X0213405Y0111026D01*
X0213405Y0111064D02*
X0214561Y0111064D01*
X0214561Y0111102D02*
X0213405Y0111102D01*
X0213405Y0111140D02*
X0214561Y0111140D01*
X0214561Y0111178D02*
X0213405Y0111178D01*
X0213405Y0111216D02*
X0214561Y0111216D01*
X0214561Y0111254D02*
X0213405Y0111254D01*
X0213405Y0111291D02*
X0214561Y0111291D01*
X0214561Y0111329D02*
X0213405Y0111329D01*
X0213405Y0111367D02*
X0214561Y0111367D01*
X0214561Y0111405D02*
X0213405Y0111405D01*
X0213405Y0111443D02*
X0214561Y0111443D01*
X0214561Y0111481D02*
X0213405Y0111481D01*
X0213405Y0111519D02*
X0214561Y0111519D01*
X0214561Y0111557D02*
X0213405Y0111557D01*
X0213405Y0111594D02*
X0214561Y0111594D01*
X0214561Y0111632D02*
X0213405Y0111632D01*
X0213405Y0111670D02*
X0214561Y0111670D01*
X0214561Y0111708D02*
X0213405Y0111708D01*
X0213405Y0111746D02*
X0214561Y0111746D01*
X0214561Y0111784D02*
X0213405Y0111784D01*
X0213405Y0111822D02*
X0214561Y0111822D01*
X0214561Y0111860D02*
X0213405Y0111860D01*
X0213405Y0111898D02*
X0214561Y0111898D01*
X0214561Y0111935D02*
X0213405Y0111935D01*
X0213405Y0111973D02*
X0214561Y0111973D01*
X0214561Y0112011D02*
X0213405Y0112011D01*
X0213405Y0112049D02*
X0214561Y0112049D01*
X0214561Y0112087D02*
X0213405Y0112087D01*
X0213405Y0112125D02*
X0214561Y0112125D01*
X0214561Y0112163D02*
X0213405Y0112163D01*
X0213405Y0112201D02*
X0214561Y0112201D01*
X0214561Y0112238D02*
X0213405Y0112238D01*
X0213405Y0112276D02*
X0214561Y0112276D01*
X0214561Y0112314D02*
X0213405Y0112314D01*
X0213405Y0112352D02*
X0214561Y0112352D01*
X0214561Y0112390D02*
X0213405Y0112390D01*
X0213405Y0112428D02*
X0214561Y0112428D01*
X0214561Y0112466D02*
X0213405Y0112466D01*
X0213405Y0112504D02*
X0214561Y0112504D01*
X0214561Y0112541D02*
X0213405Y0112541D01*
X0213405Y0112579D02*
X0214561Y0112579D01*
X0214561Y0112617D02*
X0213405Y0112617D01*
X0213405Y0112655D02*
X0214561Y0112655D01*
X0214561Y0112693D02*
X0213405Y0112693D01*
X0213405Y0112731D02*
X0214561Y0112731D01*
X0214561Y0112769D02*
X0213405Y0112769D01*
X0213405Y0112807D02*
X0214561Y0112807D01*
X0214561Y0112845D02*
X0213405Y0112845D01*
X0213405Y0112882D02*
X0214561Y0112882D01*
X0214561Y0112920D02*
X0213405Y0112920D01*
X0213405Y0112958D02*
X0214561Y0112958D01*
X0214561Y0112996D02*
X0213405Y0112996D01*
X0213405Y0113034D02*
X0214561Y0113034D01*
X0214561Y0113072D02*
X0213405Y0113072D01*
X0213405Y0113110D02*
X0214561Y0113110D01*
X0214561Y0113148D02*
X0213405Y0113148D01*
X0213405Y0113185D02*
X0214561Y0113185D01*
X0214561Y0113223D02*
X0213405Y0113223D01*
X0213405Y0113261D02*
X0214561Y0113261D01*
X0214561Y0113299D02*
X0213405Y0113299D01*
X0213405Y0113337D02*
X0214561Y0113337D01*
X0214561Y0113375D02*
X0213405Y0113375D01*
X0213405Y0113413D02*
X0214561Y0113413D01*
X0214561Y0113451D02*
X0213405Y0113451D01*
X0213405Y0113489D02*
X0214561Y0113489D01*
X0214561Y0113526D02*
X0213405Y0113526D01*
X0213405Y0113564D02*
X0214561Y0113564D01*
X0214561Y0113602D02*
X0213405Y0113602D01*
X0213405Y0113640D02*
X0214561Y0113640D01*
X0214561Y0113678D02*
X0213405Y0113678D01*
X0213405Y0113716D02*
X0214561Y0113716D01*
X0214561Y0113754D02*
X0213405Y0113754D01*
X0213405Y0113792D02*
X0214561Y0113792D01*
X0214561Y0113829D02*
X0213405Y0113829D01*
X0213405Y0113867D02*
X0214561Y0113867D01*
X0214561Y0113905D02*
X0213405Y0113905D01*
X0213405Y0113943D02*
X0214561Y0113943D01*
X0214561Y0113981D02*
X0213405Y0113981D01*
X0213405Y0114019D02*
X0214561Y0114019D01*
X0214561Y0114057D02*
X0213405Y0114057D01*
X0213405Y0114095D02*
X0214561Y0114095D01*
X0214561Y0114133D02*
X0213405Y0114133D01*
X0213405Y0114170D02*
X0214561Y0114170D01*
X0214561Y0114208D02*
X0213405Y0114208D01*
X0213405Y0114246D02*
X0214561Y0114246D01*
X0214561Y0114284D02*
X0213405Y0114284D01*
X0213405Y0114322D02*
X0214561Y0114322D01*
X0214561Y0114360D02*
X0213405Y0114360D01*
X0213405Y0114398D02*
X0214561Y0114398D01*
X0214561Y0114436D02*
X0213405Y0114436D01*
X0213405Y0114473D02*
X0214561Y0114473D01*
X0214561Y0114511D02*
X0213405Y0114511D01*
X0213405Y0114549D02*
X0214561Y0114549D01*
X0214561Y0114587D02*
X0213405Y0114587D01*
X0213405Y0114625D02*
X0214561Y0114625D01*
X0214561Y0114663D02*
X0213405Y0114663D01*
X0213405Y0114701D02*
X0214561Y0114701D01*
X0214561Y0114739D02*
X0213405Y0114739D01*
X0213405Y0114777D02*
X0214561Y0114777D01*
X0214561Y0114814D02*
X0213405Y0114814D01*
X0213405Y0114852D02*
X0214561Y0114852D01*
X0214561Y0114890D02*
X0213405Y0114890D01*
X0213405Y0114928D02*
X0214561Y0114928D01*
X0214561Y0114966D02*
X0213405Y0114966D01*
X0213405Y0115004D02*
X0214561Y0115004D01*
X0214561Y0115042D02*
X0213405Y0115042D01*
X0213405Y0115080D02*
X0214561Y0115080D01*
X0214561Y0115117D02*
X0213405Y0115117D01*
X0213405Y0115155D02*
X0214561Y0115155D01*
X0214561Y0115193D02*
X0213405Y0115193D01*
X0213405Y0115231D02*
X0214561Y0115231D01*
X0214561Y0115269D02*
X0213405Y0115269D01*
X0213405Y0115307D02*
X0214561Y0115307D01*
X0214561Y0115345D02*
X0213405Y0115345D01*
X0213405Y0115383D02*
X0214561Y0115383D01*
X0214561Y0115420D02*
X0213405Y0115420D01*
X0213405Y0115458D02*
X0214561Y0115458D01*
X0214561Y0115496D02*
X0213405Y0115496D01*
X0213405Y0115534D02*
X0214561Y0115534D01*
X0214561Y0115572D02*
X0213405Y0115572D01*
X0213405Y0115610D02*
X0214561Y0115610D01*
X0214561Y0115648D02*
X0213405Y0115648D01*
X0213405Y0115686D02*
X0214561Y0115686D01*
X0214561Y0115724D02*
X0213405Y0115724D01*
X0213405Y0115761D02*
X0214561Y0115761D01*
X0214561Y0115799D02*
X0213405Y0115799D01*
X0213405Y0115837D02*
X0214561Y0115837D01*
X0214561Y0115875D02*
X0213405Y0115875D01*
X0213405Y0115913D02*
X0214561Y0115913D01*
X0214561Y0115951D02*
X0213405Y0115951D01*
X0213405Y0115989D02*
X0214561Y0115989D01*
X0214561Y0116027D02*
X0213405Y0116027D01*
X0213405Y0116064D02*
X0214561Y0116064D01*
X0214561Y0116102D02*
X0213405Y0116102D01*
X0213405Y0116140D02*
X0214561Y0116140D01*
X0214561Y0116178D02*
X0213405Y0116178D01*
X0213405Y0116216D02*
X0214561Y0116216D01*
X0214561Y0116254D02*
X0213405Y0116254D01*
X0213405Y0116292D02*
X0214561Y0116292D01*
X0214561Y0116330D02*
X0213405Y0116330D01*
X0213405Y0116368D02*
X0214561Y0116368D01*
X0214561Y0116405D02*
X0213405Y0116405D01*
X0213405Y0116443D02*
X0214561Y0116443D01*
X0214561Y0116481D02*
X0213405Y0116481D01*
X0213405Y0116519D02*
X0214561Y0116519D01*
X0214561Y0116557D02*
X0213405Y0116557D01*
X0213405Y0116595D02*
X0214561Y0116595D01*
X0214561Y0116633D02*
X0213405Y0116633D01*
X0213405Y0116671D02*
X0214561Y0116671D01*
X0214561Y0116708D02*
X0213405Y0116708D01*
X0213405Y0116746D02*
X0214561Y0116746D01*
X0214561Y0116784D02*
X0213405Y0116784D01*
X0213405Y0116822D02*
X0214561Y0116822D01*
X0214561Y0116860D02*
X0213405Y0116860D01*
X0213405Y0116898D02*
X0214561Y0116898D01*
X0214561Y0116936D02*
X0213405Y0116936D01*
X0213405Y0116974D02*
X0214561Y0116974D01*
X0214561Y0117012D02*
X0213405Y0117012D01*
X0213405Y0117049D02*
X0214561Y0117049D01*
X0214561Y0117087D02*
X0213405Y0117087D01*
X0213405Y0117125D02*
X0214561Y0117125D01*
X0214561Y0117163D02*
X0213405Y0117163D01*
X0213405Y0117201D02*
X0214561Y0117201D01*
X0214561Y0117239D02*
X0213405Y0117239D01*
X0213405Y0117277D02*
X0214561Y0117277D01*
X0214561Y0117315D02*
X0213405Y0117315D01*
X0213405Y0117352D02*
X0214561Y0117352D01*
X0214561Y0117390D02*
X0213405Y0117390D01*
X0213405Y0117428D02*
X0214561Y0117428D01*
X0214561Y0117466D02*
X0213405Y0117466D01*
X0213405Y0117504D02*
X0214561Y0117504D01*
X0214561Y0117542D02*
X0213405Y0117542D01*
X0213405Y0117580D02*
X0214561Y0117580D01*
X0214561Y0117618D02*
X0213405Y0117618D01*
X0213405Y0117655D02*
X0214561Y0117655D01*
X0214561Y0117693D02*
X0213405Y0117693D01*
X0213405Y0117731D02*
X0214561Y0117731D01*
X0214561Y0117769D02*
X0213405Y0117769D01*
X0213405Y0117807D02*
X0214561Y0117807D01*
X0214561Y0117845D02*
X0213405Y0117845D01*
X0213405Y0117883D02*
X0214561Y0117883D01*
X0214561Y0117921D02*
X0213405Y0117921D01*
X0213405Y0117959D02*
X0214561Y0117959D01*
X0214561Y0117996D02*
X0213405Y0117996D01*
X0213405Y0118034D02*
X0214561Y0118034D01*
X0214561Y0118072D02*
X0213405Y0118072D01*
X0213405Y0118110D02*
X0214561Y0118110D01*
X0214561Y0118148D02*
X0213405Y0118148D01*
X0213405Y0118186D02*
X0214561Y0118186D01*
X0214561Y0118224D02*
X0213405Y0118224D01*
X0213405Y0118262D02*
X0214561Y0118262D01*
X0214561Y0118299D02*
X0213405Y0118299D01*
X0213405Y0118337D02*
X0214561Y0118337D01*
X0214561Y0118375D02*
X0213405Y0118375D01*
X0213405Y0118413D02*
X0214561Y0118413D01*
X0214561Y0118451D02*
X0213405Y0118451D01*
X0213405Y0118489D02*
X0214561Y0118489D01*
X0214561Y0118527D02*
X0213405Y0118527D01*
X0213405Y0118565D02*
X0214561Y0118565D01*
X0214561Y0118603D02*
X0213405Y0118603D01*
X0213405Y0118640D02*
X0214561Y0118640D01*
X0214561Y0118678D02*
X0213405Y0118678D01*
X0213405Y0118716D02*
X0214561Y0118716D01*
X0214561Y0118754D02*
X0213405Y0118754D01*
X0213405Y0118792D02*
X0214561Y0118792D01*
X0214561Y0118830D02*
X0213405Y0118830D01*
X0213405Y0118868D02*
X0214561Y0118868D01*
X0214561Y0118906D02*
X0213405Y0118906D01*
X0213405Y0118943D02*
X0214561Y0118943D01*
X0214561Y0118981D02*
X0213405Y0118981D01*
X0213405Y0119019D02*
X0214561Y0119019D01*
X0214561Y0119057D02*
X0213405Y0119057D01*
X0213405Y0119095D02*
X0214561Y0119095D01*
X0214561Y0119133D02*
X0213405Y0119133D01*
X0213405Y0119171D02*
X0214561Y0119171D01*
X0214561Y0119209D02*
X0213405Y0119209D01*
X0213405Y0119247D02*
X0214561Y0119247D01*
X0214561Y0119284D02*
X0213405Y0119284D01*
X0213405Y0119322D02*
X0214561Y0119322D01*
X0214561Y0119360D02*
X0213405Y0119360D01*
X0213405Y0119398D02*
X0214561Y0119398D01*
X0214561Y0119436D02*
X0213405Y0119436D01*
X0213405Y0119474D02*
X0214561Y0119474D01*
X0214561Y0119512D02*
X0213405Y0119512D01*
X0213405Y0119550D02*
X0214561Y0119550D01*
X0214561Y0119587D02*
X0213405Y0119587D01*
X0213405Y0119625D02*
X0214561Y0119625D01*
X0214561Y0119663D02*
X0213405Y0119663D01*
X0213405Y0119701D02*
X0214561Y0119701D01*
X0214561Y0119739D02*
X0213405Y0119739D01*
X0213405Y0119777D02*
X0214561Y0119777D01*
X0214561Y0119815D02*
X0213405Y0119815D01*
X0213405Y0119853D02*
X0214561Y0119853D01*
X0214561Y0119890D02*
X0213405Y0119890D01*
X0213405Y0119928D02*
X0214561Y0119928D01*
X0214561Y0119966D02*
X0213405Y0119966D01*
X0213405Y0120004D02*
X0214561Y0120004D01*
X0214561Y0120042D02*
X0213405Y0120042D01*
X0213405Y0120080D02*
X0214561Y0120080D01*
X0214561Y0120118D02*
X0213405Y0120118D01*
X0213405Y0120156D02*
X0214561Y0120156D01*
X0214561Y0120194D02*
X0213405Y0120194D01*
X0213405Y0120231D02*
X0214561Y0120231D01*
X0214561Y0120269D02*
X0213405Y0120269D01*
X0213405Y0120307D02*
X0214561Y0120307D01*
X0214561Y0120345D02*
X0213405Y0120345D01*
X0213405Y0120383D02*
X0214561Y0120383D01*
X0214561Y0120421D02*
X0213405Y0120421D01*
X0213405Y0120459D02*
X0214561Y0120459D01*
X0214561Y0120497D02*
X0213405Y0120497D01*
X0213405Y0120534D02*
X0214561Y0120534D01*
X0214561Y0120572D02*
X0213405Y0120572D01*
X0213405Y0120610D02*
X0214561Y0120610D01*
X0214561Y0120648D02*
X0213405Y0120648D01*
X0213405Y0120686D02*
X0214561Y0120686D01*
X0214561Y0120724D02*
X0213405Y0120724D01*
X0213405Y0120762D02*
X0214561Y0120762D01*
X0214561Y0120800D02*
X0213405Y0120800D01*
X0213405Y0120838D02*
X0214561Y0120838D01*
X0214561Y0120875D02*
X0213405Y0120875D01*
X0213405Y0120913D02*
X0214561Y0120913D01*
X0214561Y0120951D02*
X0213405Y0120951D01*
X0213405Y0120989D02*
X0214561Y0120989D01*
X0214561Y0121027D02*
X0213405Y0121027D01*
X0213405Y0121065D02*
X0214561Y0121065D01*
X0214561Y0121103D02*
X0213405Y0121103D01*
X0213405Y0121141D02*
X0214561Y0121141D01*
X0214561Y0121178D02*
X0213405Y0121178D01*
X0213405Y0121216D02*
X0214561Y0121216D01*
X0214561Y0121254D02*
X0213405Y0121254D01*
X0213405Y0121292D02*
X0214561Y0121292D01*
X0214561Y0121330D02*
X0213405Y0121330D01*
X0213405Y0121368D02*
X0214561Y0121368D01*
X0214561Y0121406D02*
X0213405Y0121406D01*
X0213405Y0121444D02*
X0214561Y0121444D01*
X0214561Y0121482D02*
X0213405Y0121482D01*
X0213405Y0121519D02*
X0214561Y0121519D01*
X0214561Y0121557D02*
X0213405Y0121557D01*
X0213405Y0121595D02*
X0214561Y0121595D01*
X0214561Y0121633D02*
X0213405Y0121633D01*
X0213405Y0121671D02*
X0214561Y0121671D01*
X0214561Y0121709D02*
X0213405Y0121709D01*
X0213405Y0121747D02*
X0214561Y0121747D01*
X0214561Y0121785D02*
X0213405Y0121785D01*
X0213405Y0121822D02*
X0214561Y0121822D01*
X0214561Y0121860D02*
X0213405Y0121860D01*
X0213405Y0121898D02*
X0214561Y0121898D01*
X0214561Y0121936D02*
X0213405Y0121936D01*
X0213405Y0121974D02*
X0214561Y0121974D01*
X0214561Y0122012D02*
X0213405Y0122012D01*
X0213405Y0122050D02*
X0214561Y0122050D01*
X0214561Y0122088D02*
X0213405Y0122088D01*
X0213405Y0122125D02*
X0214561Y0122125D01*
X0214561Y0122163D02*
X0213405Y0122163D01*
X0213405Y0122201D02*
X0214561Y0122201D01*
X0214561Y0122239D02*
X0213405Y0122239D01*
X0213405Y0122277D02*
X0214561Y0122277D01*
X0214561Y0122315D02*
X0213405Y0122315D01*
X0213405Y0122353D02*
X0214561Y0122353D01*
X0214561Y0122391D02*
X0213405Y0122391D01*
X0213405Y0122429D02*
X0214561Y0122429D01*
X0214561Y0122466D02*
X0213405Y0122466D01*
X0213405Y0122504D02*
X0214561Y0122504D01*
X0214561Y0122542D02*
X0213405Y0122542D01*
X0213405Y0122580D02*
X0214561Y0122580D01*
X0214561Y0122618D02*
X0213405Y0122618D01*
X0213405Y0122656D02*
X0214561Y0122656D01*
X0214561Y0122694D02*
X0213405Y0122694D01*
X0213405Y0122732D02*
X0214561Y0122732D01*
X0214561Y0122769D02*
X0213405Y0122769D01*
X0213405Y0122807D02*
X0214561Y0122807D01*
X0214561Y0122845D02*
X0213405Y0122845D01*
X0213405Y0122883D02*
X0214561Y0122883D01*
X0214561Y0122921D02*
X0213405Y0122921D01*
X0213405Y0122959D02*
X0214561Y0122959D01*
X0214561Y0122997D02*
X0213405Y0122997D01*
X0213405Y0123035D02*
X0214561Y0123035D01*
X0214561Y0123073D02*
X0213405Y0123073D01*
X0213405Y0123110D02*
X0214561Y0123110D01*
X0214561Y0123148D02*
X0213405Y0123148D01*
X0213405Y0123186D02*
X0214561Y0123186D01*
X0214561Y0123224D02*
X0213405Y0123224D01*
X0213405Y0123262D02*
X0214561Y0123262D01*
X0214561Y0123300D02*
X0213405Y0123300D01*
X0213405Y0123338D02*
X0214561Y0123338D01*
X0214561Y0123376D02*
X0213405Y0123376D01*
X0213405Y0123413D02*
X0214561Y0123413D01*
X0214561Y0123451D02*
X0213405Y0123451D01*
X0213405Y0123489D02*
X0214561Y0123489D01*
X0214561Y0123527D02*
X0213405Y0123527D01*
X0213405Y0123565D02*
X0214561Y0123565D01*
X0214561Y0123603D02*
X0213405Y0123603D01*
X0213405Y0123641D02*
X0214561Y0123641D01*
X0214561Y0123679D02*
X0213405Y0123679D01*
X0213405Y0123717D02*
X0214561Y0123717D01*
X0214561Y0123754D02*
X0213405Y0123754D01*
X0213405Y0123792D02*
X0214561Y0123792D01*
X0214561Y0123830D02*
X0213405Y0123830D01*
X0213405Y0123868D02*
X0214561Y0123868D01*
X0214561Y0123906D02*
X0213405Y0123906D01*
X0213405Y0123944D02*
X0214561Y0123944D01*
X0214561Y0123982D02*
X0213405Y0123982D01*
X0213405Y0124020D02*
X0214561Y0124020D01*
X0214561Y0124057D02*
X0213405Y0124057D01*
X0213405Y0124095D02*
X0214561Y0124095D01*
X0214561Y0124133D02*
X0213405Y0124133D01*
X0213405Y0124171D02*
X0214561Y0124171D01*
X0214561Y0124209D02*
X0213405Y0124209D01*
X0213405Y0124247D02*
X0214561Y0124247D01*
X0214561Y0124285D02*
X0213405Y0124285D01*
X0213405Y0124323D02*
X0214561Y0124323D01*
X0214561Y0124360D02*
X0213405Y0124360D01*
X0213405Y0124398D02*
X0214561Y0124398D01*
X0214561Y0124436D02*
X0213405Y0124436D01*
X0213405Y0124474D02*
X0214561Y0124474D01*
X0214561Y0124512D02*
X0213405Y0124512D01*
X0213405Y0124550D02*
X0214561Y0124550D01*
X0214561Y0124588D02*
X0213405Y0124588D01*
X0213405Y0124626D02*
X0214561Y0124626D01*
X0214561Y0124664D02*
X0213405Y0124664D01*
X0213405Y0124701D02*
X0214561Y0124701D01*
X0214561Y0124739D02*
X0213405Y0124739D01*
X0213405Y0124777D02*
X0214561Y0124777D01*
X0214561Y0124815D02*
X0213405Y0124815D01*
X0213405Y0124853D02*
X0214561Y0124853D01*
X0214561Y0124891D02*
X0213405Y0124891D01*
X0213405Y0124929D02*
X0214561Y0124929D01*
X0214561Y0124967D02*
X0213405Y0124967D01*
X0213405Y0125004D02*
X0214561Y0125004D01*
X0214561Y0125042D02*
X0213405Y0125042D01*
X0213405Y0125080D02*
X0214561Y0125080D01*
X0214561Y0125118D02*
X0213405Y0125118D01*
X0213405Y0125156D02*
X0214561Y0125156D01*
X0214561Y0125194D02*
X0213405Y0125194D01*
X0213405Y0125232D02*
X0214561Y0125232D01*
X0214561Y0125270D02*
X0213405Y0125270D01*
X0213405Y0125308D02*
X0214561Y0125308D01*
X0214561Y0125345D02*
X0213405Y0125345D01*
X0213405Y0125383D02*
X0214561Y0125383D01*
X0214561Y0125421D02*
X0213405Y0125421D01*
X0213405Y0125459D02*
X0214561Y0125459D01*
X0214561Y0125497D02*
X0213405Y0125497D01*
X0213405Y0125535D02*
X0214561Y0125535D01*
X0214561Y0125573D02*
X0213405Y0125573D01*
X0213405Y0125611D02*
X0214561Y0125611D01*
X0214561Y0125648D02*
X0213405Y0125648D01*
X0213405Y0125686D02*
X0214561Y0125686D01*
X0214561Y0125724D02*
X0213405Y0125724D01*
X0213405Y0125762D02*
X0214561Y0125762D01*
X0214561Y0125800D02*
X0213405Y0125800D01*
X0213405Y0125838D02*
X0214561Y0125838D01*
X0214561Y0125876D02*
X0213405Y0125876D01*
X0213405Y0125914D02*
X0214561Y0125914D01*
X0214561Y0125952D02*
X0213405Y0125952D01*
X0213405Y0125989D02*
X0214561Y0125989D01*
X0214561Y0126027D02*
X0213405Y0126027D01*
X0213405Y0126065D02*
X0214561Y0126065D01*
X0214561Y0126103D02*
X0213405Y0126103D01*
X0213405Y0126141D02*
X0214561Y0126141D01*
X0214561Y0126179D02*
X0213405Y0126179D01*
X0213405Y0126217D02*
X0214561Y0126217D01*
X0214561Y0126255D02*
X0213405Y0126255D01*
X0213405Y0126292D02*
X0214561Y0126292D01*
X0214561Y0126330D02*
X0213405Y0126330D01*
X0213405Y0126368D02*
X0214561Y0126368D01*
X0214561Y0126406D02*
X0213405Y0126406D01*
X0213405Y0126444D02*
X0214561Y0126444D01*
X0214561Y0126482D02*
X0213405Y0126482D01*
X0213405Y0126520D02*
X0214561Y0126520D01*
X0214561Y0126558D02*
X0213405Y0126558D01*
X0213405Y0126595D02*
X0214561Y0126595D01*
X0214561Y0126633D02*
X0213405Y0126633D01*
X0213405Y0126671D02*
X0214561Y0126671D01*
X0214561Y0126709D02*
X0213405Y0126709D01*
X0213405Y0126747D02*
X0214561Y0126747D01*
X0214561Y0126785D02*
X0213405Y0126785D01*
X0213405Y0126823D02*
X0214561Y0126823D01*
X0214561Y0126861D02*
X0213405Y0126861D01*
X0213405Y0126899D02*
X0214561Y0126899D01*
X0214561Y0126936D02*
X0213405Y0126936D01*
X0213405Y0126974D02*
X0214561Y0126974D01*
X0214561Y0127012D02*
X0213405Y0127012D01*
X0213405Y0127050D02*
X0214561Y0127050D01*
X0214561Y0127088D02*
X0213405Y0127088D01*
X0213405Y0127126D02*
X0214561Y0127126D01*
X0214561Y0127164D02*
X0213405Y0127164D01*
X0213405Y0127202D02*
X0214561Y0127202D01*
X0214561Y0127239D02*
X0213405Y0127239D01*
X0213405Y0127277D02*
X0214561Y0127277D01*
X0214561Y0127315D02*
X0213405Y0127315D01*
X0213405Y0127353D02*
X0214561Y0127353D01*
X0214561Y0127391D02*
X0213405Y0127391D01*
X0213405Y0127429D02*
X0214561Y0127429D01*
X0214561Y0127467D02*
X0213405Y0127467D01*
X0213405Y0127505D02*
X0214561Y0127505D01*
X0214561Y0127543D02*
X0213405Y0127543D01*
X0213405Y0127580D02*
X0214561Y0127580D01*
X0214561Y0127618D02*
X0213405Y0127618D01*
X0213405Y0127656D02*
X0214561Y0127656D01*
X0214561Y0127694D02*
X0213405Y0127694D01*
X0213405Y0127732D02*
X0214561Y0127732D01*
X0214561Y0127770D02*
X0213405Y0127770D01*
X0213405Y0127808D02*
X0214561Y0127808D01*
X0214561Y0127846D02*
X0213405Y0127846D01*
X0213405Y0127883D02*
X0214561Y0127883D01*
X0214561Y0127921D02*
X0213405Y0127921D01*
X0213405Y0127959D02*
X0214561Y0127959D01*
X0214561Y0127997D02*
X0213405Y0127997D01*
X0213405Y0128035D02*
X0214561Y0128035D01*
X0214561Y0128073D02*
X0213405Y0128073D01*
X0213405Y0128111D02*
X0214561Y0128111D01*
X0214561Y0128149D02*
X0213405Y0128149D01*
X0213405Y0128187D02*
X0214561Y0128187D01*
X0214561Y0128224D02*
X0213405Y0128224D01*
X0213405Y0128262D02*
X0214561Y0128262D01*
X0214561Y0128300D02*
X0213405Y0128300D01*
X0213405Y0128338D02*
X0214561Y0128338D01*
X0214561Y0128376D02*
X0213405Y0128376D01*
X0213405Y0128414D02*
X0214561Y0128414D01*
X0214561Y0128452D02*
X0213405Y0128452D01*
X0213405Y0128490D02*
X0214561Y0128490D01*
X0214561Y0128527D02*
X0213405Y0128527D01*
X0213405Y0128565D02*
X0214561Y0128565D01*
X0214561Y0128603D02*
X0213405Y0128603D01*
X0213405Y0128641D02*
X0214561Y0128641D01*
X0214561Y0128679D02*
X0213405Y0128679D01*
X0213405Y0128717D02*
X0214561Y0128717D01*
X0214561Y0128755D02*
X0213405Y0128755D01*
X0213405Y0128793D02*
X0214561Y0128793D01*
X0214561Y0128830D02*
X0213405Y0128830D01*
X0213405Y0128868D02*
X0214561Y0128868D01*
X0214561Y0128906D02*
X0213405Y0128906D01*
X0213405Y0128944D02*
X0214561Y0128944D01*
X0214561Y0128982D02*
X0213405Y0128982D01*
X0213405Y0129020D02*
X0214561Y0129020D01*
X0214561Y0129058D02*
X0213405Y0129058D01*
X0213405Y0129096D02*
X0214561Y0129096D01*
X0214561Y0129134D02*
X0213405Y0129134D01*
X0213405Y0129171D02*
X0214561Y0129171D01*
X0214561Y0129209D02*
X0213405Y0129209D01*
X0213405Y0129247D02*
X0214561Y0129247D01*
X0214561Y0129285D02*
X0213405Y0129285D01*
X0213405Y0129323D02*
X0214561Y0129323D01*
X0214561Y0129361D02*
X0213405Y0129361D01*
X0213405Y0129399D02*
X0214561Y0129399D01*
X0214561Y0129437D02*
X0213405Y0129437D01*
X0213405Y0129474D02*
X0214561Y0129474D01*
X0214561Y0129512D02*
X0213405Y0129512D01*
X0213405Y0129550D02*
X0214561Y0129550D01*
X0214561Y0129588D02*
X0213405Y0129588D01*
X0213405Y0129626D02*
X0214561Y0129626D01*
X0214561Y0129664D02*
X0213405Y0129664D01*
X0213405Y0129702D02*
X0214561Y0129702D01*
X0214561Y0129740D02*
X0213405Y0129740D01*
X0213405Y0129778D02*
X0214561Y0129778D01*
X0214561Y0129815D02*
X0213405Y0129815D01*
X0213405Y0129853D02*
X0214561Y0129853D01*
X0214561Y0129891D02*
X0213405Y0129891D01*
X0213405Y0129929D02*
X0214561Y0129929D01*
X0214561Y0129967D02*
X0213405Y0129967D01*
X0213405Y0130005D02*
X0214561Y0130005D01*
X0214561Y0130043D02*
X0213405Y0130043D01*
X0213405Y0130081D02*
X0214561Y0130081D01*
X0214561Y0130118D02*
X0213405Y0130118D01*
X0213405Y0130156D02*
X0214561Y0130156D01*
X0214561Y0130194D02*
X0213405Y0130194D01*
X0213405Y0130232D02*
X0214561Y0130232D01*
X0214561Y0130270D02*
X0213405Y0130270D01*
X0213405Y0130308D02*
X0214561Y0130308D01*
X0214561Y0130346D02*
X0213405Y0130346D01*
X0213405Y0130384D02*
X0214561Y0130384D01*
X0214561Y0130422D02*
X0213405Y0130422D01*
X0213405Y0130459D02*
X0214561Y0130459D01*
X0214561Y0130497D02*
X0213405Y0130497D01*
X0213405Y0130535D02*
X0214561Y0130535D01*
X0214561Y0130573D02*
X0213405Y0130573D01*
X0213405Y0130611D02*
X0214561Y0130611D01*
X0214561Y0130649D02*
X0213405Y0130649D01*
X0213405Y0130687D02*
X0214561Y0130687D01*
X0214561Y0130725D02*
X0213405Y0130725D01*
X0213405Y0130762D02*
X0214561Y0130762D01*
X0214561Y0130800D02*
X0213405Y0130800D01*
X0213405Y0130838D02*
X0214561Y0130838D01*
X0214561Y0130876D02*
X0213405Y0130876D01*
X0213405Y0130914D02*
X0214561Y0130914D01*
X0214561Y0130952D02*
X0213405Y0130952D01*
X0213405Y0130990D02*
X0214561Y0130990D01*
X0214561Y0131028D02*
X0213405Y0131028D01*
X0213405Y0131066D02*
X0214561Y0131066D01*
X0214561Y0131103D02*
X0213405Y0131103D01*
X0213405Y0131141D02*
X0214561Y0131141D01*
X0214561Y0131179D02*
X0213405Y0131179D01*
X0213405Y0131217D02*
X0214561Y0131217D01*
X0214561Y0131255D02*
X0213405Y0131255D01*
X0213405Y0131293D02*
X0214561Y0131293D01*
X0214561Y0131331D02*
X0213405Y0131331D01*
X0213405Y0131369D02*
X0214561Y0131369D01*
X0214561Y0131406D02*
X0213405Y0131406D01*
X0213405Y0131444D02*
X0214561Y0131444D01*
X0214561Y0131482D02*
X0213405Y0131482D01*
X0213405Y0131520D02*
X0214561Y0131520D01*
X0214561Y0131558D02*
X0213405Y0131558D01*
X0213405Y0131596D02*
X0214561Y0131596D01*
X0214561Y0131634D02*
X0213405Y0131634D01*
X0213405Y0131672D02*
X0214561Y0131672D01*
X0214561Y0131709D02*
X0213405Y0131709D01*
X0213405Y0131747D02*
X0214561Y0131747D01*
X0214561Y0131785D02*
X0213405Y0131785D01*
X0213405Y0131823D02*
X0214561Y0131823D01*
X0214561Y0131861D02*
X0213405Y0131861D01*
X0213405Y0131899D02*
X0214561Y0131899D01*
X0214561Y0131937D02*
X0213405Y0131937D01*
X0213405Y0131975D02*
X0214561Y0131975D01*
X0214561Y0132013D02*
X0213405Y0132013D01*
X0213405Y0132050D02*
X0214561Y0132050D01*
X0214561Y0132088D02*
X0213405Y0132088D01*
X0213405Y0132126D02*
X0214561Y0132126D01*
X0214561Y0132164D02*
X0213405Y0132164D01*
X0213405Y0132202D02*
X0214561Y0132202D01*
X0214561Y0132240D02*
X0213405Y0132240D01*
X0213405Y0132278D02*
X0214561Y0132278D01*
X0214561Y0132316D02*
X0213405Y0132316D01*
X0213405Y0132353D02*
X0214561Y0132353D01*
X0214561Y0132391D02*
X0213405Y0132391D01*
X0213405Y0132429D02*
X0214561Y0132429D01*
X0214561Y0132467D02*
X0213405Y0132467D01*
X0213405Y0132505D02*
X0214561Y0132505D01*
X0214561Y0132543D02*
X0213405Y0132543D01*
X0213405Y0132581D02*
X0214561Y0132581D01*
X0214561Y0132619D02*
X0213405Y0132619D01*
X0213405Y0132657D02*
X0214561Y0132657D01*
X0214561Y0132694D02*
X0213405Y0132694D01*
X0213405Y0132732D02*
X0214561Y0132732D01*
X0214561Y0132770D02*
X0213405Y0132770D01*
X0213405Y0132808D02*
X0214561Y0132808D01*
X0214561Y0132846D02*
X0213405Y0132846D01*
X0213405Y0132884D02*
X0214561Y0132884D01*
X0214561Y0132922D02*
X0213405Y0132922D01*
X0213405Y0132960D02*
X0214561Y0132960D01*
X0214561Y0132997D02*
X0213405Y0132997D01*
X0213405Y0133035D02*
X0214561Y0133035D01*
X0214561Y0133073D02*
X0213405Y0133073D01*
X0213405Y0133111D02*
X0214561Y0133111D01*
X0214561Y0133149D02*
X0213405Y0133149D01*
X0213405Y0133187D02*
X0214561Y0133187D01*
X0214561Y0133225D02*
X0213405Y0133225D01*
X0213405Y0133263D02*
X0214561Y0133263D01*
X0214561Y0133301D02*
X0213405Y0133301D01*
X0213405Y0133338D02*
X0214561Y0133338D01*
X0214561Y0133376D02*
X0213405Y0133376D01*
X0213405Y0133414D02*
X0214561Y0133414D01*
X0214561Y0133452D02*
X0213405Y0133452D01*
X0213405Y0133490D02*
X0214561Y0133490D01*
X0214561Y0133528D02*
X0213405Y0133528D01*
X0213405Y0133566D02*
X0214561Y0133566D01*
X0214561Y0133604D02*
X0213405Y0133604D01*
X0213405Y0133641D02*
X0214561Y0133641D01*
X0214561Y0133679D02*
X0213405Y0133679D01*
X0213405Y0133717D02*
X0214561Y0133717D01*
X0214561Y0133755D02*
X0213405Y0133755D01*
X0213405Y0133793D02*
X0214561Y0133793D01*
X0214561Y0133831D02*
X0213405Y0133831D01*
X0213405Y0133869D02*
X0214561Y0133869D01*
X0214561Y0133907D02*
X0213405Y0133907D01*
X0213405Y0133944D02*
X0214561Y0133944D01*
X0214561Y0133982D02*
X0213405Y0133982D01*
X0213405Y0134020D02*
X0214561Y0134020D01*
X0214561Y0134058D02*
X0213405Y0134058D01*
X0213405Y0134096D02*
X0214561Y0134096D01*
X0214561Y0134134D02*
X0213405Y0134134D01*
X0213405Y0134172D02*
X0214561Y0134172D01*
X0214561Y0134210D02*
X0213405Y0134210D01*
X0213405Y0134248D02*
X0214561Y0134248D01*
X0214561Y0134285D02*
X0213405Y0134285D01*
X0213405Y0134323D02*
X0214561Y0134323D01*
X0214561Y0134361D02*
X0213405Y0134361D01*
X0213405Y0134399D02*
X0214561Y0134399D01*
X0214561Y0134437D02*
X0213405Y0134437D01*
X0213405Y0134475D02*
X0214561Y0134475D01*
X0214561Y0134513D02*
X0213405Y0134513D01*
X0213405Y0134551D02*
X0214561Y0134551D01*
X0214561Y0134588D02*
X0213405Y0134588D01*
X0213405Y0134626D02*
X0214561Y0134626D01*
X0214561Y0134664D02*
X0213405Y0134664D01*
X0213405Y0134702D02*
X0214561Y0134702D01*
X0214561Y0134740D02*
X0213405Y0134740D01*
X0213405Y0134778D02*
X0214561Y0134778D01*
X0214561Y0134816D02*
X0213405Y0134816D01*
X0213405Y0134854D02*
X0214561Y0134854D01*
X0214561Y0134892D02*
X0213405Y0134892D01*
X0213405Y0134929D02*
X0214561Y0134929D01*
X0214561Y0134967D02*
X0213405Y0134967D01*
X0213405Y0135005D02*
X0214561Y0135005D01*
X0214561Y0135043D02*
X0213405Y0135043D01*
X0213405Y0135081D02*
X0214561Y0135081D01*
X0214561Y0135119D02*
X0213405Y0135119D01*
X0213405Y0135157D02*
X0214561Y0135157D01*
X0214561Y0135195D02*
X0213405Y0135195D01*
X0213405Y0135232D02*
X0214561Y0135232D01*
X0214561Y0135270D02*
X0213405Y0135270D01*
X0213405Y0135308D02*
X0214561Y0135308D01*
X0214561Y0135346D02*
X0213405Y0135346D01*
X0213405Y0135384D02*
X0214561Y0135384D01*
X0214561Y0135422D02*
X0213405Y0135422D01*
X0213405Y0135460D02*
X0214561Y0135460D01*
X0214561Y0135498D02*
X0213405Y0135498D01*
X0213405Y0135536D02*
X0214561Y0135536D01*
X0214561Y0135573D02*
X0213405Y0135573D01*
X0213405Y0135611D02*
X0214561Y0135611D01*
X0214561Y0135649D02*
X0213405Y0135649D01*
X0213405Y0135687D02*
X0214561Y0135687D01*
X0214561Y0135725D02*
X0213405Y0135725D01*
X0213405Y0135763D02*
X0214561Y0135763D01*
X0214561Y0135801D02*
X0213405Y0135801D01*
X0213405Y0135839D02*
X0214561Y0135839D01*
X0214561Y0135876D02*
X0213405Y0135876D01*
X0213405Y0135914D02*
X0214561Y0135914D01*
X0214561Y0135952D02*
X0213405Y0135952D01*
X0213405Y0135990D02*
X0214561Y0135990D01*
X0214561Y0136028D02*
X0213405Y0136028D01*
X0213405Y0136066D02*
X0214561Y0136066D01*
X0214561Y0136104D02*
X0213405Y0136104D01*
X0213405Y0136142D02*
X0214561Y0136142D01*
X0214561Y0136179D02*
X0213405Y0136179D01*
X0213405Y0136217D02*
X0214561Y0136217D01*
X0214561Y0136255D02*
X0213405Y0136255D01*
X0213405Y0136293D02*
X0214561Y0136293D01*
X0214561Y0136331D02*
X0213405Y0136331D01*
X0213405Y0136369D02*
X0214561Y0136369D01*
X0214561Y0136407D02*
X0213405Y0136407D01*
X0213405Y0136445D02*
X0214561Y0136445D01*
X0214561Y0136483D02*
X0213405Y0136483D01*
X0213405Y0136520D02*
X0214561Y0136520D01*
X0214561Y0136558D02*
X0213405Y0136558D01*
X0213405Y0136596D02*
X0214561Y0136596D01*
X0214561Y0136634D02*
X0213405Y0136634D01*
X0213405Y0136672D02*
X0214561Y0136672D01*
X0214561Y0136710D02*
X0213405Y0136710D01*
X0213405Y0136748D02*
X0214561Y0136748D01*
X0214561Y0136786D02*
X0213405Y0136786D01*
X0213405Y0136823D02*
X0214561Y0136823D01*
X0214561Y0136861D02*
X0213405Y0136861D01*
X0213405Y0136899D02*
X0214561Y0136899D01*
X0214561Y0136937D02*
X0213405Y0136937D01*
X0213405Y0136975D02*
X0214561Y0136975D01*
X0214561Y0137013D02*
X0213405Y0137013D01*
X0213405Y0137051D02*
X0214561Y0137051D01*
X0214561Y0137089D02*
X0213405Y0137089D01*
X0213405Y0137127D02*
X0214561Y0137127D01*
X0214561Y0137164D02*
X0213405Y0137164D01*
X0213405Y0137202D02*
X0214561Y0137202D01*
X0214561Y0137240D02*
X0213405Y0137240D01*
X0213405Y0137278D02*
X0214561Y0137278D01*
X0214561Y0137316D02*
X0213405Y0137316D01*
X0213405Y0137354D02*
X0214561Y0137354D01*
X0214561Y0137392D02*
X0213405Y0137392D01*
X0213405Y0137430D02*
X0214561Y0137430D01*
X0214561Y0137467D02*
X0213405Y0137467D01*
X0213405Y0137505D02*
X0214561Y0137505D01*
X0214561Y0137543D02*
X0213405Y0137543D01*
X0213405Y0137581D02*
X0214561Y0137581D01*
X0214561Y0137619D02*
X0213405Y0137619D01*
X0213405Y0137657D02*
X0214561Y0137657D01*
X0214561Y0137695D02*
X0213405Y0137695D01*
X0213405Y0137733D02*
X0214561Y0137733D01*
X0214561Y0137771D02*
X0213405Y0137771D01*
X0213405Y0137808D02*
X0214561Y0137808D01*
X0214561Y0137846D02*
X0213405Y0137846D01*
X0213405Y0137884D02*
X0214561Y0137884D01*
X0214561Y0137922D02*
X0213405Y0137922D01*
X0213405Y0137960D02*
X0214561Y0137960D01*
X0214561Y0137998D02*
X0213405Y0137998D01*
X0213405Y0138036D02*
X0214561Y0138036D01*
X0214561Y0138074D02*
X0213405Y0138074D01*
X0213405Y0138111D02*
X0214561Y0138111D01*
X0214561Y0138149D02*
X0213405Y0138149D01*
X0213405Y0138187D02*
X0214561Y0138187D01*
X0214561Y0138225D02*
X0213405Y0138225D01*
X0213405Y0138263D02*
X0214561Y0138263D01*
X0214561Y0138301D02*
X0213405Y0138301D01*
X0213405Y0138339D02*
X0214561Y0138339D01*
X0214561Y0138377D02*
X0213405Y0138377D01*
X0213405Y0138414D02*
X0214561Y0138414D01*
X0214561Y0138452D02*
X0213405Y0138452D01*
X0213405Y0138490D02*
X0214561Y0138490D01*
X0214561Y0138528D02*
X0213405Y0138528D01*
X0213405Y0138566D02*
X0214561Y0138566D01*
X0214561Y0138604D02*
X0213405Y0138604D01*
X0213405Y0138642D02*
X0214561Y0138642D01*
X0214561Y0138680D02*
X0213405Y0138680D01*
X0213405Y0138718D02*
X0214561Y0138718D01*
X0214561Y0138755D02*
X0213405Y0138755D01*
X0213405Y0138793D02*
X0214561Y0138793D01*
X0214561Y0138831D02*
X0213405Y0138831D01*
X0213405Y0138869D02*
X0214561Y0138869D01*
X0214561Y0138907D02*
X0213405Y0138907D01*
X0213405Y0138945D02*
X0214561Y0138945D01*
X0214561Y0138983D02*
X0213405Y0138983D01*
X0213405Y0139021D02*
X0214561Y0139021D01*
X0214561Y0139058D02*
X0213405Y0139058D01*
X0213405Y0139096D02*
X0214561Y0139096D01*
X0214561Y0139134D02*
X0213405Y0139134D01*
X0213405Y0139172D02*
X0214561Y0139172D01*
X0214561Y0139210D02*
X0213405Y0139210D01*
X0213405Y0139248D02*
X0214561Y0139248D01*
X0214561Y0139286D02*
X0213405Y0139286D01*
X0213405Y0139324D02*
X0214561Y0139324D01*
X0214561Y0139362D02*
X0213405Y0139362D01*
X0213405Y0139399D02*
X0214561Y0139399D01*
X0214561Y0139437D02*
X0213405Y0139437D01*
X0213405Y0139475D02*
X0214561Y0139475D01*
X0214561Y0139513D02*
X0213405Y0139513D01*
X0213405Y0139551D02*
X0214561Y0139551D01*
X0214561Y0139589D02*
X0213405Y0139589D01*
X0213405Y0139627D02*
X0214561Y0139627D01*
X0214561Y0139665D02*
X0213405Y0139665D01*
X0213405Y0139702D02*
X0214561Y0139702D01*
X0214561Y0139740D02*
X0213405Y0139740D01*
X0213405Y0139778D02*
X0214561Y0139778D01*
X0214561Y0139816D02*
X0213405Y0139816D01*
X0213405Y0139854D02*
X0214561Y0139854D01*
X0214561Y0139892D02*
X0213405Y0139892D01*
X0213405Y0139930D02*
X0214561Y0139930D01*
X0214561Y0139968D02*
X0213405Y0139968D01*
X0213405Y0140006D02*
X0214561Y0140006D01*
X0214561Y0140043D02*
X0213405Y0140043D01*
X0213405Y0140081D02*
X0214561Y0140081D01*
X0214561Y0140119D02*
X0213405Y0140119D01*
X0213405Y0140157D02*
X0214561Y0140157D01*
X0214561Y0140195D02*
X0213405Y0140195D01*
X0213405Y0140233D02*
X0214561Y0140233D01*
X0214561Y0140271D02*
X0213405Y0140271D01*
X0213405Y0140309D02*
X0214561Y0140309D01*
X0214561Y0140346D02*
X0213405Y0140346D01*
X0213405Y0140384D02*
X0214561Y0140384D01*
X0214561Y0140422D02*
X0213405Y0140422D01*
X0213405Y0140460D02*
X0214561Y0140460D01*
X0214561Y0140498D02*
X0213405Y0140498D01*
X0213405Y0140536D02*
X0214561Y0140536D01*
X0214561Y0140574D02*
X0213405Y0140574D01*
X0213405Y0140612D02*
X0214561Y0140612D01*
X0214561Y0140649D02*
X0213405Y0140649D01*
X0213405Y0140687D02*
X0214561Y0140687D01*
X0214561Y0140725D02*
X0213405Y0140725D01*
X0213405Y0140763D02*
X0214561Y0140763D01*
X0214561Y0140801D02*
X0213405Y0140801D01*
X0213405Y0140839D02*
X0214561Y0140839D01*
X0214561Y0140877D02*
X0213405Y0140877D01*
X0213405Y0140915D02*
X0214561Y0140915D01*
X0214561Y0140953D02*
X0213405Y0140953D01*
X0213405Y0140990D02*
X0214561Y0140990D01*
X0214561Y0141028D02*
X0213405Y0141028D01*
X0213405Y0141066D02*
X0214561Y0141066D01*
X0214561Y0141104D02*
X0213405Y0141104D01*
X0213405Y0141142D02*
X0214561Y0141142D01*
X0214561Y0141180D02*
X0213405Y0141180D01*
X0213405Y0141218D02*
X0214561Y0141218D01*
X0214561Y0141256D02*
X0213405Y0141256D01*
X0213405Y0141293D02*
X0214561Y0141293D01*
X0214561Y0141331D02*
X0213405Y0141331D01*
X0213405Y0141369D02*
X0214561Y0141369D01*
X0214561Y0141407D02*
X0213405Y0141407D01*
X0213405Y0141445D02*
X0214561Y0141445D01*
X0214561Y0141483D02*
X0208940Y0141483D01*
X0202105Y0141483D01*
X0202105Y0141521D02*
X0208940Y0141521D01*
X0214561Y0141521D01*
X0214561Y0141559D02*
X0208940Y0141559D01*
X0202105Y0141559D01*
X0202105Y0141597D02*
X0208940Y0141597D01*
X0214561Y0141597D01*
X0214561Y0141634D02*
X0208940Y0141634D01*
X0202105Y0141634D01*
X0202105Y0141672D02*
X0208940Y0141672D01*
X0214561Y0141672D01*
X0214561Y0141710D02*
X0208940Y0141710D01*
X0202105Y0141710D01*
X0202105Y0141748D02*
X0208940Y0141748D01*
X0214561Y0141748D01*
X0214561Y0141786D02*
X0208940Y0141786D01*
X0202105Y0141786D01*
X0202105Y0141824D02*
X0208940Y0141824D01*
X0214561Y0141824D01*
X0214561Y0141862D02*
X0208940Y0141862D01*
X0202105Y0141862D01*
X0202105Y0141900D02*
X0208940Y0141900D01*
X0214561Y0141900D01*
X0214561Y0141937D02*
X0208940Y0141937D01*
X0202105Y0141937D01*
X0202105Y0141975D02*
X0208940Y0141975D01*
X0214561Y0141975D01*
X0214561Y0142013D02*
X0208940Y0142013D01*
X0202105Y0142013D01*
X0202105Y0142051D02*
X0208940Y0142051D01*
X0214561Y0142051D01*
X0214561Y0142089D02*
X0208940Y0142089D01*
X0202105Y0142089D01*
X0202105Y0142127D02*
X0208940Y0142127D01*
X0214561Y0142127D01*
X0214561Y0142165D02*
X0208940Y0142165D01*
X0202105Y0142165D01*
X0202105Y0142203D02*
X0208940Y0142203D01*
X0214561Y0142203D01*
X0214561Y0142241D02*
X0208940Y0142241D01*
X0202105Y0142241D01*
X0202105Y0142278D02*
X0208940Y0142278D01*
X0214561Y0142278D01*
X0214561Y0142316D02*
X0208940Y0142316D01*
X0202105Y0142316D01*
X0202105Y0142354D02*
X0208940Y0142354D01*
X0214561Y0142354D01*
X0214561Y0142392D02*
X0208940Y0142392D01*
X0202105Y0142392D01*
X0202105Y0142430D02*
X0208940Y0142430D01*
X0214561Y0142430D01*
X0214561Y0142468D02*
X0208940Y0142468D01*
X0202105Y0142468D01*
X0202105Y0142506D02*
X0208940Y0142506D01*
X0214561Y0142506D01*
X0214561Y0142544D02*
X0208940Y0142544D01*
X0202105Y0142544D01*
X0202105Y0142581D02*
X0208940Y0142581D01*
X0214561Y0142581D01*
X0214561Y0142619D02*
X0208940Y0142619D01*
X0202105Y0142619D01*
X0202105Y0142657D02*
X0208940Y0142657D01*
X0214561Y0142657D01*
X0214561Y0142695D02*
X0208940Y0142695D01*
X0202105Y0142695D01*
X0202105Y0142733D02*
X0208940Y0142733D01*
X0214561Y0142733D01*
X0214561Y0142771D02*
X0208940Y0142771D01*
X0202105Y0142771D01*
X0202105Y0142809D02*
X0208940Y0142809D01*
X0214561Y0142809D01*
X0214561Y0142847D02*
X0208940Y0142847D01*
X0202105Y0142847D01*
X0202105Y0142884D02*
X0208940Y0142884D01*
X0214561Y0142884D01*
X0214561Y0142922D02*
X0208940Y0142922D01*
X0202105Y0142922D01*
X0202105Y0142960D02*
X0208940Y0142960D01*
X0214561Y0142960D01*
X0214561Y0142998D02*
X0208940Y0142998D01*
X0202105Y0142998D01*
X0202105Y0143036D02*
X0208940Y0143036D01*
X0214561Y0143036D01*
X0214561Y0143074D02*
X0208940Y0143074D01*
X0202105Y0143074D01*
X0202105Y0143112D02*
X0208940Y0143112D01*
X0214561Y0143112D01*
X0214561Y0143150D02*
X0208940Y0143150D01*
X0202105Y0143150D01*
X0202105Y0143188D02*
X0208940Y0143188D01*
X0214561Y0143188D01*
X0214561Y0143225D02*
X0208940Y0143225D01*
X0202105Y0143225D01*
X0202105Y0143263D02*
X0208940Y0143263D01*
X0214561Y0143263D01*
X0214561Y0143301D02*
X0208940Y0143301D01*
X0202105Y0143301D01*
X0202105Y0143339D02*
X0208940Y0143339D01*
X0214561Y0143339D01*
X0214561Y0143377D02*
X0208940Y0143377D01*
X0202105Y0143377D01*
X0202105Y0143415D02*
X0208940Y0143415D01*
X0214561Y0143415D01*
X0214561Y0143453D02*
X0208940Y0143453D01*
X0202105Y0143453D01*
X0202105Y0143491D02*
X0208940Y0143491D01*
X0214561Y0143491D01*
X0214561Y0143528D02*
X0208940Y0143528D01*
X0202105Y0143528D01*
X0202105Y0143566D02*
X0208940Y0143566D01*
X0214561Y0143566D01*
X0214561Y0143604D02*
X0211353Y0143604D01*
X0211324Y0143604D02*
X0208940Y0143604D01*
X0202105Y0143604D01*
X0202105Y0143642D02*
X0208940Y0143642D01*
X0211269Y0143642D01*
X0211214Y0143680D02*
X0208940Y0143680D01*
X0205326Y0143680D01*
X0205318Y0143680D02*
X0202105Y0143680D01*
X0202105Y0143718D02*
X0205318Y0143718D01*
X0205318Y0143756D02*
X0202105Y0143756D01*
X0202105Y0143794D02*
X0205318Y0143794D01*
X0205318Y0143832D02*
X0202105Y0143832D01*
X0202105Y0143869D02*
X0205318Y0143869D01*
X0205318Y0143907D02*
X0202105Y0143907D01*
X0202105Y0143945D02*
X0205318Y0143945D01*
X0205318Y0143983D02*
X0202105Y0143983D01*
X0202105Y0144021D02*
X0205318Y0144021D01*
X0205318Y0144059D02*
X0202105Y0144059D01*
X0202105Y0144097D02*
X0205318Y0144097D01*
X0205318Y0144135D02*
X0202105Y0144135D01*
X0202105Y0144172D02*
X0205318Y0144172D01*
X0205318Y0144210D02*
X0202105Y0144210D01*
X0202105Y0144248D02*
X0205318Y0144248D01*
X0205318Y0144286D02*
X0202105Y0144286D01*
X0202105Y0144324D02*
X0205318Y0144324D01*
X0205318Y0144362D02*
X0202105Y0144362D01*
X0202105Y0144400D02*
X0205318Y0144400D01*
X0205318Y0144438D02*
X0202105Y0144438D01*
X0202105Y0144476D02*
X0205318Y0144476D01*
X0205318Y0144513D02*
X0202105Y0144513D01*
X0202105Y0144551D02*
X0205318Y0144551D01*
X0205318Y0144589D02*
X0202105Y0144589D01*
X0202105Y0144627D02*
X0205318Y0144627D01*
X0205318Y0144665D02*
X0202105Y0144665D01*
X0202105Y0144703D02*
X0205318Y0144703D01*
X0205318Y0144741D02*
X0202105Y0144741D01*
X0202105Y0144779D02*
X0205318Y0144779D01*
X0205318Y0144816D02*
X0202105Y0144816D01*
X0202105Y0144854D02*
X0205318Y0144854D01*
X0205318Y0144892D02*
X0202105Y0144892D01*
X0202105Y0144930D02*
X0205318Y0144930D01*
X0205318Y0144968D02*
X0202105Y0144968D01*
X0202105Y0145006D02*
X0205318Y0145006D01*
X0205318Y0145044D02*
X0202105Y0145044D01*
X0202105Y0145082D02*
X0205318Y0145082D01*
X0205318Y0145120D02*
X0202105Y0145120D01*
X0202105Y0145157D02*
X0205318Y0145157D01*
X0205318Y0145195D02*
X0202105Y0145195D01*
X0202105Y0145233D02*
X0205328Y0145233D01*
X0205386Y0145271D02*
X0202105Y0145271D01*
X0202105Y0145309D02*
X0205445Y0145309D01*
X0205503Y0145347D02*
X0202105Y0145347D01*
X0202105Y0145385D02*
X0205562Y0145385D01*
X0205620Y0145423D02*
X0202105Y0145423D01*
X0202105Y0145460D02*
X0205678Y0145460D01*
X0205737Y0145498D02*
X0202105Y0145498D01*
X0202105Y0145536D02*
X0205795Y0145536D01*
X0205854Y0145574D02*
X0202105Y0145574D01*
X0202105Y0145612D02*
X0205912Y0145612D01*
X0205971Y0145650D02*
X0202105Y0145650D01*
X0202105Y0145688D02*
X0206029Y0145688D01*
X0206087Y0145726D02*
X0202105Y0145726D01*
X0202105Y0145763D02*
X0206146Y0145763D01*
X0206204Y0145801D02*
X0202105Y0145801D01*
X0202105Y0145839D02*
X0206263Y0145839D01*
X0206321Y0145877D02*
X0202105Y0145877D01*
X0202105Y0145915D02*
X0206380Y0145915D01*
X0206438Y0145953D02*
X0202105Y0145953D01*
X0202105Y0145991D02*
X0206496Y0145991D01*
X0206555Y0146029D02*
X0202105Y0146029D01*
X0202105Y0146067D02*
X0206613Y0146067D01*
X0206672Y0146104D02*
X0202105Y0146104D01*
X0202105Y0146142D02*
X0206730Y0146142D01*
X0206789Y0146180D02*
X0202105Y0146180D01*
X0202105Y0146218D02*
X0206847Y0146218D01*
X0206906Y0146256D02*
X0202105Y0146256D01*
X0202105Y0146294D02*
X0206964Y0146294D01*
X0207022Y0146332D02*
X0202105Y0146332D01*
X0202105Y0146370D02*
X0207081Y0146370D01*
X0207139Y0146407D02*
X0202105Y0146407D01*
X0202105Y0146445D02*
X0207198Y0146445D01*
X0207256Y0146483D02*
X0202105Y0146483D01*
X0202105Y0146521D02*
X0207237Y0146521D01*
X0207179Y0146559D02*
X0202105Y0146559D01*
X0202105Y0146597D02*
X0207121Y0146597D01*
X0207063Y0146635D02*
X0202105Y0146635D01*
X0202105Y0146673D02*
X0207005Y0146673D01*
X0206947Y0146711D02*
X0202105Y0146711D01*
X0202105Y0146748D02*
X0206889Y0146748D01*
X0206831Y0146786D02*
X0202105Y0146786D01*
X0202105Y0146824D02*
X0206773Y0146824D01*
X0206715Y0146862D02*
X0202105Y0146862D01*
X0202105Y0146900D02*
X0206657Y0146900D01*
X0206599Y0146938D02*
X0202105Y0146938D01*
X0202105Y0146976D02*
X0206541Y0146976D01*
X0206483Y0147014D02*
X0202105Y0147014D01*
X0202105Y0147051D02*
X0206425Y0147051D01*
X0206367Y0147089D02*
X0202105Y0147089D01*
X0202105Y0147127D02*
X0206309Y0147127D01*
X0206251Y0147165D02*
X0202105Y0147165D01*
X0202105Y0147203D02*
X0206193Y0147203D01*
X0206135Y0147241D02*
X0202105Y0147241D01*
X0202105Y0147279D02*
X0206077Y0147279D01*
X0206019Y0147317D02*
X0202105Y0147317D01*
X0202105Y0147355D02*
X0205961Y0147355D01*
X0205903Y0147392D02*
X0202105Y0147392D01*
X0202105Y0147430D02*
X0205845Y0147430D01*
X0205787Y0147468D02*
X0202105Y0147468D01*
X0202105Y0147506D02*
X0205729Y0147506D01*
X0205671Y0147544D02*
X0202105Y0147544D01*
X0202105Y0147582D02*
X0205613Y0147582D01*
X0205555Y0147620D02*
X0202105Y0147620D01*
X0202105Y0147658D02*
X0205497Y0147658D01*
X0205439Y0147695D02*
X0202105Y0147695D01*
X0202105Y0147733D02*
X0205381Y0147733D01*
X0205323Y0147771D02*
X0202105Y0147771D01*
X0202105Y0147809D02*
X0205318Y0147809D01*
X0205318Y0147847D02*
X0202105Y0147847D01*
X0202105Y0147885D02*
X0205318Y0147885D01*
X0205318Y0147923D02*
X0202105Y0147923D01*
X0202105Y0147961D02*
X0205318Y0147961D01*
X0205318Y0147998D02*
X0202105Y0147998D01*
X0202105Y0148036D02*
X0205318Y0148036D01*
X0205318Y0148074D02*
X0202105Y0148074D01*
X0202105Y0148112D02*
X0205318Y0148112D01*
X0205318Y0148150D02*
X0202105Y0148150D01*
X0202105Y0148188D02*
X0205318Y0148188D01*
X0205318Y0148226D02*
X0202105Y0148226D01*
X0202105Y0148264D02*
X0205318Y0148264D01*
X0205318Y0148302D02*
X0202105Y0148302D01*
X0202105Y0148339D02*
X0205318Y0148339D01*
X0205318Y0148377D02*
X0202105Y0148377D01*
X0202105Y0148415D02*
X0205318Y0148415D01*
X0205318Y0148453D02*
X0202105Y0148453D01*
X0202105Y0148491D02*
X0205318Y0148491D01*
X0205318Y0148529D02*
X0202105Y0148529D01*
X0202105Y0148567D02*
X0205318Y0148567D01*
X0205318Y0148605D02*
X0202105Y0148605D01*
X0202105Y0148642D02*
X0205318Y0148642D01*
X0205318Y0148680D02*
X0202105Y0148680D01*
X0202105Y0148718D02*
X0205318Y0148718D01*
X0205318Y0148756D02*
X0202105Y0148756D01*
X0202105Y0148794D02*
X0205318Y0148794D01*
X0205318Y0148832D02*
X0202105Y0148832D01*
X0202105Y0148870D02*
X0205318Y0148870D01*
X0205318Y0148908D02*
X0202105Y0148908D01*
X0202105Y0148946D02*
X0205318Y0148946D01*
X0205318Y0148983D02*
X0202105Y0148983D01*
X0202105Y0149021D02*
X0205318Y0149021D01*
X0205318Y0149059D02*
X0202105Y0149059D01*
X0202105Y0149097D02*
X0205318Y0149097D01*
X0205318Y0149135D02*
X0202105Y0149135D01*
X0202105Y0149173D02*
X0205318Y0149173D01*
X0205318Y0149211D02*
X0202105Y0149211D01*
X0202105Y0149249D02*
X0205318Y0149249D01*
X0205366Y0149249D02*
X0208940Y0149249D01*
X0211173Y0149249D01*
X0211228Y0149286D02*
X0208940Y0149286D01*
X0202105Y0149286D01*
X0202105Y0149324D02*
X0208940Y0149324D01*
X0211284Y0149324D01*
X0211339Y0149362D02*
X0208940Y0149362D01*
X0202105Y0149362D01*
X0202105Y0149400D02*
X0208940Y0149400D01*
X0214561Y0149400D01*
X0214561Y0149362D02*
X0211353Y0149362D01*
X0211353Y0149324D02*
X0214561Y0149324D01*
X0214561Y0149286D02*
X0211353Y0149286D01*
X0211353Y0149249D02*
X0214561Y0149249D01*
X0214561Y0149211D02*
X0211353Y0149211D01*
X0211353Y0149173D02*
X0214561Y0149173D01*
X0214561Y0149135D02*
X0211353Y0149135D01*
X0211353Y0149097D02*
X0214561Y0149097D01*
X0214561Y0149059D02*
X0211353Y0149059D01*
X0211353Y0149021D02*
X0214561Y0149021D01*
X0214561Y0148983D02*
X0211353Y0148983D01*
X0211353Y0148946D02*
X0214561Y0148946D01*
X0214561Y0148908D02*
X0211353Y0148908D01*
X0211353Y0148870D02*
X0214561Y0148870D01*
X0214561Y0148832D02*
X0211353Y0148832D01*
X0211353Y0148794D02*
X0214561Y0148794D01*
X0214561Y0148756D02*
X0211353Y0148756D01*
X0211353Y0148718D02*
X0214561Y0148718D01*
X0214561Y0148680D02*
X0211353Y0148680D01*
X0211353Y0148642D02*
X0214561Y0148642D01*
X0214561Y0148605D02*
X0211353Y0148605D01*
X0211353Y0148567D02*
X0214561Y0148567D01*
X0214561Y0148529D02*
X0211353Y0148529D01*
X0211353Y0148491D02*
X0214561Y0148491D01*
X0214561Y0148453D02*
X0211353Y0148453D01*
X0211353Y0148415D02*
X0214561Y0148415D01*
X0214561Y0148377D02*
X0211353Y0148377D01*
X0211353Y0148339D02*
X0214561Y0148339D01*
X0214561Y0148302D02*
X0211353Y0148302D01*
X0211353Y0148264D02*
X0214561Y0148264D01*
X0214561Y0148226D02*
X0211353Y0148226D01*
X0211353Y0148188D02*
X0214561Y0148188D01*
X0214561Y0148150D02*
X0211353Y0148150D01*
X0211353Y0148112D02*
X0214561Y0148112D01*
X0214561Y0148074D02*
X0211353Y0148074D01*
X0211353Y0148036D02*
X0214561Y0148036D01*
X0214561Y0147998D02*
X0211353Y0147998D01*
X0211353Y0147961D02*
X0214561Y0147961D01*
X0214561Y0147923D02*
X0211353Y0147923D01*
X0211353Y0147885D02*
X0214561Y0147885D01*
X0214561Y0147847D02*
X0211353Y0147847D01*
X0211351Y0147809D02*
X0214561Y0147809D01*
X0214561Y0147771D02*
X0211294Y0147771D01*
X0211236Y0147733D02*
X0214561Y0147733D01*
X0214561Y0147695D02*
X0211178Y0147695D01*
X0211120Y0147658D02*
X0214561Y0147658D01*
X0214561Y0147620D02*
X0211062Y0147620D01*
X0211004Y0147582D02*
X0214561Y0147582D01*
X0214561Y0147544D02*
X0210946Y0147544D01*
X0210888Y0147506D02*
X0214561Y0147506D01*
X0214561Y0147468D02*
X0210830Y0147468D01*
X0210773Y0147430D02*
X0214561Y0147430D01*
X0214561Y0147392D02*
X0210715Y0147392D01*
X0210657Y0147355D02*
X0214561Y0147355D01*
X0214561Y0147317D02*
X0210599Y0147317D01*
X0210541Y0147279D02*
X0214561Y0147279D01*
X0214561Y0147241D02*
X0210483Y0147241D01*
X0210425Y0147203D02*
X0214561Y0147203D01*
X0214561Y0147165D02*
X0210367Y0147165D01*
X0210309Y0147127D02*
X0214561Y0147127D01*
X0214561Y0147089D02*
X0210251Y0147089D01*
X0210194Y0147051D02*
X0214561Y0147051D01*
X0214561Y0147014D02*
X0210136Y0147014D01*
X0210078Y0146976D02*
X0214561Y0146976D01*
X0214561Y0146938D02*
X0210020Y0146938D01*
X0209962Y0146900D02*
X0214561Y0146900D01*
X0214561Y0146862D02*
X0209904Y0146862D01*
X0209846Y0146824D02*
X0214561Y0146824D01*
X0214561Y0146786D02*
X0209788Y0146786D01*
X0209730Y0146748D02*
X0214561Y0146748D01*
X0214561Y0146711D02*
X0209673Y0146711D01*
X0209615Y0146673D02*
X0214561Y0146673D01*
X0214561Y0146635D02*
X0209557Y0146635D01*
X0209499Y0146597D02*
X0214561Y0146597D01*
X0214561Y0146559D02*
X0209441Y0146559D01*
X0209383Y0146521D02*
X0214561Y0146521D01*
X0214561Y0146483D02*
X0209325Y0146483D01*
X0209298Y0146445D02*
X0214561Y0146445D01*
X0214561Y0146407D02*
X0209356Y0146407D01*
X0209413Y0146370D02*
X0214561Y0146370D01*
X0214561Y0146332D02*
X0209471Y0146332D01*
X0209528Y0146294D02*
X0214561Y0146294D01*
X0214561Y0146256D02*
X0209586Y0146256D01*
X0209643Y0146218D02*
X0214561Y0146218D01*
X0214561Y0146180D02*
X0209701Y0146180D01*
X0209758Y0146142D02*
X0214561Y0146142D01*
X0214561Y0146104D02*
X0209816Y0146104D01*
X0209873Y0146067D02*
X0214561Y0146067D01*
X0214561Y0146029D02*
X0209931Y0146029D01*
X0209988Y0145991D02*
X0214561Y0145991D01*
X0214561Y0145953D02*
X0210046Y0145953D01*
X0210103Y0145915D02*
X0214561Y0145915D01*
X0214561Y0145877D02*
X0210161Y0145877D01*
X0210218Y0145839D02*
X0214561Y0145839D01*
X0214561Y0145801D02*
X0210276Y0145801D01*
X0210333Y0145763D02*
X0214561Y0145763D01*
X0214561Y0145726D02*
X0210391Y0145726D01*
X0210448Y0145688D02*
X0214561Y0145688D01*
X0214561Y0145650D02*
X0210506Y0145650D01*
X0210563Y0145612D02*
X0214561Y0145612D01*
X0214561Y0145574D02*
X0210621Y0145574D01*
X0210678Y0145536D02*
X0214561Y0145536D01*
X0214561Y0145498D02*
X0210736Y0145498D01*
X0210793Y0145460D02*
X0214561Y0145460D01*
X0214561Y0145423D02*
X0210851Y0145423D01*
X0210909Y0145385D02*
X0214561Y0145385D01*
X0214561Y0145347D02*
X0210966Y0145347D01*
X0211024Y0145309D02*
X0214561Y0145309D01*
X0214561Y0145271D02*
X0211081Y0145271D01*
X0211139Y0145233D02*
X0214561Y0145233D01*
X0214561Y0145195D02*
X0211196Y0145195D01*
X0211254Y0145157D02*
X0214561Y0145157D01*
X0214561Y0145120D02*
X0211311Y0145120D01*
X0211353Y0145082D02*
X0214561Y0145082D01*
X0214561Y0145044D02*
X0211353Y0145044D01*
X0211353Y0145006D02*
X0214561Y0145006D01*
X0214561Y0144968D02*
X0211353Y0144968D01*
X0211353Y0144930D02*
X0214561Y0144930D01*
X0214561Y0144892D02*
X0211353Y0144892D01*
X0211353Y0144854D02*
X0214561Y0144854D01*
X0214561Y0144816D02*
X0211353Y0144816D01*
X0211353Y0144779D02*
X0214561Y0144779D01*
X0214561Y0144741D02*
X0211353Y0144741D01*
X0211353Y0144703D02*
X0214561Y0144703D01*
X0214561Y0144665D02*
X0211353Y0144665D01*
X0211353Y0144627D02*
X0214561Y0144627D01*
X0214561Y0144589D02*
X0211353Y0144589D01*
X0211353Y0144551D02*
X0214561Y0144551D01*
X0214561Y0144513D02*
X0211353Y0144513D01*
X0211353Y0144476D02*
X0214561Y0144476D01*
X0214561Y0144438D02*
X0211353Y0144438D01*
X0211353Y0144400D02*
X0214561Y0144400D01*
X0214561Y0144362D02*
X0211353Y0144362D01*
X0211353Y0144324D02*
X0214561Y0144324D01*
X0214561Y0144286D02*
X0211353Y0144286D01*
X0211353Y0144248D02*
X0214561Y0144248D01*
X0214561Y0144210D02*
X0211353Y0144210D01*
X0211353Y0144172D02*
X0214561Y0144172D01*
X0214561Y0144135D02*
X0211353Y0144135D01*
X0211353Y0144097D02*
X0214561Y0144097D01*
X0214561Y0144059D02*
X0211353Y0144059D01*
X0211353Y0144021D02*
X0214561Y0144021D01*
X0214561Y0143983D02*
X0211353Y0143983D01*
X0211353Y0143945D02*
X0214561Y0143945D01*
X0214561Y0143907D02*
X0211353Y0143907D01*
X0211353Y0143869D02*
X0214561Y0143869D01*
X0214561Y0143832D02*
X0211353Y0143832D01*
X0211353Y0143794D02*
X0214561Y0143794D01*
X0214561Y0143756D02*
X0211353Y0143756D01*
X0211353Y0143718D02*
X0214561Y0143718D01*
X0214561Y0143680D02*
X0211353Y0143680D01*
X0211353Y0143642D02*
X0214561Y0143642D01*
X0211158Y0143718D02*
X0208940Y0143718D01*
X0205382Y0143718D01*
X0205438Y0143756D02*
X0208940Y0143756D01*
X0211103Y0143756D01*
X0211048Y0143794D02*
X0208940Y0143794D01*
X0205494Y0143794D01*
X0205549Y0143832D02*
X0208940Y0143832D01*
X0210993Y0143832D01*
X0210938Y0143869D02*
X0208940Y0143869D01*
X0205605Y0143869D01*
X0205661Y0143907D02*
X0208940Y0143907D01*
X0210882Y0143907D01*
X0210827Y0143945D02*
X0208940Y0143945D01*
X0205716Y0143945D01*
X0205772Y0143983D02*
X0208940Y0143983D01*
X0210772Y0143983D01*
X0210717Y0144021D02*
X0208940Y0144021D01*
X0205828Y0144021D01*
X0205884Y0144059D02*
X0208940Y0144059D01*
X0210662Y0144059D01*
X0210606Y0144097D02*
X0208940Y0144097D01*
X0205939Y0144097D01*
X0205995Y0144135D02*
X0208940Y0144135D01*
X0210551Y0144135D01*
X0210496Y0144172D02*
X0208940Y0144172D01*
X0206051Y0144172D01*
X0206107Y0144210D02*
X0208940Y0144210D01*
X0210441Y0144210D01*
X0210386Y0144248D02*
X0208940Y0144248D01*
X0206162Y0144248D01*
X0206218Y0144286D02*
X0208940Y0144286D01*
X0210330Y0144286D01*
X0210275Y0144324D02*
X0208940Y0144324D01*
X0206274Y0144324D01*
X0206329Y0144362D02*
X0208940Y0144362D01*
X0210220Y0144362D01*
X0210165Y0144400D02*
X0208940Y0144400D01*
X0206385Y0144400D01*
X0206441Y0144438D02*
X0208940Y0144438D01*
X0210110Y0144438D01*
X0210055Y0144476D02*
X0208940Y0144476D01*
X0206497Y0144476D01*
X0206552Y0144513D02*
X0208940Y0144513D01*
X0209999Y0144513D01*
X0209944Y0144551D02*
X0208940Y0144551D01*
X0206608Y0144551D01*
X0206664Y0144589D02*
X0208940Y0144589D01*
X0209889Y0144589D01*
X0209834Y0144627D02*
X0208940Y0144627D01*
X0206720Y0144627D01*
X0206775Y0144665D02*
X0208940Y0144665D01*
X0209779Y0144665D01*
X0209723Y0144703D02*
X0208940Y0144703D01*
X0206831Y0144703D01*
X0206887Y0144741D02*
X0208940Y0144741D01*
X0209668Y0144741D01*
X0209613Y0144779D02*
X0208940Y0144779D01*
X0206942Y0144779D01*
X0206998Y0144816D02*
X0208940Y0144816D01*
X0209558Y0144816D01*
X0209503Y0144854D02*
X0208940Y0144854D01*
X0207054Y0144854D01*
X0207110Y0144892D02*
X0208940Y0144892D01*
X0209447Y0144892D01*
X0209392Y0144930D02*
X0208940Y0144930D01*
X0207165Y0144930D01*
X0207221Y0144968D02*
X0208940Y0144968D01*
X0209337Y0144968D01*
X0209282Y0145006D02*
X0208940Y0145006D01*
X0207277Y0145006D01*
X0207332Y0145044D02*
X0208940Y0145044D01*
X0209227Y0145044D01*
X0209171Y0145082D02*
X0208940Y0145082D01*
X0207388Y0145082D01*
X0207444Y0145120D02*
X0208940Y0145120D01*
X0209116Y0145120D01*
X0209061Y0145157D02*
X0208940Y0145157D01*
X0207500Y0145157D01*
X0207555Y0145195D02*
X0208940Y0145195D01*
X0209006Y0145195D01*
X0208951Y0145233D02*
X0208940Y0145233D01*
X0207611Y0145233D01*
X0207667Y0145271D02*
X0208895Y0145271D01*
X0208840Y0145309D02*
X0207723Y0145309D01*
X0207778Y0145347D02*
X0208785Y0145347D01*
X0208730Y0145385D02*
X0207834Y0145385D01*
X0207890Y0145423D02*
X0208674Y0145423D01*
X0208619Y0145460D02*
X0207945Y0145460D01*
X0208001Y0145498D02*
X0208564Y0145498D01*
X0208509Y0145536D02*
X0208057Y0145536D01*
X0208113Y0145574D02*
X0208454Y0145574D01*
X0208398Y0145612D02*
X0208168Y0145612D01*
X0208224Y0145650D02*
X0208343Y0145650D01*
X0208288Y0145688D02*
X0208280Y0145688D01*
X0208246Y0147279D02*
X0208285Y0147279D01*
X0208341Y0147317D02*
X0208191Y0147317D01*
X0208136Y0147355D02*
X0208396Y0147355D01*
X0208452Y0147392D02*
X0208080Y0147392D01*
X0208025Y0147430D02*
X0208507Y0147430D01*
X0208563Y0147468D02*
X0207970Y0147468D01*
X0207914Y0147506D02*
X0208618Y0147506D01*
X0208674Y0147544D02*
X0207859Y0147544D01*
X0207803Y0147582D02*
X0208729Y0147582D01*
X0208785Y0147620D02*
X0207748Y0147620D01*
X0207693Y0147658D02*
X0208840Y0147658D01*
X0208896Y0147695D02*
X0207637Y0147695D01*
X0207582Y0147733D02*
X0208940Y0147733D01*
X0208951Y0147733D01*
X0208940Y0147771D02*
X0209007Y0147771D01*
X0209062Y0147809D02*
X0208940Y0147809D01*
X0207471Y0147809D01*
X0207416Y0147847D02*
X0208940Y0147847D01*
X0209118Y0147847D01*
X0209173Y0147885D02*
X0208940Y0147885D01*
X0207360Y0147885D01*
X0207305Y0147923D02*
X0208940Y0147923D01*
X0209229Y0147923D01*
X0209284Y0147961D02*
X0208940Y0147961D01*
X0207250Y0147961D01*
X0207194Y0147998D02*
X0208940Y0147998D01*
X0209340Y0147998D01*
X0209396Y0148036D02*
X0208940Y0148036D01*
X0207139Y0148036D01*
X0207083Y0148074D02*
X0208940Y0148074D01*
X0209451Y0148074D01*
X0209507Y0148112D02*
X0208940Y0148112D01*
X0207028Y0148112D01*
X0206973Y0148150D02*
X0208940Y0148150D01*
X0209562Y0148150D01*
X0209618Y0148188D02*
X0208940Y0148188D01*
X0206917Y0148188D01*
X0206862Y0148226D02*
X0208940Y0148226D01*
X0209673Y0148226D01*
X0209729Y0148264D02*
X0208940Y0148264D01*
X0206806Y0148264D01*
X0206751Y0148302D02*
X0208940Y0148302D01*
X0209784Y0148302D01*
X0209840Y0148339D02*
X0208940Y0148339D01*
X0206696Y0148339D01*
X0206640Y0148377D02*
X0208940Y0148377D01*
X0209895Y0148377D01*
X0209951Y0148415D02*
X0208940Y0148415D01*
X0206585Y0148415D01*
X0206530Y0148453D02*
X0208940Y0148453D01*
X0210006Y0148453D01*
X0210062Y0148491D02*
X0208940Y0148491D01*
X0206474Y0148491D01*
X0206419Y0148529D02*
X0208940Y0148529D01*
X0210117Y0148529D01*
X0210173Y0148567D02*
X0208940Y0148567D01*
X0206363Y0148567D01*
X0206308Y0148605D02*
X0208940Y0148605D01*
X0210229Y0148605D01*
X0210284Y0148642D02*
X0208940Y0148642D01*
X0206253Y0148642D01*
X0206197Y0148680D02*
X0208940Y0148680D01*
X0210340Y0148680D01*
X0210395Y0148718D02*
X0208940Y0148718D01*
X0206142Y0148718D01*
X0206086Y0148756D02*
X0208940Y0148756D01*
X0210451Y0148756D01*
X0210506Y0148794D02*
X0208940Y0148794D01*
X0206031Y0148794D01*
X0205976Y0148832D02*
X0208940Y0148832D01*
X0210562Y0148832D01*
X0210617Y0148870D02*
X0208940Y0148870D01*
X0205920Y0148870D01*
X0205865Y0148908D02*
X0208940Y0148908D01*
X0210673Y0148908D01*
X0210728Y0148946D02*
X0208940Y0148946D01*
X0205810Y0148946D01*
X0205754Y0148983D02*
X0208940Y0148983D01*
X0210784Y0148983D01*
X0210839Y0149021D02*
X0208940Y0149021D01*
X0205699Y0149021D01*
X0205643Y0149059D02*
X0208940Y0149059D01*
X0210895Y0149059D01*
X0210950Y0149097D02*
X0208940Y0149097D01*
X0205588Y0149097D01*
X0205533Y0149135D02*
X0208940Y0149135D01*
X0211006Y0149135D01*
X0211062Y0149173D02*
X0208940Y0149173D01*
X0205477Y0149173D01*
X0205422Y0149211D02*
X0208940Y0149211D01*
X0211117Y0149211D01*
X0208940Y0149438D02*
X0214561Y0149438D01*
X0214561Y0149476D02*
X0208940Y0149476D01*
X0202105Y0149476D01*
X0202105Y0149514D02*
X0208940Y0149514D01*
X0214561Y0149514D01*
X0214561Y0149552D02*
X0208940Y0149552D01*
X0202105Y0149552D01*
X0202105Y0149590D02*
X0208940Y0149590D01*
X0214561Y0149590D01*
X0214561Y0149627D02*
X0208940Y0149627D01*
X0202105Y0149627D01*
X0202105Y0149665D02*
X0208940Y0149665D01*
X0214561Y0149665D01*
X0214561Y0149703D02*
X0208940Y0149703D01*
X0202105Y0149703D01*
X0202105Y0149741D02*
X0208940Y0149741D01*
X0214561Y0149741D01*
X0214561Y0149779D02*
X0208940Y0149779D01*
X0202105Y0149779D01*
X0202105Y0149817D02*
X0208940Y0149817D01*
X0214561Y0149817D01*
X0214561Y0149855D02*
X0208940Y0149855D01*
X0202105Y0149855D01*
X0202105Y0149893D02*
X0208940Y0149893D01*
X0214561Y0149893D01*
X0214561Y0149930D02*
X0208940Y0149930D01*
X0202105Y0149930D01*
X0202105Y0149968D02*
X0208940Y0149968D01*
X0214561Y0149968D01*
X0214561Y0150006D02*
X0208940Y0150006D01*
X0202105Y0150006D01*
X0202105Y0150044D02*
X0208940Y0150044D01*
X0214561Y0150044D01*
X0214561Y0150082D02*
X0208940Y0150082D01*
X0202105Y0150082D01*
X0202105Y0150120D02*
X0208940Y0150120D01*
X0214561Y0150120D01*
X0214561Y0150158D02*
X0208940Y0150158D01*
X0202105Y0150158D01*
X0202105Y0150196D02*
X0208940Y0150196D01*
X0214561Y0150196D01*
X0214561Y0150233D02*
X0208940Y0150233D01*
X0202105Y0150233D01*
X0202105Y0150271D02*
X0208940Y0150271D01*
X0214561Y0150271D01*
X0214561Y0150309D02*
X0208940Y0150309D01*
X0202105Y0150309D01*
X0202105Y0150347D02*
X0208940Y0150347D01*
X0214561Y0150347D01*
X0214561Y0150385D02*
X0208940Y0150385D01*
X0202105Y0150385D01*
X0202105Y0150423D02*
X0208940Y0150423D01*
X0214561Y0150423D01*
X0214561Y0150461D02*
X0208940Y0150461D01*
X0202105Y0150461D01*
X0202105Y0150499D02*
X0208940Y0150499D01*
X0214561Y0150499D01*
X0214561Y0150537D02*
X0208940Y0150537D01*
X0202105Y0150537D01*
X0202105Y0150574D02*
X0208940Y0150574D01*
X0214561Y0150574D01*
X0214561Y0150612D02*
X0208940Y0150612D01*
X0202105Y0150612D01*
X0202105Y0150650D02*
X0208940Y0150650D01*
X0214561Y0150650D01*
X0214561Y0150688D02*
X0208940Y0150688D01*
X0202105Y0150688D01*
X0202105Y0150726D02*
X0208940Y0150726D01*
X0214561Y0150726D01*
X0214561Y0150764D02*
X0208940Y0150764D01*
X0202105Y0150764D01*
X0202105Y0150802D02*
X0208940Y0150802D01*
X0214561Y0150802D01*
X0214561Y0150840D02*
X0208940Y0150840D01*
X0202105Y0150840D01*
X0202105Y0150877D02*
X0208940Y0150877D01*
X0214561Y0150877D01*
X0214561Y0150915D02*
X0208940Y0150915D01*
X0202105Y0150915D01*
X0202105Y0150953D02*
X0208940Y0150953D01*
X0214561Y0150953D01*
X0214561Y0150991D02*
X0208940Y0150991D01*
X0202105Y0150991D01*
X0202105Y0151029D02*
X0208940Y0151029D01*
X0214561Y0151029D01*
X0214561Y0151067D02*
X0208940Y0151067D01*
X0202105Y0151067D01*
X0202105Y0151105D02*
X0208940Y0151105D01*
X0214561Y0151105D01*
X0214561Y0151143D02*
X0208940Y0151143D01*
X0202105Y0151143D01*
X0202105Y0151181D02*
X0208940Y0151181D01*
X0214561Y0151181D01*
X0214561Y0151218D02*
X0208940Y0151218D01*
X0202105Y0151218D01*
X0202105Y0151256D02*
X0208940Y0151256D01*
X0214561Y0151256D01*
X0214561Y0151294D02*
X0208940Y0151294D01*
X0202105Y0151294D01*
X0202105Y0151332D02*
X0208940Y0151332D01*
X0214561Y0151332D01*
X0214561Y0151370D02*
X0208940Y0151370D01*
X0202105Y0151370D01*
X0202105Y0151408D02*
X0208940Y0151408D01*
X0214561Y0151408D01*
X0214561Y0151446D02*
X0208940Y0151446D01*
X0202105Y0151446D01*
X0202105Y0151484D02*
X0208940Y0151484D01*
X0214561Y0151484D01*
X0208940Y0149438D02*
X0202105Y0149438D01*
X0207526Y0147771D02*
X0208940Y0147771D01*
X0203262Y0141445D02*
X0202105Y0141445D01*
X0202105Y0141407D02*
X0203262Y0141407D01*
X0203262Y0141369D02*
X0202105Y0141369D01*
X0202105Y0141331D02*
X0203262Y0141331D01*
X0203262Y0141293D02*
X0202105Y0141293D01*
X0202105Y0141256D02*
X0203262Y0141256D01*
X0203262Y0141218D02*
X0202105Y0141218D01*
X0202105Y0141180D02*
X0203262Y0141180D01*
X0203262Y0141142D02*
X0202105Y0141142D01*
X0202105Y0141104D02*
X0203262Y0141104D01*
X0203262Y0141066D02*
X0202105Y0141066D01*
X0202105Y0141028D02*
X0203262Y0141028D01*
X0203262Y0140990D02*
X0202105Y0140990D01*
X0202105Y0140953D02*
X0203262Y0140953D01*
X0203262Y0140915D02*
X0202105Y0140915D01*
X0202105Y0140877D02*
X0203262Y0140877D01*
X0203262Y0140839D02*
X0202105Y0140839D01*
X0202105Y0140801D02*
X0203262Y0140801D01*
X0203262Y0140763D02*
X0202105Y0140763D01*
X0202105Y0140725D02*
X0203262Y0140725D01*
X0203262Y0140687D02*
X0202105Y0140687D01*
X0202105Y0140649D02*
X0203262Y0140649D01*
X0203262Y0140612D02*
X0202105Y0140612D01*
X0202105Y0140574D02*
X0203262Y0140574D01*
X0203262Y0140536D02*
X0202105Y0140536D01*
X0202105Y0140498D02*
X0203262Y0140498D01*
X0203262Y0140460D02*
X0202105Y0140460D01*
X0202105Y0140422D02*
X0203262Y0140422D01*
X0203262Y0140384D02*
X0202105Y0140384D01*
X0202105Y0140346D02*
X0203262Y0140346D01*
X0203262Y0140309D02*
X0202105Y0140309D01*
X0202105Y0140271D02*
X0203262Y0140271D01*
X0203262Y0140233D02*
X0202105Y0140233D01*
X0202105Y0140195D02*
X0203262Y0140195D01*
X0203262Y0140157D02*
X0202105Y0140157D01*
X0202105Y0140119D02*
X0203262Y0140119D01*
X0203262Y0140081D02*
X0202105Y0140081D01*
X0202105Y0140043D02*
X0203262Y0140043D01*
X0203262Y0140006D02*
X0202105Y0140006D01*
X0202105Y0139968D02*
X0203262Y0139968D01*
X0203262Y0139930D02*
X0202105Y0139930D01*
X0202105Y0139892D02*
X0203262Y0139892D01*
X0203262Y0139854D02*
X0202105Y0139854D01*
X0202105Y0139816D02*
X0203262Y0139816D01*
X0203262Y0139778D02*
X0202105Y0139778D01*
X0202105Y0139740D02*
X0203262Y0139740D01*
X0203262Y0139702D02*
X0202105Y0139702D01*
X0202105Y0139665D02*
X0203262Y0139665D01*
X0203262Y0139627D02*
X0202105Y0139627D01*
X0202105Y0139589D02*
X0203262Y0139589D01*
X0203262Y0139551D02*
X0202105Y0139551D01*
X0202105Y0139513D02*
X0203262Y0139513D01*
X0203262Y0139475D02*
X0202105Y0139475D01*
X0202105Y0139437D02*
X0203262Y0139437D01*
X0203262Y0139399D02*
X0202105Y0139399D01*
X0202105Y0139362D02*
X0203262Y0139362D01*
X0203262Y0139324D02*
X0202105Y0139324D01*
X0202105Y0139286D02*
X0203262Y0139286D01*
X0203262Y0139248D02*
X0202105Y0139248D01*
X0202105Y0139210D02*
X0203262Y0139210D01*
X0203262Y0139172D02*
X0202105Y0139172D01*
X0202105Y0139134D02*
X0203262Y0139134D01*
X0203262Y0139096D02*
X0202105Y0139096D01*
X0202105Y0139058D02*
X0203262Y0139058D01*
X0203262Y0139021D02*
X0202105Y0139021D01*
X0202105Y0138983D02*
X0203262Y0138983D01*
X0203262Y0138945D02*
X0202105Y0138945D01*
X0202105Y0138907D02*
X0203262Y0138907D01*
X0203262Y0138869D02*
X0202105Y0138869D01*
X0202105Y0138831D02*
X0203262Y0138831D01*
X0203262Y0138793D02*
X0202105Y0138793D01*
X0202105Y0138755D02*
X0203262Y0138755D01*
X0203262Y0138718D02*
X0202105Y0138718D01*
X0202105Y0138680D02*
X0203262Y0138680D01*
X0203262Y0138642D02*
X0202105Y0138642D01*
X0202105Y0138604D02*
X0203262Y0138604D01*
X0203262Y0138566D02*
X0202105Y0138566D01*
X0202105Y0138528D02*
X0203262Y0138528D01*
X0203262Y0138490D02*
X0202105Y0138490D01*
X0202105Y0138452D02*
X0203262Y0138452D01*
X0203262Y0138414D02*
X0202105Y0138414D01*
X0202105Y0138377D02*
X0203262Y0138377D01*
X0203262Y0138339D02*
X0202105Y0138339D01*
X0202105Y0138301D02*
X0203262Y0138301D01*
X0203262Y0138263D02*
X0202105Y0138263D01*
X0202105Y0138225D02*
X0203262Y0138225D01*
X0203262Y0138187D02*
X0202105Y0138187D01*
X0202105Y0138149D02*
X0203262Y0138149D01*
X0203262Y0138111D02*
X0202105Y0138111D01*
X0202105Y0138074D02*
X0203262Y0138074D01*
X0203262Y0138036D02*
X0202105Y0138036D01*
X0202105Y0137998D02*
X0203262Y0137998D01*
X0203262Y0137960D02*
X0202105Y0137960D01*
X0202105Y0137922D02*
X0203262Y0137922D01*
X0203262Y0137884D02*
X0202105Y0137884D01*
X0202105Y0137846D02*
X0203262Y0137846D01*
X0203262Y0137808D02*
X0202105Y0137808D01*
X0202105Y0137771D02*
X0203262Y0137771D01*
X0203262Y0137733D02*
X0202105Y0137733D01*
X0202105Y0137695D02*
X0203262Y0137695D01*
X0203262Y0137657D02*
X0202105Y0137657D01*
X0202105Y0137619D02*
X0203262Y0137619D01*
X0203262Y0137581D02*
X0202105Y0137581D01*
X0202105Y0137543D02*
X0203262Y0137543D01*
X0203262Y0137505D02*
X0202105Y0137505D01*
X0202105Y0137467D02*
X0203262Y0137467D01*
X0203262Y0137430D02*
X0202105Y0137430D01*
X0202105Y0137392D02*
X0203262Y0137392D01*
X0203262Y0137354D02*
X0202105Y0137354D01*
X0202105Y0137316D02*
X0203262Y0137316D01*
X0203262Y0137278D02*
X0202105Y0137278D01*
X0202105Y0137240D02*
X0203262Y0137240D01*
X0203262Y0137202D02*
X0202105Y0137202D01*
X0202105Y0137164D02*
X0203262Y0137164D01*
X0203262Y0137127D02*
X0202105Y0137127D01*
X0202105Y0137089D02*
X0203262Y0137089D01*
X0203262Y0137051D02*
X0202105Y0137051D01*
X0202105Y0137013D02*
X0203262Y0137013D01*
X0203262Y0136975D02*
X0202105Y0136975D01*
X0202105Y0136937D02*
X0203262Y0136937D01*
X0203262Y0136899D02*
X0202105Y0136899D01*
X0202105Y0136861D02*
X0203262Y0136861D01*
X0203262Y0136823D02*
X0202105Y0136823D01*
X0202105Y0136786D02*
X0203262Y0136786D01*
X0203262Y0136748D02*
X0202105Y0136748D01*
X0202105Y0136710D02*
X0203262Y0136710D01*
X0203262Y0136672D02*
X0202105Y0136672D01*
X0202105Y0136634D02*
X0203262Y0136634D01*
X0203262Y0136596D02*
X0202105Y0136596D01*
X0202105Y0136558D02*
X0203262Y0136558D01*
X0203262Y0136520D02*
X0202105Y0136520D01*
X0202105Y0136483D02*
X0203262Y0136483D01*
X0203262Y0136445D02*
X0202105Y0136445D01*
X0202105Y0136407D02*
X0203262Y0136407D01*
X0203262Y0136369D02*
X0202105Y0136369D01*
X0202105Y0136331D02*
X0203262Y0136331D01*
X0203262Y0136293D02*
X0202105Y0136293D01*
X0202105Y0136255D02*
X0203262Y0136255D01*
X0203262Y0136217D02*
X0202105Y0136217D01*
X0202105Y0136179D02*
X0203262Y0136179D01*
X0203262Y0136142D02*
X0202105Y0136142D01*
X0202105Y0136104D02*
X0203262Y0136104D01*
X0203262Y0136066D02*
X0202105Y0136066D01*
X0202105Y0136028D02*
X0203262Y0136028D01*
X0203262Y0135990D02*
X0202105Y0135990D01*
X0202105Y0135952D02*
X0203262Y0135952D01*
X0203262Y0135914D02*
X0202105Y0135914D01*
X0202105Y0135876D02*
X0203262Y0135876D01*
X0203262Y0135839D02*
X0202105Y0135839D01*
X0202105Y0135801D02*
X0203262Y0135801D01*
X0203262Y0135763D02*
X0202105Y0135763D01*
X0202105Y0135725D02*
X0203262Y0135725D01*
X0203262Y0135687D02*
X0202105Y0135687D01*
X0202105Y0135649D02*
X0203262Y0135649D01*
X0203262Y0135611D02*
X0202105Y0135611D01*
X0202105Y0135573D02*
X0203262Y0135573D01*
X0203262Y0135536D02*
X0202105Y0135536D01*
X0202105Y0135498D02*
X0203262Y0135498D01*
X0203262Y0135460D02*
X0202105Y0135460D01*
X0202105Y0135422D02*
X0203262Y0135422D01*
X0203262Y0135384D02*
X0202105Y0135384D01*
X0202105Y0135346D02*
X0203262Y0135346D01*
X0203262Y0135308D02*
X0202105Y0135308D01*
X0202105Y0135270D02*
X0203262Y0135270D01*
X0203262Y0135232D02*
X0202105Y0135232D01*
X0202105Y0135195D02*
X0203262Y0135195D01*
X0203262Y0135157D02*
X0202105Y0135157D01*
X0202105Y0135119D02*
X0203262Y0135119D01*
X0203262Y0135081D02*
X0202105Y0135081D01*
X0202105Y0135043D02*
X0203262Y0135043D01*
X0203262Y0135005D02*
X0202105Y0135005D01*
X0202105Y0134967D02*
X0203262Y0134967D01*
X0203262Y0134929D02*
X0202105Y0134929D01*
X0202105Y0134892D02*
X0203262Y0134892D01*
X0203262Y0134854D02*
X0202105Y0134854D01*
X0202105Y0134816D02*
X0203262Y0134816D01*
X0203262Y0134778D02*
X0202105Y0134778D01*
X0202105Y0134740D02*
X0203262Y0134740D01*
X0203262Y0134702D02*
X0202105Y0134702D01*
X0202105Y0134664D02*
X0203262Y0134664D01*
X0203262Y0134626D02*
X0202105Y0134626D01*
X0202105Y0134588D02*
X0203262Y0134588D01*
X0203262Y0134551D02*
X0202105Y0134551D01*
X0202105Y0134513D02*
X0203262Y0134513D01*
X0203262Y0134475D02*
X0202105Y0134475D01*
X0202105Y0134437D02*
X0203262Y0134437D01*
X0203262Y0134399D02*
X0202105Y0134399D01*
X0202105Y0134361D02*
X0203262Y0134361D01*
X0203262Y0134323D02*
X0202105Y0134323D01*
X0202105Y0134285D02*
X0203262Y0134285D01*
X0203262Y0134248D02*
X0202105Y0134248D01*
X0202105Y0134210D02*
X0203262Y0134210D01*
X0203262Y0134172D02*
X0202105Y0134172D01*
X0202105Y0134134D02*
X0203262Y0134134D01*
X0203262Y0134096D02*
X0202105Y0134096D01*
X0202105Y0134058D02*
X0203262Y0134058D01*
X0203262Y0134020D02*
X0202105Y0134020D01*
X0202105Y0133982D02*
X0203262Y0133982D01*
X0203262Y0133944D02*
X0202105Y0133944D01*
X0202105Y0133907D02*
X0203262Y0133907D01*
X0203262Y0133869D02*
X0202105Y0133869D01*
X0202105Y0133831D02*
X0203262Y0133831D01*
X0203262Y0133793D02*
X0202105Y0133793D01*
X0202105Y0133755D02*
X0203262Y0133755D01*
X0203262Y0133717D02*
X0202105Y0133717D01*
X0202105Y0133679D02*
X0203262Y0133679D01*
X0203262Y0133641D02*
X0202105Y0133641D01*
X0202105Y0133604D02*
X0203262Y0133604D01*
X0203262Y0133566D02*
X0202105Y0133566D01*
X0202105Y0133528D02*
X0203262Y0133528D01*
X0203262Y0133490D02*
X0202105Y0133490D01*
X0202105Y0133452D02*
X0203262Y0133452D01*
X0203262Y0133414D02*
X0202105Y0133414D01*
X0202105Y0133376D02*
X0203262Y0133376D01*
X0203262Y0133338D02*
X0202105Y0133338D01*
X0202105Y0133301D02*
X0203262Y0133301D01*
X0203262Y0133263D02*
X0202105Y0133263D01*
X0202105Y0133225D02*
X0203262Y0133225D01*
X0203262Y0133187D02*
X0202105Y0133187D01*
X0202105Y0133149D02*
X0203262Y0133149D01*
X0203262Y0133111D02*
X0202105Y0133111D01*
X0202105Y0133073D02*
X0203262Y0133073D01*
X0203262Y0133035D02*
X0202105Y0133035D01*
X0202105Y0132997D02*
X0203262Y0132997D01*
X0203262Y0132960D02*
X0202105Y0132960D01*
X0202105Y0132922D02*
X0203262Y0132922D01*
X0203262Y0132884D02*
X0202105Y0132884D01*
X0202105Y0132846D02*
X0203262Y0132846D01*
X0203262Y0132808D02*
X0202105Y0132808D01*
X0202105Y0132770D02*
X0203262Y0132770D01*
X0203262Y0132732D02*
X0202105Y0132732D01*
X0202105Y0132694D02*
X0203262Y0132694D01*
X0203262Y0132657D02*
X0202105Y0132657D01*
X0202105Y0132619D02*
X0203262Y0132619D01*
X0203262Y0132581D02*
X0202105Y0132581D01*
X0202105Y0132543D02*
X0203262Y0132543D01*
X0203262Y0132505D02*
X0202105Y0132505D01*
X0202105Y0132467D02*
X0203262Y0132467D01*
X0203262Y0132429D02*
X0202105Y0132429D01*
X0202105Y0132391D02*
X0203262Y0132391D01*
X0203262Y0132353D02*
X0202105Y0132353D01*
X0202105Y0132316D02*
X0203262Y0132316D01*
X0203262Y0132278D02*
X0202105Y0132278D01*
X0202105Y0132240D02*
X0203262Y0132240D01*
X0203262Y0132202D02*
X0202105Y0132202D01*
X0202105Y0132164D02*
X0203262Y0132164D01*
X0203262Y0132126D02*
X0202105Y0132126D01*
X0202105Y0132088D02*
X0203262Y0132088D01*
X0203262Y0132050D02*
X0202105Y0132050D01*
X0202105Y0132013D02*
X0203262Y0132013D01*
X0203262Y0131975D02*
X0202105Y0131975D01*
X0202105Y0131937D02*
X0203262Y0131937D01*
X0203262Y0131899D02*
X0202105Y0131899D01*
X0202105Y0131861D02*
X0203262Y0131861D01*
X0203262Y0131823D02*
X0202105Y0131823D01*
X0202105Y0131785D02*
X0203262Y0131785D01*
X0203262Y0131747D02*
X0202105Y0131747D01*
X0202105Y0131709D02*
X0203262Y0131709D01*
X0203262Y0131672D02*
X0202105Y0131672D01*
X0202105Y0131634D02*
X0203262Y0131634D01*
X0203262Y0131596D02*
X0202105Y0131596D01*
X0202105Y0131558D02*
X0203262Y0131558D01*
X0203262Y0131520D02*
X0202105Y0131520D01*
X0202105Y0131482D02*
X0203262Y0131482D01*
X0203262Y0131444D02*
X0202105Y0131444D01*
X0202105Y0131406D02*
X0203262Y0131406D01*
X0203262Y0131369D02*
X0202105Y0131369D01*
X0202105Y0131331D02*
X0203262Y0131331D01*
X0203262Y0131293D02*
X0202105Y0131293D01*
X0202105Y0131255D02*
X0203262Y0131255D01*
X0203262Y0131217D02*
X0202105Y0131217D01*
X0202105Y0131179D02*
X0203262Y0131179D01*
X0203262Y0131141D02*
X0202105Y0131141D01*
X0202105Y0131103D02*
X0203262Y0131103D01*
X0203262Y0131066D02*
X0202105Y0131066D01*
X0202105Y0131028D02*
X0203262Y0131028D01*
X0203262Y0130990D02*
X0202105Y0130990D01*
X0202105Y0130952D02*
X0203262Y0130952D01*
X0203262Y0130914D02*
X0202105Y0130914D01*
X0202105Y0130876D02*
X0203262Y0130876D01*
X0203262Y0130838D02*
X0202105Y0130838D01*
X0202105Y0130800D02*
X0203262Y0130800D01*
X0203262Y0130762D02*
X0202105Y0130762D01*
X0202105Y0130725D02*
X0203262Y0130725D01*
X0203262Y0130687D02*
X0202105Y0130687D01*
X0202105Y0130649D02*
X0203262Y0130649D01*
X0203262Y0130611D02*
X0202105Y0130611D01*
X0202105Y0130573D02*
X0203262Y0130573D01*
X0203262Y0130535D02*
X0202105Y0130535D01*
X0202105Y0130497D02*
X0203262Y0130497D01*
X0203262Y0130459D02*
X0202105Y0130459D01*
X0202105Y0130422D02*
X0203262Y0130422D01*
X0203262Y0130384D02*
X0202105Y0130384D01*
X0202105Y0130346D02*
X0203262Y0130346D01*
X0203262Y0130308D02*
X0202105Y0130308D01*
X0202105Y0130270D02*
X0203262Y0130270D01*
X0203262Y0130232D02*
X0202105Y0130232D01*
X0202105Y0130194D02*
X0203262Y0130194D01*
X0203262Y0130156D02*
X0202105Y0130156D01*
X0202105Y0130118D02*
X0203262Y0130118D01*
X0203262Y0130081D02*
X0202105Y0130081D01*
X0202105Y0130043D02*
X0203262Y0130043D01*
X0203262Y0130005D02*
X0202105Y0130005D01*
X0202105Y0129967D02*
X0203262Y0129967D01*
X0203262Y0129929D02*
X0202105Y0129929D01*
X0202105Y0129891D02*
X0203262Y0129891D01*
X0203262Y0129853D02*
X0202105Y0129853D01*
X0202105Y0129815D02*
X0203262Y0129815D01*
X0203262Y0129778D02*
X0202105Y0129778D01*
X0202105Y0129740D02*
X0203262Y0129740D01*
X0203262Y0129702D02*
X0202105Y0129702D01*
X0202105Y0129664D02*
X0203262Y0129664D01*
X0203262Y0129626D02*
X0202105Y0129626D01*
X0202105Y0129588D02*
X0203262Y0129588D01*
X0203262Y0129550D02*
X0202105Y0129550D01*
X0202105Y0129512D02*
X0203262Y0129512D01*
X0203262Y0129474D02*
X0202105Y0129474D01*
X0202105Y0129437D02*
X0203262Y0129437D01*
X0203262Y0129399D02*
X0202105Y0129399D01*
X0202105Y0129361D02*
X0203262Y0129361D01*
X0203262Y0129323D02*
X0202105Y0129323D01*
X0202105Y0129285D02*
X0203262Y0129285D01*
X0203262Y0129247D02*
X0202105Y0129247D01*
X0202105Y0129209D02*
X0203262Y0129209D01*
X0203262Y0129171D02*
X0202105Y0129171D01*
X0202105Y0129134D02*
X0203262Y0129134D01*
X0203262Y0129096D02*
X0202105Y0129096D01*
X0202105Y0129058D02*
X0203262Y0129058D01*
X0203262Y0129020D02*
X0202105Y0129020D01*
X0202105Y0128982D02*
X0203262Y0128982D01*
X0203262Y0128944D02*
X0202105Y0128944D01*
X0202105Y0128906D02*
X0203262Y0128906D01*
X0203262Y0128868D02*
X0202105Y0128868D01*
X0202105Y0128830D02*
X0203262Y0128830D01*
X0203262Y0128793D02*
X0202105Y0128793D01*
X0202105Y0128755D02*
X0203262Y0128755D01*
X0203262Y0128717D02*
X0202105Y0128717D01*
X0202105Y0128679D02*
X0203262Y0128679D01*
X0203262Y0128641D02*
X0202105Y0128641D01*
X0202105Y0128603D02*
X0203262Y0128603D01*
X0203262Y0128565D02*
X0202105Y0128565D01*
X0202105Y0128527D02*
X0203262Y0128527D01*
X0203262Y0128490D02*
X0202105Y0128490D01*
X0202105Y0128452D02*
X0203262Y0128452D01*
X0203262Y0128414D02*
X0202105Y0128414D01*
X0202105Y0128376D02*
X0203262Y0128376D01*
X0203262Y0128338D02*
X0202105Y0128338D01*
X0202105Y0128300D02*
X0203262Y0128300D01*
X0203262Y0128262D02*
X0202105Y0128262D01*
X0202105Y0128224D02*
X0203262Y0128224D01*
X0203262Y0128187D02*
X0202105Y0128187D01*
X0202105Y0128149D02*
X0203262Y0128149D01*
X0203262Y0128111D02*
X0202105Y0128111D01*
X0202105Y0128073D02*
X0203262Y0128073D01*
X0203262Y0128035D02*
X0202105Y0128035D01*
X0202105Y0127997D02*
X0203262Y0127997D01*
X0203262Y0127959D02*
X0202105Y0127959D01*
X0202105Y0127921D02*
X0203262Y0127921D01*
X0203262Y0127883D02*
X0202105Y0127883D01*
X0202105Y0127846D02*
X0203262Y0127846D01*
X0203262Y0127808D02*
X0202105Y0127808D01*
X0202105Y0127770D02*
X0203262Y0127770D01*
X0203262Y0127732D02*
X0202105Y0127732D01*
X0202105Y0127694D02*
X0203262Y0127694D01*
X0203262Y0127656D02*
X0202105Y0127656D01*
X0202105Y0127618D02*
X0203262Y0127618D01*
X0203262Y0127580D02*
X0202105Y0127580D01*
X0202105Y0127543D02*
X0203262Y0127543D01*
X0203262Y0127505D02*
X0202105Y0127505D01*
X0202105Y0127467D02*
X0203262Y0127467D01*
X0203262Y0127429D02*
X0202105Y0127429D01*
X0202105Y0127391D02*
X0203262Y0127391D01*
X0203262Y0127353D02*
X0202105Y0127353D01*
X0202105Y0127315D02*
X0203262Y0127315D01*
X0203262Y0127277D02*
X0202105Y0127277D01*
X0202105Y0127239D02*
X0203262Y0127239D01*
X0203262Y0127202D02*
X0202105Y0127202D01*
X0202105Y0127164D02*
X0203262Y0127164D01*
X0203262Y0127126D02*
X0202105Y0127126D01*
X0202105Y0127088D02*
X0203262Y0127088D01*
X0203262Y0127050D02*
X0202105Y0127050D01*
X0202105Y0127012D02*
X0203262Y0127012D01*
X0203262Y0126974D02*
X0202105Y0126974D01*
X0202105Y0126936D02*
X0203262Y0126936D01*
X0203262Y0126899D02*
X0202105Y0126899D01*
X0202105Y0126861D02*
X0203262Y0126861D01*
X0203262Y0126823D02*
X0202105Y0126823D01*
X0202105Y0126785D02*
X0203262Y0126785D01*
X0203262Y0126747D02*
X0202105Y0126747D01*
X0202105Y0126709D02*
X0203262Y0126709D01*
X0203262Y0126671D02*
X0202105Y0126671D01*
X0202105Y0126633D02*
X0203262Y0126633D01*
X0203262Y0126595D02*
X0202105Y0126595D01*
X0202105Y0126558D02*
X0203262Y0126558D01*
X0203262Y0126520D02*
X0202105Y0126520D01*
X0202105Y0126482D02*
X0203262Y0126482D01*
X0203262Y0126444D02*
X0202105Y0126444D01*
X0202105Y0126406D02*
X0203262Y0126406D01*
X0203262Y0126368D02*
X0202105Y0126368D01*
X0202105Y0126330D02*
X0203262Y0126330D01*
X0203262Y0126292D02*
X0202105Y0126292D01*
X0202105Y0126255D02*
X0203262Y0126255D01*
X0203262Y0126217D02*
X0202105Y0126217D01*
X0202105Y0126179D02*
X0203262Y0126179D01*
X0203262Y0126141D02*
X0202105Y0126141D01*
X0202105Y0126103D02*
X0203262Y0126103D01*
X0203262Y0126065D02*
X0202105Y0126065D01*
X0202105Y0126027D02*
X0203262Y0126027D01*
X0203262Y0125989D02*
X0202105Y0125989D01*
X0202105Y0125952D02*
X0203262Y0125952D01*
X0203262Y0125914D02*
X0202105Y0125914D01*
X0202105Y0125876D02*
X0203262Y0125876D01*
X0203262Y0125838D02*
X0202105Y0125838D01*
X0202105Y0125800D02*
X0203262Y0125800D01*
X0203262Y0125762D02*
X0202105Y0125762D01*
X0202105Y0125724D02*
X0203262Y0125724D01*
X0203262Y0125686D02*
X0202105Y0125686D01*
X0202105Y0125648D02*
X0203262Y0125648D01*
X0203262Y0125611D02*
X0202105Y0125611D01*
X0202105Y0125573D02*
X0203262Y0125573D01*
X0203262Y0125535D02*
X0202105Y0125535D01*
X0202105Y0125497D02*
X0203262Y0125497D01*
X0203262Y0125459D02*
X0202105Y0125459D01*
X0202105Y0125421D02*
X0203262Y0125421D01*
X0203262Y0125383D02*
X0202105Y0125383D01*
X0202105Y0125345D02*
X0203262Y0125345D01*
X0203262Y0125308D02*
X0202105Y0125308D01*
X0202105Y0125270D02*
X0203262Y0125270D01*
X0203262Y0125232D02*
X0202105Y0125232D01*
X0202105Y0125194D02*
X0203262Y0125194D01*
X0203262Y0125156D02*
X0202105Y0125156D01*
X0202105Y0125118D02*
X0203262Y0125118D01*
X0203262Y0125080D02*
X0202105Y0125080D01*
X0202105Y0125042D02*
X0203262Y0125042D01*
X0203262Y0125004D02*
X0202105Y0125004D01*
X0202105Y0124967D02*
X0203262Y0124967D01*
X0203262Y0124929D02*
X0202105Y0124929D01*
X0202105Y0124891D02*
X0203262Y0124891D01*
X0203262Y0124853D02*
X0202105Y0124853D01*
X0202105Y0124815D02*
X0203262Y0124815D01*
X0203262Y0124777D02*
X0202105Y0124777D01*
X0202105Y0124739D02*
X0203262Y0124739D01*
X0203262Y0124701D02*
X0202105Y0124701D01*
X0202105Y0124664D02*
X0203262Y0124664D01*
X0203262Y0124626D02*
X0202105Y0124626D01*
X0202105Y0124588D02*
X0203262Y0124588D01*
X0203262Y0124550D02*
X0202105Y0124550D01*
X0202105Y0124512D02*
X0203262Y0124512D01*
X0203262Y0124474D02*
X0202105Y0124474D01*
X0202105Y0124436D02*
X0203262Y0124436D01*
X0203262Y0124398D02*
X0202105Y0124398D01*
X0202105Y0124360D02*
X0203262Y0124360D01*
X0203262Y0124323D02*
X0202105Y0124323D01*
X0202105Y0124285D02*
X0203262Y0124285D01*
X0203262Y0124247D02*
X0202105Y0124247D01*
X0202105Y0124209D02*
X0203262Y0124209D01*
X0203262Y0124171D02*
X0202105Y0124171D01*
X0202105Y0124133D02*
X0203262Y0124133D01*
X0203262Y0124095D02*
X0202105Y0124095D01*
X0202105Y0124057D02*
X0203262Y0124057D01*
X0203262Y0124020D02*
X0202105Y0124020D01*
X0202105Y0123982D02*
X0203262Y0123982D01*
X0203262Y0123944D02*
X0202105Y0123944D01*
X0202105Y0123906D02*
X0203262Y0123906D01*
X0203262Y0123868D02*
X0202105Y0123868D01*
X0202105Y0123830D02*
X0203262Y0123830D01*
X0203262Y0123792D02*
X0202105Y0123792D01*
X0202105Y0123754D02*
X0203262Y0123754D01*
X0203262Y0123717D02*
X0202105Y0123717D01*
X0202105Y0123679D02*
X0203262Y0123679D01*
X0203262Y0123641D02*
X0202105Y0123641D01*
X0202105Y0123603D02*
X0203262Y0123603D01*
X0203262Y0123565D02*
X0202105Y0123565D01*
X0202105Y0123527D02*
X0203262Y0123527D01*
X0203262Y0123489D02*
X0202105Y0123489D01*
X0202105Y0123451D02*
X0203262Y0123451D01*
X0203262Y0123413D02*
X0202105Y0123413D01*
X0202105Y0123376D02*
X0203262Y0123376D01*
X0203262Y0123338D02*
X0202105Y0123338D01*
X0202105Y0123300D02*
X0203262Y0123300D01*
X0203262Y0123262D02*
X0202105Y0123262D01*
X0202105Y0123224D02*
X0203262Y0123224D01*
X0203262Y0123186D02*
X0202105Y0123186D01*
X0202105Y0123148D02*
X0203262Y0123148D01*
X0203262Y0123110D02*
X0202105Y0123110D01*
X0202105Y0123073D02*
X0203262Y0123073D01*
X0203262Y0123035D02*
X0202105Y0123035D01*
X0202105Y0122997D02*
X0203262Y0122997D01*
X0203262Y0122959D02*
X0202105Y0122959D01*
X0202105Y0122921D02*
X0203262Y0122921D01*
X0203262Y0122883D02*
X0202105Y0122883D01*
X0202105Y0122845D02*
X0203262Y0122845D01*
X0203262Y0122807D02*
X0202105Y0122807D01*
X0202105Y0122769D02*
X0203262Y0122769D01*
X0203262Y0122732D02*
X0202105Y0122732D01*
X0202105Y0122694D02*
X0203262Y0122694D01*
X0203262Y0122656D02*
X0202105Y0122656D01*
X0202105Y0122618D02*
X0203262Y0122618D01*
X0203262Y0122580D02*
X0202105Y0122580D01*
X0202105Y0122542D02*
X0203262Y0122542D01*
X0203262Y0122504D02*
X0202105Y0122504D01*
X0202105Y0122466D02*
X0203262Y0122466D01*
X0203262Y0122429D02*
X0202105Y0122429D01*
X0202105Y0122391D02*
X0203262Y0122391D01*
X0203262Y0122353D02*
X0202105Y0122353D01*
X0202105Y0122315D02*
X0203262Y0122315D01*
X0203262Y0122277D02*
X0202105Y0122277D01*
X0202105Y0122239D02*
X0203262Y0122239D01*
X0203262Y0122201D02*
X0202105Y0122201D01*
X0202105Y0122163D02*
X0203262Y0122163D01*
X0203262Y0122125D02*
X0202105Y0122125D01*
X0202105Y0122088D02*
X0203262Y0122088D01*
X0203262Y0122050D02*
X0202105Y0122050D01*
X0202105Y0122012D02*
X0203262Y0122012D01*
X0203262Y0121974D02*
X0202105Y0121974D01*
X0202105Y0121936D02*
X0203262Y0121936D01*
X0203262Y0121898D02*
X0202105Y0121898D01*
X0202105Y0121860D02*
X0203262Y0121860D01*
X0203262Y0121822D02*
X0202105Y0121822D01*
X0202105Y0121785D02*
X0203262Y0121785D01*
X0203262Y0121747D02*
X0202105Y0121747D01*
X0202105Y0121709D02*
X0203262Y0121709D01*
X0203262Y0121671D02*
X0202105Y0121671D01*
X0202105Y0121633D02*
X0203262Y0121633D01*
X0203262Y0121595D02*
X0202105Y0121595D01*
X0202105Y0121557D02*
X0203262Y0121557D01*
X0203262Y0121519D02*
X0202105Y0121519D01*
X0202105Y0121482D02*
X0203262Y0121482D01*
X0203262Y0121444D02*
X0202105Y0121444D01*
X0202105Y0121406D02*
X0203262Y0121406D01*
X0203262Y0121368D02*
X0202105Y0121368D01*
X0202105Y0121330D02*
X0203262Y0121330D01*
X0203262Y0121292D02*
X0202105Y0121292D01*
X0202105Y0121254D02*
X0203262Y0121254D01*
X0203262Y0121216D02*
X0202105Y0121216D01*
X0202105Y0121178D02*
X0203262Y0121178D01*
X0203262Y0121141D02*
X0202105Y0121141D01*
X0202105Y0121103D02*
X0203262Y0121103D01*
X0203262Y0121065D02*
X0202105Y0121065D01*
X0202105Y0121027D02*
X0203262Y0121027D01*
X0203262Y0120989D02*
X0202105Y0120989D01*
X0202105Y0120951D02*
X0203262Y0120951D01*
X0203262Y0120913D02*
X0202105Y0120913D01*
X0202105Y0120875D02*
X0203262Y0120875D01*
X0203262Y0120838D02*
X0202105Y0120838D01*
X0202105Y0120800D02*
X0203262Y0120800D01*
X0203262Y0120762D02*
X0202105Y0120762D01*
X0202105Y0120724D02*
X0203262Y0120724D01*
X0203262Y0120686D02*
X0202105Y0120686D01*
X0202105Y0120648D02*
X0203262Y0120648D01*
X0203262Y0120610D02*
X0202105Y0120610D01*
X0202105Y0120572D02*
X0203262Y0120572D01*
X0203262Y0120534D02*
X0202105Y0120534D01*
X0202105Y0120497D02*
X0203262Y0120497D01*
X0203262Y0120459D02*
X0202105Y0120459D01*
X0202105Y0120421D02*
X0203262Y0120421D01*
X0203262Y0120383D02*
X0202105Y0120383D01*
X0202105Y0120345D02*
X0203262Y0120345D01*
X0203262Y0120307D02*
X0202105Y0120307D01*
X0202105Y0120269D02*
X0203262Y0120269D01*
X0203262Y0120231D02*
X0202105Y0120231D01*
X0202105Y0120194D02*
X0203262Y0120194D01*
X0203262Y0120156D02*
X0202105Y0120156D01*
X0202105Y0120118D02*
X0203262Y0120118D01*
X0203262Y0120080D02*
X0202105Y0120080D01*
X0202105Y0120042D02*
X0203262Y0120042D01*
X0203262Y0120004D02*
X0202105Y0120004D01*
X0202105Y0119966D02*
X0203262Y0119966D01*
X0203262Y0119928D02*
X0202105Y0119928D01*
X0202105Y0119890D02*
X0203262Y0119890D01*
X0203262Y0119853D02*
X0202105Y0119853D01*
X0202105Y0119815D02*
X0203262Y0119815D01*
X0203262Y0119777D02*
X0202105Y0119777D01*
X0202105Y0119739D02*
X0203262Y0119739D01*
X0203262Y0119701D02*
X0202105Y0119701D01*
X0202105Y0119663D02*
X0203262Y0119663D01*
X0203262Y0119625D02*
X0202105Y0119625D01*
X0202105Y0119587D02*
X0203262Y0119587D01*
X0203262Y0119550D02*
X0202105Y0119550D01*
X0202105Y0119512D02*
X0203262Y0119512D01*
X0203262Y0119474D02*
X0202105Y0119474D01*
X0202105Y0119436D02*
X0203262Y0119436D01*
X0203262Y0119398D02*
X0202105Y0119398D01*
X0202105Y0119360D02*
X0203262Y0119360D01*
X0203262Y0119322D02*
X0202105Y0119322D01*
X0202105Y0119284D02*
X0203262Y0119284D01*
X0203262Y0119247D02*
X0202105Y0119247D01*
X0202105Y0119209D02*
X0203262Y0119209D01*
X0203262Y0119171D02*
X0202105Y0119171D01*
X0202105Y0119133D02*
X0203262Y0119133D01*
X0203262Y0119095D02*
X0202105Y0119095D01*
X0202105Y0119057D02*
X0203262Y0119057D01*
X0203262Y0119019D02*
X0202105Y0119019D01*
X0202105Y0118981D02*
X0203262Y0118981D01*
X0203262Y0118943D02*
X0202105Y0118943D01*
X0202105Y0118906D02*
X0203262Y0118906D01*
X0203262Y0118868D02*
X0202105Y0118868D01*
X0202105Y0118830D02*
X0203262Y0118830D01*
X0203262Y0118792D02*
X0202105Y0118792D01*
X0202105Y0118754D02*
X0203262Y0118754D01*
X0203262Y0118716D02*
X0202105Y0118716D01*
X0202105Y0118678D02*
X0203262Y0118678D01*
X0203262Y0118640D02*
X0202105Y0118640D01*
X0202105Y0118603D02*
X0203262Y0118603D01*
X0203262Y0118565D02*
X0202105Y0118565D01*
X0202105Y0118527D02*
X0203262Y0118527D01*
X0203262Y0118489D02*
X0202105Y0118489D01*
X0202105Y0118451D02*
X0203262Y0118451D01*
X0203262Y0118413D02*
X0202105Y0118413D01*
X0202105Y0118375D02*
X0203262Y0118375D01*
X0203262Y0118337D02*
X0202105Y0118337D01*
X0202105Y0118299D02*
X0203262Y0118299D01*
X0203262Y0118262D02*
X0202105Y0118262D01*
X0202105Y0118224D02*
X0203262Y0118224D01*
X0203262Y0118186D02*
X0202105Y0118186D01*
X0202105Y0118148D02*
X0203262Y0118148D01*
X0203262Y0118110D02*
X0202105Y0118110D01*
X0202105Y0118072D02*
X0203262Y0118072D01*
X0203262Y0118034D02*
X0202105Y0118034D01*
X0202105Y0117996D02*
X0203262Y0117996D01*
X0203262Y0117959D02*
X0202105Y0117959D01*
X0202105Y0117921D02*
X0203262Y0117921D01*
X0203262Y0117883D02*
X0202105Y0117883D01*
X0202105Y0117845D02*
X0203262Y0117845D01*
X0203262Y0117807D02*
X0202105Y0117807D01*
X0202105Y0117769D02*
X0203262Y0117769D01*
X0203262Y0117731D02*
X0202105Y0117731D01*
X0202105Y0117693D02*
X0203262Y0117693D01*
X0203262Y0117655D02*
X0202105Y0117655D01*
X0202105Y0117618D02*
X0203262Y0117618D01*
X0203262Y0117580D02*
X0202105Y0117580D01*
X0202105Y0117542D02*
X0203262Y0117542D01*
X0203262Y0117504D02*
X0202105Y0117504D01*
X0202105Y0117466D02*
X0203262Y0117466D01*
X0203262Y0117428D02*
X0202105Y0117428D01*
X0202105Y0117390D02*
X0203262Y0117390D01*
X0203262Y0117352D02*
X0202105Y0117352D01*
X0202105Y0117315D02*
X0203262Y0117315D01*
X0203262Y0117277D02*
X0202105Y0117277D01*
X0202105Y0117239D02*
X0203262Y0117239D01*
X0203262Y0117201D02*
X0202105Y0117201D01*
X0202105Y0117163D02*
X0203262Y0117163D01*
X0203262Y0117125D02*
X0202105Y0117125D01*
X0202105Y0117087D02*
X0203262Y0117087D01*
X0203262Y0117049D02*
X0202105Y0117049D01*
X0202105Y0117012D02*
X0203262Y0117012D01*
X0203262Y0116974D02*
X0202105Y0116974D01*
X0202105Y0116936D02*
X0203262Y0116936D01*
X0203262Y0116898D02*
X0202105Y0116898D01*
X0202105Y0116860D02*
X0203262Y0116860D01*
X0203262Y0116822D02*
X0202105Y0116822D01*
X0202105Y0116784D02*
X0203262Y0116784D01*
X0203262Y0116746D02*
X0202105Y0116746D01*
X0202105Y0116708D02*
X0203262Y0116708D01*
X0203262Y0116671D02*
X0202105Y0116671D01*
X0202105Y0116633D02*
X0203262Y0116633D01*
X0203262Y0116595D02*
X0202105Y0116595D01*
X0202105Y0116557D02*
X0203262Y0116557D01*
X0203262Y0116519D02*
X0202105Y0116519D01*
X0202105Y0116481D02*
X0203262Y0116481D01*
X0203262Y0116443D02*
X0202105Y0116443D01*
X0202105Y0116405D02*
X0203262Y0116405D01*
X0203262Y0116368D02*
X0202105Y0116368D01*
X0202105Y0116330D02*
X0203262Y0116330D01*
X0203262Y0116292D02*
X0202105Y0116292D01*
X0202105Y0116254D02*
X0203262Y0116254D01*
X0203262Y0116216D02*
X0202105Y0116216D01*
X0202105Y0116178D02*
X0203262Y0116178D01*
X0203262Y0116140D02*
X0202105Y0116140D01*
X0202105Y0116102D02*
X0203262Y0116102D01*
X0203262Y0116064D02*
X0202105Y0116064D01*
X0202105Y0116027D02*
X0203262Y0116027D01*
X0203262Y0115989D02*
X0202105Y0115989D01*
X0202105Y0115951D02*
X0203262Y0115951D01*
X0203262Y0115913D02*
X0202105Y0115913D01*
X0202105Y0115875D02*
X0203262Y0115875D01*
X0203262Y0115837D02*
X0202105Y0115837D01*
X0202105Y0115799D02*
X0203262Y0115799D01*
X0203262Y0115761D02*
X0202105Y0115761D01*
X0202105Y0115724D02*
X0203262Y0115724D01*
X0203262Y0115686D02*
X0202105Y0115686D01*
X0202105Y0115648D02*
X0203262Y0115648D01*
X0203262Y0115610D02*
X0202105Y0115610D01*
X0202105Y0115572D02*
X0203262Y0115572D01*
X0203262Y0115534D02*
X0202105Y0115534D01*
X0202105Y0115496D02*
X0203262Y0115496D01*
X0203262Y0115458D02*
X0202105Y0115458D01*
X0202105Y0115420D02*
X0203262Y0115420D01*
X0203262Y0115383D02*
X0202105Y0115383D01*
X0202105Y0115345D02*
X0203262Y0115345D01*
X0203262Y0115307D02*
X0202105Y0115307D01*
X0202105Y0115269D02*
X0203262Y0115269D01*
X0203262Y0115231D02*
X0202105Y0115231D01*
X0202105Y0115193D02*
X0203262Y0115193D01*
X0203262Y0115155D02*
X0202105Y0115155D01*
X0202105Y0115117D02*
X0203262Y0115117D01*
X0203262Y0115080D02*
X0202105Y0115080D01*
X0202105Y0115042D02*
X0203262Y0115042D01*
X0203262Y0115004D02*
X0202105Y0115004D01*
X0202105Y0114966D02*
X0203262Y0114966D01*
X0203262Y0114928D02*
X0202105Y0114928D01*
X0202105Y0114890D02*
X0203262Y0114890D01*
X0203262Y0114852D02*
X0202105Y0114852D01*
X0202105Y0114814D02*
X0203262Y0114814D01*
X0203262Y0114777D02*
X0202105Y0114777D01*
X0202105Y0114739D02*
X0203262Y0114739D01*
X0203262Y0114701D02*
X0202105Y0114701D01*
X0202105Y0114663D02*
X0203262Y0114663D01*
X0203262Y0114625D02*
X0202105Y0114625D01*
X0202105Y0114587D02*
X0203262Y0114587D01*
X0203262Y0114549D02*
X0202105Y0114549D01*
X0202105Y0114511D02*
X0203262Y0114511D01*
X0203262Y0114473D02*
X0202105Y0114473D01*
X0202105Y0114436D02*
X0203262Y0114436D01*
X0203262Y0114398D02*
X0202105Y0114398D01*
X0202105Y0114360D02*
X0203262Y0114360D01*
X0203262Y0114322D02*
X0202105Y0114322D01*
X0202105Y0114284D02*
X0203262Y0114284D01*
X0203262Y0114246D02*
X0202105Y0114246D01*
X0202105Y0114208D02*
X0203262Y0114208D01*
X0203262Y0114170D02*
X0202105Y0114170D01*
X0202105Y0114133D02*
X0203262Y0114133D01*
X0203262Y0114095D02*
X0202105Y0114095D01*
X0202105Y0114057D02*
X0203262Y0114057D01*
X0203262Y0114019D02*
X0202105Y0114019D01*
X0202105Y0113981D02*
X0203262Y0113981D01*
X0203262Y0113943D02*
X0202105Y0113943D01*
X0202105Y0113905D02*
X0203262Y0113905D01*
X0203262Y0113867D02*
X0202105Y0113867D01*
X0202105Y0113829D02*
X0203262Y0113829D01*
X0203262Y0113792D02*
X0202105Y0113792D01*
X0202105Y0113754D02*
X0203262Y0113754D01*
X0203262Y0113716D02*
X0202105Y0113716D01*
X0202105Y0113678D02*
X0203262Y0113678D01*
X0203262Y0113640D02*
X0202105Y0113640D01*
X0202105Y0113602D02*
X0203262Y0113602D01*
X0203262Y0113564D02*
X0202105Y0113564D01*
X0202105Y0113526D02*
X0203262Y0113526D01*
X0203262Y0113489D02*
X0202105Y0113489D01*
X0202105Y0113451D02*
X0203262Y0113451D01*
X0203262Y0113413D02*
X0202105Y0113413D01*
X0202105Y0113375D02*
X0203262Y0113375D01*
X0203262Y0113337D02*
X0202105Y0113337D01*
X0202105Y0113299D02*
X0203262Y0113299D01*
X0203262Y0113261D02*
X0202105Y0113261D01*
X0202105Y0113223D02*
X0203262Y0113223D01*
X0203262Y0113185D02*
X0202105Y0113185D01*
X0202105Y0113148D02*
X0203262Y0113148D01*
X0203262Y0113110D02*
X0202105Y0113110D01*
X0202105Y0113072D02*
X0203262Y0113072D01*
X0203262Y0113034D02*
X0202105Y0113034D01*
X0202105Y0112996D02*
X0203262Y0112996D01*
X0203262Y0112958D02*
X0202105Y0112958D01*
X0202105Y0112920D02*
X0203262Y0112920D01*
X0203262Y0112882D02*
X0202105Y0112882D01*
X0202105Y0112845D02*
X0203262Y0112845D01*
X0203262Y0112807D02*
X0202105Y0112807D01*
X0202105Y0112769D02*
X0203262Y0112769D01*
X0203262Y0112731D02*
X0202105Y0112731D01*
X0202105Y0112693D02*
X0203262Y0112693D01*
X0203262Y0112655D02*
X0202105Y0112655D01*
X0202105Y0112617D02*
X0203262Y0112617D01*
X0203262Y0112579D02*
X0202105Y0112579D01*
X0202105Y0112541D02*
X0203262Y0112541D01*
X0203262Y0112504D02*
X0202105Y0112504D01*
X0202105Y0112466D02*
X0203262Y0112466D01*
X0203262Y0112428D02*
X0202105Y0112428D01*
X0202105Y0112390D02*
X0203262Y0112390D01*
X0203262Y0112352D02*
X0202105Y0112352D01*
X0202105Y0112314D02*
X0203262Y0112314D01*
X0203262Y0112276D02*
X0202105Y0112276D01*
X0202105Y0112238D02*
X0203262Y0112238D01*
X0203262Y0112201D02*
X0202105Y0112201D01*
X0202105Y0112163D02*
X0203262Y0112163D01*
X0203262Y0112125D02*
X0202105Y0112125D01*
X0202105Y0112087D02*
X0203262Y0112087D01*
X0203262Y0112049D02*
X0202105Y0112049D01*
X0202105Y0112011D02*
X0203262Y0112011D01*
X0203262Y0111973D02*
X0202105Y0111973D01*
X0202105Y0111935D02*
X0203262Y0111935D01*
X0203262Y0111898D02*
X0202105Y0111898D01*
X0202105Y0111860D02*
X0203262Y0111860D01*
X0203262Y0111822D02*
X0202105Y0111822D01*
X0202105Y0111784D02*
X0203262Y0111784D01*
X0203262Y0111746D02*
X0202105Y0111746D01*
X0202105Y0111708D02*
X0203262Y0111708D01*
X0203262Y0111670D02*
X0202105Y0111670D01*
X0202105Y0111632D02*
X0203262Y0111632D01*
X0203262Y0111594D02*
X0202105Y0111594D01*
X0202105Y0111557D02*
X0203262Y0111557D01*
X0203262Y0111519D02*
X0202105Y0111519D01*
X0202105Y0111481D02*
X0203262Y0111481D01*
X0203262Y0111443D02*
X0202105Y0111443D01*
X0202105Y0111405D02*
X0203262Y0111405D01*
X0203262Y0111367D02*
X0202105Y0111367D01*
X0202105Y0111329D02*
X0203262Y0111329D01*
X0203262Y0111291D02*
X0202105Y0111291D01*
X0202105Y0111254D02*
X0203262Y0111254D01*
X0203262Y0111216D02*
X0202105Y0111216D01*
X0202105Y0111178D02*
X0203262Y0111178D01*
X0203262Y0111140D02*
X0202105Y0111140D01*
X0202105Y0111102D02*
X0203262Y0111102D01*
X0203262Y0111064D02*
X0202105Y0111064D01*
X0202105Y0111026D02*
X0203262Y0111026D01*
X0203262Y0110988D02*
X0202105Y0110988D01*
X0202105Y0110950D02*
X0203262Y0110950D01*
X0203262Y0110913D02*
X0202105Y0110913D01*
X0202105Y0110875D02*
X0203262Y0110875D01*
X0203262Y0110837D02*
X0202105Y0110837D01*
X0202105Y0110799D02*
X0203262Y0110799D01*
X0203262Y0110761D02*
X0202105Y0110761D01*
X0202105Y0110723D02*
X0203262Y0110723D01*
X0203262Y0110685D02*
X0202105Y0110685D01*
X0202105Y0110647D02*
X0203262Y0110647D01*
X0203262Y0110610D02*
X0202105Y0110610D01*
X0202105Y0110572D02*
X0203262Y0110572D01*
X0203262Y0110534D02*
X0202105Y0110534D01*
X0202105Y0110496D02*
X0203262Y0110496D01*
X0203262Y0110458D02*
X0202105Y0110458D01*
X0202105Y0110420D02*
X0203262Y0110420D01*
X0203262Y0110382D02*
X0202105Y0110382D01*
X0202105Y0110344D02*
X0203262Y0110344D01*
X0203262Y0110306D02*
X0202105Y0110306D01*
X0202105Y0110269D02*
X0203262Y0110269D01*
X0203262Y0110231D02*
X0202105Y0110231D01*
X0202105Y0110193D02*
X0203262Y0110193D01*
X0203262Y0110155D02*
X0202105Y0110155D01*
X0202105Y0110117D02*
X0203262Y0110117D01*
X0203262Y0110079D02*
X0202105Y0110079D01*
X0202105Y0110041D02*
X0203262Y0110041D01*
X0203262Y0110003D02*
X0202105Y0110003D01*
X0202105Y0109966D02*
X0203262Y0109966D01*
X0203262Y0109928D02*
X0202105Y0109928D01*
X0202105Y0109890D02*
X0203262Y0109890D01*
X0203262Y0109852D02*
X0202105Y0109852D01*
X0202105Y0109814D02*
X0203262Y0109814D01*
X0203262Y0109776D02*
X0202105Y0109776D01*
X0202105Y0109738D02*
X0203262Y0109738D01*
X0203262Y0109700D02*
X0202105Y0109700D01*
X0202105Y0109663D02*
X0203262Y0109663D01*
X0203262Y0109625D02*
X0202105Y0109625D01*
X0202105Y0109587D02*
X0203262Y0109587D01*
X0203262Y0109549D02*
X0202105Y0109549D01*
X0202105Y0109511D02*
X0203262Y0109511D01*
X0203262Y0109473D02*
X0202105Y0109473D01*
X0202105Y0109435D02*
X0203262Y0109435D01*
X0203262Y0109397D02*
X0202105Y0109397D01*
X0202105Y0109359D02*
X0203262Y0109359D01*
X0203262Y0109322D02*
X0202105Y0109322D01*
X0202105Y0109284D02*
X0203262Y0109284D01*
X0203262Y0109246D02*
X0202105Y0109246D01*
X0202105Y0109208D02*
X0203262Y0109208D01*
X0203262Y0109170D02*
X0202105Y0109170D01*
X0202105Y0109132D02*
X0203262Y0109132D01*
X0202105Y0107617D02*
X0214561Y0107617D01*
X0214561Y0107579D02*
X0202105Y0107579D01*
X0202105Y0107541D02*
X0214561Y0107541D01*
X0214561Y0107503D02*
X0202105Y0107503D01*
X0202105Y0107465D02*
X0214561Y0107465D01*
X0214561Y0107428D02*
X0202105Y0107428D01*
X0202105Y0107390D02*
X0214561Y0107390D01*
X0214561Y0107352D02*
X0202105Y0107352D01*
X0202105Y0107314D02*
X0214561Y0107314D01*
X0214561Y0107276D02*
X0202105Y0107276D01*
X0202105Y0107238D02*
X0214561Y0107238D01*
X0214561Y0107200D02*
X0202105Y0107200D01*
X0202105Y0107162D02*
X0214561Y0107162D01*
X0214561Y0107124D02*
X0202105Y0107124D01*
X0202105Y0107087D02*
X0214561Y0107087D01*
X0214561Y0107049D02*
X0202105Y0107049D01*
X0202105Y0107011D02*
X0214561Y0107011D01*
X0214561Y0106973D02*
X0202105Y0106973D01*
X0202105Y0106935D02*
X0214561Y0106935D01*
X0214561Y0106897D02*
X0202105Y0106897D01*
X0202105Y0106859D02*
X0214561Y0106859D01*
X0214561Y0106821D02*
X0202105Y0106821D01*
X0202105Y0106784D02*
X0214561Y0106784D01*
X0214561Y0106746D02*
X0202105Y0106746D01*
X0202105Y0106708D02*
X0214561Y0106708D01*
X0214561Y0106670D02*
X0202105Y0106670D01*
X0202105Y0106632D02*
X0214561Y0106632D01*
X0214561Y0106594D02*
X0202105Y0106594D01*
X0202105Y0106556D02*
X0214561Y0106556D01*
X0214561Y0106518D02*
X0202105Y0106518D01*
X0206854Y0109786D02*
X0207055Y0109767D01*
X0207073Y0109767D01*
X0207484Y0109803D01*
X0207825Y0109911D01*
X0208102Y0110083D01*
X0208329Y0110312D01*
X0208671Y0110941D01*
X0208923Y0111774D01*
X0209103Y0112391D01*
X0209274Y0112764D01*
X0209458Y0112944D01*
X0209688Y0112994D01*
X0209706Y0112994D01*
X0209945Y0112936D01*
X0210124Y0112764D01*
X0210238Y0112490D01*
X0210277Y0112120D01*
X0210227Y0111623D01*
X0210079Y0111166D01*
X0209847Y0110736D01*
X0209544Y0110316D01*
X0210484Y0109533D01*
X0210913Y0110105D01*
X0211213Y0110739D01*
X0211392Y0111409D01*
X0211452Y0112094D01*
X0211421Y0112563D01*
X0211326Y0112989D01*
X0211173Y0113365D01*
X0210966Y0113687D01*
X0210700Y0113946D01*
X0210381Y0114141D01*
X0210006Y0114262D01*
X0209584Y0114303D01*
X0209548Y0114303D01*
X0209180Y0114272D01*
X0208869Y0114177D01*
X0208603Y0114020D01*
X0208374Y0113803D01*
X0208014Y0113201D01*
X0207744Y0112381D01*
X0207564Y0111738D01*
X0207402Y0111337D01*
X0207208Y0111135D01*
X0206952Y0111081D01*
X0206934Y0111081D01*
X0206854Y0111099D01*
X0206854Y0109786D01*
X0206854Y0111099D01*
X0206728Y0111129D01*
X0206560Y0111274D01*
X0206447Y0111517D01*
X0206407Y0111855D01*
X0206447Y0112242D01*
X0206565Y0112629D01*
X0206854Y0113153D01*
X0207001Y0113421D01*
X0206854Y0113523D01*
X0206854Y0113153D01*
X0206854Y0113523D01*
X0206002Y0114109D01*
X0205675Y0113620D01*
X0205435Y0113088D01*
X0205287Y0112505D01*
X0205237Y0111869D01*
X0205270Y0111423D01*
X0205368Y0111018D01*
X0205525Y0110658D01*
X0205737Y0110352D01*
X0206001Y0110105D01*
X0206308Y0109920D01*
X0206660Y0109805D01*
X0206854Y0109786D01*
X0206854Y0109814D02*
X0207518Y0109814D01*
X0207638Y0109852D02*
X0206854Y0109852D01*
X0206516Y0109852D01*
X0206631Y0109814D02*
X0206854Y0109814D01*
X0206854Y0109890D02*
X0207758Y0109890D01*
X0207852Y0109928D02*
X0206854Y0109928D01*
X0206296Y0109928D01*
X0206233Y0109966D02*
X0206854Y0109966D01*
X0207913Y0109966D01*
X0207974Y0110003D02*
X0206854Y0110003D01*
X0206170Y0110003D01*
X0206107Y0110041D02*
X0206854Y0110041D01*
X0208036Y0110041D01*
X0208097Y0110079D02*
X0206854Y0110079D01*
X0206044Y0110079D01*
X0205988Y0110117D02*
X0206854Y0110117D01*
X0208137Y0110117D01*
X0208174Y0110155D02*
X0206854Y0110155D01*
X0205948Y0110155D01*
X0205907Y0110193D02*
X0206854Y0110193D01*
X0208211Y0110193D01*
X0208249Y0110231D02*
X0206854Y0110231D01*
X0205867Y0110231D01*
X0205826Y0110269D02*
X0206854Y0110269D01*
X0208286Y0110269D01*
X0208324Y0110306D02*
X0206854Y0110306D01*
X0205786Y0110306D01*
X0205745Y0110344D02*
X0206854Y0110344D01*
X0208347Y0110344D01*
X0208367Y0110382D02*
X0206854Y0110382D01*
X0205716Y0110382D01*
X0205690Y0110420D02*
X0206854Y0110420D01*
X0208388Y0110420D01*
X0208408Y0110458D02*
X0206854Y0110458D01*
X0205664Y0110458D01*
X0205637Y0110496D02*
X0206854Y0110496D01*
X0208429Y0110496D01*
X0208449Y0110534D02*
X0206854Y0110534D01*
X0205611Y0110534D01*
X0205585Y0110572D02*
X0206854Y0110572D01*
X0208470Y0110572D01*
X0208491Y0110610D02*
X0206854Y0110610D01*
X0205559Y0110610D01*
X0205533Y0110647D02*
X0206854Y0110647D01*
X0208511Y0110647D01*
X0208532Y0110685D02*
X0206854Y0110685D01*
X0205513Y0110685D01*
X0205497Y0110723D02*
X0206854Y0110723D01*
X0208552Y0110723D01*
X0208573Y0110761D02*
X0206854Y0110761D01*
X0205480Y0110761D01*
X0205464Y0110799D02*
X0206854Y0110799D01*
X0208593Y0110799D01*
X0208614Y0110837D02*
X0206854Y0110837D01*
X0205447Y0110837D01*
X0205431Y0110875D02*
X0206854Y0110875D01*
X0208635Y0110875D01*
X0208655Y0110913D02*
X0206854Y0110913D01*
X0205414Y0110913D01*
X0205397Y0110950D02*
X0206854Y0110950D01*
X0208674Y0110950D01*
X0208685Y0110988D02*
X0206854Y0110988D01*
X0205381Y0110988D01*
X0205366Y0111026D02*
X0206854Y0111026D01*
X0208696Y0111026D01*
X0208708Y0111064D02*
X0206854Y0111064D01*
X0205357Y0111064D01*
X0205348Y0111102D02*
X0206843Y0111102D01*
X0206716Y0111140D02*
X0205338Y0111140D01*
X0205329Y0111178D02*
X0206672Y0111178D01*
X0206628Y0111216D02*
X0205320Y0111216D01*
X0205311Y0111254D02*
X0206585Y0111254D01*
X0206552Y0111291D02*
X0205302Y0111291D01*
X0205293Y0111329D02*
X0206535Y0111329D01*
X0206517Y0111367D02*
X0205284Y0111367D01*
X0205275Y0111405D02*
X0206499Y0111405D01*
X0206482Y0111443D02*
X0205269Y0111443D01*
X0205266Y0111481D02*
X0206464Y0111481D01*
X0206447Y0111519D02*
X0205263Y0111519D01*
X0205260Y0111557D02*
X0206442Y0111557D01*
X0206438Y0111594D02*
X0205258Y0111594D01*
X0205255Y0111632D02*
X0206433Y0111632D01*
X0206429Y0111670D02*
X0205252Y0111670D01*
X0205249Y0111708D02*
X0206425Y0111708D01*
X0206420Y0111746D02*
X0205246Y0111746D01*
X0205244Y0111784D02*
X0206416Y0111784D01*
X0206411Y0111822D02*
X0205241Y0111822D01*
X0205238Y0111860D02*
X0206408Y0111860D01*
X0206412Y0111898D02*
X0205240Y0111898D01*
X0205243Y0111935D02*
X0206416Y0111935D01*
X0206420Y0111973D02*
X0205246Y0111973D01*
X0205249Y0112011D02*
X0206423Y0112011D01*
X0206427Y0112049D02*
X0205252Y0112049D01*
X0205254Y0112087D02*
X0206431Y0112087D01*
X0206435Y0112125D02*
X0205257Y0112125D01*
X0205260Y0112163D02*
X0206439Y0112163D01*
X0206443Y0112201D02*
X0205263Y0112201D01*
X0205266Y0112238D02*
X0206447Y0112238D01*
X0206458Y0112276D02*
X0205269Y0112276D01*
X0205272Y0112314D02*
X0206469Y0112314D01*
X0206481Y0112352D02*
X0205275Y0112352D01*
X0205278Y0112390D02*
X0206492Y0112390D01*
X0206504Y0112428D02*
X0205281Y0112428D01*
X0205284Y0112466D02*
X0206515Y0112466D01*
X0206527Y0112504D02*
X0205287Y0112504D01*
X0205296Y0112541D02*
X0206538Y0112541D01*
X0206550Y0112579D02*
X0205306Y0112579D01*
X0205316Y0112617D02*
X0206561Y0112617D01*
X0206579Y0112655D02*
X0205325Y0112655D01*
X0205335Y0112693D02*
X0206600Y0112693D01*
X0206621Y0112731D02*
X0205345Y0112731D01*
X0205354Y0112769D02*
X0206642Y0112769D01*
X0206663Y0112807D02*
X0205364Y0112807D01*
X0205373Y0112845D02*
X0206684Y0112845D01*
X0206704Y0112882D02*
X0205383Y0112882D01*
X0205393Y0112920D02*
X0206725Y0112920D01*
X0206746Y0112958D02*
X0205402Y0112958D01*
X0205412Y0112996D02*
X0206767Y0112996D01*
X0206788Y0113034D02*
X0205422Y0113034D01*
X0205431Y0113072D02*
X0206809Y0113072D01*
X0206830Y0113110D02*
X0205445Y0113110D01*
X0205462Y0113148D02*
X0206851Y0113148D01*
X0206854Y0113185D02*
X0206871Y0113185D01*
X0206854Y0113185D02*
X0205479Y0113185D01*
X0205496Y0113223D02*
X0206854Y0113223D01*
X0206892Y0113223D01*
X0206913Y0113261D02*
X0206854Y0113261D01*
X0205513Y0113261D01*
X0205530Y0113299D02*
X0206854Y0113299D01*
X0206934Y0113299D01*
X0206955Y0113337D02*
X0206854Y0113337D01*
X0205547Y0113337D01*
X0205564Y0113375D02*
X0206854Y0113375D01*
X0206976Y0113375D01*
X0206997Y0113413D02*
X0206854Y0113413D01*
X0205581Y0113413D01*
X0205598Y0113451D02*
X0206854Y0113451D01*
X0206958Y0113451D01*
X0206903Y0113489D02*
X0206854Y0113489D01*
X0205615Y0113489D01*
X0205633Y0113526D02*
X0206848Y0113526D01*
X0206793Y0113564D02*
X0205650Y0113564D01*
X0205667Y0113602D02*
X0206738Y0113602D01*
X0206683Y0113640D02*
X0205688Y0113640D01*
X0205713Y0113678D02*
X0206628Y0113678D01*
X0206573Y0113716D02*
X0205739Y0113716D01*
X0205764Y0113754D02*
X0206518Y0113754D01*
X0206463Y0113792D02*
X0205789Y0113792D01*
X0205815Y0113829D02*
X0206409Y0113829D01*
X0206354Y0113867D02*
X0205840Y0113867D01*
X0205866Y0113905D02*
X0206299Y0113905D01*
X0206244Y0113943D02*
X0205891Y0113943D01*
X0205916Y0113981D02*
X0206189Y0113981D01*
X0206134Y0114019D02*
X0205942Y0114019D01*
X0205967Y0114057D02*
X0206079Y0114057D01*
X0206024Y0114095D02*
X0205992Y0114095D01*
X0205309Y0115455D02*
X0206854Y0115455D01*
X0206854Y0116787D01*
X0206515Y0116787D01*
X0206515Y0117813D01*
X0206573Y0118260D01*
X0206749Y0118601D01*
X0206854Y0118680D01*
X0206854Y0120165D01*
X0206551Y0120077D01*
X0206194Y0119883D01*
X0205890Y0119617D01*
X0205646Y0119287D01*
X0205462Y0118893D01*
X0205349Y0118437D01*
X0205309Y0117921D01*
X0205309Y0115455D01*
X0205309Y0115458D02*
X0206854Y0115458D01*
X0211344Y0115458D01*
X0211344Y0115455D02*
X0211344Y0116783D01*
X0209535Y0116783D01*
X0209535Y0117791D01*
X0209501Y0118283D01*
X0209400Y0118745D01*
X0209232Y0119160D01*
X0208999Y0119519D01*
X0208698Y0119815D01*
X0208333Y0120041D01*
X0207904Y0120182D01*
X0207411Y0120230D01*
X0207420Y0120234D01*
X0207402Y0120234D01*
X0206956Y0120194D01*
X0206854Y0120165D01*
X0206854Y0118680D01*
X0207035Y0118817D01*
X0207429Y0118888D01*
X0207447Y0118888D01*
X0207803Y0118820D01*
X0208099Y0118614D01*
X0208296Y0118283D01*
X0208360Y0117840D01*
X0208360Y0116787D01*
X0206854Y0116787D01*
X0206854Y0115455D01*
X0211344Y0115455D01*
X0211344Y0115496D02*
X0206854Y0115496D01*
X0205309Y0115496D01*
X0205309Y0115534D02*
X0206854Y0115534D01*
X0211344Y0115534D01*
X0211344Y0115572D02*
X0206854Y0115572D01*
X0205309Y0115572D01*
X0205309Y0115610D02*
X0206854Y0115610D01*
X0211344Y0115610D01*
X0211344Y0115648D02*
X0206854Y0115648D01*
X0205309Y0115648D01*
X0205309Y0115686D02*
X0206854Y0115686D01*
X0211344Y0115686D01*
X0211344Y0115724D02*
X0206854Y0115724D01*
X0205309Y0115724D01*
X0205309Y0115761D02*
X0206854Y0115761D01*
X0211344Y0115761D01*
X0211344Y0115799D02*
X0206854Y0115799D01*
X0205309Y0115799D01*
X0205309Y0115837D02*
X0206854Y0115837D01*
X0211344Y0115837D01*
X0211344Y0115875D02*
X0206854Y0115875D01*
X0205309Y0115875D01*
X0205309Y0115913D02*
X0206854Y0115913D01*
X0211344Y0115913D01*
X0211344Y0115951D02*
X0206854Y0115951D01*
X0205309Y0115951D01*
X0205309Y0115989D02*
X0206854Y0115989D01*
X0211344Y0115989D01*
X0211344Y0116027D02*
X0206854Y0116027D01*
X0205309Y0116027D01*
X0205309Y0116064D02*
X0206854Y0116064D01*
X0211344Y0116064D01*
X0211344Y0116102D02*
X0206854Y0116102D01*
X0205309Y0116102D01*
X0205309Y0116140D02*
X0206854Y0116140D01*
X0211344Y0116140D01*
X0211344Y0116178D02*
X0206854Y0116178D01*
X0205309Y0116178D01*
X0205309Y0116216D02*
X0206854Y0116216D01*
X0211344Y0116216D01*
X0211344Y0116254D02*
X0206854Y0116254D01*
X0205309Y0116254D01*
X0205309Y0116292D02*
X0206854Y0116292D01*
X0211344Y0116292D01*
X0211344Y0116330D02*
X0206854Y0116330D01*
X0205309Y0116330D01*
X0205309Y0116368D02*
X0206854Y0116368D01*
X0211344Y0116368D01*
X0211344Y0116405D02*
X0206854Y0116405D01*
X0205309Y0116405D01*
X0205309Y0116443D02*
X0206854Y0116443D01*
X0211344Y0116443D01*
X0211344Y0116481D02*
X0206854Y0116481D01*
X0205309Y0116481D01*
X0205309Y0116519D02*
X0206854Y0116519D01*
X0211344Y0116519D01*
X0211344Y0116557D02*
X0206854Y0116557D01*
X0205309Y0116557D01*
X0205309Y0116595D02*
X0206854Y0116595D01*
X0211344Y0116595D01*
X0211344Y0116633D02*
X0206854Y0116633D01*
X0205309Y0116633D01*
X0205309Y0116671D02*
X0206854Y0116671D01*
X0211344Y0116671D01*
X0211344Y0116708D02*
X0206854Y0116708D01*
X0205309Y0116708D01*
X0205309Y0116746D02*
X0206854Y0116746D01*
X0211344Y0116746D01*
X0209535Y0116784D02*
X0206854Y0116784D01*
X0205309Y0116784D01*
X0205309Y0116822D02*
X0206515Y0116822D01*
X0206515Y0116860D02*
X0205309Y0116860D01*
X0205309Y0116898D02*
X0206515Y0116898D01*
X0206515Y0116936D02*
X0205309Y0116936D01*
X0205309Y0116974D02*
X0206515Y0116974D01*
X0206515Y0117012D02*
X0205309Y0117012D01*
X0205309Y0117049D02*
X0206515Y0117049D01*
X0206515Y0117087D02*
X0205309Y0117087D01*
X0205309Y0117125D02*
X0206515Y0117125D01*
X0206515Y0117163D02*
X0205309Y0117163D01*
X0205309Y0117201D02*
X0206515Y0117201D01*
X0206515Y0117239D02*
X0205309Y0117239D01*
X0205309Y0117277D02*
X0206515Y0117277D01*
X0206515Y0117315D02*
X0205309Y0117315D01*
X0205309Y0117352D02*
X0206515Y0117352D01*
X0206515Y0117390D02*
X0205309Y0117390D01*
X0205309Y0117428D02*
X0206515Y0117428D01*
X0206515Y0117466D02*
X0205309Y0117466D01*
X0205309Y0117504D02*
X0206515Y0117504D01*
X0206515Y0117542D02*
X0205309Y0117542D01*
X0205309Y0117580D02*
X0206515Y0117580D01*
X0206515Y0117618D02*
X0205309Y0117618D01*
X0205309Y0117655D02*
X0206515Y0117655D01*
X0206515Y0117693D02*
X0205309Y0117693D01*
X0205309Y0117731D02*
X0206515Y0117731D01*
X0206515Y0117769D02*
X0205309Y0117769D01*
X0205309Y0117807D02*
X0206515Y0117807D01*
X0206519Y0117845D02*
X0205309Y0117845D01*
X0205309Y0117883D02*
X0206524Y0117883D01*
X0206529Y0117921D02*
X0205309Y0117921D01*
X0205312Y0117959D02*
X0206534Y0117959D01*
X0206539Y0117996D02*
X0205315Y0117996D01*
X0205318Y0118034D02*
X0206544Y0118034D01*
X0206549Y0118072D02*
X0205321Y0118072D01*
X0205324Y0118110D02*
X0206554Y0118110D01*
X0206559Y0118148D02*
X0205327Y0118148D01*
X0205330Y0118186D02*
X0206564Y0118186D01*
X0206569Y0118224D02*
X0205332Y0118224D01*
X0205335Y0118262D02*
X0206574Y0118262D01*
X0206593Y0118299D02*
X0205338Y0118299D01*
X0205341Y0118337D02*
X0206613Y0118337D01*
X0206633Y0118375D02*
X0205344Y0118375D01*
X0205347Y0118413D02*
X0206652Y0118413D01*
X0206672Y0118451D02*
X0205352Y0118451D01*
X0205362Y0118489D02*
X0206692Y0118489D01*
X0206711Y0118527D02*
X0205371Y0118527D01*
X0205381Y0118565D02*
X0206731Y0118565D01*
X0206752Y0118603D02*
X0205390Y0118603D01*
X0205399Y0118640D02*
X0206802Y0118640D01*
X0206852Y0118678D02*
X0205409Y0118678D01*
X0205418Y0118716D02*
X0206854Y0118716D01*
X0206902Y0118716D01*
X0206854Y0118754D02*
X0205428Y0118754D01*
X0205437Y0118792D02*
X0206854Y0118792D01*
X0207002Y0118792D01*
X0206952Y0118754D02*
X0206854Y0118754D01*
X0206854Y0118830D02*
X0205447Y0118830D01*
X0205456Y0118868D02*
X0206854Y0118868D01*
X0207314Y0118868D01*
X0207106Y0118830D02*
X0206854Y0118830D01*
X0206854Y0118906D02*
X0205468Y0118906D01*
X0205486Y0118943D02*
X0206854Y0118943D01*
X0209319Y0118943D01*
X0209335Y0118906D02*
X0206854Y0118906D01*
X0206854Y0118981D02*
X0205503Y0118981D01*
X0205521Y0119019D02*
X0206854Y0119019D01*
X0209289Y0119019D01*
X0209304Y0118981D02*
X0206854Y0118981D01*
X0206854Y0119057D02*
X0205539Y0119057D01*
X0205556Y0119095D02*
X0206854Y0119095D01*
X0209258Y0119095D01*
X0209243Y0119133D02*
X0206854Y0119133D01*
X0205574Y0119133D01*
X0205592Y0119171D02*
X0206854Y0119171D01*
X0209225Y0119171D01*
X0209200Y0119209D02*
X0206854Y0119209D01*
X0205609Y0119209D01*
X0205627Y0119247D02*
X0206854Y0119247D01*
X0209176Y0119247D01*
X0209151Y0119284D02*
X0206854Y0119284D01*
X0205644Y0119284D01*
X0205672Y0119322D02*
X0206854Y0119322D01*
X0209127Y0119322D01*
X0209102Y0119360D02*
X0206854Y0119360D01*
X0205700Y0119360D01*
X0205728Y0119398D02*
X0206854Y0119398D01*
X0209077Y0119398D01*
X0209053Y0119436D02*
X0206854Y0119436D01*
X0205756Y0119436D01*
X0205784Y0119474D02*
X0206854Y0119474D01*
X0209028Y0119474D01*
X0209004Y0119512D02*
X0206854Y0119512D01*
X0205812Y0119512D01*
X0205840Y0119550D02*
X0206854Y0119550D01*
X0208968Y0119550D01*
X0208929Y0119587D02*
X0206854Y0119587D01*
X0205868Y0119587D01*
X0205899Y0119625D02*
X0206854Y0119625D01*
X0208891Y0119625D01*
X0208852Y0119663D02*
X0206854Y0119663D01*
X0205942Y0119663D01*
X0205986Y0119701D02*
X0206854Y0119701D01*
X0208814Y0119701D01*
X0208776Y0119739D02*
X0206854Y0119739D01*
X0206029Y0119739D01*
X0206073Y0119777D02*
X0206854Y0119777D01*
X0208737Y0119777D01*
X0208699Y0119815D02*
X0206854Y0119815D01*
X0206116Y0119815D01*
X0206160Y0119853D02*
X0206854Y0119853D01*
X0208637Y0119853D01*
X0208576Y0119890D02*
X0206854Y0119890D01*
X0206209Y0119890D01*
X0206278Y0119928D02*
X0206854Y0119928D01*
X0208515Y0119928D01*
X0208454Y0119966D02*
X0206854Y0119966D01*
X0206348Y0119966D01*
X0206418Y0120004D02*
X0206854Y0120004D01*
X0208392Y0120004D01*
X0208329Y0120042D02*
X0206854Y0120042D01*
X0206488Y0120042D01*
X0206563Y0120080D02*
X0206854Y0120080D01*
X0208214Y0120080D01*
X0208099Y0120118D02*
X0206854Y0120118D01*
X0206693Y0120118D01*
X0206823Y0120156D02*
X0206854Y0120156D01*
X0207984Y0120156D01*
X0207784Y0120194D02*
X0206955Y0120194D01*
X0207373Y0120231D02*
X0207415Y0120231D01*
X0206854Y0119057D02*
X0209273Y0119057D01*
X0209350Y0118868D02*
X0207556Y0118868D01*
X0207755Y0118830D02*
X0209365Y0118830D01*
X0209381Y0118792D02*
X0207844Y0118792D01*
X0207899Y0118754D02*
X0209396Y0118754D01*
X0209406Y0118716D02*
X0207953Y0118716D01*
X0208007Y0118678D02*
X0209414Y0118678D01*
X0209423Y0118640D02*
X0208061Y0118640D01*
X0208106Y0118603D02*
X0209431Y0118603D01*
X0209439Y0118565D02*
X0208129Y0118565D01*
X0208151Y0118527D02*
X0209447Y0118527D01*
X0209456Y0118489D02*
X0208173Y0118489D01*
X0208196Y0118451D02*
X0209464Y0118451D01*
X0209472Y0118413D02*
X0208218Y0118413D01*
X0208241Y0118375D02*
X0209481Y0118375D01*
X0209489Y0118337D02*
X0208263Y0118337D01*
X0208286Y0118299D02*
X0209497Y0118299D01*
X0209502Y0118262D02*
X0208299Y0118262D01*
X0208304Y0118224D02*
X0209505Y0118224D01*
X0209508Y0118186D02*
X0208310Y0118186D01*
X0208315Y0118148D02*
X0209510Y0118148D01*
X0209513Y0118110D02*
X0208321Y0118110D01*
X0208326Y0118072D02*
X0209515Y0118072D01*
X0209518Y0118034D02*
X0208332Y0118034D01*
X0208338Y0117996D02*
X0209521Y0117996D01*
X0209523Y0117959D02*
X0208343Y0117959D01*
X0208349Y0117921D02*
X0209526Y0117921D01*
X0209528Y0117883D02*
X0208354Y0117883D01*
X0208360Y0117845D02*
X0209531Y0117845D01*
X0209534Y0117807D02*
X0208360Y0117807D01*
X0208360Y0117769D02*
X0209535Y0117769D01*
X0209535Y0117731D02*
X0208360Y0117731D01*
X0208360Y0117693D02*
X0209535Y0117693D01*
X0209535Y0117655D02*
X0208360Y0117655D01*
X0208360Y0117618D02*
X0209535Y0117618D01*
X0209535Y0117580D02*
X0208360Y0117580D01*
X0208360Y0117542D02*
X0209535Y0117542D01*
X0209535Y0117504D02*
X0208360Y0117504D01*
X0208360Y0117466D02*
X0209535Y0117466D01*
X0209535Y0117428D02*
X0208360Y0117428D01*
X0208360Y0117390D02*
X0209535Y0117390D01*
X0209535Y0117352D02*
X0208360Y0117352D01*
X0208360Y0117315D02*
X0209535Y0117315D01*
X0209535Y0117277D02*
X0208360Y0117277D01*
X0208360Y0117239D02*
X0209535Y0117239D01*
X0209535Y0117201D02*
X0208360Y0117201D01*
X0208360Y0117163D02*
X0209535Y0117163D01*
X0209535Y0117125D02*
X0208360Y0117125D01*
X0208360Y0117087D02*
X0209535Y0117087D01*
X0209535Y0117049D02*
X0208360Y0117049D01*
X0208360Y0117012D02*
X0209535Y0117012D01*
X0209535Y0116974D02*
X0208360Y0116974D01*
X0208360Y0116936D02*
X0209535Y0116936D01*
X0209535Y0116898D02*
X0208360Y0116898D01*
X0208360Y0116860D02*
X0209535Y0116860D01*
X0209535Y0116822D02*
X0208360Y0116822D01*
X0209095Y0114246D02*
X0210057Y0114246D01*
X0210173Y0114208D02*
X0208971Y0114208D01*
X0208858Y0114170D02*
X0210290Y0114170D01*
X0210395Y0114133D02*
X0208793Y0114133D01*
X0208729Y0114095D02*
X0210457Y0114095D01*
X0210519Y0114057D02*
X0208664Y0114057D01*
X0208601Y0114019D02*
X0210581Y0114019D01*
X0210643Y0113981D02*
X0208561Y0113981D01*
X0208521Y0113943D02*
X0210703Y0113943D01*
X0210742Y0113905D02*
X0208481Y0113905D01*
X0208441Y0113867D02*
X0210781Y0113867D01*
X0210820Y0113829D02*
X0208401Y0113829D01*
X0208367Y0113792D02*
X0210858Y0113792D01*
X0210897Y0113754D02*
X0208344Y0113754D01*
X0208321Y0113716D02*
X0210936Y0113716D01*
X0210971Y0113678D02*
X0208299Y0113678D01*
X0208276Y0113640D02*
X0210996Y0113640D01*
X0211020Y0113602D02*
X0208254Y0113602D01*
X0208231Y0113564D02*
X0211044Y0113564D01*
X0211069Y0113526D02*
X0208208Y0113526D01*
X0208186Y0113489D02*
X0211093Y0113489D01*
X0211117Y0113451D02*
X0208163Y0113451D01*
X0208141Y0113413D02*
X0211142Y0113413D01*
X0211166Y0113375D02*
X0208118Y0113375D01*
X0208095Y0113337D02*
X0211184Y0113337D01*
X0211199Y0113299D02*
X0208073Y0113299D01*
X0208050Y0113261D02*
X0211215Y0113261D01*
X0211230Y0113223D02*
X0208027Y0113223D01*
X0208009Y0113185D02*
X0211246Y0113185D01*
X0211261Y0113148D02*
X0207996Y0113148D01*
X0207984Y0113110D02*
X0211277Y0113110D01*
X0211292Y0113072D02*
X0207971Y0113072D01*
X0207959Y0113034D02*
X0211308Y0113034D01*
X0211323Y0112996D02*
X0207946Y0112996D01*
X0207934Y0112958D02*
X0209524Y0112958D01*
X0209434Y0112920D02*
X0207921Y0112920D01*
X0207909Y0112882D02*
X0209395Y0112882D01*
X0209356Y0112845D02*
X0207896Y0112845D01*
X0207884Y0112807D02*
X0209318Y0112807D01*
X0209279Y0112769D02*
X0207872Y0112769D01*
X0207859Y0112731D02*
X0209259Y0112731D01*
X0209241Y0112693D02*
X0207847Y0112693D01*
X0207834Y0112655D02*
X0209224Y0112655D01*
X0209207Y0112617D02*
X0207822Y0112617D01*
X0207809Y0112579D02*
X0209189Y0112579D01*
X0209172Y0112541D02*
X0207797Y0112541D01*
X0207784Y0112504D02*
X0209155Y0112504D01*
X0209137Y0112466D02*
X0207772Y0112466D01*
X0207759Y0112428D02*
X0209120Y0112428D01*
X0209103Y0112390D02*
X0207747Y0112390D01*
X0207736Y0112352D02*
X0209092Y0112352D01*
X0209081Y0112314D02*
X0207725Y0112314D01*
X0207714Y0112276D02*
X0209069Y0112276D01*
X0209058Y0112238D02*
X0207704Y0112238D01*
X0207693Y0112201D02*
X0209047Y0112201D01*
X0209036Y0112163D02*
X0207683Y0112163D01*
X0207672Y0112125D02*
X0209025Y0112125D01*
X0209014Y0112087D02*
X0207661Y0112087D01*
X0207651Y0112049D02*
X0209003Y0112049D01*
X0208992Y0112011D02*
X0207640Y0112011D01*
X0207630Y0111973D02*
X0208981Y0111973D01*
X0208970Y0111935D02*
X0207619Y0111935D01*
X0207608Y0111898D02*
X0208959Y0111898D01*
X0208948Y0111860D02*
X0207598Y0111860D01*
X0207587Y0111822D02*
X0208937Y0111822D01*
X0208926Y0111784D02*
X0207577Y0111784D01*
X0207566Y0111746D02*
X0208914Y0111746D01*
X0208903Y0111708D02*
X0207552Y0111708D01*
X0207536Y0111670D02*
X0208891Y0111670D01*
X0208880Y0111632D02*
X0207521Y0111632D01*
X0207506Y0111594D02*
X0208868Y0111594D01*
X0208857Y0111557D02*
X0207490Y0111557D01*
X0207475Y0111519D02*
X0208846Y0111519D01*
X0208834Y0111481D02*
X0207460Y0111481D01*
X0207444Y0111443D02*
X0208823Y0111443D01*
X0208811Y0111405D02*
X0207429Y0111405D01*
X0207414Y0111367D02*
X0208800Y0111367D01*
X0208788Y0111329D02*
X0207394Y0111329D01*
X0207358Y0111291D02*
X0208777Y0111291D01*
X0208765Y0111254D02*
X0207322Y0111254D01*
X0207285Y0111216D02*
X0208754Y0111216D01*
X0208742Y0111178D02*
X0207249Y0111178D01*
X0207213Y0111140D02*
X0208731Y0111140D01*
X0208719Y0111102D02*
X0207052Y0111102D01*
X0206854Y0109890D02*
X0206400Y0109890D01*
X0206958Y0109776D02*
X0207176Y0109776D01*
X0209555Y0110306D02*
X0211008Y0110306D01*
X0210990Y0110269D02*
X0209601Y0110269D01*
X0209646Y0110231D02*
X0210972Y0110231D01*
X0210954Y0110193D02*
X0209692Y0110193D01*
X0209737Y0110155D02*
X0210936Y0110155D01*
X0210918Y0110117D02*
X0209783Y0110117D01*
X0209828Y0110079D02*
X0210893Y0110079D01*
X0210865Y0110041D02*
X0209874Y0110041D01*
X0209919Y0110003D02*
X0210836Y0110003D01*
X0210808Y0109966D02*
X0209965Y0109966D01*
X0210010Y0109928D02*
X0210780Y0109928D01*
X0210751Y0109890D02*
X0210056Y0109890D01*
X0210101Y0109852D02*
X0210723Y0109852D01*
X0210695Y0109814D02*
X0210147Y0109814D01*
X0210192Y0109776D02*
X0210666Y0109776D01*
X0210638Y0109738D02*
X0210238Y0109738D01*
X0210283Y0109700D02*
X0210610Y0109700D01*
X0210581Y0109663D02*
X0210329Y0109663D01*
X0210374Y0109625D02*
X0210553Y0109625D01*
X0210525Y0109587D02*
X0210420Y0109587D01*
X0210465Y0109549D02*
X0210496Y0109549D01*
X0211026Y0110344D02*
X0209564Y0110344D01*
X0209592Y0110382D02*
X0211044Y0110382D01*
X0211062Y0110420D02*
X0209619Y0110420D01*
X0209646Y0110458D02*
X0211080Y0110458D01*
X0211098Y0110496D02*
X0209674Y0110496D01*
X0209701Y0110534D02*
X0211116Y0110534D01*
X0211134Y0110572D02*
X0209728Y0110572D01*
X0209756Y0110610D02*
X0211152Y0110610D01*
X0211170Y0110647D02*
X0209783Y0110647D01*
X0209810Y0110685D02*
X0211188Y0110685D01*
X0211206Y0110723D02*
X0209838Y0110723D01*
X0209860Y0110761D02*
X0211219Y0110761D01*
X0211229Y0110799D02*
X0209881Y0110799D01*
X0209901Y0110837D02*
X0211239Y0110837D01*
X0211249Y0110875D02*
X0209922Y0110875D01*
X0209942Y0110913D02*
X0211260Y0110913D01*
X0211270Y0110950D02*
X0209963Y0110950D01*
X0209983Y0110988D02*
X0211280Y0110988D01*
X0211290Y0111026D02*
X0210004Y0111026D01*
X0210024Y0111064D02*
X0211300Y0111064D01*
X0211310Y0111102D02*
X0210045Y0111102D01*
X0210065Y0111140D02*
X0211320Y0111140D01*
X0211330Y0111178D02*
X0210083Y0111178D01*
X0210095Y0111216D02*
X0211340Y0111216D01*
X0211350Y0111254D02*
X0210108Y0111254D01*
X0210120Y0111291D02*
X0211360Y0111291D01*
X0211370Y0111329D02*
X0210132Y0111329D01*
X0210144Y0111367D02*
X0211381Y0111367D01*
X0211391Y0111405D02*
X0210157Y0111405D01*
X0210169Y0111443D02*
X0211395Y0111443D01*
X0211398Y0111481D02*
X0210181Y0111481D01*
X0210194Y0111519D02*
X0211401Y0111519D01*
X0211405Y0111557D02*
X0210206Y0111557D01*
X0210218Y0111594D02*
X0211408Y0111594D01*
X0211411Y0111632D02*
X0210228Y0111632D01*
X0210232Y0111670D02*
X0211415Y0111670D01*
X0211418Y0111708D02*
X0210236Y0111708D01*
X0210240Y0111746D02*
X0211421Y0111746D01*
X0211425Y0111784D02*
X0210244Y0111784D01*
X0210247Y0111822D02*
X0211428Y0111822D01*
X0211431Y0111860D02*
X0210251Y0111860D01*
X0210255Y0111898D02*
X0211435Y0111898D01*
X0211438Y0111935D02*
X0210259Y0111935D01*
X0210263Y0111973D02*
X0211441Y0111973D01*
X0211445Y0112011D02*
X0210266Y0112011D01*
X0210270Y0112049D02*
X0211448Y0112049D01*
X0211451Y0112087D02*
X0210274Y0112087D01*
X0210277Y0112125D02*
X0211450Y0112125D01*
X0211447Y0112163D02*
X0210273Y0112163D01*
X0210269Y0112201D02*
X0211445Y0112201D01*
X0211442Y0112238D02*
X0210265Y0112238D01*
X0210261Y0112276D02*
X0211440Y0112276D01*
X0211437Y0112314D02*
X0210257Y0112314D01*
X0210253Y0112352D02*
X0211435Y0112352D01*
X0211432Y0112390D02*
X0210248Y0112390D01*
X0210244Y0112428D02*
X0211430Y0112428D01*
X0211427Y0112466D02*
X0210240Y0112466D01*
X0210232Y0112504D02*
X0211425Y0112504D01*
X0211422Y0112541D02*
X0210216Y0112541D01*
X0210201Y0112579D02*
X0211417Y0112579D01*
X0211409Y0112617D02*
X0210185Y0112617D01*
X0210169Y0112655D02*
X0211400Y0112655D01*
X0211392Y0112693D02*
X0210154Y0112693D01*
X0210138Y0112731D02*
X0211383Y0112731D01*
X0211375Y0112769D02*
X0210119Y0112769D01*
X0210080Y0112807D02*
X0211366Y0112807D01*
X0211358Y0112845D02*
X0210040Y0112845D01*
X0210001Y0112882D02*
X0211350Y0112882D01*
X0211341Y0112920D02*
X0209962Y0112920D01*
X0209853Y0112958D02*
X0211333Y0112958D01*
X0209782Y0114284D02*
X0209323Y0114284D01*
X0211353Y0120698D02*
X0211353Y0122052D01*
X0206871Y0123879D01*
X0211353Y0125706D01*
X0211353Y0127097D01*
X0206854Y0125181D01*
X0206854Y0122612D01*
X0205273Y0123285D01*
X0205273Y0124509D01*
X0206854Y0125181D01*
X0206854Y0122612D01*
X0211353Y0120698D01*
X0211353Y0120724D02*
X0211291Y0120724D01*
X0211353Y0120762D02*
X0211202Y0120762D01*
X0211113Y0120800D02*
X0211353Y0120800D01*
X0211353Y0120838D02*
X0211024Y0120838D01*
X0210935Y0120875D02*
X0211353Y0120875D01*
X0211353Y0120913D02*
X0210846Y0120913D01*
X0210757Y0120951D02*
X0211353Y0120951D01*
X0211353Y0120989D02*
X0210668Y0120989D01*
X0210579Y0121027D02*
X0211353Y0121027D01*
X0211353Y0121065D02*
X0210490Y0121065D01*
X0210401Y0121103D02*
X0211353Y0121103D01*
X0211353Y0121141D02*
X0210312Y0121141D01*
X0210223Y0121178D02*
X0211353Y0121178D01*
X0211353Y0121216D02*
X0210134Y0121216D01*
X0210045Y0121254D02*
X0211353Y0121254D01*
X0211353Y0121292D02*
X0209956Y0121292D01*
X0209867Y0121330D02*
X0211353Y0121330D01*
X0211353Y0121368D02*
X0209777Y0121368D01*
X0209688Y0121406D02*
X0211353Y0121406D01*
X0211353Y0121444D02*
X0209599Y0121444D01*
X0209510Y0121482D02*
X0211353Y0121482D01*
X0211353Y0121519D02*
X0209421Y0121519D01*
X0209332Y0121557D02*
X0211353Y0121557D01*
X0211353Y0121595D02*
X0209243Y0121595D01*
X0209154Y0121633D02*
X0211353Y0121633D01*
X0211353Y0121671D02*
X0209065Y0121671D01*
X0208976Y0121709D02*
X0211353Y0121709D01*
X0211353Y0121747D02*
X0208887Y0121747D01*
X0208798Y0121785D02*
X0211353Y0121785D01*
X0211353Y0121822D02*
X0208709Y0121822D01*
X0208620Y0121860D02*
X0211353Y0121860D01*
X0211353Y0121898D02*
X0208531Y0121898D01*
X0208442Y0121936D02*
X0211353Y0121936D01*
X0211353Y0121974D02*
X0208353Y0121974D01*
X0208264Y0122012D02*
X0211353Y0122012D01*
X0211353Y0122050D02*
X0208175Y0122050D01*
X0208086Y0122088D02*
X0211265Y0122088D01*
X0211173Y0122125D02*
X0207997Y0122125D01*
X0207908Y0122163D02*
X0211080Y0122163D01*
X0210987Y0122201D02*
X0207819Y0122201D01*
X0207730Y0122239D02*
X0210894Y0122239D01*
X0210801Y0122277D02*
X0207641Y0122277D01*
X0207552Y0122315D02*
X0210708Y0122315D01*
X0210615Y0122353D02*
X0207463Y0122353D01*
X0207374Y0122391D02*
X0210522Y0122391D01*
X0210429Y0122429D02*
X0207285Y0122429D01*
X0207196Y0122466D02*
X0210336Y0122466D01*
X0210243Y0122504D02*
X0207107Y0122504D01*
X0207018Y0122542D02*
X0210150Y0122542D01*
X0210057Y0122580D02*
X0206929Y0122580D01*
X0206854Y0122618D02*
X0206840Y0122618D01*
X0206854Y0122618D02*
X0209964Y0122618D01*
X0209872Y0122656D02*
X0206854Y0122656D01*
X0206751Y0122656D01*
X0206662Y0122694D02*
X0206854Y0122694D01*
X0209779Y0122694D01*
X0209686Y0122732D02*
X0206854Y0122732D01*
X0206573Y0122732D01*
X0206484Y0122769D02*
X0206854Y0122769D01*
X0209593Y0122769D01*
X0209500Y0122807D02*
X0206854Y0122807D01*
X0206395Y0122807D01*
X0206306Y0122845D02*
X0206854Y0122845D01*
X0209407Y0122845D01*
X0209314Y0122883D02*
X0206854Y0122883D01*
X0206217Y0122883D01*
X0206128Y0122921D02*
X0206854Y0122921D01*
X0209221Y0122921D01*
X0209128Y0122959D02*
X0206854Y0122959D01*
X0206039Y0122959D01*
X0205950Y0122997D02*
X0206854Y0122997D01*
X0209035Y0122997D01*
X0208942Y0123035D02*
X0206854Y0123035D01*
X0205861Y0123035D01*
X0205772Y0123073D02*
X0206854Y0123073D01*
X0208849Y0123073D01*
X0208756Y0123110D02*
X0206854Y0123110D01*
X0205683Y0123110D01*
X0205594Y0123148D02*
X0206854Y0123148D01*
X0208663Y0123148D01*
X0208570Y0123186D02*
X0206854Y0123186D01*
X0205505Y0123186D01*
X0205416Y0123224D02*
X0206854Y0123224D01*
X0208478Y0123224D01*
X0208385Y0123262D02*
X0206854Y0123262D01*
X0205327Y0123262D01*
X0205273Y0123300D02*
X0206854Y0123300D01*
X0208292Y0123300D01*
X0208199Y0123338D02*
X0206854Y0123338D01*
X0205273Y0123338D01*
X0205273Y0123376D02*
X0206854Y0123376D01*
X0208106Y0123376D01*
X0208013Y0123413D02*
X0206854Y0123413D01*
X0205273Y0123413D01*
X0205273Y0123451D02*
X0206854Y0123451D01*
X0207920Y0123451D01*
X0207827Y0123489D02*
X0206854Y0123489D01*
X0205273Y0123489D01*
X0205273Y0123527D02*
X0206854Y0123527D01*
X0207734Y0123527D01*
X0207641Y0123565D02*
X0206854Y0123565D01*
X0205273Y0123565D01*
X0205273Y0123603D02*
X0206854Y0123603D01*
X0207548Y0123603D01*
X0207455Y0123641D02*
X0206854Y0123641D01*
X0205273Y0123641D01*
X0205273Y0123679D02*
X0206854Y0123679D01*
X0207362Y0123679D01*
X0207269Y0123717D02*
X0206854Y0123717D01*
X0205273Y0123717D01*
X0205273Y0123754D02*
X0206854Y0123754D01*
X0207177Y0123754D01*
X0207084Y0123792D02*
X0206854Y0123792D01*
X0205273Y0123792D01*
X0205273Y0123830D02*
X0206854Y0123830D01*
X0206991Y0123830D01*
X0206937Y0123906D02*
X0206854Y0123906D01*
X0205273Y0123906D01*
X0205273Y0123944D02*
X0206854Y0123944D01*
X0207030Y0123944D01*
X0207123Y0123982D02*
X0206854Y0123982D01*
X0205273Y0123982D01*
X0205273Y0124020D02*
X0206854Y0124020D01*
X0207216Y0124020D01*
X0207309Y0124057D02*
X0206854Y0124057D01*
X0205273Y0124057D01*
X0205273Y0124095D02*
X0206854Y0124095D01*
X0207402Y0124095D01*
X0207494Y0124133D02*
X0206854Y0124133D01*
X0205273Y0124133D01*
X0205273Y0124171D02*
X0206854Y0124171D01*
X0207587Y0124171D01*
X0207680Y0124209D02*
X0206854Y0124209D01*
X0205273Y0124209D01*
X0205273Y0124247D02*
X0206854Y0124247D01*
X0207773Y0124247D01*
X0207866Y0124285D02*
X0206854Y0124285D01*
X0205273Y0124285D01*
X0205273Y0124323D02*
X0206854Y0124323D01*
X0207959Y0124323D01*
X0208052Y0124360D02*
X0206854Y0124360D01*
X0205273Y0124360D01*
X0205273Y0124398D02*
X0206854Y0124398D01*
X0208145Y0124398D01*
X0208238Y0124436D02*
X0206854Y0124436D01*
X0205273Y0124436D01*
X0205273Y0124474D02*
X0206854Y0124474D01*
X0208331Y0124474D01*
X0208424Y0124512D02*
X0206854Y0124512D01*
X0205280Y0124512D01*
X0205369Y0124550D02*
X0206854Y0124550D01*
X0208517Y0124550D01*
X0208610Y0124588D02*
X0206854Y0124588D01*
X0205458Y0124588D01*
X0205548Y0124626D02*
X0206854Y0124626D01*
X0208703Y0124626D01*
X0208795Y0124664D02*
X0206854Y0124664D01*
X0205637Y0124664D01*
X0205726Y0124701D02*
X0206854Y0124701D01*
X0208888Y0124701D01*
X0208981Y0124739D02*
X0206854Y0124739D01*
X0205815Y0124739D01*
X0205904Y0124777D02*
X0206854Y0124777D01*
X0209074Y0124777D01*
X0209167Y0124815D02*
X0206854Y0124815D01*
X0205993Y0124815D01*
X0206082Y0124853D02*
X0206854Y0124853D01*
X0209260Y0124853D01*
X0209353Y0124891D02*
X0206854Y0124891D01*
X0206171Y0124891D01*
X0206260Y0124929D02*
X0206854Y0124929D01*
X0209446Y0124929D01*
X0209539Y0124967D02*
X0206854Y0124967D01*
X0206349Y0124967D01*
X0206438Y0125004D02*
X0206854Y0125004D01*
X0209632Y0125004D01*
X0209725Y0125042D02*
X0206854Y0125042D01*
X0206527Y0125042D01*
X0206616Y0125080D02*
X0206854Y0125080D01*
X0209818Y0125080D01*
X0209911Y0125118D02*
X0206854Y0125118D01*
X0206705Y0125118D01*
X0206794Y0125156D02*
X0206854Y0125156D01*
X0210004Y0125156D01*
X0210096Y0125194D02*
X0206883Y0125194D01*
X0206972Y0125232D02*
X0210189Y0125232D01*
X0210282Y0125270D02*
X0207061Y0125270D01*
X0207150Y0125308D02*
X0210375Y0125308D01*
X0210468Y0125345D02*
X0207239Y0125345D01*
X0207328Y0125383D02*
X0210561Y0125383D01*
X0210654Y0125421D02*
X0207417Y0125421D01*
X0207506Y0125459D02*
X0210747Y0125459D01*
X0210840Y0125497D02*
X0207595Y0125497D01*
X0207684Y0125535D02*
X0210933Y0125535D01*
X0211026Y0125573D02*
X0207773Y0125573D01*
X0207862Y0125611D02*
X0211119Y0125611D01*
X0211212Y0125648D02*
X0207951Y0125648D01*
X0208040Y0125686D02*
X0211305Y0125686D01*
X0211353Y0125724D02*
X0208129Y0125724D01*
X0208218Y0125762D02*
X0211353Y0125762D01*
X0211353Y0125800D02*
X0208307Y0125800D01*
X0208396Y0125838D02*
X0211353Y0125838D01*
X0211353Y0125876D02*
X0208485Y0125876D01*
X0208574Y0125914D02*
X0211353Y0125914D01*
X0211353Y0125952D02*
X0208663Y0125952D01*
X0208752Y0125989D02*
X0211353Y0125989D01*
X0211353Y0126027D02*
X0208841Y0126027D01*
X0208930Y0126065D02*
X0211353Y0126065D01*
X0211353Y0126103D02*
X0209019Y0126103D01*
X0209108Y0126141D02*
X0211353Y0126141D01*
X0211353Y0126179D02*
X0209197Y0126179D01*
X0209286Y0126217D02*
X0211353Y0126217D01*
X0211353Y0126255D02*
X0209375Y0126255D01*
X0209464Y0126292D02*
X0211353Y0126292D01*
X0211353Y0126330D02*
X0209553Y0126330D01*
X0209642Y0126368D02*
X0211353Y0126368D01*
X0211353Y0126406D02*
X0209731Y0126406D01*
X0209820Y0126444D02*
X0211353Y0126444D01*
X0211353Y0126482D02*
X0209909Y0126482D01*
X0209998Y0126520D02*
X0211353Y0126520D01*
X0211353Y0126558D02*
X0210087Y0126558D01*
X0210176Y0126595D02*
X0211353Y0126595D01*
X0211353Y0126633D02*
X0210265Y0126633D01*
X0210354Y0126671D02*
X0211353Y0126671D01*
X0211353Y0126709D02*
X0210443Y0126709D01*
X0210532Y0126747D02*
X0211353Y0126747D01*
X0211353Y0126785D02*
X0210621Y0126785D01*
X0210710Y0126823D02*
X0211353Y0126823D01*
X0211353Y0126861D02*
X0210799Y0126861D01*
X0210888Y0126899D02*
X0211353Y0126899D01*
X0211353Y0126936D02*
X0210977Y0126936D01*
X0211066Y0126974D02*
X0211353Y0126974D01*
X0211353Y0127012D02*
X0211155Y0127012D01*
X0211244Y0127050D02*
X0211353Y0127050D01*
X0211353Y0127088D02*
X0211333Y0127088D01*
X0211353Y0128028D02*
X0206854Y0128028D01*
X0206854Y0129355D01*
X0206515Y0129355D01*
X0206515Y0130674D01*
X0206569Y0131113D01*
X0206731Y0131444D01*
X0206854Y0131537D01*
X0206854Y0133022D01*
X0206475Y0132915D01*
X0206134Y0132727D01*
X0205845Y0132465D01*
X0205614Y0132135D01*
X0205450Y0131745D01*
X0205351Y0131296D01*
X0205318Y0130787D01*
X0205318Y0128028D01*
X0206854Y0128028D01*
X0206854Y0129355D01*
X0208248Y0129355D01*
X0208248Y0130701D01*
X0208188Y0131137D01*
X0208014Y0131457D01*
X0207740Y0131653D01*
X0207393Y0131718D01*
X0207379Y0131718D01*
X0207001Y0131650D01*
X0206854Y0131537D01*
X0206854Y0133022D01*
X0206868Y0133027D01*
X0207312Y0133063D01*
X0207330Y0133063D01*
X0207994Y0132973D01*
X0208522Y0132703D01*
X0208920Y0132291D01*
X0209197Y0131767D01*
X0211353Y0133244D01*
X0211353Y0131691D01*
X0209422Y0130399D01*
X0209422Y0129355D01*
X0211353Y0129355D01*
X0211353Y0128028D01*
X0211353Y0128035D02*
X0206854Y0128035D01*
X0205318Y0128035D01*
X0205318Y0128073D02*
X0206854Y0128073D01*
X0211353Y0128073D01*
X0211353Y0128111D02*
X0206854Y0128111D01*
X0205318Y0128111D01*
X0205318Y0128149D02*
X0206854Y0128149D01*
X0211353Y0128149D01*
X0211353Y0128187D02*
X0206854Y0128187D01*
X0205318Y0128187D01*
X0205318Y0128224D02*
X0206854Y0128224D01*
X0211353Y0128224D01*
X0211353Y0128262D02*
X0206854Y0128262D01*
X0205318Y0128262D01*
X0205318Y0128300D02*
X0206854Y0128300D01*
X0211353Y0128300D01*
X0211353Y0128338D02*
X0206854Y0128338D01*
X0205318Y0128338D01*
X0205318Y0128376D02*
X0206854Y0128376D01*
X0211353Y0128376D01*
X0211353Y0128414D02*
X0206854Y0128414D01*
X0205318Y0128414D01*
X0205318Y0128452D02*
X0206854Y0128452D01*
X0211353Y0128452D01*
X0211353Y0128490D02*
X0206854Y0128490D01*
X0205318Y0128490D01*
X0205318Y0128527D02*
X0206854Y0128527D01*
X0211353Y0128527D01*
X0211353Y0128565D02*
X0206854Y0128565D01*
X0205318Y0128565D01*
X0205318Y0128603D02*
X0206854Y0128603D01*
X0211353Y0128603D01*
X0211353Y0128641D02*
X0206854Y0128641D01*
X0205318Y0128641D01*
X0205318Y0128679D02*
X0206854Y0128679D01*
X0211353Y0128679D01*
X0211353Y0128717D02*
X0206854Y0128717D01*
X0205318Y0128717D01*
X0205318Y0128755D02*
X0206854Y0128755D01*
X0211353Y0128755D01*
X0211353Y0128793D02*
X0206854Y0128793D01*
X0205318Y0128793D01*
X0205318Y0128830D02*
X0206854Y0128830D01*
X0211353Y0128830D01*
X0211353Y0128868D02*
X0206854Y0128868D01*
X0205318Y0128868D01*
X0205318Y0128906D02*
X0206854Y0128906D01*
X0211353Y0128906D01*
X0211353Y0128944D02*
X0206854Y0128944D01*
X0205318Y0128944D01*
X0205318Y0128982D02*
X0206854Y0128982D01*
X0211353Y0128982D01*
X0211353Y0129020D02*
X0206854Y0129020D01*
X0205318Y0129020D01*
X0205318Y0129058D02*
X0206854Y0129058D01*
X0211353Y0129058D01*
X0211353Y0129096D02*
X0206854Y0129096D01*
X0205318Y0129096D01*
X0205318Y0129134D02*
X0206854Y0129134D01*
X0211353Y0129134D01*
X0211353Y0129171D02*
X0206854Y0129171D01*
X0205318Y0129171D01*
X0205318Y0129209D02*
X0206854Y0129209D01*
X0211353Y0129209D01*
X0211353Y0129247D02*
X0206854Y0129247D01*
X0205318Y0129247D01*
X0205318Y0129285D02*
X0206854Y0129285D01*
X0211353Y0129285D01*
X0211353Y0129323D02*
X0206854Y0129323D01*
X0205318Y0129323D01*
X0205318Y0129361D02*
X0206515Y0129361D01*
X0206515Y0129399D02*
X0205318Y0129399D01*
X0205318Y0129437D02*
X0206515Y0129437D01*
X0206515Y0129474D02*
X0205318Y0129474D01*
X0205318Y0129512D02*
X0206515Y0129512D01*
X0206515Y0129550D02*
X0205318Y0129550D01*
X0205318Y0129588D02*
X0206515Y0129588D01*
X0206515Y0129626D02*
X0205318Y0129626D01*
X0205318Y0129664D02*
X0206515Y0129664D01*
X0206515Y0129702D02*
X0205318Y0129702D01*
X0205318Y0129740D02*
X0206515Y0129740D01*
X0206515Y0129778D02*
X0205318Y0129778D01*
X0205318Y0129815D02*
X0206515Y0129815D01*
X0206515Y0129853D02*
X0205318Y0129853D01*
X0205318Y0129891D02*
X0206515Y0129891D01*
X0206515Y0129929D02*
X0205318Y0129929D01*
X0205318Y0129967D02*
X0206515Y0129967D01*
X0206515Y0130005D02*
X0205318Y0130005D01*
X0205318Y0130043D02*
X0206515Y0130043D01*
X0206515Y0130081D02*
X0205318Y0130081D01*
X0205318Y0130118D02*
X0206515Y0130118D01*
X0206515Y0130156D02*
X0205318Y0130156D01*
X0205318Y0130194D02*
X0206515Y0130194D01*
X0206515Y0130232D02*
X0205318Y0130232D01*
X0205318Y0130270D02*
X0206515Y0130270D01*
X0206515Y0130308D02*
X0205318Y0130308D01*
X0205318Y0130346D02*
X0206515Y0130346D01*
X0206515Y0130384D02*
X0205318Y0130384D01*
X0205318Y0130422D02*
X0206515Y0130422D01*
X0206515Y0130459D02*
X0205318Y0130459D01*
X0205318Y0130497D02*
X0206515Y0130497D01*
X0206515Y0130535D02*
X0205318Y0130535D01*
X0205318Y0130573D02*
X0206515Y0130573D01*
X0206515Y0130611D02*
X0205318Y0130611D01*
X0205318Y0130649D02*
X0206515Y0130649D01*
X0206517Y0130687D02*
X0205318Y0130687D01*
X0205318Y0130725D02*
X0206522Y0130725D01*
X0206526Y0130762D02*
X0205318Y0130762D01*
X0205319Y0130800D02*
X0206531Y0130800D01*
X0206536Y0130838D02*
X0205322Y0130838D01*
X0205324Y0130876D02*
X0206540Y0130876D01*
X0206545Y0130914D02*
X0205327Y0130914D01*
X0205329Y0130952D02*
X0206549Y0130952D01*
X0206554Y0130990D02*
X0205331Y0130990D01*
X0205334Y0131028D02*
X0206559Y0131028D01*
X0206563Y0131066D02*
X0205336Y0131066D01*
X0205339Y0131103D02*
X0206568Y0131103D01*
X0206583Y0131141D02*
X0205341Y0131141D01*
X0205344Y0131179D02*
X0206602Y0131179D01*
X0206620Y0131217D02*
X0205346Y0131217D01*
X0205349Y0131255D02*
X0206639Y0131255D01*
X0206657Y0131293D02*
X0205351Y0131293D01*
X0205359Y0131331D02*
X0206676Y0131331D01*
X0206695Y0131369D02*
X0205367Y0131369D01*
X0205376Y0131406D02*
X0206713Y0131406D01*
X0206732Y0131444D02*
X0205384Y0131444D01*
X0205392Y0131482D02*
X0206782Y0131482D01*
X0206832Y0131520D02*
X0205400Y0131520D01*
X0205409Y0131558D02*
X0206854Y0131558D01*
X0206881Y0131558D01*
X0206854Y0131596D02*
X0205417Y0131596D01*
X0205425Y0131634D02*
X0206854Y0131634D01*
X0206980Y0131634D01*
X0206931Y0131596D02*
X0206854Y0131596D01*
X0206854Y0131672D02*
X0205434Y0131672D01*
X0205442Y0131709D02*
X0206854Y0131709D01*
X0207332Y0131709D01*
X0207439Y0131709D02*
X0211353Y0131709D01*
X0211353Y0131747D02*
X0206854Y0131747D01*
X0205451Y0131747D01*
X0205467Y0131785D02*
X0206854Y0131785D01*
X0209188Y0131785D01*
X0209223Y0131785D02*
X0211353Y0131785D01*
X0211353Y0131823D02*
X0209279Y0131823D01*
X0209334Y0131861D02*
X0211353Y0131861D01*
X0211353Y0131899D02*
X0209389Y0131899D01*
X0209445Y0131937D02*
X0211353Y0131937D01*
X0211353Y0131975D02*
X0209500Y0131975D01*
X0209555Y0132013D02*
X0211353Y0132013D01*
X0211353Y0132050D02*
X0209611Y0132050D01*
X0209666Y0132088D02*
X0211353Y0132088D01*
X0211353Y0132126D02*
X0209721Y0132126D01*
X0209776Y0132164D02*
X0211353Y0132164D01*
X0211353Y0132202D02*
X0209832Y0132202D01*
X0209887Y0132240D02*
X0211353Y0132240D01*
X0211353Y0132278D02*
X0209942Y0132278D01*
X0209998Y0132316D02*
X0211353Y0132316D01*
X0211353Y0132353D02*
X0210053Y0132353D01*
X0210108Y0132391D02*
X0211353Y0132391D01*
X0211353Y0132429D02*
X0210164Y0132429D01*
X0210219Y0132467D02*
X0211353Y0132467D01*
X0211353Y0132505D02*
X0210274Y0132505D01*
X0210330Y0132543D02*
X0211353Y0132543D01*
X0211353Y0132581D02*
X0210385Y0132581D01*
X0210440Y0132619D02*
X0211353Y0132619D01*
X0211353Y0132657D02*
X0210496Y0132657D01*
X0210551Y0132694D02*
X0211353Y0132694D01*
X0211353Y0132732D02*
X0210606Y0132732D01*
X0210662Y0132770D02*
X0211353Y0132770D01*
X0211353Y0132808D02*
X0210717Y0132808D01*
X0210772Y0132846D02*
X0211353Y0132846D01*
X0211353Y0132884D02*
X0210828Y0132884D01*
X0210883Y0132922D02*
X0211353Y0132922D01*
X0211353Y0132960D02*
X0210938Y0132960D01*
X0210994Y0132997D02*
X0211353Y0132997D01*
X0211353Y0133035D02*
X0211049Y0133035D01*
X0211104Y0133073D02*
X0211353Y0133073D01*
X0211353Y0133111D02*
X0211159Y0133111D01*
X0211215Y0133149D02*
X0211353Y0133149D01*
X0211353Y0133187D02*
X0211270Y0133187D01*
X0211325Y0133225D02*
X0211353Y0133225D01*
X0211353Y0134265D02*
X0211353Y0135592D01*
X0209508Y0135592D01*
X0208783Y0136290D01*
X0211353Y0138162D01*
X0211353Y0139755D01*
X0207879Y0137185D01*
X0206854Y0138169D01*
X0206854Y0136615D01*
X0205318Y0138041D01*
X0205318Y0139642D01*
X0206854Y0138169D01*
X0206854Y0136615D01*
X0207955Y0135592D01*
X0206854Y0135592D01*
X0206854Y0134265D01*
X0205318Y0134265D01*
X0205318Y0135592D01*
X0206854Y0135592D01*
X0206854Y0134265D01*
X0211353Y0134265D01*
X0211353Y0134285D02*
X0206854Y0134285D01*
X0205318Y0134285D01*
X0205318Y0134323D02*
X0206854Y0134323D01*
X0211353Y0134323D01*
X0211353Y0134361D02*
X0206854Y0134361D01*
X0205318Y0134361D01*
X0205318Y0134399D02*
X0206854Y0134399D01*
X0211353Y0134399D01*
X0211353Y0134437D02*
X0206854Y0134437D01*
X0205318Y0134437D01*
X0205318Y0134475D02*
X0206854Y0134475D01*
X0211353Y0134475D01*
X0211353Y0134513D02*
X0206854Y0134513D01*
X0205318Y0134513D01*
X0205318Y0134551D02*
X0206854Y0134551D01*
X0211353Y0134551D01*
X0211353Y0134588D02*
X0206854Y0134588D01*
X0205318Y0134588D01*
X0205318Y0134626D02*
X0206854Y0134626D01*
X0211353Y0134626D01*
X0211353Y0134664D02*
X0206854Y0134664D01*
X0205318Y0134664D01*
X0205318Y0134702D02*
X0206854Y0134702D01*
X0211353Y0134702D01*
X0211353Y0134740D02*
X0206854Y0134740D01*
X0205318Y0134740D01*
X0205318Y0134778D02*
X0206854Y0134778D01*
X0211353Y0134778D01*
X0211353Y0134816D02*
X0206854Y0134816D01*
X0205318Y0134816D01*
X0205318Y0134854D02*
X0206854Y0134854D01*
X0211353Y0134854D01*
X0211353Y0134892D02*
X0206854Y0134892D01*
X0205318Y0134892D01*
X0205318Y0134929D02*
X0206854Y0134929D01*
X0211353Y0134929D01*
X0211353Y0134967D02*
X0206854Y0134967D01*
X0205318Y0134967D01*
X0205318Y0135005D02*
X0206854Y0135005D01*
X0211353Y0135005D01*
X0211353Y0135043D02*
X0206854Y0135043D01*
X0205318Y0135043D01*
X0205318Y0135081D02*
X0206854Y0135081D01*
X0211353Y0135081D01*
X0211353Y0135119D02*
X0206854Y0135119D01*
X0205318Y0135119D01*
X0205318Y0135157D02*
X0206854Y0135157D01*
X0211353Y0135157D01*
X0211353Y0135195D02*
X0206854Y0135195D01*
X0205318Y0135195D01*
X0205318Y0135232D02*
X0206854Y0135232D01*
X0211353Y0135232D01*
X0211353Y0135270D02*
X0206854Y0135270D01*
X0205318Y0135270D01*
X0205318Y0135308D02*
X0206854Y0135308D01*
X0211353Y0135308D01*
X0211353Y0135346D02*
X0206854Y0135346D01*
X0205318Y0135346D01*
X0205318Y0135384D02*
X0206854Y0135384D01*
X0211353Y0135384D01*
X0211353Y0135422D02*
X0206854Y0135422D01*
X0205318Y0135422D01*
X0205318Y0135460D02*
X0206854Y0135460D01*
X0211353Y0135460D01*
X0211353Y0135498D02*
X0206854Y0135498D01*
X0205318Y0135498D01*
X0205318Y0135536D02*
X0206854Y0135536D01*
X0211353Y0135536D01*
X0211353Y0135573D02*
X0206854Y0135573D01*
X0205318Y0135573D01*
X0206548Y0136899D02*
X0206854Y0136899D01*
X0209620Y0136899D01*
X0209672Y0136937D02*
X0206854Y0136937D01*
X0206507Y0136937D01*
X0206466Y0136975D02*
X0206854Y0136975D01*
X0209724Y0136975D01*
X0209776Y0137013D02*
X0206854Y0137013D01*
X0206425Y0137013D01*
X0206384Y0137051D02*
X0206854Y0137051D01*
X0209828Y0137051D01*
X0209880Y0137089D02*
X0206854Y0137089D01*
X0206344Y0137089D01*
X0206303Y0137127D02*
X0206854Y0137127D01*
X0209932Y0137127D01*
X0209984Y0137164D02*
X0206854Y0137164D01*
X0206262Y0137164D01*
X0206221Y0137202D02*
X0206854Y0137202D01*
X0207861Y0137202D01*
X0207902Y0137202D02*
X0210036Y0137202D01*
X0210088Y0137240D02*
X0207953Y0137240D01*
X0208004Y0137278D02*
X0210140Y0137278D01*
X0210192Y0137316D02*
X0208055Y0137316D01*
X0208106Y0137354D02*
X0210244Y0137354D01*
X0210296Y0137392D02*
X0208158Y0137392D01*
X0208209Y0137430D02*
X0210348Y0137430D01*
X0210400Y0137467D02*
X0208260Y0137467D01*
X0208311Y0137505D02*
X0210452Y0137505D01*
X0210503Y0137543D02*
X0208362Y0137543D01*
X0208414Y0137581D02*
X0210555Y0137581D01*
X0210607Y0137619D02*
X0208465Y0137619D01*
X0208516Y0137657D02*
X0210659Y0137657D01*
X0210711Y0137695D02*
X0208567Y0137695D01*
X0208619Y0137733D02*
X0210763Y0137733D01*
X0210815Y0137771D02*
X0208670Y0137771D01*
X0208721Y0137808D02*
X0210867Y0137808D01*
X0210919Y0137846D02*
X0208772Y0137846D01*
X0208823Y0137884D02*
X0210971Y0137884D01*
X0211023Y0137922D02*
X0208875Y0137922D01*
X0208926Y0137960D02*
X0211075Y0137960D01*
X0211127Y0137998D02*
X0208977Y0137998D01*
X0209028Y0138036D02*
X0211179Y0138036D01*
X0211231Y0138074D02*
X0209080Y0138074D01*
X0209131Y0138111D02*
X0211283Y0138111D01*
X0211335Y0138149D02*
X0209182Y0138149D01*
X0209233Y0138187D02*
X0211353Y0138187D01*
X0211353Y0138225D02*
X0209284Y0138225D01*
X0209336Y0138263D02*
X0211353Y0138263D01*
X0211353Y0138301D02*
X0209387Y0138301D01*
X0209438Y0138339D02*
X0211353Y0138339D01*
X0211353Y0138377D02*
X0209489Y0138377D01*
X0209540Y0138414D02*
X0211353Y0138414D01*
X0211353Y0138452D02*
X0209592Y0138452D01*
X0209643Y0138490D02*
X0211353Y0138490D01*
X0211353Y0138528D02*
X0209694Y0138528D01*
X0209745Y0138566D02*
X0211353Y0138566D01*
X0211353Y0138604D02*
X0209797Y0138604D01*
X0209848Y0138642D02*
X0211353Y0138642D01*
X0211353Y0138680D02*
X0209899Y0138680D01*
X0209950Y0138718D02*
X0211353Y0138718D01*
X0211353Y0138755D02*
X0210001Y0138755D01*
X0210053Y0138793D02*
X0211353Y0138793D01*
X0211353Y0138831D02*
X0210104Y0138831D01*
X0210155Y0138869D02*
X0211353Y0138869D01*
X0211353Y0138907D02*
X0210206Y0138907D01*
X0210257Y0138945D02*
X0211353Y0138945D01*
X0211353Y0138983D02*
X0210309Y0138983D01*
X0210360Y0139021D02*
X0211353Y0139021D01*
X0211353Y0139058D02*
X0210411Y0139058D01*
X0210462Y0139096D02*
X0211353Y0139096D01*
X0211353Y0139134D02*
X0210514Y0139134D01*
X0210565Y0139172D02*
X0211353Y0139172D01*
X0211353Y0139210D02*
X0210616Y0139210D01*
X0210667Y0139248D02*
X0211353Y0139248D01*
X0211353Y0139286D02*
X0210718Y0139286D01*
X0210770Y0139324D02*
X0211353Y0139324D01*
X0211353Y0139362D02*
X0210821Y0139362D01*
X0210872Y0139399D02*
X0211353Y0139399D01*
X0211353Y0139437D02*
X0210923Y0139437D01*
X0210975Y0139475D02*
X0211353Y0139475D01*
X0211353Y0139513D02*
X0211026Y0139513D01*
X0211077Y0139551D02*
X0211353Y0139551D01*
X0211353Y0139589D02*
X0211128Y0139589D01*
X0211179Y0139627D02*
X0211353Y0139627D01*
X0211353Y0139665D02*
X0211231Y0139665D01*
X0211282Y0139702D02*
X0211353Y0139702D01*
X0211353Y0139740D02*
X0211333Y0139740D01*
X0209568Y0136861D02*
X0206854Y0136861D01*
X0206588Y0136861D01*
X0206629Y0136823D02*
X0206854Y0136823D01*
X0209516Y0136823D01*
X0209464Y0136786D02*
X0206854Y0136786D01*
X0206670Y0136786D01*
X0206711Y0136748D02*
X0206854Y0136748D01*
X0209412Y0136748D01*
X0209360Y0136710D02*
X0206854Y0136710D01*
X0206752Y0136710D01*
X0206792Y0136672D02*
X0206854Y0136672D01*
X0209308Y0136672D01*
X0209256Y0136634D02*
X0206854Y0136634D01*
X0206833Y0136634D01*
X0206874Y0136596D02*
X0209204Y0136596D01*
X0209152Y0136558D02*
X0206915Y0136558D01*
X0206956Y0136520D02*
X0209100Y0136520D01*
X0209048Y0136483D02*
X0206997Y0136483D01*
X0207037Y0136445D02*
X0208996Y0136445D01*
X0208944Y0136407D02*
X0207078Y0136407D01*
X0207119Y0136369D02*
X0208892Y0136369D01*
X0208840Y0136331D02*
X0207160Y0136331D01*
X0207201Y0136293D02*
X0208788Y0136293D01*
X0208819Y0136255D02*
X0207241Y0136255D01*
X0207282Y0136217D02*
X0208859Y0136217D01*
X0208898Y0136179D02*
X0207323Y0136179D01*
X0207364Y0136142D02*
X0208937Y0136142D01*
X0208977Y0136104D02*
X0207405Y0136104D01*
X0207445Y0136066D02*
X0209016Y0136066D01*
X0209056Y0136028D02*
X0207486Y0136028D01*
X0207527Y0135990D02*
X0209095Y0135990D01*
X0209134Y0135952D02*
X0207568Y0135952D01*
X0207609Y0135914D02*
X0209174Y0135914D01*
X0209213Y0135876D02*
X0207649Y0135876D01*
X0207690Y0135839D02*
X0209252Y0135839D01*
X0209292Y0135801D02*
X0207731Y0135801D01*
X0207772Y0135763D02*
X0209331Y0135763D01*
X0209370Y0135725D02*
X0207813Y0135725D01*
X0207853Y0135687D02*
X0209410Y0135687D01*
X0209449Y0135649D02*
X0207894Y0135649D01*
X0207935Y0135611D02*
X0209488Y0135611D01*
X0207822Y0137240D02*
X0206854Y0137240D01*
X0206180Y0137240D01*
X0206140Y0137278D02*
X0206854Y0137278D01*
X0207782Y0137278D01*
X0207743Y0137316D02*
X0206854Y0137316D01*
X0206099Y0137316D01*
X0206058Y0137354D02*
X0206854Y0137354D01*
X0207703Y0137354D01*
X0207664Y0137392D02*
X0206854Y0137392D01*
X0206017Y0137392D01*
X0205976Y0137430D02*
X0206854Y0137430D01*
X0207624Y0137430D01*
X0207585Y0137467D02*
X0206854Y0137467D01*
X0205936Y0137467D01*
X0205895Y0137505D02*
X0206854Y0137505D01*
X0207545Y0137505D01*
X0207506Y0137543D02*
X0206854Y0137543D01*
X0205854Y0137543D01*
X0205813Y0137581D02*
X0206854Y0137581D01*
X0207467Y0137581D01*
X0207427Y0137619D02*
X0206854Y0137619D01*
X0205772Y0137619D01*
X0205732Y0137657D02*
X0206854Y0137657D01*
X0207388Y0137657D01*
X0207348Y0137695D02*
X0206854Y0137695D01*
X0205691Y0137695D01*
X0205650Y0137733D02*
X0206854Y0137733D01*
X0207309Y0137733D01*
X0207269Y0137771D02*
X0206854Y0137771D01*
X0205609Y0137771D01*
X0205568Y0137808D02*
X0206854Y0137808D01*
X0207230Y0137808D01*
X0207190Y0137846D02*
X0206854Y0137846D01*
X0205528Y0137846D01*
X0205487Y0137884D02*
X0206854Y0137884D01*
X0207151Y0137884D01*
X0207111Y0137922D02*
X0206854Y0137922D01*
X0205446Y0137922D01*
X0205405Y0137960D02*
X0206854Y0137960D01*
X0207072Y0137960D01*
X0207032Y0137998D02*
X0206854Y0137998D01*
X0205364Y0137998D01*
X0205324Y0138036D02*
X0206854Y0138036D01*
X0206993Y0138036D01*
X0206953Y0138074D02*
X0206854Y0138074D01*
X0205318Y0138074D01*
X0205318Y0138111D02*
X0206854Y0138111D01*
X0206914Y0138111D01*
X0206874Y0138149D02*
X0206854Y0138149D01*
X0205318Y0138149D01*
X0205318Y0138187D02*
X0206835Y0138187D01*
X0206795Y0138225D02*
X0205318Y0138225D01*
X0205318Y0138263D02*
X0206756Y0138263D01*
X0206716Y0138301D02*
X0205318Y0138301D01*
X0205318Y0138339D02*
X0206677Y0138339D01*
X0206637Y0138377D02*
X0205318Y0138377D01*
X0205318Y0138414D02*
X0206598Y0138414D01*
X0206559Y0138452D02*
X0205318Y0138452D01*
X0205318Y0138490D02*
X0206519Y0138490D01*
X0206480Y0138528D02*
X0205318Y0138528D01*
X0205318Y0138566D02*
X0206440Y0138566D01*
X0206401Y0138604D02*
X0205318Y0138604D01*
X0205318Y0138642D02*
X0206361Y0138642D01*
X0206322Y0138680D02*
X0205318Y0138680D01*
X0205318Y0138718D02*
X0206282Y0138718D01*
X0206243Y0138755D02*
X0205318Y0138755D01*
X0205318Y0138793D02*
X0206203Y0138793D01*
X0206164Y0138831D02*
X0205318Y0138831D01*
X0205318Y0138869D02*
X0206124Y0138869D01*
X0206085Y0138907D02*
X0205318Y0138907D01*
X0205318Y0138945D02*
X0206045Y0138945D01*
X0206006Y0138983D02*
X0205318Y0138983D01*
X0205318Y0139021D02*
X0205966Y0139021D01*
X0205927Y0139058D02*
X0205318Y0139058D01*
X0205318Y0139096D02*
X0205887Y0139096D01*
X0205848Y0139134D02*
X0205318Y0139134D01*
X0205318Y0139172D02*
X0205809Y0139172D01*
X0205769Y0139210D02*
X0205318Y0139210D01*
X0205318Y0139248D02*
X0205730Y0139248D01*
X0205690Y0139286D02*
X0205318Y0139286D01*
X0205318Y0139324D02*
X0205651Y0139324D01*
X0205611Y0139362D02*
X0205318Y0139362D01*
X0205318Y0139399D02*
X0205572Y0139399D01*
X0205532Y0139437D02*
X0205318Y0139437D01*
X0205318Y0139475D02*
X0205493Y0139475D01*
X0205453Y0139513D02*
X0205318Y0139513D01*
X0205318Y0139551D02*
X0205414Y0139551D01*
X0205374Y0139589D02*
X0205318Y0139589D01*
X0205318Y0139627D02*
X0205335Y0139627D01*
X0206767Y0132997D02*
X0206854Y0132997D01*
X0207814Y0132997D01*
X0208020Y0132960D02*
X0206854Y0132960D01*
X0206634Y0132960D01*
X0206501Y0132922D02*
X0206854Y0132922D01*
X0208094Y0132922D01*
X0208169Y0132884D02*
X0206854Y0132884D01*
X0206419Y0132884D01*
X0206350Y0132846D02*
X0206854Y0132846D01*
X0208243Y0132846D01*
X0208317Y0132808D02*
X0206854Y0132808D01*
X0206281Y0132808D01*
X0206212Y0132770D02*
X0206854Y0132770D01*
X0208392Y0132770D01*
X0208466Y0132732D02*
X0206854Y0132732D01*
X0206143Y0132732D01*
X0206098Y0132694D02*
X0206854Y0132694D01*
X0208531Y0132694D01*
X0208568Y0132657D02*
X0206854Y0132657D01*
X0206056Y0132657D01*
X0206014Y0132619D02*
X0206854Y0132619D01*
X0208604Y0132619D01*
X0208641Y0132581D02*
X0206854Y0132581D01*
X0205973Y0132581D01*
X0205931Y0132543D02*
X0206854Y0132543D01*
X0208677Y0132543D01*
X0208714Y0132505D02*
X0206854Y0132505D01*
X0205889Y0132505D01*
X0205847Y0132467D02*
X0206854Y0132467D01*
X0208750Y0132467D01*
X0208787Y0132429D02*
X0206854Y0132429D01*
X0205820Y0132429D01*
X0205793Y0132391D02*
X0206854Y0132391D01*
X0208823Y0132391D01*
X0208860Y0132353D02*
X0206854Y0132353D01*
X0205767Y0132353D01*
X0205740Y0132316D02*
X0206854Y0132316D01*
X0208897Y0132316D01*
X0208927Y0132278D02*
X0206854Y0132278D01*
X0205714Y0132278D01*
X0205688Y0132240D02*
X0206854Y0132240D01*
X0208947Y0132240D01*
X0208967Y0132202D02*
X0206854Y0132202D01*
X0205661Y0132202D01*
X0205635Y0132164D02*
X0206854Y0132164D01*
X0208987Y0132164D01*
X0209008Y0132126D02*
X0206854Y0132126D01*
X0205611Y0132126D01*
X0205595Y0132088D02*
X0206854Y0132088D01*
X0209028Y0132088D01*
X0209048Y0132050D02*
X0206854Y0132050D01*
X0205579Y0132050D01*
X0205563Y0132013D02*
X0206854Y0132013D01*
X0209068Y0132013D01*
X0209088Y0131975D02*
X0206854Y0131975D01*
X0205547Y0131975D01*
X0205531Y0131937D02*
X0206854Y0131937D01*
X0209108Y0131937D01*
X0209128Y0131899D02*
X0206854Y0131899D01*
X0205515Y0131899D01*
X0205499Y0131861D02*
X0206854Y0131861D01*
X0209148Y0131861D01*
X0209168Y0131823D02*
X0206854Y0131823D01*
X0205483Y0131823D01*
X0206854Y0131672D02*
X0207121Y0131672D01*
X0207643Y0131672D02*
X0211324Y0131672D01*
X0211267Y0131634D02*
X0207768Y0131634D01*
X0207821Y0131596D02*
X0211211Y0131596D01*
X0211154Y0131558D02*
X0207873Y0131558D01*
X0207926Y0131520D02*
X0211097Y0131520D01*
X0211041Y0131482D02*
X0207979Y0131482D01*
X0208021Y0131444D02*
X0210984Y0131444D01*
X0210927Y0131406D02*
X0208041Y0131406D01*
X0208062Y0131369D02*
X0210871Y0131369D01*
X0210814Y0131331D02*
X0208083Y0131331D01*
X0208103Y0131293D02*
X0210758Y0131293D01*
X0210701Y0131255D02*
X0208124Y0131255D01*
X0208144Y0131217D02*
X0210644Y0131217D01*
X0210588Y0131179D02*
X0208165Y0131179D01*
X0208186Y0131141D02*
X0210531Y0131141D01*
X0210474Y0131103D02*
X0208193Y0131103D01*
X0208198Y0131066D02*
X0210418Y0131066D01*
X0210361Y0131028D02*
X0208203Y0131028D01*
X0208208Y0130990D02*
X0210305Y0130990D01*
X0210248Y0130952D02*
X0208214Y0130952D01*
X0208219Y0130914D02*
X0210191Y0130914D01*
X0210135Y0130876D02*
X0208224Y0130876D01*
X0208229Y0130838D02*
X0210078Y0130838D01*
X0210021Y0130800D02*
X0208234Y0130800D01*
X0208239Y0130762D02*
X0209965Y0130762D01*
X0209908Y0130725D02*
X0208245Y0130725D01*
X0208248Y0130687D02*
X0209852Y0130687D01*
X0209795Y0130649D02*
X0208248Y0130649D01*
X0208248Y0130611D02*
X0209738Y0130611D01*
X0209682Y0130573D02*
X0208248Y0130573D01*
X0208248Y0130535D02*
X0209625Y0130535D01*
X0209568Y0130497D02*
X0208248Y0130497D01*
X0208248Y0130459D02*
X0209512Y0130459D01*
X0209455Y0130422D02*
X0208248Y0130422D01*
X0208248Y0130384D02*
X0209422Y0130384D01*
X0209422Y0130346D02*
X0208248Y0130346D01*
X0208248Y0130308D02*
X0209422Y0130308D01*
X0209422Y0130270D02*
X0208248Y0130270D01*
X0208248Y0130232D02*
X0209422Y0130232D01*
X0209422Y0130194D02*
X0208248Y0130194D01*
X0208248Y0130156D02*
X0209422Y0130156D01*
X0209422Y0130118D02*
X0208248Y0130118D01*
X0208248Y0130081D02*
X0209422Y0130081D01*
X0209422Y0130043D02*
X0208248Y0130043D01*
X0208248Y0130005D02*
X0209422Y0130005D01*
X0209422Y0129967D02*
X0208248Y0129967D01*
X0208248Y0129929D02*
X0209422Y0129929D01*
X0209422Y0129891D02*
X0208248Y0129891D01*
X0208248Y0129853D02*
X0209422Y0129853D01*
X0209422Y0129815D02*
X0208248Y0129815D01*
X0208248Y0129778D02*
X0209422Y0129778D01*
X0209422Y0129740D02*
X0208248Y0129740D01*
X0208248Y0129702D02*
X0209422Y0129702D01*
X0209422Y0129664D02*
X0208248Y0129664D01*
X0208248Y0129626D02*
X0209422Y0129626D01*
X0209422Y0129588D02*
X0208248Y0129588D01*
X0208248Y0129550D02*
X0209422Y0129550D01*
X0209422Y0129512D02*
X0208248Y0129512D01*
X0208248Y0129474D02*
X0209422Y0129474D01*
X0209422Y0129437D02*
X0208248Y0129437D01*
X0208248Y0129399D02*
X0209422Y0129399D01*
X0209422Y0129361D02*
X0208248Y0129361D01*
X0207536Y0133035D02*
X0206974Y0133035D01*
X0206854Y0123868D02*
X0206898Y0123868D01*
X0206854Y0123868D02*
X0205273Y0123868D01*
D14*
X0207614Y0103861D02*
X0207420Y0101956D01*
X0206780Y0101751D01*
X0206182Y0101443D01*
X0204698Y0102654D01*
X0203680Y0101636D01*
X0204890Y0100152D01*
X0204582Y0099554D01*
X0204377Y0098913D01*
X0202472Y0098720D01*
X0202472Y0097280D01*
X0204377Y0097087D01*
X0204582Y0096446D01*
X0204890Y0095848D01*
X0203680Y0094364D01*
X0204698Y0093346D01*
X0206182Y0094557D01*
X0206780Y0094249D01*
X0207420Y0094044D01*
X0207614Y0092139D01*
X0209053Y0092139D01*
X0209247Y0094044D01*
X0209887Y0094249D01*
X0210485Y0094557D01*
X0211969Y0093346D01*
X0212987Y0094364D01*
X0211777Y0095848D01*
X0212085Y0096446D01*
X0210038Y0097294D01*
X0209826Y0096915D01*
X0209532Y0096597D01*
X0209171Y0096355D01*
X0208764Y0096205D01*
X0208333Y0096154D01*
X0207895Y0096207D01*
X0207481Y0096363D01*
X0207117Y0096612D01*
X0206822Y0096941D01*
X0206614Y0097331D01*
X0206504Y0097759D01*
X0206499Y0098201D01*
X0206600Y0098631D01*
X0206799Y0099025D01*
X0207087Y0099360D01*
X0207446Y0099618D01*
X0207856Y0099782D01*
X0208293Y0099845D01*
X0208733Y0099801D01*
X0209150Y0099655D01*
X0209520Y0099414D01*
X0209822Y0099091D01*
X0210038Y0098706D01*
X0212085Y0099554D01*
X0211777Y0100152D01*
X0212987Y0101636D01*
X0211969Y0102654D01*
X0210485Y0101443D01*
X0209887Y0101751D01*
X0209247Y0101956D01*
X0209053Y0103861D01*
X0207614Y0103861D01*
X0207586Y0103591D02*
X0209081Y0103591D01*
X0209140Y0103002D02*
X0207526Y0103002D01*
X0207466Y0102412D02*
X0209200Y0102412D01*
X0209662Y0101823D02*
X0207005Y0101823D01*
X0205716Y0101823D02*
X0203867Y0101823D01*
X0204007Y0101234D02*
X0212660Y0101234D01*
X0212799Y0101823D02*
X0210951Y0101823D01*
X0211674Y0102412D02*
X0212210Y0102412D01*
X0212179Y0100645D02*
X0204487Y0100645D01*
X0204841Y0100056D02*
X0211826Y0100056D01*
X0211875Y0099467D02*
X0209437Y0099467D01*
X0209942Y0098878D02*
X0210453Y0098878D01*
X0210480Y0097111D02*
X0209936Y0097111D01*
X0209420Y0096522D02*
X0211902Y0096522D01*
X0211820Y0095933D02*
X0204847Y0095933D01*
X0204558Y0096522D02*
X0207249Y0096522D01*
X0206731Y0097111D02*
X0204138Y0097111D01*
X0202472Y0097700D02*
X0206519Y0097700D01*
X0206520Y0098289D02*
X0202472Y0098289D01*
X0204030Y0098878D02*
X0206725Y0098878D01*
X0207236Y0099467D02*
X0204554Y0099467D01*
X0204456Y0102412D02*
X0204993Y0102412D01*
X0204479Y0095344D02*
X0212188Y0095344D01*
X0212668Y0094755D02*
X0203998Y0094755D01*
X0203878Y0094166D02*
X0205702Y0094166D01*
X0204980Y0093577D02*
X0204467Y0093577D01*
X0207039Y0094166D02*
X0209627Y0094166D01*
X0209199Y0093577D02*
X0207467Y0093577D01*
X0207527Y0092987D02*
X0209139Y0092987D01*
X0209079Y0092398D02*
X0207587Y0092398D01*
X0210965Y0094166D02*
X0212788Y0094166D01*
X0212199Y0093577D02*
X0211687Y0093577D01*
D15*
X0187073Y0075213D03*
X0157073Y0074555D03*
X0151483Y0074583D03*
X0151325Y0074583D03*
X0151168Y0074583D03*
X0151010Y0074583D03*
X0150853Y0074583D03*
X0150696Y0074583D03*
X0150538Y0074583D03*
X0146129Y0074583D03*
X0145971Y0074583D03*
X0145814Y0074583D03*
X0145656Y0074583D03*
X0145499Y0074583D03*
X0145341Y0074583D03*
X0145184Y0074583D03*
D16*
X0146601Y0071827D03*
X0146759Y0071827D03*
X0146286Y0069150D03*
X0147861Y0069150D03*
X0148018Y0069150D03*
X0150381Y0073244D03*
X0139751Y0068992D03*
X0137073Y0068992D03*
X0136916Y0068992D03*
X0137073Y0082063D03*
X0139751Y0082063D03*
X0166444Y0078598D03*
X0168176Y0076709D03*
X0168333Y0076709D03*
X0168491Y0076709D03*
X0168648Y0076709D03*
X0176444Y0073244D03*
X0177703Y0071984D03*
X0176601Y0069150D03*
X0180223Y0069150D03*
X0187703Y0073874D03*
X0190381Y0075764D03*
X0190066Y0080173D03*
X0196601Y0077024D03*
X0199908Y0077181D03*
X0200066Y0077024D03*
X0200696Y0076394D03*
X0198491Y0072457D03*
X0197703Y0069780D03*
X0200381Y0069780D03*
D17*
X0200696Y0070094D03*
X0197388Y0070094D03*
X0198963Y0072457D03*
X0190696Y0075921D03*
X0189751Y0080173D03*
X0180066Y0084898D03*
X0176601Y0084898D03*
X0170381Y0084740D03*
X0170223Y0084898D03*
X0170066Y0084898D03*
X0166601Y0084898D03*
X0160696Y0078571D03*
X0158333Y0074949D03*
X0149278Y0069465D03*
X0149121Y0069465D03*
X0146286Y0071827D03*
X0140223Y0069307D03*
X0137546Y0072299D03*
X0140223Y0081748D03*
X0177703Y0075606D03*
X0177861Y0075606D03*
X0178963Y0075606D03*
D18*
X0146286Y0077260D03*
D19*
X0150381Y0077496D03*
X0150381Y0080173D03*
X0146444Y0080173D03*
X0139278Y0082220D03*
X0139121Y0082220D03*
X0137546Y0082220D03*
X0137388Y0082220D03*
X0136444Y0075606D03*
X0140381Y0075606D03*
X0146916Y0071827D03*
X0147073Y0071827D03*
X0147231Y0068992D03*
X0147388Y0068992D03*
X0146444Y0068992D03*
X0149751Y0073402D03*
X0149908Y0073402D03*
X0157388Y0068965D03*
X0157546Y0068965D03*
X0157703Y0068965D03*
X0157861Y0068965D03*
X0158018Y0068965D03*
X0158176Y0068965D03*
X0158333Y0068965D03*
X0158491Y0068965D03*
X0158648Y0068965D03*
X0158806Y0068965D03*
X0158963Y0068965D03*
X0159121Y0068965D03*
X0159278Y0068965D03*
X0159436Y0068965D03*
X0159593Y0068965D03*
X0159751Y0068965D03*
X0159908Y0068965D03*
X0160066Y0068965D03*
X0160223Y0068965D03*
X0160381Y0068965D03*
X0160538Y0068965D03*
X0160696Y0068965D03*
X0166444Y0068992D03*
X0166916Y0071984D03*
X0170223Y0068992D03*
X0170381Y0068992D03*
X0176916Y0068992D03*
X0177073Y0068992D03*
X0177861Y0068992D03*
X0178018Y0068992D03*
X0179278Y0068992D03*
X0179908Y0068992D03*
X0177861Y0072142D03*
X0187388Y0069622D03*
X0190696Y0069622D03*
X0198018Y0069622D03*
X0198176Y0069622D03*
X0199908Y0069622D03*
X0200066Y0069622D03*
X0196444Y0077024D03*
X0190223Y0075606D03*
X0190066Y0075606D03*
X0190538Y0079858D03*
X0190381Y0080016D03*
X0168806Y0079701D03*
X0168806Y0076709D03*
X0168963Y0076709D03*
X0168018Y0076709D03*
X0167861Y0076709D03*
X0156286Y0079358D03*
X0139278Y0068835D03*
X0139121Y0068835D03*
X0138963Y0068835D03*
X0137703Y0068835D03*
X0137546Y0068835D03*
X0137388Y0068835D03*
D20*
X0136759Y0069150D03*
X0140066Y0069150D03*
X0146444Y0071827D03*
X0148491Y0069307D03*
X0148648Y0069307D03*
X0140066Y0081906D03*
X0136759Y0081906D03*
X0177546Y0071984D03*
X0180381Y0069307D03*
X0187546Y0073874D03*
X0190538Y0075764D03*
X0189908Y0080173D03*
X0199593Y0077339D03*
X0198806Y0072457D03*
X0198648Y0072457D03*
X0197546Y0069937D03*
X0200538Y0069937D03*
D21*
X0198333Y0073244D03*
X0198176Y0074819D03*
X0189908Y0071669D03*
X0188176Y0071669D03*
X0179436Y0073087D03*
X0178333Y0072772D03*
X0177231Y0071197D03*
X0168963Y0071197D03*
X0168963Y0072929D03*
X0169436Y0074661D03*
X0169593Y0074661D03*
X0167231Y0074661D03*
X0167703Y0078913D03*
X0168176Y0079071D03*
X0168333Y0079071D03*
X0169278Y0078913D03*
X0169436Y0078756D03*
X0169593Y0078756D03*
X0169751Y0082220D03*
X0169908Y0082220D03*
X0168648Y0082220D03*
X0168491Y0082220D03*
X0177231Y0081591D03*
X0179593Y0081591D03*
X0180381Y0080173D03*
X0180066Y0076709D03*
X0179436Y0076709D03*
X0177388Y0076709D03*
X0188176Y0077969D03*
X0159751Y0072587D03*
X0158963Y0072744D03*
X0157861Y0072587D03*
X0157388Y0074949D03*
X0148963Y0077024D03*
X0148806Y0077024D03*
X0148018Y0078126D03*
X0146444Y0075449D03*
X0146444Y0074031D03*
X0147231Y0074031D03*
X0147388Y0074031D03*
X0148333Y0071827D03*
X0148491Y0071827D03*
X0140066Y0073402D03*
X0138018Y0073402D03*
X0137231Y0073402D03*
X0137073Y0073402D03*
X0136916Y0073402D03*
X0136759Y0073402D03*
X0138963Y0075134D03*
X0137861Y0076079D03*
X0136444Y0077654D03*
X0139436Y0079228D03*
X0140223Y0077654D03*
D22*
X0140223Y0075528D03*
X0146444Y0077575D03*
X0146601Y0077575D03*
X0146601Y0080252D03*
X0146759Y0080252D03*
X0146916Y0080252D03*
X0147073Y0080252D03*
X0147231Y0080252D03*
X0147388Y0080252D03*
X0147546Y0080252D03*
X0147703Y0080252D03*
X0147861Y0080252D03*
X0148018Y0080252D03*
X0148176Y0080252D03*
X0148333Y0080252D03*
X0148491Y0080252D03*
X0148648Y0080252D03*
X0148806Y0080252D03*
X0148963Y0080252D03*
X0149121Y0080252D03*
X0149278Y0080252D03*
X0149436Y0080252D03*
X0149593Y0080252D03*
X0149751Y0080252D03*
X0149908Y0080252D03*
X0150066Y0080252D03*
X0150223Y0080252D03*
X0156129Y0079280D03*
X0158806Y0075500D03*
X0157388Y0072508D03*
X0156601Y0068886D03*
X0155814Y0068886D03*
X0149593Y0073480D03*
X0149436Y0073480D03*
X0147231Y0071748D03*
X0147073Y0068913D03*
X0146916Y0068913D03*
X0146601Y0068913D03*
X0138806Y0068756D03*
X0138648Y0068756D03*
X0138491Y0068756D03*
X0138333Y0068756D03*
X0138176Y0068756D03*
X0138018Y0068756D03*
X0137861Y0068756D03*
X0137861Y0082299D03*
X0138018Y0082299D03*
X0138176Y0082299D03*
X0138333Y0082299D03*
X0138491Y0082299D03*
X0138648Y0082299D03*
X0138806Y0082299D03*
X0138963Y0082299D03*
X0137703Y0082299D03*
X0166601Y0078677D03*
X0170223Y0078677D03*
X0170381Y0075055D03*
X0167073Y0072063D03*
X0166444Y0075055D03*
X0166601Y0068913D03*
X0166759Y0068913D03*
X0166916Y0068913D03*
X0167073Y0068913D03*
X0167231Y0068913D03*
X0167388Y0068913D03*
X0167546Y0068913D03*
X0167703Y0068913D03*
X0167861Y0068913D03*
X0168018Y0068913D03*
X0168176Y0068913D03*
X0168333Y0068913D03*
X0168491Y0068913D03*
X0168648Y0068913D03*
X0168806Y0068913D03*
X0168963Y0068913D03*
X0169121Y0068913D03*
X0169278Y0068913D03*
X0169436Y0068913D03*
X0169593Y0068913D03*
X0169751Y0068913D03*
X0169908Y0068913D03*
X0170066Y0068913D03*
X0177231Y0068913D03*
X0177388Y0068913D03*
X0177546Y0068913D03*
X0177703Y0068913D03*
X0179436Y0068913D03*
X0179593Y0068913D03*
X0179751Y0068913D03*
X0176601Y0073165D03*
X0187546Y0069543D03*
X0187703Y0069543D03*
X0187861Y0069543D03*
X0188018Y0069543D03*
X0188176Y0069543D03*
X0188333Y0069543D03*
X0188491Y0069543D03*
X0188648Y0069543D03*
X0188806Y0069543D03*
X0188963Y0069543D03*
X0189121Y0069543D03*
X0189278Y0069543D03*
X0189436Y0069543D03*
X0189593Y0069543D03*
X0189751Y0069543D03*
X0189908Y0069543D03*
X0190066Y0069543D03*
X0190223Y0069543D03*
X0190381Y0069543D03*
X0190538Y0069543D03*
X0188018Y0073953D03*
X0196286Y0076945D03*
X0186286Y0080094D03*
X0198333Y0069543D03*
X0198491Y0069543D03*
X0198648Y0069543D03*
X0199436Y0069543D03*
X0199593Y0069543D03*
X0199751Y0069543D03*
D23*
X0199908Y0073323D03*
X0200381Y0073480D03*
X0198176Y0073323D03*
X0197861Y0073480D03*
X0197703Y0073480D03*
X0179908Y0076787D03*
X0179751Y0076787D03*
X0179593Y0076787D03*
X0177231Y0076787D03*
X0177073Y0076787D03*
X0176916Y0076787D03*
X0176759Y0076787D03*
X0178491Y0072850D03*
X0178648Y0072850D03*
X0179121Y0073008D03*
X0179278Y0073008D03*
X0169278Y0074583D03*
X0169121Y0074583D03*
X0167703Y0074583D03*
X0167546Y0074583D03*
X0167388Y0074583D03*
X0168648Y0073008D03*
X0168806Y0073008D03*
X0167861Y0072063D03*
X0168806Y0071118D03*
X0160538Y0072823D03*
X0158806Y0072665D03*
X0150223Y0075528D03*
X0150066Y0075528D03*
X0149908Y0075528D03*
X0149751Y0075528D03*
X0149593Y0075528D03*
X0149436Y0075528D03*
X0149278Y0075528D03*
X0149121Y0075528D03*
X0148963Y0075528D03*
X0148806Y0075528D03*
X0148648Y0075528D03*
X0148491Y0075528D03*
X0148333Y0075528D03*
X0148176Y0075528D03*
X0148018Y0075528D03*
X0147861Y0075528D03*
X0147703Y0075528D03*
X0147546Y0075528D03*
X0147388Y0075528D03*
X0147231Y0075528D03*
X0147073Y0075528D03*
X0146916Y0075528D03*
X0146759Y0075528D03*
X0146601Y0075528D03*
X0146601Y0074110D03*
X0146759Y0074110D03*
X0146916Y0074110D03*
X0147073Y0074110D03*
X0148648Y0076945D03*
X0148176Y0078205D03*
X0140066Y0077575D03*
X0139908Y0077575D03*
X0139751Y0077575D03*
X0139593Y0077575D03*
X0139436Y0077575D03*
X0139278Y0077575D03*
X0139121Y0077575D03*
X0138963Y0077575D03*
X0138806Y0077575D03*
X0138648Y0077575D03*
X0138491Y0077575D03*
X0138333Y0077575D03*
X0138176Y0077575D03*
X0138018Y0077575D03*
X0137861Y0077575D03*
X0137703Y0077575D03*
X0137546Y0077575D03*
X0137388Y0077575D03*
X0137231Y0077575D03*
X0137073Y0077575D03*
X0136916Y0077575D03*
X0136759Y0077575D03*
X0136601Y0077575D03*
X0138018Y0076157D03*
X0138176Y0076157D03*
X0138806Y0075055D03*
X0138806Y0073480D03*
X0138963Y0073480D03*
X0139121Y0073480D03*
X0139278Y0073480D03*
X0139436Y0073480D03*
X0139593Y0073480D03*
X0139751Y0073480D03*
X0139908Y0073480D03*
X0138648Y0073480D03*
X0138491Y0073480D03*
X0138333Y0073480D03*
X0138176Y0073480D03*
X0167388Y0078835D03*
X0167546Y0078835D03*
X0167861Y0078992D03*
X0168018Y0078992D03*
X0167231Y0080567D03*
X0168806Y0082299D03*
X0168963Y0082299D03*
X0169121Y0082299D03*
X0169278Y0082299D03*
X0169436Y0082299D03*
X0169593Y0082299D03*
X0177388Y0081512D03*
X0179278Y0081512D03*
X0179436Y0081512D03*
X0179751Y0080094D03*
X0179908Y0080094D03*
X0180066Y0080094D03*
X0180223Y0080094D03*
D24*
X0180381Y0081906D03*
X0185814Y0079701D03*
X0185971Y0079858D03*
X0186129Y0080016D03*
X0189751Y0075606D03*
X0189908Y0075606D03*
X0188176Y0074031D03*
X0190696Y0072929D03*
X0195814Y0069465D03*
X0195971Y0069465D03*
X0196129Y0069465D03*
X0196286Y0069465D03*
X0196444Y0069465D03*
X0196601Y0069465D03*
X0198806Y0069465D03*
X0198963Y0069465D03*
X0199121Y0069465D03*
X0199278Y0069465D03*
X0200696Y0073402D03*
X0197388Y0073402D03*
X0196129Y0076866D03*
X0177546Y0075134D03*
X0169121Y0076709D03*
X0167703Y0076709D03*
X0160538Y0075579D03*
X0158176Y0075579D03*
X0155814Y0079043D03*
X0155971Y0079201D03*
X0150223Y0077496D03*
X0150066Y0077496D03*
X0146759Y0077654D03*
X0149121Y0073559D03*
X0149278Y0073559D03*
X0147388Y0071827D03*
X0146759Y0068835D03*
X0155971Y0068807D03*
X0156129Y0068807D03*
X0156286Y0068807D03*
X0156444Y0068807D03*
X0138963Y0071512D03*
X0138806Y0071512D03*
X0136601Y0075606D03*
X0138018Y0079701D03*
X0138176Y0079701D03*
X0138333Y0079701D03*
X0138491Y0079701D03*
X0138648Y0079701D03*
D25*
X0138806Y0079622D03*
X0138963Y0079622D03*
X0137861Y0079622D03*
X0136916Y0075685D03*
X0136759Y0075685D03*
X0140066Y0075528D03*
X0139121Y0071591D03*
X0147546Y0071748D03*
X0148806Y0073638D03*
X0148963Y0073638D03*
X0149908Y0077417D03*
X0146916Y0077732D03*
X0158018Y0075657D03*
X0158963Y0075657D03*
X0160381Y0075657D03*
X0166759Y0078677D03*
X0167546Y0076630D03*
X0170223Y0074898D03*
X0167231Y0072063D03*
X0176759Y0073165D03*
X0179121Y0071118D03*
X0180066Y0073165D03*
X0179278Y0075213D03*
X0187388Y0076630D03*
X0188333Y0073953D03*
X0188806Y0071906D03*
X0188963Y0071906D03*
X0189121Y0071906D03*
X0189278Y0071906D03*
X0195814Y0076630D03*
X0195971Y0076787D03*
X0199751Y0072063D03*
X0170066Y0078677D03*
X0168018Y0081827D03*
D26*
X0169121Y0080488D03*
X0168648Y0079386D03*
X0170381Y0081906D03*
X0176444Y0081906D03*
X0180223Y0081906D03*
X0180381Y0076551D03*
X0179908Y0073087D03*
X0178018Y0072457D03*
X0169278Y0076709D03*
X0166601Y0074976D03*
X0160223Y0075736D03*
X0160066Y0075736D03*
X0159908Y0075736D03*
X0159751Y0075736D03*
X0159593Y0075736D03*
X0159436Y0075736D03*
X0159278Y0075736D03*
X0159121Y0075736D03*
X0159278Y0072902D03*
X0160696Y0071169D03*
X0149751Y0077339D03*
X0147231Y0077811D03*
X0147073Y0077811D03*
X0139908Y0075449D03*
X0139751Y0075449D03*
X0140381Y0073244D03*
X0139278Y0071669D03*
X0136444Y0073244D03*
X0137073Y0075764D03*
X0137703Y0079543D03*
X0139121Y0079543D03*
X0148491Y0073717D03*
X0148648Y0073717D03*
X0147861Y0071827D03*
X0147703Y0071827D03*
X0188491Y0071827D03*
X0188648Y0071827D03*
X0189436Y0071827D03*
X0189593Y0071827D03*
X0188491Y0074031D03*
X0189436Y0075606D03*
X0189593Y0075606D03*
X0189751Y0077969D03*
X0188333Y0077969D03*
X0198333Y0072142D03*
D27*
X0190538Y0073165D03*
X0189751Y0071748D03*
X0188333Y0071748D03*
X0188648Y0073953D03*
X0188806Y0073953D03*
X0188963Y0073953D03*
X0189121Y0075685D03*
X0189278Y0075685D03*
X0187546Y0076472D03*
X0177388Y0075213D03*
X0177073Y0073008D03*
X0176916Y0073008D03*
X0177231Y0072850D03*
X0177388Y0072693D03*
X0179278Y0071276D03*
X0170066Y0074898D03*
X0166759Y0074898D03*
X0167388Y0072063D03*
X0160696Y0072823D03*
X0160538Y0071248D03*
X0157546Y0072508D03*
X0149593Y0077260D03*
X0149436Y0077260D03*
X0147388Y0077890D03*
X0148176Y0073795D03*
X0148333Y0073795D03*
X0139593Y0075370D03*
X0137231Y0075843D03*
X0137546Y0079465D03*
X0139278Y0079465D03*
X0137388Y0071748D03*
X0138018Y0071118D03*
X0166444Y0081984D03*
X0169278Y0080567D03*
X0169908Y0078677D03*
X0166916Y0078677D03*
X0176601Y0081827D03*
X0176759Y0081827D03*
X0180066Y0081827D03*
D28*
X0186444Y0080094D03*
X0190223Y0080094D03*
X0190696Y0079622D03*
X0187861Y0073953D03*
X0180223Y0073165D03*
X0180066Y0069071D03*
X0179121Y0069071D03*
X0178333Y0069071D03*
X0178176Y0069071D03*
X0176759Y0069071D03*
X0166759Y0072063D03*
X0160696Y0075500D03*
X0159593Y0073295D03*
X0159436Y0073138D03*
X0150223Y0073323D03*
X0150066Y0073323D03*
X0147703Y0069071D03*
X0147546Y0069071D03*
X0139593Y0068913D03*
X0139436Y0068913D03*
X0137231Y0068913D03*
X0156444Y0079437D03*
X0167861Y0081512D03*
X0139593Y0082142D03*
X0139436Y0082142D03*
X0137231Y0082142D03*
X0197861Y0069701D03*
X0200223Y0069701D03*
X0200538Y0076630D03*
X0200381Y0076787D03*
X0200223Y0076945D03*
D29*
X0199908Y0074740D03*
X0200538Y0073480D03*
X0199751Y0073323D03*
X0199908Y0072063D03*
X0198176Y0072063D03*
X0190066Y0073480D03*
X0189908Y0073638D03*
X0189751Y0073638D03*
X0189593Y0073795D03*
X0189436Y0073795D03*
X0188648Y0075843D03*
X0188491Y0075843D03*
X0188333Y0076000D03*
X0188176Y0076000D03*
X0188018Y0076157D03*
X0187861Y0076157D03*
X0189908Y0077890D03*
X0180223Y0076630D03*
X0179278Y0076630D03*
X0179436Y0075213D03*
X0179593Y0073008D03*
X0178176Y0072693D03*
X0177388Y0071276D03*
X0179436Y0071276D03*
X0177546Y0076630D03*
X0176601Y0076630D03*
X0169751Y0074740D03*
X0169121Y0072850D03*
X0169121Y0071276D03*
X0167703Y0072063D03*
X0167073Y0074740D03*
X0167231Y0078835D03*
X0169121Y0078992D03*
X0169751Y0078677D03*
X0169436Y0080567D03*
X0170066Y0082142D03*
X0168333Y0082142D03*
X0167073Y0082142D03*
X0166916Y0082142D03*
X0166759Y0082142D03*
X0177073Y0081669D03*
X0179751Y0081669D03*
X0159908Y0073925D03*
X0159121Y0072823D03*
X0158176Y0073925D03*
X0157703Y0072508D03*
X0158176Y0071091D03*
X0158963Y0071091D03*
X0159908Y0071091D03*
X0160066Y0071091D03*
X0150381Y0075528D03*
X0149121Y0077102D03*
X0147861Y0078047D03*
X0147703Y0078047D03*
X0147703Y0073953D03*
X0147546Y0073953D03*
X0140381Y0077575D03*
X0137703Y0076000D03*
X0139121Y0075213D03*
X0139278Y0075213D03*
X0137388Y0073323D03*
X0136601Y0073323D03*
X0139436Y0071748D03*
D30*
X0138648Y0071039D03*
X0138491Y0071039D03*
X0138333Y0071039D03*
X0138176Y0071039D03*
X0140223Y0073402D03*
X0139436Y0075291D03*
X0137546Y0075921D03*
X0137388Y0075921D03*
X0137388Y0079386D03*
X0147546Y0077969D03*
X0149278Y0077181D03*
X0148018Y0073874D03*
X0147861Y0073874D03*
X0148018Y0071827D03*
X0148176Y0071827D03*
X0158333Y0071169D03*
X0158491Y0071169D03*
X0158648Y0071169D03*
X0158806Y0071169D03*
X0160223Y0071169D03*
X0160381Y0071169D03*
X0159751Y0073846D03*
X0166916Y0074819D03*
X0167388Y0076709D03*
X0169436Y0076709D03*
X0169908Y0074819D03*
X0169278Y0072772D03*
X0169278Y0071354D03*
X0167546Y0071984D03*
X0176444Y0076551D03*
X0179751Y0073087D03*
X0187703Y0076394D03*
X0188806Y0075764D03*
X0188963Y0075764D03*
X0189121Y0073874D03*
X0189278Y0073874D03*
X0190223Y0073402D03*
X0190381Y0073244D03*
X0197546Y0073402D03*
X0199751Y0074661D03*
X0179908Y0081748D03*
X0176916Y0081748D03*
X0170223Y0082063D03*
X0168176Y0082063D03*
X0167388Y0082063D03*
X0167231Y0082063D03*
X0166601Y0082063D03*
X0167388Y0080646D03*
X0168491Y0079228D03*
X0167073Y0078756D03*
D31*
X0168963Y0079780D03*
X0170381Y0078677D03*
X0176444Y0079150D03*
X0176601Y0079150D03*
X0176759Y0079150D03*
X0176916Y0079150D03*
X0177073Y0079150D03*
X0177231Y0079150D03*
X0177388Y0079150D03*
X0177546Y0079150D03*
X0177703Y0079150D03*
X0177861Y0079150D03*
X0178018Y0079150D03*
X0178176Y0079150D03*
X0178333Y0079150D03*
X0178491Y0079150D03*
X0178648Y0079150D03*
X0178806Y0079150D03*
X0178963Y0079150D03*
X0179121Y0079150D03*
X0179278Y0079150D03*
X0179436Y0079150D03*
X0179593Y0079150D03*
X0186601Y0080094D03*
X0199751Y0077260D03*
X0178491Y0069228D03*
X0176444Y0069228D03*
X0170066Y0072063D03*
X0169908Y0072063D03*
X0169751Y0072063D03*
X0169593Y0072063D03*
X0169436Y0072063D03*
X0166601Y0072063D03*
X0158648Y0075185D03*
X0156601Y0079437D03*
X0167546Y0081354D03*
X0167703Y0081354D03*
X0148333Y0069228D03*
X0148176Y0069228D03*
X0139908Y0069071D03*
X0139908Y0081984D03*
X0136916Y0081984D03*
D32*
X0138491Y0076315D03*
X0138333Y0074898D03*
X0148333Y0076787D03*
X0157703Y0075028D03*
X0168018Y0072063D03*
X0168333Y0073165D03*
X0168333Y0070961D03*
X0177703Y0081354D03*
X0178963Y0081354D03*
D33*
X0179121Y0081433D03*
X0177546Y0081433D03*
X0168963Y0074504D03*
X0168806Y0074504D03*
X0168648Y0074504D03*
X0168491Y0074504D03*
X0168333Y0074504D03*
X0168176Y0074504D03*
X0168018Y0074504D03*
X0167861Y0074504D03*
X0168491Y0073087D03*
X0168491Y0071039D03*
X0168648Y0071039D03*
X0160381Y0072744D03*
X0160223Y0072587D03*
X0160066Y0072587D03*
X0159908Y0072587D03*
X0158648Y0072587D03*
X0158491Y0072587D03*
X0158333Y0072587D03*
X0158176Y0072587D03*
X0158018Y0072587D03*
X0157546Y0074949D03*
X0157861Y0075106D03*
X0148491Y0076866D03*
X0148491Y0078283D03*
X0148333Y0078283D03*
X0138333Y0076236D03*
X0138491Y0074976D03*
X0138648Y0074976D03*
X0148648Y0071827D03*
X0148806Y0071827D03*
X0178806Y0072929D03*
X0178963Y0072929D03*
X0198018Y0073402D03*
X0200066Y0073402D03*
X0200223Y0073402D03*
D34*
X0199436Y0077417D03*
X0180381Y0073165D03*
X0179121Y0075685D03*
X0170381Y0072063D03*
X0170223Y0072063D03*
X0166444Y0072063D03*
X0158491Y0075028D03*
X0148963Y0069386D03*
X0148806Y0069386D03*
X0136601Y0069228D03*
X0136601Y0081827D03*
X0176286Y0069386D03*
X0178648Y0069386D03*
D35*
X0187388Y0073638D03*
X0178806Y0075528D03*
X0178648Y0075528D03*
X0178491Y0075528D03*
X0178333Y0075528D03*
X0178176Y0075528D03*
X0178018Y0075528D03*
X0160538Y0078650D03*
X0157546Y0079909D03*
X0157388Y0079909D03*
X0166444Y0084819D03*
X0166759Y0084976D03*
X0166916Y0084976D03*
X0169751Y0084976D03*
X0169908Y0084976D03*
X0176444Y0084819D03*
X0176759Y0084976D03*
X0176916Y0084976D03*
X0179908Y0084976D03*
X0180223Y0084819D03*
X0180381Y0084661D03*
X0199121Y0077417D03*
X0199278Y0077417D03*
X0199121Y0072535D03*
X0149593Y0069543D03*
X0149436Y0069543D03*
X0137861Y0072220D03*
X0137703Y0072220D03*
X0136444Y0069386D03*
X0136444Y0081669D03*
D36*
X0157703Y0079988D03*
X0160381Y0078728D03*
X0166286Y0078598D03*
X0176286Y0084583D03*
X0179751Y0084898D03*
X0187546Y0080488D03*
X0187703Y0080646D03*
X0199278Y0072772D03*
X0178806Y0069622D03*
X0149908Y0069622D03*
X0149751Y0069622D03*
X0140381Y0069465D03*
X0167073Y0085055D03*
X0167231Y0085055D03*
X0167388Y0085055D03*
X0169278Y0085055D03*
X0169436Y0085055D03*
X0169593Y0085055D03*
D37*
X0136286Y0069543D03*
X0150066Y0069701D03*
X0150223Y0069701D03*
X0160223Y0078807D03*
X0157861Y0080067D03*
X0167546Y0085134D03*
X0167703Y0085134D03*
X0167861Y0085134D03*
X0168018Y0085134D03*
X0168176Y0085134D03*
X0168333Y0085134D03*
X0168491Y0085134D03*
X0168648Y0085134D03*
X0168806Y0085134D03*
X0168963Y0085134D03*
X0169121Y0085134D03*
X0177073Y0084976D03*
X0179593Y0084976D03*
X0187861Y0080724D03*
X0188018Y0080724D03*
X0197546Y0077260D03*
X0197703Y0077417D03*
X0198963Y0077417D03*
X0176286Y0073323D03*
X0140381Y0081512D03*
D38*
X0160066Y0078886D03*
X0177231Y0084898D03*
X0179436Y0084898D03*
X0187388Y0080331D03*
X0188176Y0080646D03*
X0197388Y0077181D03*
X0197861Y0077496D03*
X0198018Y0077496D03*
X0150381Y0069780D03*
D39*
X0141483Y0075528D03*
X0141325Y0075528D03*
X0141168Y0075528D03*
X0141010Y0075528D03*
X0140853Y0075528D03*
X0140696Y0075528D03*
X0140538Y0075528D03*
X0136129Y0075528D03*
X0135971Y0075528D03*
X0135814Y0075528D03*
X0135656Y0075528D03*
X0135499Y0075528D03*
X0135341Y0075528D03*
X0135184Y0075528D03*
D40*
X0136286Y0077654D03*
X0155184Y0073531D03*
X0161483Y0073531D03*
X0185184Y0074189D03*
X0191483Y0074189D03*
D41*
X0195184Y0072614D03*
X0201483Y0072614D03*
D42*
X0201325Y0072693D03*
X0195341Y0072693D03*
D43*
X0195499Y0072850D03*
X0201168Y0072850D03*
X0166286Y0072220D03*
D44*
X0195656Y0072929D03*
X0201010Y0072929D03*
D45*
X0196759Y0073480D03*
D46*
X0196916Y0073559D03*
D47*
X0197073Y0073638D03*
D48*
X0197231Y0073717D03*
D49*
X0198176Y0077417D03*
X0188333Y0080567D03*
X0179278Y0084819D03*
X0177388Y0084819D03*
X0159908Y0078965D03*
X0178963Y0069858D03*
D50*
X0189436Y0079465D03*
X0198333Y0076787D03*
D51*
X0198491Y0076866D03*
X0178333Y0084425D03*
D52*
X0177861Y0084661D03*
X0178806Y0084661D03*
X0159278Y0079280D03*
X0159121Y0079280D03*
X0198648Y0077102D03*
D53*
X0198806Y0077339D03*
X0199593Y0073244D03*
X0199436Y0073087D03*
X0159751Y0079043D03*
D54*
X0200853Y0073008D03*
D55*
X0191325Y0074268D03*
X0185341Y0074268D03*
X0161325Y0073610D03*
X0155341Y0073610D03*
D56*
X0155499Y0073768D03*
X0161168Y0073768D03*
X0185499Y0074425D03*
X0191168Y0074425D03*
D57*
X0185656Y0074504D03*
X0161010Y0073846D03*
X0155656Y0073846D03*
D58*
X0185814Y0072457D03*
X0186601Y0072457D03*
D59*
X0186444Y0072299D03*
X0186286Y0072299D03*
X0186129Y0072299D03*
X0185971Y0072299D03*
X0176286Y0079071D03*
D60*
X0186759Y0075055D03*
X0156759Y0074398D03*
D61*
X0156916Y0074476D03*
X0186916Y0075134D03*
D62*
X0187231Y0071984D03*
D63*
X0191010Y0077260D03*
X0190853Y0077417D03*
X0187231Y0078835D03*
D64*
X0188491Y0079780D03*
X0188963Y0079622D03*
X0166286Y0083559D03*
D65*
X0188648Y0079701D03*
X0188806Y0079701D03*
X0191010Y0071354D03*
D66*
X0190853Y0071197D03*
X0189278Y0079543D03*
X0189121Y0079543D03*
D67*
X0189593Y0079465D03*
X0178491Y0084504D03*
X0178176Y0084504D03*
X0158806Y0079437D03*
X0158648Y0079437D03*
X0158491Y0079437D03*
X0158333Y0079437D03*
X0158176Y0079437D03*
D68*
X0157231Y0074634D03*
D69*
X0158018Y0079516D03*
X0158963Y0079358D03*
X0178018Y0084583D03*
X0178648Y0084583D03*
D70*
X0178963Y0084740D03*
X0177703Y0084740D03*
X0159436Y0079201D03*
D71*
X0159593Y0079122D03*
X0177546Y0084819D03*
X0179121Y0084819D03*
D72*
X0160853Y0073925D03*
D73*
X0165184Y0076236D03*
X0171483Y0076236D03*
X0175184Y0076236D03*
X0181483Y0076236D03*
D74*
X0181325Y0076472D03*
X0175341Y0076472D03*
X0171325Y0076472D03*
X0165341Y0076472D03*
D75*
X0165499Y0076630D03*
X0171168Y0076630D03*
X0175499Y0076630D03*
X0181168Y0076630D03*
D76*
X0181010Y0076787D03*
X0175656Y0076787D03*
X0171010Y0076787D03*
X0165656Y0076787D03*
D77*
X0165814Y0076866D03*
X0170853Y0076866D03*
X0175814Y0076866D03*
X0180853Y0076866D03*
D78*
X0180696Y0076945D03*
X0175971Y0076945D03*
X0170696Y0076945D03*
X0165971Y0076945D03*
D79*
X0166129Y0077024D03*
X0170538Y0077024D03*
X0176129Y0077024D03*
X0180538Y0077024D03*
M02*
