G75*
%MOIN*%
%OFA0B0*%
%FSLAX25Y25*%
%IPPOS*%
%LPD*%
%AMOC8*
5,1,8,0,0,1.08239X$1,22.5*
%
%ADD10C,0.00800*%
%ADD11C,0.00000*%
D10*
X0128333Y0060000D02*
X0128333Y0175000D01*
X0218333Y0175000D01*
X0218255Y0060000D01*
X0128333Y0060000D01*
D11*
X0201833Y0080000D02*
X0201835Y0080161D01*
X0201841Y0080321D01*
X0201851Y0080482D01*
X0201865Y0080642D01*
X0201883Y0080802D01*
X0201904Y0080961D01*
X0201930Y0081120D01*
X0201960Y0081278D01*
X0201993Y0081435D01*
X0202031Y0081592D01*
X0202072Y0081747D01*
X0202117Y0081901D01*
X0202166Y0082054D01*
X0202219Y0082206D01*
X0202275Y0082357D01*
X0202336Y0082506D01*
X0202399Y0082654D01*
X0202467Y0082800D01*
X0202538Y0082944D01*
X0202612Y0083086D01*
X0202690Y0083227D01*
X0202772Y0083365D01*
X0202857Y0083502D01*
X0202945Y0083636D01*
X0203037Y0083768D01*
X0203132Y0083898D01*
X0203230Y0084026D01*
X0203331Y0084151D01*
X0203435Y0084273D01*
X0203542Y0084393D01*
X0203652Y0084510D01*
X0203765Y0084625D01*
X0203881Y0084736D01*
X0204000Y0084845D01*
X0204121Y0084950D01*
X0204245Y0085053D01*
X0204371Y0085153D01*
X0204499Y0085249D01*
X0204630Y0085342D01*
X0204764Y0085432D01*
X0204899Y0085519D01*
X0205037Y0085602D01*
X0205176Y0085682D01*
X0205318Y0085758D01*
X0205461Y0085831D01*
X0205606Y0085900D01*
X0205753Y0085966D01*
X0205901Y0086028D01*
X0206051Y0086086D01*
X0206202Y0086141D01*
X0206355Y0086192D01*
X0206509Y0086239D01*
X0206664Y0086282D01*
X0206820Y0086321D01*
X0206976Y0086357D01*
X0207134Y0086388D01*
X0207292Y0086416D01*
X0207451Y0086440D01*
X0207611Y0086460D01*
X0207771Y0086476D01*
X0207931Y0086488D01*
X0208092Y0086496D01*
X0208253Y0086500D01*
X0208413Y0086500D01*
X0208574Y0086496D01*
X0208735Y0086488D01*
X0208895Y0086476D01*
X0209055Y0086460D01*
X0209215Y0086440D01*
X0209374Y0086416D01*
X0209532Y0086388D01*
X0209690Y0086357D01*
X0209846Y0086321D01*
X0210002Y0086282D01*
X0210157Y0086239D01*
X0210311Y0086192D01*
X0210464Y0086141D01*
X0210615Y0086086D01*
X0210765Y0086028D01*
X0210913Y0085966D01*
X0211060Y0085900D01*
X0211205Y0085831D01*
X0211348Y0085758D01*
X0211490Y0085682D01*
X0211629Y0085602D01*
X0211767Y0085519D01*
X0211902Y0085432D01*
X0212036Y0085342D01*
X0212167Y0085249D01*
X0212295Y0085153D01*
X0212421Y0085053D01*
X0212545Y0084950D01*
X0212666Y0084845D01*
X0212785Y0084736D01*
X0212901Y0084625D01*
X0213014Y0084510D01*
X0213124Y0084393D01*
X0213231Y0084273D01*
X0213335Y0084151D01*
X0213436Y0084026D01*
X0213534Y0083898D01*
X0213629Y0083768D01*
X0213721Y0083636D01*
X0213809Y0083502D01*
X0213894Y0083365D01*
X0213976Y0083227D01*
X0214054Y0083086D01*
X0214128Y0082944D01*
X0214199Y0082800D01*
X0214267Y0082654D01*
X0214330Y0082506D01*
X0214391Y0082357D01*
X0214447Y0082206D01*
X0214500Y0082054D01*
X0214549Y0081901D01*
X0214594Y0081747D01*
X0214635Y0081592D01*
X0214673Y0081435D01*
X0214706Y0081278D01*
X0214736Y0081120D01*
X0214762Y0080961D01*
X0214783Y0080802D01*
X0214801Y0080642D01*
X0214815Y0080482D01*
X0214825Y0080321D01*
X0214831Y0080161D01*
X0214833Y0080000D01*
X0214831Y0079839D01*
X0214825Y0079679D01*
X0214815Y0079518D01*
X0214801Y0079358D01*
X0214783Y0079198D01*
X0214762Y0079039D01*
X0214736Y0078880D01*
X0214706Y0078722D01*
X0214673Y0078565D01*
X0214635Y0078408D01*
X0214594Y0078253D01*
X0214549Y0078099D01*
X0214500Y0077946D01*
X0214447Y0077794D01*
X0214391Y0077643D01*
X0214330Y0077494D01*
X0214267Y0077346D01*
X0214199Y0077200D01*
X0214128Y0077056D01*
X0214054Y0076914D01*
X0213976Y0076773D01*
X0213894Y0076635D01*
X0213809Y0076498D01*
X0213721Y0076364D01*
X0213629Y0076232D01*
X0213534Y0076102D01*
X0213436Y0075974D01*
X0213335Y0075849D01*
X0213231Y0075727D01*
X0213124Y0075607D01*
X0213014Y0075490D01*
X0212901Y0075375D01*
X0212785Y0075264D01*
X0212666Y0075155D01*
X0212545Y0075050D01*
X0212421Y0074947D01*
X0212295Y0074847D01*
X0212167Y0074751D01*
X0212036Y0074658D01*
X0211902Y0074568D01*
X0211767Y0074481D01*
X0211629Y0074398D01*
X0211490Y0074318D01*
X0211348Y0074242D01*
X0211205Y0074169D01*
X0211060Y0074100D01*
X0210913Y0074034D01*
X0210765Y0073972D01*
X0210615Y0073914D01*
X0210464Y0073859D01*
X0210311Y0073808D01*
X0210157Y0073761D01*
X0210002Y0073718D01*
X0209846Y0073679D01*
X0209690Y0073643D01*
X0209532Y0073612D01*
X0209374Y0073584D01*
X0209215Y0073560D01*
X0209055Y0073540D01*
X0208895Y0073524D01*
X0208735Y0073512D01*
X0208574Y0073504D01*
X0208413Y0073500D01*
X0208253Y0073500D01*
X0208092Y0073504D01*
X0207931Y0073512D01*
X0207771Y0073524D01*
X0207611Y0073540D01*
X0207451Y0073560D01*
X0207292Y0073584D01*
X0207134Y0073612D01*
X0206976Y0073643D01*
X0206820Y0073679D01*
X0206664Y0073718D01*
X0206509Y0073761D01*
X0206355Y0073808D01*
X0206202Y0073859D01*
X0206051Y0073914D01*
X0205901Y0073972D01*
X0205753Y0074034D01*
X0205606Y0074100D01*
X0205461Y0074169D01*
X0205318Y0074242D01*
X0205176Y0074318D01*
X0205037Y0074398D01*
X0204899Y0074481D01*
X0204764Y0074568D01*
X0204630Y0074658D01*
X0204499Y0074751D01*
X0204371Y0074847D01*
X0204245Y0074947D01*
X0204121Y0075050D01*
X0204000Y0075155D01*
X0203881Y0075264D01*
X0203765Y0075375D01*
X0203652Y0075490D01*
X0203542Y0075607D01*
X0203435Y0075727D01*
X0203331Y0075849D01*
X0203230Y0075974D01*
X0203132Y0076102D01*
X0203037Y0076232D01*
X0202945Y0076364D01*
X0202857Y0076498D01*
X0202772Y0076635D01*
X0202690Y0076773D01*
X0202612Y0076914D01*
X0202538Y0077056D01*
X0202467Y0077200D01*
X0202399Y0077346D01*
X0202336Y0077494D01*
X0202275Y0077643D01*
X0202219Y0077794D01*
X0202166Y0077946D01*
X0202117Y0078099D01*
X0202072Y0078253D01*
X0202031Y0078408D01*
X0201993Y0078565D01*
X0201960Y0078722D01*
X0201930Y0078880D01*
X0201904Y0079039D01*
X0201883Y0079198D01*
X0201865Y0079358D01*
X0201851Y0079518D01*
X0201841Y0079679D01*
X0201835Y0079839D01*
X0201833Y0080000D01*
X0181778Y0138504D02*
X0181780Y0138583D01*
X0181786Y0138662D01*
X0181796Y0138741D01*
X0181810Y0138819D01*
X0181827Y0138896D01*
X0181849Y0138972D01*
X0181874Y0139047D01*
X0181904Y0139120D01*
X0181936Y0139192D01*
X0181973Y0139263D01*
X0182013Y0139331D01*
X0182056Y0139397D01*
X0182102Y0139461D01*
X0182152Y0139523D01*
X0182205Y0139582D01*
X0182260Y0139638D01*
X0182319Y0139692D01*
X0182380Y0139742D01*
X0182443Y0139790D01*
X0182509Y0139834D01*
X0182577Y0139875D01*
X0182647Y0139912D01*
X0182718Y0139946D01*
X0182792Y0139976D01*
X0182866Y0140002D01*
X0182942Y0140024D01*
X0183019Y0140043D01*
X0183097Y0140058D01*
X0183175Y0140069D01*
X0183254Y0140076D01*
X0183333Y0140079D01*
X0183412Y0140078D01*
X0183491Y0140073D01*
X0183570Y0140064D01*
X0183648Y0140051D01*
X0183725Y0140034D01*
X0183802Y0140014D01*
X0183877Y0139989D01*
X0183951Y0139961D01*
X0184024Y0139929D01*
X0184094Y0139894D01*
X0184163Y0139855D01*
X0184230Y0139812D01*
X0184295Y0139766D01*
X0184357Y0139718D01*
X0184417Y0139666D01*
X0184474Y0139611D01*
X0184528Y0139553D01*
X0184579Y0139493D01*
X0184627Y0139430D01*
X0184672Y0139365D01*
X0184714Y0139297D01*
X0184752Y0139228D01*
X0184786Y0139157D01*
X0184817Y0139084D01*
X0184845Y0139009D01*
X0184868Y0138934D01*
X0184888Y0138857D01*
X0184904Y0138780D01*
X0184916Y0138701D01*
X0184924Y0138623D01*
X0184928Y0138544D01*
X0184928Y0138464D01*
X0184924Y0138385D01*
X0184916Y0138307D01*
X0184904Y0138228D01*
X0184888Y0138151D01*
X0184868Y0138074D01*
X0184845Y0137999D01*
X0184817Y0137924D01*
X0184786Y0137851D01*
X0184752Y0137780D01*
X0184714Y0137711D01*
X0184672Y0137643D01*
X0184627Y0137578D01*
X0184579Y0137515D01*
X0184528Y0137455D01*
X0184474Y0137397D01*
X0184417Y0137342D01*
X0184357Y0137290D01*
X0184295Y0137242D01*
X0184230Y0137196D01*
X0184163Y0137153D01*
X0184094Y0137114D01*
X0184024Y0137079D01*
X0183951Y0137047D01*
X0183877Y0137019D01*
X0183802Y0136994D01*
X0183725Y0136974D01*
X0183648Y0136957D01*
X0183570Y0136944D01*
X0183491Y0136935D01*
X0183412Y0136930D01*
X0183333Y0136929D01*
X0183254Y0136932D01*
X0183175Y0136939D01*
X0183097Y0136950D01*
X0183019Y0136965D01*
X0182942Y0136984D01*
X0182866Y0137006D01*
X0182792Y0137032D01*
X0182718Y0137062D01*
X0182647Y0137096D01*
X0182577Y0137133D01*
X0182509Y0137174D01*
X0182443Y0137218D01*
X0182380Y0137266D01*
X0182319Y0137316D01*
X0182260Y0137370D01*
X0182205Y0137426D01*
X0182152Y0137485D01*
X0182102Y0137547D01*
X0182056Y0137611D01*
X0182013Y0137677D01*
X0181973Y0137745D01*
X0181936Y0137816D01*
X0181904Y0137888D01*
X0181874Y0137961D01*
X0181849Y0138036D01*
X0181827Y0138112D01*
X0181810Y0138189D01*
X0181796Y0138267D01*
X0181786Y0138346D01*
X0181780Y0138425D01*
X0181778Y0138504D01*
X0146739Y0138504D02*
X0146741Y0138583D01*
X0146747Y0138662D01*
X0146757Y0138741D01*
X0146771Y0138819D01*
X0146788Y0138896D01*
X0146810Y0138972D01*
X0146835Y0139047D01*
X0146865Y0139120D01*
X0146897Y0139192D01*
X0146934Y0139263D01*
X0146974Y0139331D01*
X0147017Y0139397D01*
X0147063Y0139461D01*
X0147113Y0139523D01*
X0147166Y0139582D01*
X0147221Y0139638D01*
X0147280Y0139692D01*
X0147341Y0139742D01*
X0147404Y0139790D01*
X0147470Y0139834D01*
X0147538Y0139875D01*
X0147608Y0139912D01*
X0147679Y0139946D01*
X0147753Y0139976D01*
X0147827Y0140002D01*
X0147903Y0140024D01*
X0147980Y0140043D01*
X0148058Y0140058D01*
X0148136Y0140069D01*
X0148215Y0140076D01*
X0148294Y0140079D01*
X0148373Y0140078D01*
X0148452Y0140073D01*
X0148531Y0140064D01*
X0148609Y0140051D01*
X0148686Y0140034D01*
X0148763Y0140014D01*
X0148838Y0139989D01*
X0148912Y0139961D01*
X0148985Y0139929D01*
X0149055Y0139894D01*
X0149124Y0139855D01*
X0149191Y0139812D01*
X0149256Y0139766D01*
X0149318Y0139718D01*
X0149378Y0139666D01*
X0149435Y0139611D01*
X0149489Y0139553D01*
X0149540Y0139493D01*
X0149588Y0139430D01*
X0149633Y0139365D01*
X0149675Y0139297D01*
X0149713Y0139228D01*
X0149747Y0139157D01*
X0149778Y0139084D01*
X0149806Y0139009D01*
X0149829Y0138934D01*
X0149849Y0138857D01*
X0149865Y0138780D01*
X0149877Y0138701D01*
X0149885Y0138623D01*
X0149889Y0138544D01*
X0149889Y0138464D01*
X0149885Y0138385D01*
X0149877Y0138307D01*
X0149865Y0138228D01*
X0149849Y0138151D01*
X0149829Y0138074D01*
X0149806Y0137999D01*
X0149778Y0137924D01*
X0149747Y0137851D01*
X0149713Y0137780D01*
X0149675Y0137711D01*
X0149633Y0137643D01*
X0149588Y0137578D01*
X0149540Y0137515D01*
X0149489Y0137455D01*
X0149435Y0137397D01*
X0149378Y0137342D01*
X0149318Y0137290D01*
X0149256Y0137242D01*
X0149191Y0137196D01*
X0149124Y0137153D01*
X0149055Y0137114D01*
X0148985Y0137079D01*
X0148912Y0137047D01*
X0148838Y0137019D01*
X0148763Y0136994D01*
X0148686Y0136974D01*
X0148609Y0136957D01*
X0148531Y0136944D01*
X0148452Y0136935D01*
X0148373Y0136930D01*
X0148294Y0136929D01*
X0148215Y0136932D01*
X0148136Y0136939D01*
X0148058Y0136950D01*
X0147980Y0136965D01*
X0147903Y0136984D01*
X0147827Y0137006D01*
X0147753Y0137032D01*
X0147679Y0137062D01*
X0147608Y0137096D01*
X0147538Y0137133D01*
X0147470Y0137174D01*
X0147404Y0137218D01*
X0147341Y0137266D01*
X0147280Y0137316D01*
X0147221Y0137370D01*
X0147166Y0137426D01*
X0147113Y0137485D01*
X0147063Y0137547D01*
X0147017Y0137611D01*
X0146974Y0137677D01*
X0146934Y0137745D01*
X0146897Y0137816D01*
X0146865Y0137888D01*
X0146835Y0137961D01*
X0146810Y0138036D01*
X0146788Y0138112D01*
X0146771Y0138189D01*
X0146757Y0138267D01*
X0146747Y0138346D01*
X0146741Y0138425D01*
X0146739Y0138504D01*
X0201833Y0165000D02*
X0201835Y0165161D01*
X0201841Y0165321D01*
X0201851Y0165482D01*
X0201865Y0165642D01*
X0201883Y0165802D01*
X0201904Y0165961D01*
X0201930Y0166120D01*
X0201960Y0166278D01*
X0201993Y0166435D01*
X0202031Y0166592D01*
X0202072Y0166747D01*
X0202117Y0166901D01*
X0202166Y0167054D01*
X0202219Y0167206D01*
X0202275Y0167357D01*
X0202336Y0167506D01*
X0202399Y0167654D01*
X0202467Y0167800D01*
X0202538Y0167944D01*
X0202612Y0168086D01*
X0202690Y0168227D01*
X0202772Y0168365D01*
X0202857Y0168502D01*
X0202945Y0168636D01*
X0203037Y0168768D01*
X0203132Y0168898D01*
X0203230Y0169026D01*
X0203331Y0169151D01*
X0203435Y0169273D01*
X0203542Y0169393D01*
X0203652Y0169510D01*
X0203765Y0169625D01*
X0203881Y0169736D01*
X0204000Y0169845D01*
X0204121Y0169950D01*
X0204245Y0170053D01*
X0204371Y0170153D01*
X0204499Y0170249D01*
X0204630Y0170342D01*
X0204764Y0170432D01*
X0204899Y0170519D01*
X0205037Y0170602D01*
X0205176Y0170682D01*
X0205318Y0170758D01*
X0205461Y0170831D01*
X0205606Y0170900D01*
X0205753Y0170966D01*
X0205901Y0171028D01*
X0206051Y0171086D01*
X0206202Y0171141D01*
X0206355Y0171192D01*
X0206509Y0171239D01*
X0206664Y0171282D01*
X0206820Y0171321D01*
X0206976Y0171357D01*
X0207134Y0171388D01*
X0207292Y0171416D01*
X0207451Y0171440D01*
X0207611Y0171460D01*
X0207771Y0171476D01*
X0207931Y0171488D01*
X0208092Y0171496D01*
X0208253Y0171500D01*
X0208413Y0171500D01*
X0208574Y0171496D01*
X0208735Y0171488D01*
X0208895Y0171476D01*
X0209055Y0171460D01*
X0209215Y0171440D01*
X0209374Y0171416D01*
X0209532Y0171388D01*
X0209690Y0171357D01*
X0209846Y0171321D01*
X0210002Y0171282D01*
X0210157Y0171239D01*
X0210311Y0171192D01*
X0210464Y0171141D01*
X0210615Y0171086D01*
X0210765Y0171028D01*
X0210913Y0170966D01*
X0211060Y0170900D01*
X0211205Y0170831D01*
X0211348Y0170758D01*
X0211490Y0170682D01*
X0211629Y0170602D01*
X0211767Y0170519D01*
X0211902Y0170432D01*
X0212036Y0170342D01*
X0212167Y0170249D01*
X0212295Y0170153D01*
X0212421Y0170053D01*
X0212545Y0169950D01*
X0212666Y0169845D01*
X0212785Y0169736D01*
X0212901Y0169625D01*
X0213014Y0169510D01*
X0213124Y0169393D01*
X0213231Y0169273D01*
X0213335Y0169151D01*
X0213436Y0169026D01*
X0213534Y0168898D01*
X0213629Y0168768D01*
X0213721Y0168636D01*
X0213809Y0168502D01*
X0213894Y0168365D01*
X0213976Y0168227D01*
X0214054Y0168086D01*
X0214128Y0167944D01*
X0214199Y0167800D01*
X0214267Y0167654D01*
X0214330Y0167506D01*
X0214391Y0167357D01*
X0214447Y0167206D01*
X0214500Y0167054D01*
X0214549Y0166901D01*
X0214594Y0166747D01*
X0214635Y0166592D01*
X0214673Y0166435D01*
X0214706Y0166278D01*
X0214736Y0166120D01*
X0214762Y0165961D01*
X0214783Y0165802D01*
X0214801Y0165642D01*
X0214815Y0165482D01*
X0214825Y0165321D01*
X0214831Y0165161D01*
X0214833Y0165000D01*
X0214831Y0164839D01*
X0214825Y0164679D01*
X0214815Y0164518D01*
X0214801Y0164358D01*
X0214783Y0164198D01*
X0214762Y0164039D01*
X0214736Y0163880D01*
X0214706Y0163722D01*
X0214673Y0163565D01*
X0214635Y0163408D01*
X0214594Y0163253D01*
X0214549Y0163099D01*
X0214500Y0162946D01*
X0214447Y0162794D01*
X0214391Y0162643D01*
X0214330Y0162494D01*
X0214267Y0162346D01*
X0214199Y0162200D01*
X0214128Y0162056D01*
X0214054Y0161914D01*
X0213976Y0161773D01*
X0213894Y0161635D01*
X0213809Y0161498D01*
X0213721Y0161364D01*
X0213629Y0161232D01*
X0213534Y0161102D01*
X0213436Y0160974D01*
X0213335Y0160849D01*
X0213231Y0160727D01*
X0213124Y0160607D01*
X0213014Y0160490D01*
X0212901Y0160375D01*
X0212785Y0160264D01*
X0212666Y0160155D01*
X0212545Y0160050D01*
X0212421Y0159947D01*
X0212295Y0159847D01*
X0212167Y0159751D01*
X0212036Y0159658D01*
X0211902Y0159568D01*
X0211767Y0159481D01*
X0211629Y0159398D01*
X0211490Y0159318D01*
X0211348Y0159242D01*
X0211205Y0159169D01*
X0211060Y0159100D01*
X0210913Y0159034D01*
X0210765Y0158972D01*
X0210615Y0158914D01*
X0210464Y0158859D01*
X0210311Y0158808D01*
X0210157Y0158761D01*
X0210002Y0158718D01*
X0209846Y0158679D01*
X0209690Y0158643D01*
X0209532Y0158612D01*
X0209374Y0158584D01*
X0209215Y0158560D01*
X0209055Y0158540D01*
X0208895Y0158524D01*
X0208735Y0158512D01*
X0208574Y0158504D01*
X0208413Y0158500D01*
X0208253Y0158500D01*
X0208092Y0158504D01*
X0207931Y0158512D01*
X0207771Y0158524D01*
X0207611Y0158540D01*
X0207451Y0158560D01*
X0207292Y0158584D01*
X0207134Y0158612D01*
X0206976Y0158643D01*
X0206820Y0158679D01*
X0206664Y0158718D01*
X0206509Y0158761D01*
X0206355Y0158808D01*
X0206202Y0158859D01*
X0206051Y0158914D01*
X0205901Y0158972D01*
X0205753Y0159034D01*
X0205606Y0159100D01*
X0205461Y0159169D01*
X0205318Y0159242D01*
X0205176Y0159318D01*
X0205037Y0159398D01*
X0204899Y0159481D01*
X0204764Y0159568D01*
X0204630Y0159658D01*
X0204499Y0159751D01*
X0204371Y0159847D01*
X0204245Y0159947D01*
X0204121Y0160050D01*
X0204000Y0160155D01*
X0203881Y0160264D01*
X0203765Y0160375D01*
X0203652Y0160490D01*
X0203542Y0160607D01*
X0203435Y0160727D01*
X0203331Y0160849D01*
X0203230Y0160974D01*
X0203132Y0161102D01*
X0203037Y0161232D01*
X0202945Y0161364D01*
X0202857Y0161498D01*
X0202772Y0161635D01*
X0202690Y0161773D01*
X0202612Y0161914D01*
X0202538Y0162056D01*
X0202467Y0162200D01*
X0202399Y0162346D01*
X0202336Y0162494D01*
X0202275Y0162643D01*
X0202219Y0162794D01*
X0202166Y0162946D01*
X0202117Y0163099D01*
X0202072Y0163253D01*
X0202031Y0163408D01*
X0201993Y0163565D01*
X0201960Y0163722D01*
X0201930Y0163880D01*
X0201904Y0164039D01*
X0201883Y0164198D01*
X0201865Y0164358D01*
X0201851Y0164518D01*
X0201841Y0164679D01*
X0201835Y0164839D01*
X0201833Y0165000D01*
M02*
