G75*
%MOIN*%
%OFA0B0*%
%FSLAX25Y25*%
%IPPOS*%
%LPD*%
%AMOC8*
5,1,8,0,0,1.08239X$1,22.5*
%
%ADD10R,0.04331X0.03937*%
%ADD11R,0.03268X0.02480*%
%ADD12R,0.04724X0.02165*%
%ADD13R,0.02165X0.04724*%
%ADD14R,0.02362X0.04724*%
%ADD15R,0.03937X0.04331*%
%ADD16R,0.02756X0.02756*%
%ADD17R,0.03150X0.04724*%
%ADD18R,0.03150X0.10630*%
D10*
X0134987Y0090000D03*
X0141680Y0090000D03*
X0141680Y0110000D03*
X0134987Y0110000D03*
X0169987Y0140000D03*
X0176680Y0140000D03*
X0179987Y0150000D03*
X0186680Y0150000D03*
X0186680Y0170000D03*
X0179987Y0170000D03*
X0171680Y0170000D03*
X0164987Y0170000D03*
X0146680Y0166500D03*
X0139987Y0166500D03*
X0139987Y0161000D03*
X0146680Y0161000D03*
X0146680Y0155500D03*
X0139987Y0155500D03*
X0139987Y0150000D03*
X0146680Y0150000D03*
D11*
X0158333Y0145472D03*
X0158333Y0154528D03*
D12*
X0143452Y0143740D03*
X0143452Y0140000D03*
X0143452Y0136260D03*
X0133215Y0136260D03*
X0133215Y0143740D03*
D13*
X0164593Y0149881D03*
X0168333Y0149881D03*
X0172073Y0149881D03*
X0172073Y0160119D03*
X0164593Y0160119D03*
D14*
X0163333Y0088976D03*
X0168333Y0088976D03*
X0173333Y0088976D03*
X0178333Y0088976D03*
X0183333Y0088976D03*
X0188333Y0088976D03*
X0193333Y0088976D03*
X0193333Y0111024D03*
X0188333Y0111024D03*
X0183333Y0111024D03*
X0178333Y0111024D03*
X0173333Y0111024D03*
X0168333Y0111024D03*
X0163333Y0111024D03*
D15*
X0153333Y0103346D03*
X0153333Y0096654D03*
X0168333Y0121654D03*
X0168333Y0128346D03*
X0188333Y0128346D03*
X0188333Y0121654D03*
D16*
X0140892Y0103642D03*
X0135774Y0103642D03*
X0138333Y0096358D03*
D17*
X0179790Y0160000D03*
X0186877Y0160000D03*
D18*
X0147664Y0125000D03*
X0139003Y0125000D03*
M02*
