G75*
%MOIN*%
%OFA0B0*%
%FSLAX25Y25*%
%IPPOS*%
%LPD*%
%AMOC8*
5,1,8,0,0,1.08239X$1,22.5*
%
%ADD10C,0.00600*%
%ADD11C,0.07400*%
%ADD12R,0.01181X0.09843*%
%ADD13C,0.03937*%
%ADD14C,0.02400*%
%ADD15C,0.02700*%
%ADD16C,0.00800*%
%ADD17C,0.01000*%
%ADD18C,0.01600*%
D10*
X0151133Y0083800D02*
X0153022Y0083800D01*
X0152078Y0083800D02*
X0152078Y0087200D01*
X0153022Y0086444D01*
X0156622Y0085500D02*
X0156620Y0085402D01*
X0156615Y0085305D01*
X0156607Y0085207D01*
X0156595Y0085110D01*
X0156579Y0085014D01*
X0156561Y0084918D01*
X0156539Y0084822D01*
X0156514Y0084728D01*
X0156485Y0084634D01*
X0156453Y0084542D01*
X0156418Y0084451D01*
X0156380Y0084361D01*
X0156339Y0084272D01*
X0156433Y0084556D02*
X0154922Y0086444D01*
X0155017Y0086728D02*
X0155035Y0086775D01*
X0155057Y0086821D01*
X0155082Y0086866D01*
X0155110Y0086908D01*
X0155141Y0086949D01*
X0155175Y0086987D01*
X0155212Y0087022D01*
X0155251Y0087055D01*
X0155293Y0087084D01*
X0155336Y0087111D01*
X0155382Y0087134D01*
X0155429Y0087154D01*
X0155477Y0087170D01*
X0155526Y0087183D01*
X0155576Y0087193D01*
X0155627Y0087198D01*
X0155678Y0087200D01*
X0155729Y0087198D01*
X0155780Y0087193D01*
X0155830Y0087183D01*
X0155879Y0087170D01*
X0155927Y0087154D01*
X0155974Y0087134D01*
X0156020Y0087111D01*
X0156063Y0087084D01*
X0156105Y0087055D01*
X0156144Y0087022D01*
X0156181Y0086987D01*
X0156215Y0086949D01*
X0156246Y0086908D01*
X0156274Y0086866D01*
X0156299Y0086821D01*
X0156321Y0086775D01*
X0156339Y0086728D01*
X0155016Y0086728D02*
X0154975Y0086639D01*
X0154937Y0086549D01*
X0154902Y0086458D01*
X0154870Y0086366D01*
X0154841Y0086272D01*
X0154816Y0086178D01*
X0154794Y0086082D01*
X0154776Y0085986D01*
X0154760Y0085890D01*
X0154748Y0085793D01*
X0154740Y0085695D01*
X0154735Y0085598D01*
X0154733Y0085500D01*
X0156622Y0085500D02*
X0156620Y0085598D01*
X0156615Y0085695D01*
X0156607Y0085793D01*
X0156595Y0085890D01*
X0156579Y0085986D01*
X0156561Y0086082D01*
X0156539Y0086178D01*
X0156514Y0086272D01*
X0156485Y0086366D01*
X0156453Y0086458D01*
X0156418Y0086549D01*
X0156380Y0086639D01*
X0156339Y0086728D01*
X0154733Y0085500D02*
X0154735Y0085402D01*
X0154740Y0085305D01*
X0154748Y0085207D01*
X0154760Y0085110D01*
X0154776Y0085014D01*
X0154794Y0084918D01*
X0154816Y0084822D01*
X0154841Y0084728D01*
X0154870Y0084634D01*
X0154902Y0084542D01*
X0154937Y0084451D01*
X0154975Y0084361D01*
X0155016Y0084272D01*
X0155017Y0084272D02*
X0155035Y0084225D01*
X0155057Y0084179D01*
X0155082Y0084134D01*
X0155110Y0084092D01*
X0155141Y0084051D01*
X0155175Y0084013D01*
X0155212Y0083978D01*
X0155251Y0083945D01*
X0155293Y0083916D01*
X0155336Y0083889D01*
X0155382Y0083866D01*
X0155429Y0083846D01*
X0155477Y0083830D01*
X0155526Y0083817D01*
X0155576Y0083807D01*
X0155627Y0083802D01*
X0155678Y0083800D01*
X0155729Y0083802D01*
X0155780Y0083807D01*
X0155830Y0083817D01*
X0155879Y0083830D01*
X0155927Y0083846D01*
X0155974Y0083866D01*
X0156020Y0083889D01*
X0156063Y0083916D01*
X0156105Y0083945D01*
X0156144Y0083978D01*
X0156181Y0084013D01*
X0156215Y0084051D01*
X0156246Y0084092D01*
X0156274Y0084134D01*
X0156299Y0084179D01*
X0156321Y0084225D01*
X0156339Y0084272D01*
X0158144Y0083800D02*
X0160411Y0087200D01*
X0158144Y0087200D02*
X0160411Y0083800D01*
D11*
X0158333Y0065000D03*
X0148333Y0065000D03*
X0138333Y0065000D03*
X0168333Y0065000D03*
X0178333Y0065000D03*
X0188333Y0065000D03*
X0198333Y0065000D03*
D12*
X0184534Y0124921D03*
X0182566Y0124921D03*
X0180597Y0124921D03*
X0178629Y0124921D03*
X0176660Y0124921D03*
X0174692Y0124921D03*
X0172723Y0124921D03*
X0170755Y0124921D03*
X0168786Y0124921D03*
X0166818Y0124921D03*
X0164849Y0124921D03*
X0162881Y0124921D03*
X0160912Y0124921D03*
X0158944Y0124921D03*
X0156975Y0124921D03*
X0155007Y0124921D03*
X0153038Y0124921D03*
X0151070Y0124921D03*
X0149101Y0124921D03*
X0147133Y0124921D03*
D13*
X0133333Y0170000D03*
X0213333Y0065000D03*
D14*
X0198333Y0090000D02*
X0148333Y0090000D01*
X0148333Y0115000D01*
X0138333Y0100000D02*
X0138333Y0133500D01*
X0138333Y0140000D01*
X0153333Y0165000D02*
X0163333Y0165000D01*
X0168333Y0170000D01*
X0175833Y0170000D01*
X0138333Y0100000D02*
X0138333Y0065000D01*
X0148333Y0065000D02*
X0148333Y0090000D01*
X0148333Y0085000D02*
X0148333Y0065000D01*
D15*
X0198333Y0090000D03*
X0208333Y0098000D03*
X0188333Y0105000D03*
X0183333Y0105000D03*
X0178333Y0105000D03*
X0173333Y0105000D03*
X0158333Y0110000D03*
X0151833Y0111500D03*
X0148333Y0115000D03*
X0156833Y0118000D03*
X0161333Y0118000D03*
X0133333Y0115000D03*
X0138333Y0100000D03*
X0193333Y0116000D03*
X0203333Y0115000D03*
X0196333Y0132000D03*
X0190833Y0137500D03*
X0179987Y0144654D03*
X0194333Y0150000D03*
X0190833Y0155000D03*
X0183333Y0155000D03*
X0158333Y0150000D03*
X0154833Y0157000D03*
X0151333Y0161000D03*
X0153333Y0165000D03*
X0134833Y0161000D03*
X0138333Y0140000D03*
X0169987Y0134654D03*
X0175833Y0170000D03*
X0193333Y0170000D03*
D16*
X0130333Y0167953D02*
X0130333Y0062000D01*
X0134209Y0062000D01*
X0133971Y0062327D01*
X0133607Y0063042D01*
X0133359Y0063806D01*
X0133233Y0064599D01*
X0133233Y0064600D01*
X0137933Y0064600D01*
X0137933Y0065400D01*
X0133233Y0065400D01*
X0133233Y0065401D01*
X0133359Y0066194D01*
X0133607Y0066958D01*
X0133971Y0067673D01*
X0134443Y0068322D01*
X0135011Y0068890D01*
X0135660Y0069362D01*
X0136376Y0069726D01*
X0137139Y0069974D01*
X0137932Y0070100D01*
X0137933Y0070100D01*
X0137933Y0065400D01*
X0138733Y0065400D01*
X0138733Y0070100D01*
X0138735Y0070100D01*
X0139528Y0069974D01*
X0140291Y0069726D01*
X0141006Y0069362D01*
X0141656Y0068890D01*
X0142223Y0068322D01*
X0142695Y0067673D01*
X0143060Y0066958D01*
X0143213Y0066487D01*
X0143840Y0068002D01*
X0145331Y0069493D01*
X0145533Y0069577D01*
X0145533Y0114051D01*
X0145383Y0114413D01*
X0145383Y0115587D01*
X0145832Y0116671D01*
X0146662Y0117501D01*
X0147747Y0117950D01*
X0148920Y0117950D01*
X0150004Y0117501D01*
X0150834Y0116671D01*
X0151283Y0115587D01*
X0151283Y0114450D01*
X0151389Y0114450D01*
X0154021Y0117081D01*
X0153883Y0117413D01*
X0153883Y0118400D01*
X0147848Y0118400D01*
X0147648Y0118600D01*
X0147133Y0118600D01*
X0147133Y0119115D01*
X0147132Y0119115D01*
X0147132Y0118600D01*
X0146358Y0118600D01*
X0146002Y0118695D01*
X0145682Y0118880D01*
X0145422Y0119140D01*
X0145237Y0119460D01*
X0145142Y0119816D01*
X0145142Y0124921D01*
X0146910Y0124921D01*
X0146910Y0124921D01*
X0145142Y0124921D01*
X0145142Y0130027D01*
X0145237Y0130383D01*
X0145422Y0130702D01*
X0145682Y0130963D01*
X0146002Y0131147D01*
X0146358Y0131243D01*
X0147001Y0131243D01*
X0147001Y0132138D01*
X0149233Y0134370D01*
X0150463Y0135600D01*
X0159463Y0135600D01*
X0162233Y0138370D01*
X0162233Y0143130D01*
X0158313Y0147050D01*
X0157747Y0147050D01*
X0156662Y0147499D01*
X0155832Y0148329D01*
X0155481Y0149178D01*
X0155433Y0149130D01*
X0155433Y0149130D01*
X0154203Y0147900D01*
X0139203Y0147900D01*
X0135433Y0144130D01*
X0135433Y0117072D01*
X0135834Y0116671D01*
X0136283Y0115587D01*
X0136283Y0114413D01*
X0135834Y0113329D01*
X0135004Y0112499D01*
X0133920Y0112050D01*
X0132747Y0112050D01*
X0131662Y0112499D01*
X0130832Y0113329D01*
X0130383Y0114413D01*
X0130383Y0115587D01*
X0130832Y0116671D01*
X0131233Y0117072D01*
X0131233Y0145870D01*
X0137463Y0152100D01*
X0152463Y0152100D01*
X0167463Y0167100D01*
X0184203Y0167100D01*
X0185433Y0165870D01*
X0185433Y0165870D01*
X0188061Y0163242D01*
X0188061Y0163242D01*
X0189292Y0162012D01*
X0189292Y0146988D01*
X0183982Y0141679D01*
X0183985Y0141679D01*
X0185151Y0141195D01*
X0186044Y0140302D01*
X0186528Y0139135D01*
X0186528Y0137872D01*
X0186044Y0136706D01*
X0185151Y0135812D01*
X0183985Y0135329D01*
X0182721Y0135329D01*
X0181555Y0135812D01*
X0180662Y0136706D01*
X0180178Y0137872D01*
X0180178Y0137875D01*
X0176792Y0134488D01*
X0176792Y0131443D01*
X0181850Y0131443D01*
X0182050Y0131243D01*
X0182566Y0131243D01*
X0182566Y0131242D02*
X0182566Y0130727D01*
X0182566Y0130727D01*
X0182566Y0131243D01*
X0182566Y0131242D02*
X0183340Y0131243D01*
X0183550Y0131186D01*
X0183759Y0131243D01*
X0184534Y0131243D01*
X0184534Y0130109D01*
X0184534Y0130109D01*
X0184534Y0131242D01*
X0185309Y0131243D01*
X0185665Y0131147D01*
X0185984Y0130963D01*
X0186245Y0130702D01*
X0186429Y0130383D01*
X0186525Y0130027D01*
X0186525Y0124921D01*
X0184534Y0124921D01*
X0182788Y0124921D01*
X0182788Y0124921D01*
X0184534Y0124921D01*
X0184534Y0124921D01*
X0184534Y0124921D01*
X0186525Y0124921D01*
X0186525Y0119816D01*
X0186429Y0119460D01*
X0186245Y0119140D01*
X0185984Y0118880D01*
X0185665Y0118695D01*
X0185309Y0118600D01*
X0184534Y0118600D01*
X0184534Y0119733D01*
X0184534Y0119734D01*
X0184534Y0118600D01*
X0183759Y0118600D01*
X0183550Y0118656D01*
X0183340Y0118600D01*
X0182697Y0118600D01*
X0182697Y0118106D01*
X0183203Y0117600D01*
X0190803Y0117600D01*
X0190832Y0117671D01*
X0191662Y0118501D01*
X0192747Y0118950D01*
X0193920Y0118950D01*
X0195004Y0118501D01*
X0195834Y0117671D01*
X0196283Y0116587D01*
X0196283Y0115600D01*
X0200389Y0115600D01*
X0200832Y0116671D01*
X0201662Y0117501D01*
X0202747Y0117950D01*
X0203920Y0117950D01*
X0205004Y0117501D01*
X0205834Y0116671D01*
X0206283Y0115587D01*
X0206283Y0114413D01*
X0205834Y0113329D01*
X0205004Y0112499D01*
X0203920Y0112050D01*
X0203353Y0112050D01*
X0202703Y0111400D01*
X0184403Y0111400D01*
X0187853Y0107950D01*
X0188920Y0107950D01*
X0190004Y0107501D01*
X0190834Y0106671D01*
X0191283Y0105587D01*
X0191283Y0104413D01*
X0190834Y0103329D01*
X0190004Y0102499D01*
X0188920Y0102050D01*
X0187747Y0102050D01*
X0186662Y0102499D01*
X0185833Y0103328D01*
X0185004Y0102499D01*
X0183920Y0102050D01*
X0182747Y0102050D01*
X0181662Y0102499D01*
X0180833Y0103328D01*
X0180004Y0102499D01*
X0178920Y0102050D01*
X0177747Y0102050D01*
X0176662Y0102499D01*
X0175833Y0103328D01*
X0175004Y0102499D01*
X0173920Y0102050D01*
X0172747Y0102050D01*
X0171662Y0102499D01*
X0170832Y0103329D01*
X0170383Y0104413D01*
X0170383Y0104980D01*
X0162749Y0112614D01*
X0162749Y0118400D01*
X0159783Y0118400D01*
X0159783Y0117413D01*
X0159334Y0116329D01*
X0159233Y0116228D01*
X0159233Y0116023D01*
X0158868Y0115141D01*
X0158193Y0114465D01*
X0154783Y0111056D01*
X0154783Y0110913D01*
X0154334Y0109829D01*
X0153504Y0108999D01*
X0152420Y0108550D01*
X0151247Y0108550D01*
X0151133Y0108597D01*
X0151133Y0092800D01*
X0197384Y0092800D01*
X0197747Y0092950D01*
X0198920Y0092950D01*
X0200004Y0092501D01*
X0200834Y0091671D01*
X0201283Y0090587D01*
X0201283Y0089413D01*
X0200834Y0088329D01*
X0200004Y0087499D01*
X0198920Y0087050D01*
X0197747Y0087050D01*
X0197384Y0087200D01*
X0162349Y0087200D01*
X0162429Y0086801D01*
X0161561Y0085500D01*
X0162429Y0084199D01*
X0162120Y0082656D01*
X0160810Y0081783D01*
X0159278Y0082089D01*
X0157745Y0081783D01*
X0157022Y0082265D01*
X0156511Y0081900D01*
X0154845Y0081900D01*
X0154241Y0082332D01*
X0153809Y0081900D01*
X0151133Y0081900D01*
X0151133Y0069577D01*
X0151336Y0069493D01*
X0152826Y0068002D01*
X0153333Y0066778D01*
X0153840Y0068002D01*
X0155331Y0069493D01*
X0157279Y0070300D01*
X0159388Y0070300D01*
X0161336Y0069493D01*
X0162826Y0068002D01*
X0163333Y0066778D01*
X0163840Y0068002D01*
X0165331Y0069493D01*
X0167279Y0070300D01*
X0169388Y0070300D01*
X0171336Y0069493D01*
X0172826Y0068002D01*
X0173333Y0066778D01*
X0173840Y0068002D01*
X0175331Y0069493D01*
X0177279Y0070300D01*
X0179388Y0070300D01*
X0181336Y0069493D01*
X0182826Y0068002D01*
X0183333Y0066778D01*
X0183840Y0068002D01*
X0185331Y0069493D01*
X0187279Y0070300D01*
X0189388Y0070300D01*
X0191336Y0069493D01*
X0192826Y0068002D01*
X0193333Y0066778D01*
X0193840Y0068002D01*
X0195331Y0069493D01*
X0197279Y0070300D01*
X0199388Y0070300D01*
X0201336Y0069493D01*
X0202826Y0068002D01*
X0203633Y0066054D01*
X0203633Y0063946D01*
X0202827Y0062000D01*
X0211287Y0062000D01*
X0210308Y0062979D01*
X0209765Y0064290D01*
X0209765Y0065710D01*
X0210308Y0067021D01*
X0211312Y0068025D01*
X0212623Y0068568D01*
X0214043Y0068568D01*
X0215355Y0068025D01*
X0216259Y0067120D01*
X0216265Y0075138D01*
X0215567Y0073930D01*
X0215567Y0073930D01*
X0215567Y0073930D01*
X0213055Y0071822D01*
X0213055Y0071822D01*
X0209973Y0070700D01*
X0206693Y0070700D01*
X0203612Y0071822D01*
X0203612Y0071822D01*
X0201099Y0073930D01*
X0201099Y0073930D01*
X0199459Y0076770D01*
X0198890Y0080000D01*
X0198890Y0080000D01*
X0199459Y0083230D01*
X0199459Y0083230D01*
X0201099Y0086070D01*
X0201099Y0086070D01*
X0201099Y0086070D01*
X0203612Y0088178D01*
X0203612Y0088178D01*
X0206693Y0089300D01*
X0209973Y0089300D01*
X0213055Y0088178D01*
X0213055Y0088178D01*
X0215567Y0086070D01*
X0215567Y0086070D01*
X0216272Y0084850D01*
X0216323Y0160239D01*
X0215567Y0158930D01*
X0215567Y0158930D01*
X0215567Y0158930D01*
X0213055Y0156822D01*
X0213055Y0156822D01*
X0209973Y0155700D01*
X0206693Y0155700D01*
X0203612Y0156822D01*
X0203612Y0156822D01*
X0201099Y0158930D01*
X0201099Y0158930D01*
X0199459Y0161770D01*
X0199459Y0161770D01*
X0198890Y0165000D01*
X0198890Y0165000D01*
X0199459Y0168230D01*
X0199459Y0168230D01*
X0201099Y0171070D01*
X0201099Y0171070D01*
X0201099Y0171070D01*
X0203399Y0173000D01*
X0135380Y0173000D01*
X0136359Y0172021D01*
X0136902Y0170710D01*
X0136902Y0169290D01*
X0136359Y0167979D01*
X0135355Y0166975D01*
X0134043Y0166431D01*
X0132623Y0166431D01*
X0131312Y0166975D01*
X0130333Y0167953D01*
X0130333Y0167799D02*
X0130488Y0167799D01*
X0130333Y0167001D02*
X0131286Y0167001D01*
X0130333Y0166202D02*
X0166566Y0166202D01*
X0167364Y0167001D02*
X0135380Y0167001D01*
X0136179Y0167799D02*
X0191362Y0167799D01*
X0191662Y0167499D02*
X0192747Y0167050D01*
X0193920Y0167050D01*
X0195004Y0167499D01*
X0195834Y0168329D01*
X0196283Y0169413D01*
X0196283Y0170587D01*
X0195834Y0171671D01*
X0195004Y0172501D01*
X0193920Y0172950D01*
X0192747Y0172950D01*
X0191662Y0172501D01*
X0190832Y0171671D01*
X0190383Y0170587D01*
X0190383Y0169413D01*
X0190832Y0168329D01*
X0191662Y0167499D01*
X0190721Y0168598D02*
X0136615Y0168598D01*
X0136902Y0169396D02*
X0190390Y0169396D01*
X0190383Y0170195D02*
X0136902Y0170195D01*
X0136784Y0170993D02*
X0190552Y0170993D01*
X0190953Y0171792D02*
X0136454Y0171792D01*
X0135790Y0172590D02*
X0191878Y0172590D01*
X0194789Y0172590D02*
X0202911Y0172590D01*
X0201959Y0171792D02*
X0195714Y0171792D01*
X0196115Y0170993D02*
X0201055Y0170993D01*
X0200594Y0170195D02*
X0196283Y0170195D01*
X0196276Y0169396D02*
X0200133Y0169396D01*
X0199672Y0168598D02*
X0195945Y0168598D01*
X0195304Y0167799D02*
X0199383Y0167799D01*
X0199243Y0167001D02*
X0184303Y0167001D01*
X0185101Y0166202D02*
X0199102Y0166202D01*
X0198961Y0165403D02*
X0185900Y0165403D01*
X0186698Y0164605D02*
X0198960Y0164605D01*
X0199100Y0163806D02*
X0187497Y0163806D01*
X0188295Y0163008D02*
X0199241Y0163008D01*
X0199382Y0162209D02*
X0189094Y0162209D01*
X0189292Y0161411D02*
X0199667Y0161411D01*
X0200128Y0160612D02*
X0189292Y0160612D01*
X0189292Y0159814D02*
X0200589Y0159814D01*
X0201050Y0159015D02*
X0189292Y0159015D01*
X0189292Y0158217D02*
X0201949Y0158217D01*
X0202901Y0157418D02*
X0189292Y0157418D01*
X0189292Y0156620D02*
X0204166Y0156620D01*
X0206360Y0155821D02*
X0189292Y0155821D01*
X0189292Y0155023D02*
X0216320Y0155023D01*
X0216320Y0155821D02*
X0210307Y0155821D01*
X0212500Y0156620D02*
X0216321Y0156620D01*
X0216321Y0157418D02*
X0213766Y0157418D01*
X0214718Y0158217D02*
X0216322Y0158217D01*
X0216322Y0159015D02*
X0215617Y0159015D01*
X0216078Y0159814D02*
X0216323Y0159814D01*
X0216319Y0154224D02*
X0189292Y0154224D01*
X0189292Y0153426D02*
X0216319Y0153426D01*
X0216318Y0152627D02*
X0195699Y0152627D01*
X0196004Y0152501D02*
X0194920Y0152950D01*
X0193747Y0152950D01*
X0192662Y0152501D01*
X0191832Y0151671D01*
X0191383Y0150587D01*
X0191383Y0149413D01*
X0191832Y0148329D01*
X0192662Y0147499D01*
X0193747Y0147050D01*
X0194920Y0147050D01*
X0196004Y0147499D01*
X0196834Y0148329D01*
X0197283Y0149413D01*
X0197283Y0150587D01*
X0196834Y0151671D01*
X0196004Y0152501D01*
X0196676Y0151829D02*
X0216317Y0151829D01*
X0216317Y0151030D02*
X0197100Y0151030D01*
X0197283Y0150232D02*
X0216316Y0150232D01*
X0216316Y0149433D02*
X0197283Y0149433D01*
X0196961Y0148635D02*
X0216315Y0148635D01*
X0216315Y0147836D02*
X0196341Y0147836D01*
X0192325Y0147836D02*
X0189292Y0147836D01*
X0189292Y0147038D02*
X0216314Y0147038D01*
X0216314Y0146239D02*
X0188542Y0146239D01*
X0187744Y0145441D02*
X0216313Y0145441D01*
X0216313Y0144642D02*
X0186945Y0144642D01*
X0186147Y0143844D02*
X0216312Y0143844D01*
X0216311Y0143045D02*
X0185348Y0143045D01*
X0184550Y0142247D02*
X0216311Y0142247D01*
X0216310Y0141448D02*
X0184541Y0141448D01*
X0185697Y0140650D02*
X0216310Y0140650D01*
X0216309Y0139851D02*
X0192654Y0139851D01*
X0192504Y0140001D02*
X0191420Y0140450D01*
X0190247Y0140450D01*
X0189162Y0140001D01*
X0188332Y0139171D01*
X0187883Y0138087D01*
X0187883Y0136913D01*
X0188332Y0135829D01*
X0189162Y0134999D01*
X0190247Y0134550D01*
X0191420Y0134550D01*
X0192504Y0134999D01*
X0193334Y0135829D01*
X0193783Y0136913D01*
X0193783Y0138087D01*
X0193334Y0139171D01*
X0192504Y0140001D01*
X0193383Y0139053D02*
X0216309Y0139053D01*
X0216308Y0138254D02*
X0193714Y0138254D01*
X0193783Y0137456D02*
X0216308Y0137456D01*
X0216307Y0136657D02*
X0193677Y0136657D01*
X0193346Y0135859D02*
X0216307Y0135859D01*
X0216306Y0135060D02*
X0192565Y0135060D01*
X0189101Y0135060D02*
X0177363Y0135060D01*
X0176792Y0134262D02*
X0216305Y0134262D01*
X0216305Y0133463D02*
X0176792Y0133463D01*
X0176792Y0132665D02*
X0216304Y0132665D01*
X0216304Y0131866D02*
X0176792Y0131866D01*
X0172592Y0131866D02*
X0164669Y0131866D01*
X0164246Y0131443D02*
X0168433Y0135630D01*
X0168433Y0145370D01*
X0165433Y0148370D01*
X0165433Y0151394D01*
X0166939Y0152900D01*
X0181261Y0152900D01*
X0181662Y0152499D01*
X0182747Y0152050D01*
X0183920Y0152050D01*
X0185004Y0152499D01*
X0185092Y0152586D01*
X0185092Y0148728D01*
X0172592Y0136228D01*
X0172592Y0134488D01*
X0172592Y0131443D01*
X0164246Y0131443D01*
X0165468Y0132665D02*
X0172592Y0132665D01*
X0172592Y0133463D02*
X0166266Y0133463D01*
X0167065Y0134262D02*
X0172592Y0134262D01*
X0172592Y0135060D02*
X0167863Y0135060D01*
X0168433Y0135859D02*
X0172592Y0135859D01*
X0173021Y0136657D02*
X0168433Y0136657D01*
X0168433Y0137456D02*
X0173819Y0137456D01*
X0174618Y0138254D02*
X0168433Y0138254D01*
X0168433Y0139053D02*
X0175416Y0139053D01*
X0176215Y0139851D02*
X0168433Y0139851D01*
X0168433Y0140650D02*
X0177013Y0140650D01*
X0177812Y0141448D02*
X0168433Y0141448D01*
X0168433Y0142247D02*
X0178610Y0142247D01*
X0179409Y0143045D02*
X0168433Y0143045D01*
X0168433Y0143844D02*
X0180207Y0143844D01*
X0181006Y0144642D02*
X0168433Y0144642D01*
X0168362Y0145441D02*
X0181804Y0145441D01*
X0182603Y0146239D02*
X0167564Y0146239D01*
X0166765Y0147038D02*
X0183401Y0147038D01*
X0184200Y0147836D02*
X0165967Y0147836D01*
X0165433Y0148635D02*
X0184998Y0148635D01*
X0185092Y0149433D02*
X0165433Y0149433D01*
X0165433Y0150232D02*
X0185092Y0150232D01*
X0185092Y0151030D02*
X0165433Y0151030D01*
X0165868Y0151829D02*
X0185092Y0151829D01*
X0181534Y0152627D02*
X0166667Y0152627D01*
X0158580Y0158217D02*
X0152323Y0158217D01*
X0151920Y0158050D02*
X0153004Y0158499D01*
X0153834Y0159329D01*
X0154283Y0160413D01*
X0154283Y0161587D01*
X0153834Y0162671D01*
X0153004Y0163501D01*
X0151920Y0163950D01*
X0150747Y0163950D01*
X0149662Y0163501D01*
X0149561Y0163400D01*
X0136605Y0163400D01*
X0136504Y0163501D01*
X0135420Y0163950D01*
X0134247Y0163950D01*
X0133162Y0163501D01*
X0132332Y0162671D01*
X0131883Y0161587D01*
X0131883Y0160413D01*
X0132332Y0159329D01*
X0133162Y0158499D01*
X0134247Y0158050D01*
X0135420Y0158050D01*
X0136504Y0158499D01*
X0136605Y0158600D01*
X0149561Y0158600D01*
X0149662Y0158499D01*
X0150747Y0158050D01*
X0151920Y0158050D01*
X0150344Y0158217D02*
X0135823Y0158217D01*
X0133844Y0158217D02*
X0130333Y0158217D01*
X0130333Y0159015D02*
X0132646Y0159015D01*
X0132132Y0159814D02*
X0130333Y0159814D01*
X0130333Y0160612D02*
X0131883Y0160612D01*
X0131883Y0161411D02*
X0130333Y0161411D01*
X0130333Y0162209D02*
X0132141Y0162209D01*
X0132669Y0163008D02*
X0130333Y0163008D01*
X0130333Y0163806D02*
X0133900Y0163806D01*
X0135767Y0163806D02*
X0150400Y0163806D01*
X0152267Y0163806D02*
X0164170Y0163806D01*
X0163371Y0163008D02*
X0153497Y0163008D01*
X0154025Y0162209D02*
X0162573Y0162209D01*
X0161774Y0161411D02*
X0154283Y0161411D01*
X0154283Y0160612D02*
X0160976Y0160612D01*
X0160177Y0159814D02*
X0154035Y0159814D01*
X0153521Y0159015D02*
X0159379Y0159015D01*
X0157782Y0157418D02*
X0130333Y0157418D01*
X0130333Y0156620D02*
X0156983Y0156620D01*
X0156185Y0155821D02*
X0130333Y0155821D01*
X0130333Y0155023D02*
X0155386Y0155023D01*
X0154588Y0154224D02*
X0130333Y0154224D01*
X0130333Y0153426D02*
X0153789Y0153426D01*
X0152991Y0152627D02*
X0130333Y0152627D01*
X0130333Y0151829D02*
X0137192Y0151829D01*
X0136394Y0151030D02*
X0130333Y0151030D01*
X0130333Y0150232D02*
X0135595Y0150232D01*
X0134797Y0149433D02*
X0130333Y0149433D01*
X0130333Y0148635D02*
X0133998Y0148635D01*
X0133200Y0147836D02*
X0130333Y0147836D01*
X0130333Y0147038D02*
X0132401Y0147038D01*
X0131603Y0146239D02*
X0130333Y0146239D01*
X0130333Y0145441D02*
X0131233Y0145441D01*
X0131233Y0144642D02*
X0130333Y0144642D01*
X0130333Y0143844D02*
X0131233Y0143844D01*
X0131233Y0143045D02*
X0130333Y0143045D01*
X0130333Y0142247D02*
X0131233Y0142247D01*
X0131233Y0141448D02*
X0130333Y0141448D01*
X0130333Y0140650D02*
X0131233Y0140650D01*
X0131233Y0139851D02*
X0130333Y0139851D01*
X0130333Y0139053D02*
X0131233Y0139053D01*
X0131233Y0138254D02*
X0130333Y0138254D01*
X0130333Y0137456D02*
X0131233Y0137456D01*
X0131233Y0136657D02*
X0130333Y0136657D01*
X0130333Y0135859D02*
X0131233Y0135859D01*
X0131233Y0135060D02*
X0130333Y0135060D01*
X0130333Y0134262D02*
X0131233Y0134262D01*
X0131233Y0133463D02*
X0130333Y0133463D01*
X0130333Y0132665D02*
X0131233Y0132665D01*
X0131233Y0131866D02*
X0130333Y0131866D01*
X0130333Y0131068D02*
X0131233Y0131068D01*
X0131233Y0130269D02*
X0130333Y0130269D01*
X0130333Y0129470D02*
X0131233Y0129470D01*
X0131233Y0128672D02*
X0130333Y0128672D01*
X0130333Y0127873D02*
X0131233Y0127873D01*
X0131233Y0127075D02*
X0130333Y0127075D01*
X0130333Y0126276D02*
X0131233Y0126276D01*
X0131233Y0125478D02*
X0130333Y0125478D01*
X0130333Y0124679D02*
X0131233Y0124679D01*
X0131233Y0123881D02*
X0130333Y0123881D01*
X0130333Y0123082D02*
X0131233Y0123082D01*
X0131233Y0122284D02*
X0130333Y0122284D01*
X0130333Y0121485D02*
X0131233Y0121485D01*
X0131233Y0120687D02*
X0130333Y0120687D01*
X0130333Y0119888D02*
X0131233Y0119888D01*
X0131233Y0119090D02*
X0130333Y0119090D01*
X0130333Y0118291D02*
X0131233Y0118291D01*
X0131233Y0117493D02*
X0130333Y0117493D01*
X0130333Y0116694D02*
X0130856Y0116694D01*
X0130511Y0115896D02*
X0130333Y0115896D01*
X0130333Y0115097D02*
X0130383Y0115097D01*
X0130333Y0114299D02*
X0130431Y0114299D01*
X0130333Y0113500D02*
X0130761Y0113500D01*
X0130333Y0112702D02*
X0131460Y0112702D01*
X0130333Y0111903D02*
X0145533Y0111903D01*
X0145533Y0111105D02*
X0130333Y0111105D01*
X0130333Y0110306D02*
X0145533Y0110306D01*
X0145533Y0109508D02*
X0130333Y0109508D01*
X0130333Y0108709D02*
X0145533Y0108709D01*
X0145533Y0107911D02*
X0130333Y0107911D01*
X0130333Y0107112D02*
X0145533Y0107112D01*
X0145533Y0106314D02*
X0130333Y0106314D01*
X0130333Y0105515D02*
X0145533Y0105515D01*
X0145533Y0104717D02*
X0130333Y0104717D01*
X0130333Y0103918D02*
X0145533Y0103918D01*
X0145533Y0103120D02*
X0130333Y0103120D01*
X0130333Y0102321D02*
X0145533Y0102321D01*
X0145533Y0101523D02*
X0130333Y0101523D01*
X0130333Y0100724D02*
X0145533Y0100724D01*
X0145533Y0099926D02*
X0130333Y0099926D01*
X0130333Y0099127D02*
X0145533Y0099127D01*
X0145533Y0098329D02*
X0130333Y0098329D01*
X0130333Y0097530D02*
X0145533Y0097530D01*
X0145533Y0096732D02*
X0130333Y0096732D01*
X0130333Y0095933D02*
X0145533Y0095933D01*
X0145533Y0095134D02*
X0130333Y0095134D01*
X0130333Y0094336D02*
X0145533Y0094336D01*
X0145533Y0093537D02*
X0130333Y0093537D01*
X0130333Y0092739D02*
X0145533Y0092739D01*
X0145533Y0091940D02*
X0130333Y0091940D01*
X0130333Y0091142D02*
X0145533Y0091142D01*
X0145533Y0090343D02*
X0130333Y0090343D01*
X0130333Y0089545D02*
X0145533Y0089545D01*
X0145533Y0088746D02*
X0130333Y0088746D01*
X0130333Y0087948D02*
X0145533Y0087948D01*
X0145533Y0087149D02*
X0130333Y0087149D01*
X0130333Y0086351D02*
X0145533Y0086351D01*
X0145533Y0085552D02*
X0130333Y0085552D01*
X0130333Y0084754D02*
X0145533Y0084754D01*
X0145533Y0083955D02*
X0130333Y0083955D01*
X0130333Y0083157D02*
X0145533Y0083157D01*
X0145533Y0082358D02*
X0130333Y0082358D01*
X0130333Y0081560D02*
X0145533Y0081560D01*
X0145533Y0080761D02*
X0130333Y0080761D01*
X0130333Y0079963D02*
X0145533Y0079963D01*
X0145533Y0079164D02*
X0130333Y0079164D01*
X0130333Y0078366D02*
X0145533Y0078366D01*
X0145533Y0077567D02*
X0130333Y0077567D01*
X0130333Y0076769D02*
X0145533Y0076769D01*
X0145533Y0075970D02*
X0130333Y0075970D01*
X0130333Y0075172D02*
X0145533Y0075172D01*
X0145533Y0074373D02*
X0130333Y0074373D01*
X0130333Y0073575D02*
X0145533Y0073575D01*
X0145533Y0072776D02*
X0130333Y0072776D01*
X0130333Y0071978D02*
X0145533Y0071978D01*
X0145533Y0071179D02*
X0130333Y0071179D01*
X0130333Y0070381D02*
X0145533Y0070381D01*
X0145533Y0069582D02*
X0140574Y0069582D01*
X0141762Y0068784D02*
X0144622Y0068784D01*
X0143833Y0067985D02*
X0142468Y0067985D01*
X0142943Y0067187D02*
X0143502Y0067187D01*
X0138733Y0067187D02*
X0137933Y0067187D01*
X0137933Y0067985D02*
X0138733Y0067985D01*
X0138733Y0068784D02*
X0137933Y0068784D01*
X0137933Y0069582D02*
X0138733Y0069582D01*
X0136093Y0069582D02*
X0130333Y0069582D01*
X0130333Y0068784D02*
X0134904Y0068784D01*
X0134198Y0067985D02*
X0130333Y0067985D01*
X0130333Y0067187D02*
X0133724Y0067187D01*
X0133422Y0066388D02*
X0130333Y0066388D01*
X0130333Y0065590D02*
X0133263Y0065590D01*
X0133329Y0063993D02*
X0130333Y0063993D01*
X0130333Y0064791D02*
X0137933Y0064791D01*
X0137933Y0065590D02*
X0138733Y0065590D01*
X0138733Y0066388D02*
X0137933Y0066388D01*
X0133558Y0063194D02*
X0130333Y0063194D01*
X0130333Y0062396D02*
X0133936Y0062396D01*
X0151133Y0069582D02*
X0155546Y0069582D01*
X0154622Y0068784D02*
X0152045Y0068784D01*
X0152834Y0067985D02*
X0153833Y0067985D01*
X0153502Y0067187D02*
X0153164Y0067187D01*
X0151133Y0070381D02*
X0216262Y0070381D01*
X0216262Y0071179D02*
X0211290Y0071179D01*
X0213241Y0071978D02*
X0216263Y0071978D01*
X0216263Y0072776D02*
X0214193Y0072776D01*
X0215144Y0073575D02*
X0216264Y0073575D01*
X0216264Y0074373D02*
X0215823Y0074373D01*
X0216261Y0069582D02*
X0201121Y0069582D01*
X0202045Y0068784D02*
X0216261Y0068784D01*
X0216260Y0067985D02*
X0215395Y0067985D01*
X0216193Y0067187D02*
X0216260Y0067187D01*
X0211272Y0067985D02*
X0202834Y0067985D01*
X0203164Y0067187D02*
X0210473Y0067187D01*
X0210046Y0066388D02*
X0203495Y0066388D01*
X0203633Y0065590D02*
X0209765Y0065590D01*
X0209765Y0064791D02*
X0203633Y0064791D01*
X0203633Y0063993D02*
X0209888Y0063993D01*
X0210219Y0063194D02*
X0203322Y0063194D01*
X0202991Y0062396D02*
X0210891Y0062396D01*
X0195546Y0069582D02*
X0191121Y0069582D01*
X0192045Y0068784D02*
X0194622Y0068784D01*
X0193833Y0067985D02*
X0192834Y0067985D01*
X0193164Y0067187D02*
X0193502Y0067187D01*
X0185546Y0069582D02*
X0181121Y0069582D01*
X0182045Y0068784D02*
X0184622Y0068784D01*
X0183833Y0067985D02*
X0182834Y0067985D01*
X0183164Y0067187D02*
X0183502Y0067187D01*
X0175546Y0069582D02*
X0171121Y0069582D01*
X0172045Y0068784D02*
X0174622Y0068784D01*
X0173833Y0067985D02*
X0172834Y0067985D01*
X0173164Y0067187D02*
X0173502Y0067187D01*
X0165546Y0069582D02*
X0161121Y0069582D01*
X0162045Y0068784D02*
X0164622Y0068784D01*
X0163833Y0067985D02*
X0162834Y0067985D01*
X0163164Y0067187D02*
X0163502Y0067187D01*
X0151133Y0071179D02*
X0205377Y0071179D01*
X0203426Y0071978D02*
X0151133Y0071978D01*
X0151133Y0072776D02*
X0202474Y0072776D01*
X0201522Y0073575D02*
X0151133Y0073575D01*
X0151133Y0074373D02*
X0200843Y0074373D01*
X0200382Y0075172D02*
X0151133Y0075172D01*
X0151133Y0075970D02*
X0199921Y0075970D01*
X0199460Y0076769D02*
X0151133Y0076769D01*
X0151133Y0077567D02*
X0199319Y0077567D01*
X0199178Y0078366D02*
X0151133Y0078366D01*
X0151133Y0079164D02*
X0199037Y0079164D01*
X0198896Y0079963D02*
X0151133Y0079963D01*
X0151133Y0080761D02*
X0199024Y0080761D01*
X0199165Y0081560D02*
X0151133Y0081560D01*
X0161674Y0082358D02*
X0199306Y0082358D01*
X0199447Y0083157D02*
X0162220Y0083157D01*
X0162380Y0083955D02*
X0199878Y0083955D01*
X0200339Y0084754D02*
X0162059Y0084754D01*
X0161596Y0085552D02*
X0200800Y0085552D01*
X0201434Y0086351D02*
X0162129Y0086351D01*
X0162359Y0087149D02*
X0197507Y0087149D01*
X0199160Y0087149D02*
X0202385Y0087149D01*
X0203337Y0087948D02*
X0200453Y0087948D01*
X0201007Y0088746D02*
X0205173Y0088746D01*
X0211494Y0088746D02*
X0216274Y0088746D01*
X0216274Y0087948D02*
X0213330Y0087948D01*
X0214281Y0087149D02*
X0216273Y0087149D01*
X0216273Y0086351D02*
X0215233Y0086351D01*
X0215866Y0085552D02*
X0216272Y0085552D01*
X0216275Y0089545D02*
X0201283Y0089545D01*
X0201283Y0090343D02*
X0216275Y0090343D01*
X0216276Y0091142D02*
X0201053Y0091142D01*
X0200565Y0091940D02*
X0216276Y0091940D01*
X0216277Y0092739D02*
X0199430Y0092739D01*
X0189575Y0102321D02*
X0216284Y0102321D01*
X0216283Y0101523D02*
X0151133Y0101523D01*
X0151133Y0102321D02*
X0172092Y0102321D01*
X0171042Y0103120D02*
X0151133Y0103120D01*
X0151133Y0103918D02*
X0170588Y0103918D01*
X0170383Y0104717D02*
X0151133Y0104717D01*
X0151133Y0105515D02*
X0169848Y0105515D01*
X0169050Y0106314D02*
X0151133Y0106314D01*
X0151133Y0107112D02*
X0168251Y0107112D01*
X0167453Y0107911D02*
X0151133Y0107911D01*
X0152804Y0108709D02*
X0166654Y0108709D01*
X0165856Y0109508D02*
X0154013Y0109508D01*
X0154532Y0110306D02*
X0165057Y0110306D01*
X0164259Y0111105D02*
X0154832Y0111105D01*
X0155631Y0111903D02*
X0163460Y0111903D01*
X0162749Y0112702D02*
X0156429Y0112702D01*
X0157228Y0113500D02*
X0162749Y0113500D01*
X0162749Y0114299D02*
X0158026Y0114299D01*
X0158825Y0115097D02*
X0162749Y0115097D01*
X0162749Y0115896D02*
X0159181Y0115896D01*
X0159486Y0116694D02*
X0162749Y0116694D01*
X0162749Y0117493D02*
X0159783Y0117493D01*
X0159783Y0118291D02*
X0162749Y0118291D01*
X0153883Y0118291D02*
X0135433Y0118291D01*
X0135433Y0117493D02*
X0146654Y0117493D01*
X0145856Y0116694D02*
X0135811Y0116694D01*
X0136155Y0115896D02*
X0145511Y0115896D01*
X0145383Y0115097D02*
X0136283Y0115097D01*
X0136236Y0114299D02*
X0145431Y0114299D01*
X0145533Y0113500D02*
X0135905Y0113500D01*
X0135207Y0112702D02*
X0145533Y0112702D01*
X0151283Y0115097D02*
X0152037Y0115097D01*
X0152835Y0115896D02*
X0151155Y0115896D01*
X0150811Y0116694D02*
X0153634Y0116694D01*
X0153883Y0117493D02*
X0150012Y0117493D01*
X0147133Y0119090D02*
X0147132Y0119090D01*
X0145472Y0119090D02*
X0135433Y0119090D01*
X0135433Y0119888D02*
X0145142Y0119888D01*
X0145142Y0120687D02*
X0135433Y0120687D01*
X0135433Y0121485D02*
X0145142Y0121485D01*
X0145142Y0122284D02*
X0135433Y0122284D01*
X0135433Y0123082D02*
X0145142Y0123082D01*
X0145142Y0123881D02*
X0135433Y0123881D01*
X0135433Y0124679D02*
X0145142Y0124679D01*
X0145142Y0125478D02*
X0135433Y0125478D01*
X0135433Y0126276D02*
X0145142Y0126276D01*
X0145142Y0127075D02*
X0135433Y0127075D01*
X0135433Y0127873D02*
X0145142Y0127873D01*
X0145142Y0128672D02*
X0135433Y0128672D01*
X0135433Y0129470D02*
X0145142Y0129470D01*
X0145207Y0130269D02*
X0135433Y0130269D01*
X0135433Y0131068D02*
X0145864Y0131068D01*
X0147001Y0131866D02*
X0135433Y0131866D01*
X0135433Y0132665D02*
X0147528Y0132665D01*
X0148327Y0133463D02*
X0135433Y0133463D01*
X0135433Y0134262D02*
X0149125Y0134262D01*
X0148945Y0135329D02*
X0150112Y0135812D01*
X0151005Y0136706D01*
X0151488Y0137872D01*
X0151488Y0139135D01*
X0151005Y0140302D01*
X0150112Y0141195D01*
X0148945Y0141679D01*
X0147682Y0141679D01*
X0146515Y0141195D01*
X0145622Y0140302D01*
X0145139Y0139135D01*
X0145139Y0137872D01*
X0145622Y0136706D01*
X0146515Y0135812D01*
X0147682Y0135329D01*
X0148945Y0135329D01*
X0149924Y0135060D02*
X0135433Y0135060D01*
X0135433Y0135859D02*
X0146469Y0135859D01*
X0145671Y0136657D02*
X0135433Y0136657D01*
X0135433Y0137456D02*
X0145311Y0137456D01*
X0145139Y0138254D02*
X0135433Y0138254D01*
X0135433Y0139053D02*
X0145139Y0139053D01*
X0145435Y0139851D02*
X0135433Y0139851D01*
X0135433Y0140650D02*
X0145970Y0140650D01*
X0147125Y0141448D02*
X0135433Y0141448D01*
X0135433Y0142247D02*
X0162233Y0142247D01*
X0162233Y0143045D02*
X0135433Y0143045D01*
X0135433Y0143844D02*
X0161520Y0143844D01*
X0160721Y0144642D02*
X0135945Y0144642D01*
X0136744Y0145441D02*
X0159923Y0145441D01*
X0159124Y0146239D02*
X0137542Y0146239D01*
X0138341Y0147038D02*
X0158326Y0147038D01*
X0156325Y0147836D02*
X0139139Y0147836D01*
X0149502Y0141448D02*
X0162233Y0141448D01*
X0162233Y0140650D02*
X0150658Y0140650D01*
X0151192Y0139851D02*
X0162233Y0139851D01*
X0162233Y0139053D02*
X0151488Y0139053D01*
X0151488Y0138254D02*
X0162118Y0138254D01*
X0161319Y0137456D02*
X0151316Y0137456D01*
X0150957Y0136657D02*
X0160521Y0136657D01*
X0159722Y0135859D02*
X0150158Y0135859D01*
X0154938Y0148635D02*
X0155706Y0148635D01*
X0178162Y0135859D02*
X0181509Y0135859D01*
X0180710Y0136657D02*
X0178960Y0136657D01*
X0179759Y0137456D02*
X0180351Y0137456D01*
X0185198Y0135859D02*
X0188320Y0135859D01*
X0187989Y0136657D02*
X0185996Y0136657D01*
X0186355Y0137456D02*
X0187883Y0137456D01*
X0187953Y0138254D02*
X0186528Y0138254D01*
X0186528Y0139053D02*
X0188283Y0139053D01*
X0189013Y0139851D02*
X0186231Y0139851D01*
X0185803Y0131068D02*
X0216303Y0131068D01*
X0216303Y0130269D02*
X0186460Y0130269D01*
X0186525Y0129470D02*
X0216302Y0129470D01*
X0216302Y0128672D02*
X0186525Y0128672D01*
X0186525Y0127873D02*
X0216301Y0127873D01*
X0216301Y0127075D02*
X0186525Y0127075D01*
X0186525Y0126276D02*
X0216300Y0126276D01*
X0216299Y0125478D02*
X0186525Y0125478D01*
X0186525Y0124679D02*
X0216299Y0124679D01*
X0216298Y0123881D02*
X0186525Y0123881D01*
X0186525Y0123082D02*
X0216298Y0123082D01*
X0216297Y0122284D02*
X0186525Y0122284D01*
X0186525Y0121485D02*
X0216297Y0121485D01*
X0216296Y0120687D02*
X0186525Y0120687D01*
X0186525Y0119888D02*
X0216296Y0119888D01*
X0216295Y0119090D02*
X0186194Y0119090D01*
X0184534Y0119090D02*
X0184534Y0119090D01*
X0182697Y0118291D02*
X0191453Y0118291D01*
X0195214Y0118291D02*
X0216295Y0118291D01*
X0216294Y0117493D02*
X0205012Y0117493D01*
X0205811Y0116694D02*
X0216293Y0116694D01*
X0216293Y0115896D02*
X0206155Y0115896D01*
X0206283Y0115097D02*
X0216292Y0115097D01*
X0216292Y0114299D02*
X0206236Y0114299D01*
X0205905Y0113500D02*
X0216291Y0113500D01*
X0216291Y0112702D02*
X0205207Y0112702D01*
X0203206Y0111903D02*
X0216290Y0111903D01*
X0216290Y0111105D02*
X0184698Y0111105D01*
X0185497Y0110306D02*
X0216289Y0110306D01*
X0216288Y0109508D02*
X0186295Y0109508D01*
X0187094Y0108709D02*
X0216288Y0108709D01*
X0216287Y0107911D02*
X0189015Y0107911D01*
X0190393Y0107112D02*
X0216287Y0107112D01*
X0216286Y0106314D02*
X0190982Y0106314D01*
X0191283Y0105515D02*
X0216286Y0105515D01*
X0216285Y0104717D02*
X0191283Y0104717D01*
X0191078Y0103918D02*
X0216285Y0103918D01*
X0216284Y0103120D02*
X0190625Y0103120D01*
X0187092Y0102321D02*
X0184575Y0102321D01*
X0185625Y0103120D02*
X0186042Y0103120D01*
X0182092Y0102321D02*
X0179575Y0102321D01*
X0180625Y0103120D02*
X0181042Y0103120D01*
X0177092Y0102321D02*
X0174575Y0102321D01*
X0175625Y0103120D02*
X0176042Y0103120D01*
X0196283Y0115896D02*
X0200511Y0115896D01*
X0200856Y0116694D02*
X0196239Y0116694D01*
X0195908Y0117493D02*
X0201654Y0117493D01*
X0184534Y0130269D02*
X0184534Y0130269D01*
X0184534Y0131068D02*
X0184534Y0131068D01*
X0182566Y0131068D02*
X0182566Y0131068D01*
X0189292Y0148635D02*
X0191706Y0148635D01*
X0191383Y0149433D02*
X0189292Y0149433D01*
X0189292Y0150232D02*
X0191383Y0150232D01*
X0191567Y0151030D02*
X0189292Y0151030D01*
X0189292Y0151829D02*
X0191990Y0151829D01*
X0192968Y0152627D02*
X0189292Y0152627D01*
X0165767Y0165403D02*
X0130333Y0165403D01*
X0130333Y0164605D02*
X0164968Y0164605D01*
X0151133Y0100724D02*
X0216282Y0100724D01*
X0216282Y0099926D02*
X0151133Y0099926D01*
X0151133Y0099127D02*
X0216281Y0099127D01*
X0216281Y0098329D02*
X0151133Y0098329D01*
X0151133Y0097530D02*
X0216280Y0097530D01*
X0216280Y0096732D02*
X0151133Y0096732D01*
X0151133Y0095933D02*
X0216279Y0095933D01*
X0216279Y0095134D02*
X0151133Y0095134D01*
X0151133Y0094336D02*
X0216278Y0094336D01*
X0216278Y0093537D02*
X0151133Y0093537D01*
D17*
X0164849Y0113484D02*
X0173333Y0105000D01*
X0178333Y0105000D02*
X0166818Y0116516D01*
X0166818Y0124921D01*
X0164849Y0124921D02*
X0164849Y0113484D01*
X0172723Y0115610D02*
X0183333Y0105000D01*
X0187833Y0105000D02*
X0176660Y0116173D01*
X0176660Y0124921D01*
X0174692Y0124921D02*
X0174692Y0135358D01*
X0187192Y0147858D01*
X0187192Y0161142D01*
X0183333Y0165000D01*
X0168333Y0165000D01*
X0153333Y0150000D01*
X0138333Y0150000D01*
X0133333Y0145000D01*
X0133333Y0115000D01*
X0147133Y0124921D02*
X0147133Y0132201D01*
X0145833Y0133500D01*
X0138333Y0133500D01*
X0149101Y0131268D02*
X0151333Y0133500D01*
X0160333Y0133500D01*
X0164333Y0137500D01*
X0164333Y0144000D01*
X0158333Y0150000D01*
X0163333Y0152264D02*
X0166070Y0155000D01*
X0183333Y0155000D01*
X0166333Y0144500D02*
X0163333Y0147500D01*
X0163333Y0152264D01*
X0166333Y0144500D02*
X0166333Y0136500D01*
X0161333Y0131500D01*
X0151833Y0131500D01*
X0151070Y0130736D01*
X0151070Y0124921D01*
X0149101Y0124921D02*
X0149101Y0131268D01*
X0172723Y0124921D02*
X0172723Y0115610D01*
X0178629Y0116705D02*
X0181833Y0113500D01*
X0201833Y0113500D01*
X0203333Y0115000D01*
X0193333Y0116000D02*
X0192833Y0115500D01*
X0182333Y0115500D01*
X0180597Y0117236D01*
X0180597Y0124921D01*
X0178629Y0124921D02*
X0178629Y0116705D01*
X0182566Y0117768D02*
X0182833Y0117500D01*
X0183833Y0117500D01*
X0184534Y0118201D01*
X0184534Y0124921D01*
X0184534Y0130736D01*
X0185798Y0132000D01*
X0196333Y0132000D01*
X0182566Y0124921D02*
X0182566Y0117768D01*
X0187833Y0105000D02*
X0188333Y0105000D01*
D18*
X0161333Y0113000D02*
X0161333Y0118000D01*
X0156833Y0118000D02*
X0156833Y0116500D01*
X0151833Y0111500D01*
X0158333Y0110000D02*
X0161333Y0113000D01*
X0169987Y0134654D02*
X0169987Y0141654D01*
X0173333Y0145000D01*
X0179640Y0145000D01*
X0179987Y0144654D01*
X0151333Y0161000D02*
X0134833Y0161000D01*
M02*
