G75*
%MOIN*%
%OFA0B0*%
%FSLAX25Y25*%
%IPPOS*%
%LPD*%
%AMOC8*
5,1,8,0,0,1.08239X$1,22.5*
%
%ADD10R,0.01181X0.03150*%
%ADD11R,0.03740X0.03937*%
D10*
X0139392Y0118500D03*
X0141360Y0118500D03*
X0143329Y0118500D03*
X0145297Y0118500D03*
X0147266Y0118500D03*
X0149234Y0118500D03*
X0151203Y0118500D03*
X0153171Y0118500D03*
X0155140Y0118500D03*
X0157108Y0118500D03*
X0159077Y0118500D03*
X0161045Y0118500D03*
X0163014Y0118500D03*
X0164982Y0118500D03*
X0166951Y0118500D03*
X0168919Y0118500D03*
X0170888Y0118500D03*
X0172856Y0118500D03*
X0174825Y0118500D03*
X0176793Y0118500D03*
X0241392Y0118500D03*
X0243360Y0118500D03*
X0245329Y0118500D03*
X0247297Y0118500D03*
X0249266Y0118500D03*
X0251234Y0118500D03*
X0253203Y0118500D03*
X0255171Y0118500D03*
X0257140Y0118500D03*
X0259108Y0118500D03*
X0261077Y0118500D03*
X0263045Y0118500D03*
X0265014Y0118500D03*
X0266982Y0118500D03*
X0268951Y0118500D03*
X0270919Y0118500D03*
X0272888Y0118500D03*
X0274856Y0118500D03*
X0276825Y0118500D03*
X0278793Y0118500D03*
X0343392Y0118500D03*
X0345360Y0118500D03*
X0347329Y0118500D03*
X0349297Y0118500D03*
X0351266Y0118500D03*
X0353234Y0118500D03*
X0355203Y0118500D03*
X0357171Y0118500D03*
X0359140Y0118500D03*
X0361108Y0118500D03*
X0363077Y0118500D03*
X0365045Y0118500D03*
X0367014Y0118500D03*
X0368982Y0118500D03*
X0370951Y0118500D03*
X0372919Y0118500D03*
X0374888Y0118500D03*
X0376856Y0118500D03*
X0378825Y0118500D03*
X0380793Y0118500D03*
X0380793Y0240500D03*
X0378825Y0240500D03*
X0376856Y0240500D03*
X0374888Y0240500D03*
X0372919Y0240500D03*
X0370951Y0240500D03*
X0368982Y0240500D03*
X0367014Y0240500D03*
X0365045Y0240500D03*
X0363077Y0240500D03*
X0361108Y0240500D03*
X0359140Y0240500D03*
X0357171Y0240500D03*
X0355203Y0240500D03*
X0353234Y0240500D03*
X0351266Y0240500D03*
X0349297Y0240500D03*
X0347329Y0240500D03*
X0345360Y0240500D03*
X0343392Y0240500D03*
X0278793Y0240500D03*
X0276825Y0240500D03*
X0274856Y0240500D03*
X0272888Y0240500D03*
X0270919Y0240500D03*
X0268951Y0240500D03*
X0266982Y0240500D03*
X0265014Y0240500D03*
X0263045Y0240500D03*
X0261077Y0240500D03*
X0259108Y0240500D03*
X0257140Y0240500D03*
X0255171Y0240500D03*
X0253203Y0240500D03*
X0251234Y0240500D03*
X0249266Y0240500D03*
X0247297Y0240500D03*
X0245329Y0240500D03*
X0243360Y0240500D03*
X0241392Y0240500D03*
X0176793Y0240500D03*
X0174825Y0240500D03*
X0172856Y0240500D03*
X0170888Y0240500D03*
X0168919Y0240500D03*
X0166951Y0240500D03*
X0164982Y0240500D03*
X0163014Y0240500D03*
X0161045Y0240500D03*
X0159077Y0240500D03*
X0157108Y0240500D03*
X0155140Y0240500D03*
X0153171Y0240500D03*
X0151203Y0240500D03*
X0149234Y0240500D03*
X0147266Y0240500D03*
X0145297Y0240500D03*
X0143329Y0240500D03*
X0141360Y0240500D03*
X0139392Y0240500D03*
X0139392Y0362500D03*
X0141360Y0362500D03*
X0143329Y0362500D03*
X0145297Y0362500D03*
X0147266Y0362500D03*
X0149234Y0362500D03*
X0151203Y0362500D03*
X0153171Y0362500D03*
X0155140Y0362500D03*
X0157108Y0362500D03*
X0159077Y0362500D03*
X0161045Y0362500D03*
X0163014Y0362500D03*
X0164982Y0362500D03*
X0166951Y0362500D03*
X0168919Y0362500D03*
X0170888Y0362500D03*
X0172856Y0362500D03*
X0174825Y0362500D03*
X0176793Y0362500D03*
X0241392Y0362500D03*
X0243360Y0362500D03*
X0245329Y0362500D03*
X0247297Y0362500D03*
X0249266Y0362500D03*
X0251234Y0362500D03*
X0253203Y0362500D03*
X0255171Y0362500D03*
X0257140Y0362500D03*
X0259108Y0362500D03*
X0261077Y0362500D03*
X0263045Y0362500D03*
X0265014Y0362500D03*
X0266982Y0362500D03*
X0268951Y0362500D03*
X0270919Y0362500D03*
X0272888Y0362500D03*
X0274856Y0362500D03*
X0276825Y0362500D03*
X0278793Y0362500D03*
X0343392Y0362500D03*
X0345360Y0362500D03*
X0347329Y0362500D03*
X0349297Y0362500D03*
X0351266Y0362500D03*
X0353234Y0362500D03*
X0355203Y0362500D03*
X0357171Y0362500D03*
X0359140Y0362500D03*
X0361108Y0362500D03*
X0363077Y0362500D03*
X0365045Y0362500D03*
X0367014Y0362500D03*
X0368982Y0362500D03*
X0370951Y0362500D03*
X0372919Y0362500D03*
X0374888Y0362500D03*
X0376856Y0362500D03*
X0378825Y0362500D03*
X0380793Y0362500D03*
D11*
X0134569Y0129130D03*
X0181616Y0129130D03*
X0236569Y0129130D03*
X0283616Y0129130D03*
X0338569Y0129130D03*
X0385616Y0129130D03*
X0385616Y0251130D03*
X0338569Y0251130D03*
X0283616Y0251130D03*
X0236569Y0251130D03*
X0181616Y0251130D03*
X0134569Y0251130D03*
X0134569Y0373130D03*
X0181616Y0373130D03*
X0236569Y0373130D03*
X0283616Y0373130D03*
X0338569Y0373130D03*
X0385616Y0373130D03*
M02*
