%
M48
M72
T01C0.0150
T02C0.0315
T03C0.0400
T04C0.1300
%
T01
X4875Y6850
X6225Y8000
X5875Y8350
X6725Y8650
X7175Y8650
X6875Y7850
X8375Y7350
X8875Y7350
X9375Y7350
X9875Y7350
X10375Y8450
X11375Y8350
X11875Y6650
X10875Y5850
X14575Y8350
X16075Y8350
X16425Y8000
X17075Y7850
X16925Y8650
X17375Y8650
X18575Y7350
X19075Y7350
X19575Y7350
X20075Y7350
X20575Y8450
X21575Y8350
X22075Y6650
X21075Y5850
X24775Y8350
X26275Y8350
X26625Y8000
X27275Y7850
X27125Y8650
X27575Y8650
X28775Y7350
X29275Y7350
X29775Y7350
X30275Y7350
X30775Y8450
X31775Y8350
X32275Y6650
X31275Y5850
X31075Y10050
X30525Y10600
X29440Y11315
X29775Y12350
X30525Y12350
X30875Y11850
X30775Y13850
X29025Y13850
X26775Y13350
X26575Y12950
X26925Y12550
X27275Y11850
X28440Y10315
X25275Y10850
X24925Y12950
X20675Y11850
X20325Y12350
X19575Y12350
X19240Y11315
X20325Y10600
X20875Y10050
X18240Y10315
X17075Y11850
X16725Y12550
X16375Y12950
X16575Y13350
X14725Y12950
X15075Y10850
X18825Y13850
X20575Y13850
X21075Y17550
X22075Y18350
X21575Y20050
X20575Y20150
X20075Y19050
X19575Y19050
X19075Y19050
X18575Y19050
X17075Y19550
X16425Y19700
X16075Y20050
X16925Y20350
X17375Y20350
X18240Y22015
X19240Y23015
X20325Y22300
X20875Y21750
X20675Y23550
X20325Y24050
X19575Y24050
X18825Y25550
X20575Y25550
X17075Y23550
X16725Y24250
X16375Y24650
X16575Y25050
X14725Y24650
X15075Y22550
X14575Y20050
X15075Y18550
X11875Y18350
X10875Y17550
X9875Y19050
X9375Y19050
X8875Y19050
X8375Y19050
X6875Y19550
X6225Y19700
X5875Y20050
X6725Y20350
X7175Y20350
X8040Y22015
X9040Y23015
X10125Y22300
X10675Y21750
X10375Y20150
X11375Y20050
X10475Y23550
X10125Y24050
X9375Y24050
X8625Y25550
X10375Y25550
X6875Y23550
X6525Y24250
X6175Y24650
X6375Y25050
X4525Y24650
X4875Y22550
X4375Y20050
X4875Y18550
X8625Y13850
X9375Y12350
X10125Y12350
X10475Y11850
X10125Y10600
X10675Y10050
X9040Y11315
X8040Y10315
X6875Y11850
X6525Y12550
X6175Y12950
X6375Y13350
X4525Y12950
X4875Y10850
X4375Y8350
X10375Y13850
X15075Y6850
X25275Y6850
X31275Y17550
X32275Y18350
X31775Y20050
X30775Y20150
X30275Y19050
X29775Y19050
X29275Y19050
X28775Y19050
X27275Y19550
X26625Y19700
X26275Y20050
X27125Y20350
X27575Y20350
X28440Y22015
X29440Y23015
X30525Y22300
X31075Y21750
X30875Y23550
X30525Y24050
X29775Y24050
X29025Y25550
X30775Y25550
X27275Y23550
X26925Y24250
X26575Y24650
X26775Y25050
X24925Y24650
X25275Y22550
X24775Y20050
X25275Y18550
X21075Y29250
X22075Y30050
X21575Y31750
X20575Y31850
X20075Y30750
X19575Y30750
X19075Y30750
X18575Y30750
X17075Y31250
X16425Y31400
X16075Y31750
X16925Y32050
X17375Y32050
X18240Y33715
X19240Y34715
X20325Y34000
X20875Y33450
X20675Y35250
X20325Y35750
X19575Y35750
X18825Y37250
X20575Y37250
X17075Y35250
X16725Y35950
X16375Y36350
X16575Y36750
X14725Y36350
X15075Y34250
X14575Y31750
X15075Y30250
X11875Y30050
X10875Y29250
X9875Y30750
X9375Y30750
X8875Y30750
X8375Y30750
X6875Y31250
X6225Y31400
X5875Y31750
X6725Y32050
X7175Y32050
X8040Y33715
X9040Y34715
X10125Y34000
X10675Y33450
X10375Y31850
X11375Y31750
X10475Y35250
X10125Y35750
X9375Y35750
X8625Y37250
X10375Y37250
X6875Y35250
X6525Y35950
X6175Y36350
X6375Y36750
X4525Y36350
X4875Y34250
X4375Y31750
X4875Y30250
X24775Y31750
X26275Y31750
X26625Y31400
X27125Y32050
X27575Y32050
X27275Y31250
X28775Y30750
X29275Y30750
X29775Y30750
X30275Y30750
X30775Y31850
X31775Y31750
X32275Y30050
X31275Y29250
X31075Y33450
X30525Y34000
X29440Y34715
X29775Y35750
X30525Y35750
X30875Y35250
X30775Y37250
X29025Y37250
X26775Y36750
X26575Y36350
X26925Y35950
X27275Y35250
X28440Y33715
X25275Y34250
X24925Y36350
X25275Y30250
T02
X26273Y34100
X29777Y34100
X19577Y34100
X16073Y34100
X9377Y34100
X5873Y34100
X5873Y22400
X9377Y22400
X16073Y22400
X19577Y22400
X26273Y22400
X29777Y22400
X29777Y10700
X26273Y10700
X19577Y10700
X16073Y10700
X9377Y10700
X5873Y10700
T03
X4875Y3350
X5875Y3350
X6875Y3350
X7875Y3350
X8875Y3350
X9875Y3350
X10875Y3350
X15075Y3350
X16075Y3350
X17075Y3350
X18075Y3350
X19075Y3350
X20075Y3350
X21075Y3350
X25275Y3350
X26275Y3350
X27275Y3350
X28275Y3350
X29275Y3350
X30275Y3350
X31275Y3350
X31275Y15050
X30275Y15050
X29275Y15050
X28275Y15050
X27275Y15050
X26275Y15050
X25275Y15050
X21075Y15050
X20075Y15050
X19075Y15050
X18075Y15050
X17075Y15050
X16075Y15050
X15075Y15050
X10875Y15050
X9875Y15050
X8875Y15050
X7875Y15050
X6875Y15050
X5875Y15050
X4875Y15050
X4875Y26750
X5875Y26750
X6875Y26750
X7875Y26750
X8875Y26750
X9875Y26750
X10875Y26750
X15075Y26750
X16075Y26750
X17075Y26750
X18075Y26750
X19075Y26750
X20075Y26750
X21075Y26750
X25275Y26750
X26275Y26750
X27275Y26750
X28275Y26750
X29275Y26750
X30275Y26750
X31275Y26750
T04
X32275Y28250
X32275Y25050
X32275Y16550
X32275Y13350
X32275Y4850
X22075Y4850
X22075Y13350
X22075Y16550
X22075Y25050
X22075Y28250
X22075Y36750
X11875Y36750
X11875Y28250
X11875Y25050
X11875Y16550
X11875Y13350
X11875Y4850
X32275Y36750
M30
