%
M48
M72
T01C0.0150
T02C0.0400
T03C0.1300
%
T01
X4875Y6850
X4375Y8350
X5875Y8350
X6225Y8000
X6875Y7850
X6725Y8650
X7175Y8650
X8375Y7350
X8875Y7350
X9375Y7350
X9875Y7350
X10375Y8450
X11375Y8350
X11875Y6650
X10875Y5850
X7875Y6450
X7575Y10850
X5875Y10850
X4875Y10850
X4525Y12950
X6275Y13850
X6475Y13350
X6775Y12650
X8625Y13850
X9375Y12850
X10375Y13850
X12375Y12150
X10275Y11150
X14575Y8350
X15075Y6850
X16425Y8000
X16075Y8350
X16925Y8650
X17375Y8650
X17075Y7850
X18575Y7350
X19075Y7350
X19575Y7350
X20075Y7350
X20575Y8450
X21575Y8350
X22075Y6650
X21075Y5850
X18075Y6450
X17775Y10850
X16075Y10850
X15075Y10850
X14725Y12950
X16475Y13850
X16675Y13350
X16975Y12650
X18825Y13850
X19575Y12850
X20575Y13850
X22575Y12150
X20475Y11150
X24925Y12950
X26675Y13850
X26875Y13350
X27175Y12650
X27975Y10850
X26275Y10850
X25275Y10850
X27125Y8650
X27575Y8650
X27275Y7850
X26625Y8000
X26275Y8350
X24775Y8350
X25275Y6850
X28275Y6450
X28775Y7350
X29275Y7350
X29775Y7350
X30275Y7350
X30775Y8450
X31775Y8350
X32275Y6650
X31275Y5850
X30675Y11150
X29775Y12850
X29025Y13850
X30775Y13850
X32775Y12150
X31275Y18050
X32275Y18850
X31775Y20550
X30775Y20650
X30275Y19550
X29775Y19550
X29275Y19550
X28775Y19550
X28275Y18650
X27275Y20050
X26625Y20200
X26275Y20550
X27125Y20850
X27575Y20850
X27975Y23050
X26275Y23050
X25275Y23050
X24925Y25150
X26675Y26050
X26875Y25550
X27175Y24850
X29025Y26050
X29775Y25050
X30775Y26050
X32775Y24350
X30675Y23350
X25275Y19050
X24775Y20550
X22075Y18850
X21075Y18050
X20075Y19550
X19575Y19550
X19075Y19550
X18575Y19550
X18075Y18650
X17075Y20050
X16425Y20200
X16075Y20550
X16925Y20850
X17375Y20850
X17775Y23050
X16075Y23050
X15075Y23050
X14725Y25150
X16475Y26050
X16675Y25550
X16975Y24850
X18825Y26050
X19575Y25050
X20575Y26050
X22575Y24350
X20475Y23350
X20575Y20650
X21575Y20550
X15075Y19050
X14575Y20550
X11875Y18850
X10875Y18050
X9875Y19550
X9375Y19550
X8875Y19550
X8375Y19550
X7875Y18650
X6875Y20050
X6225Y20200
X5875Y20550
X6725Y20850
X7175Y20850
X7575Y23050
X5875Y23050
X4875Y23050
X4525Y25150
X6275Y26050
X6475Y25550
X6775Y24850
X8625Y26050
X9375Y25050
X10375Y26050
X12375Y24350
X10275Y23350
X10375Y20650
X11375Y20550
X4875Y19050
X4375Y20550
X10875Y30250
X11875Y31050
X11375Y32750
X10375Y32850
X9875Y31750
X9375Y31750
X8875Y31750
X8375Y31750
X7875Y30850
X6875Y32250
X6225Y32400
X5875Y32750
X6725Y33050
X7175Y33050
X7575Y35250
X5875Y35250
X4875Y35250
X4525Y37350
X6275Y38250
X6475Y37750
X6775Y37050
X8625Y38250
X9375Y37250
X10375Y38250
X12375Y36550
X10275Y35550
X14575Y32750
X15075Y31250
X16425Y32400
X16075Y32750
X16925Y33050
X17375Y33050
X17075Y32250
X18575Y31750
X19075Y31750
X19575Y31750
X20075Y31750
X20575Y32850
X21575Y32750
X22075Y31050
X21075Y30250
X18075Y30850
X17775Y35250
X16075Y35250
X15075Y35250
X14725Y37350
X16475Y38250
X16675Y37750
X16975Y37050
X18825Y38250
X19575Y37250
X20575Y38250
X22575Y36550
X20475Y35550
X24925Y37350
X26675Y38250
X26875Y37750
X27175Y37050
X27975Y35250
X26275Y35250
X25275Y35250
X27125Y33050
X27575Y33050
X27275Y32250
X26625Y32400
X26275Y32750
X24775Y32750
X25275Y31250
X28275Y30850
X28775Y31750
X29275Y31750
X29775Y31750
X30275Y31750
X30775Y32850
X31775Y32750
X32275Y31050
X31275Y30250
X30675Y35550
X29775Y37250
X29025Y38250
X30775Y38250
X32775Y36550
X4875Y31250
X4375Y32750
T02
X4875Y3350
X5875Y3350
X6875Y3350
X7875Y3350
X8875Y3350
X9875Y3350
X10875Y3350
X15075Y3350
X16075Y3350
X17075Y3350
X18075Y3350
X19075Y3350
X20075Y3350
X21075Y3350
X25275Y3350
X26275Y3350
X27275Y3350
X28275Y3350
X29275Y3350
X30275Y3350
X31275Y3350
X31275Y15550
X30275Y15550
X29275Y15550
X28275Y15550
X27275Y15550
X26275Y15550
X25275Y15550
X21075Y15550
X20075Y15550
X19075Y15550
X18075Y15550
X17075Y15550
X16075Y15550
X15075Y15550
X10875Y15550
X9875Y15550
X8875Y15550
X7875Y15550
X6875Y15550
X5875Y15550
X4875Y15550
X4875Y27750
X5875Y27750
X6875Y27750
X7875Y27750
X8875Y27750
X9875Y27750
X10875Y27750
X15075Y27750
X16075Y27750
X17075Y27750
X18075Y27750
X19075Y27750
X20075Y27750
X21075Y27750
X25275Y27750
X26275Y27750
X27275Y27750
X28275Y27750
X29275Y27750
X30275Y27750
X31275Y27750
T03
X32275Y29250
X32275Y26050
X32275Y17050
X32275Y13850
X32275Y4850
X22075Y4850
X22075Y13850
X22075Y17050
X22075Y26050
X22075Y29250
X22075Y38250
X11875Y38250
X11875Y29250
X11875Y26050
X11875Y17050
X11875Y13850
X11875Y4850
X32275Y38250
M30
